<?xml version="1.0" encoding="UTF-8"?>
<svg id="Layer_1" data-name="Layer 1" xmlns="http://www.w3.org/2000/svg" viewBox="0 0 230.412 134.597">
  <defs>
    <style>
      .cls-1 {
        stroke: #ad0000;
      }

      .cls-1, .cls-2, .cls-3 {
        stroke-width: .906px;
      }

      .cls-1, .cls-2, .cls-3, .cls-4 {
        stroke-miterlimit: 10;
      }

      .cls-1, .cls-5 {
        fill: #ff2727;
      }

      .cls-2, .cls-4 {
        fill: #437a89;
        stroke: #3ca6bf;
      }

      .cls-6 {
        fill: #fff;
      }

      .cls-7 {
        fill: #02182b;
      }

      .cls-3 {
        stroke: #f03127;
      }

      .cls-3, .cls-8 {
        fill: #f03127;
      }

      .cls-9 {
        fill: #3f0000;
      }

      .cls-10 {
        fill: #701111;
      }

      .cls-11 {
        fill: #ad0000;
      }

      .cls-12 {
        fill: #191919;
      }
    </style>
  </defs>
  <path class="cls-10" d="M46.976,62.483c5.581,0,9.818,1.445,12.707,4.335s4.335,7.126,4.335,12.708v17.783c0,5.583-1.445,9.818-4.335,12.708s-7.126,4.335-12.707,4.335h-28.897v-51.867h28.897ZM50.68,79.526c0-4.446-2.223-6.669-6.669-6.669h-12.596v31.12h12.596c4.446,0,6.669-2.223,6.669-6.669v-17.783Z"/>
  <path class="cls-9" d="M46.976,115.223h-29.77v-53.612h29.77c5.796,0,10.279,1.544,13.324,4.59,3.046,3.046,4.59,7.529,4.59,13.325v17.783c0,5.795-1.544,10.278-4.59,13.325-3.045,3.046-7.528,4.59-13.324,4.59ZM18.951,113.478h28.025c5.316,0,9.384-1.372,12.09-4.079,2.707-2.707,4.079-6.775,4.079-12.091v-17.783c0-5.315-1.372-9.383-4.079-12.091-2.706-2.706-6.774-4.079-12.09-4.079h-28.025v50.122ZM44.011,104.85h-13.468v-32.865h13.468c4.934,0,7.542,2.608,7.542,7.541v17.783c0,4.934-2.608,7.541-7.542,7.541ZM32.288,103.104h11.723c3.955,0,5.796-1.842,5.796-5.796v-17.783c0-3.954-1.842-5.796-5.796-5.796h-11.723v29.375Z"/>
  <path class="cls-11" d="M21.459,110.97v-45.105h25.517c4.627,0,8.098,1.125,10.316,3.344,2.219,2.22,3.344,5.691,3.344,10.317v17.783c0,4.626-1.125,8.098-3.344,10.317-2.219,2.219-5.689,3.344-10.316,3.344h-25.517ZM28.035,107.358h15.976c6.293,0,10.05-3.757,10.05-10.05v-17.783c0-6.293-3.757-10.049-10.05-10.049h-15.976v37.882Z"/>
  <path class="cls-8" d="M46.976,111.493h-26.04v-46.153h26.04c4.771,0,8.366,1.177,10.687,3.497,2.321,2.321,3.498,5.917,3.498,10.687v17.783c0,4.77-1.177,8.366-3.498,10.687-2.32,2.321-5.916,3.497-10.687,3.497ZM21.983,110.446h24.993c4.483,0,7.829-1.073,9.946-3.191,2.117-2.118,3.191-5.464,3.191-9.947v-17.783c0-4.483-1.074-7.829-3.191-9.947-2.117-2.117-5.463-3.191-9.946-3.191h-24.993v44.058ZM44.011,107.881h-16.5v-38.929h16.5c6.621,0,10.574,3.952,10.574,10.573v17.783c0,6.621-3.953,10.573-10.574,10.573ZM28.558,106.834h15.453c5.965,0,9.527-3.561,9.527-9.526v-17.783c0-5.965-3.561-9.526-9.527-9.526h-15.453v36.835Z"/>
  <path class="cls-10" d="M103.821,62.483h13.337v37.789c0,5.187-1.174,8.954-3.519,11.3-2.347,2.347-6.112,3.52-11.299,3.52h-17.043c-5.187,0-8.953-1.173-11.299-3.52-2.347-2.346-3.519-6.113-3.519-11.3v-37.789h13.337v37.789c0,2.964,1.481,4.446,4.445,4.446h11.115c2.964,0,4.445-1.482,4.445-4.446v-37.789Z"/>
  <path class="cls-9" d="M102.34,115.964h-17.043c-5.403,0-9.413-1.27-11.916-3.776-2.505-2.504-3.775-6.513-3.775-11.917v-38.661h15.082v38.661c0,2.471,1.102,3.574,3.572,3.574h11.115c2.471,0,3.572-1.102,3.572-3.574v-38.661h15.083v38.661c0,5.402-1.27,9.412-3.775,11.917-2.504,2.505-6.514,3.776-11.916,3.776ZM71.352,63.356v36.916c0,4.924,1.098,8.518,3.264,10.682,2.165,2.166,5.759,3.265,10.682,3.265h17.043c4.923,0,8.517-1.098,10.682-3.264,2.166-2.166,3.264-5.76,3.264-10.683v-36.916h-11.592v36.916c0,3.43-1.889,5.319-5.318,5.319h-11.115c-3.429,0-5.318-1.889-5.318-5.319v-36.916h-11.592Z"/>
  <path class="cls-11" d="M85.297,111.711c-4.234,0-7.231-.851-8.908-2.529-1.679-1.678-2.53-4.676-2.53-8.91v-34.408h6.575v34.408c0,4.828,2.999,7.827,7.826,7.827h11.115c4.827,0,7.826-2.999,7.826-7.827v-34.408h6.575v34.408c0,4.233-.851,7.231-2.529,8.909-1.678,1.679-4.675,2.53-8.909,2.53h-17.043Z"/>
  <path class="cls-8" d="M102.34,112.234h-17.043c-4.377,0-7.499-.903-9.278-2.682-1.78-1.779-2.683-4.902-2.683-9.28v-34.931h7.623v34.931c0,4.505,2.798,7.303,7.302,7.303h11.115c4.504,0,7.302-2.799,7.302-7.303v-34.931h7.622v34.931c0,4.377-.902,7.499-2.682,9.279-1.78,1.78-4.902,2.683-9.279,2.683ZM74.383,66.388v33.884c0,4.09.8,6.963,2.376,8.54,1.576,1.576,4.448,2.376,8.538,2.376h17.043c4.089,0,6.962-.799,8.538-2.376,1.576-1.576,2.376-4.449,2.376-8.539v-33.884h-5.528v33.884c0,5.151-3.199,8.351-8.35,8.351h-11.115c-5.15,0-8.349-3.2-8.349-8.351v-33.884h-5.528Z"/>
  <path class="cls-10" d="M164.713,114.35h-41.123v-51.867h41.123v10.373h-27.786v10.003h21.857v10.373h-21.857v10.744h27.786v10.373Z"/>
  <path class="cls-9" d="M165.586,115.223h-42.868v-53.612h42.868v12.119h-27.786v8.257h21.858v12.119h-21.858v8.999h27.786v12.119ZM124.463,113.478h39.378v-8.628h-27.786v-12.489h21.858v-8.628h-21.858v-11.748h27.786v-8.628h-39.378v50.122Z"/>
  <polygon class="cls-11" points="126.971 110.97 126.971 65.864 161.333 65.864 161.333 69.476 133.546 69.476 133.546 86.24 155.404 86.24 155.404 89.852 133.546 89.852 133.546 107.358 161.333 107.358 161.333 110.97 126.971 110.97"/>
  <path class="cls-8" d="M161.856,111.493h-35.409v-46.153h35.409v4.659h-27.786v15.717h21.858v4.659h-21.858v16.459h27.786v4.659ZM127.495,110.446h33.314v-2.564h-27.786v-18.553h21.858v-2.564h-21.858v-17.811h27.786v-2.565h-33.314v44.058Z"/>
  <path class="cls-10" d="M184.512,103.977h27.044v10.373h-40.381v-51.867h13.337v41.493Z"/>
  <path class="cls-9" d="M212.429,115.223h-42.127v-53.612h15.082v41.493h27.044v12.119ZM172.048,113.478h38.636v-8.628h-27.044v-41.493h-11.592v50.122Z"/>
  <polygon class="cls-11" points="174.556 110.97 174.556 65.864 181.131 65.864 181.131 107.358 208.175 107.358 208.175 110.97 174.556 110.97"/>
  <path class="cls-8" d="M208.699,111.493h-34.667v-46.153h7.623v41.494h27.044v4.659ZM175.079,110.446h32.572v-2.564h-27.044v-41.494h-5.528v44.058Z"/>
  <path class="cls-7" d="M58.223,56.375h-31.828l-5.434-13.074h17.837l-9.683-21.869-15.177,34.944H0v-13.074h5.512L24.066,1.38h10.092l24.065,54.996Z"/>
  <polygon class="cls-4" points="28.828 52.655 26.649 47.674 44.514 47.674 29.114 12.242 11.516 52.655 3.72 52.655 3.72 47.674 7.934 47.674 26.488 5.1 31.737 5.1 52.507 52.655 28.828 52.655"/>
  <path class="cls-7" d="M111.628,56.375h-46.579V1.38h46.579v12.421h-34.158v8.539h26.395v12.421h-26.395v8.539h34.158v13.074Z"/>
  <polygon class="cls-4" points="68.769 52.655 68.769 5.1 107.908 5.1 107.908 10.081 73.75 10.081 73.75 26.06 100.145 26.06 100.145 31.041 73.75 31.041 73.75 47.674 107.908 47.674 107.908 52.655 68.769 52.655"/>
  <path class="cls-7" d="M168.969,56.375h-17.289l-19.253-21.614,5.434-12.421h14.362c1.19,0,2.199-.414,3.028-1.242.827-.828,1.242-1.837,1.242-3.028s-.415-2.199-1.242-3.028c-.829-.827-1.838-1.242-3.028-1.242h-21.349v42.574h-12.421V1.38h33.77c4.606,0,8.539,1.63,11.8,4.891,3.26,3.26,4.891,7.194,4.891,11.8s-1.628,8.539-4.881,11.8c-3.254,3.26-7.179,4.891-11.775,4.891l-2.789-.038,19.499,21.652Z"/>
  <path class="cls-4" d="M153.315,52.655l-16.507-18.624,3.487-7.97h11.929c2.175,0,4.132-.806,5.657-2.331,1.526-1.527,2.332-3.484,2.332-5.659s-.805-4.129-2.329-5.656c-1.531-1.528-3.487-2.334-5.661-2.334h-25.069v42.574h-4.981V5.1h30.05c3.612,0,6.612,1.243,9.169,3.801,2.558,2.558,3.802,5.558,3.802,9.17s-1.241,6.613-3.794,9.172c-2.545,2.55-5.527,3.793-9.117,3.798l-11.454-.156,19.608,21.77h-7.123Z"/>
  <path class="cls-12" d="M12.911,134.597l-4.273-4.288h-2.077v4.288H.275v-14.674h18.314v3.919c0,2.466-.925,4.327-2.615,5.404l5.195,5.351h-8.257Z"/>
  <path class="cls-6" d="M6.013,126.026h6.299c1.092,0,1.709-.602,1.867-1.693H4.762v8.467h-2.69v-11.079h14.719v2.121c0,2.802-1.362,4.337-4.083,4.621l4.21,4.337h-3.261l-4.273-4.289h-3.371v-2.485Z"/>
  <path class="cls-12" d="M16.206,134.597v-7.351c0-4.517,2.811-7.322,7.337-7.322h10.091v6.207h-10.044c-.876,0-1.099.114-1.099,1.162v1.084h11.142v6.221h-17.428Z"/>
  <path class="cls-6" d="M31.836,132.799h-13.833v-5.554c0-3.467,2.01-5.525,5.54-5.525h8.293v2.612h-8.246c-1.931,0-2.896.981-2.896,2.959v2.882h11.142v2.626Z"/>
  <path class="cls-12" d="M49.898,134.597v-4.288h-5.426v4.288h-6.286v-7.351c0-4.517,2.805-7.322,7.321-7.322h10.693v14.674h-6.302Z"/>
  <path class="cls-6" d="M54.402,132.799h-2.707v-4.289h-9.021v4.289h-2.691v-5.554c0-3.467,2.01-5.525,5.524-5.525h8.896v11.079ZM51.695,124.332h-4.875c-3.229,0-3.751.711-3.973,1.741h8.847v-1.741Z"/>
  <path class="cls-12" d="M61.914,134.597c-4.388,0-7.336-2.936-7.336-7.305v-7.369h17.649v6.207h-.285v2.246h.285v6.221h-10.313Z"/>
  <path class="cls-6" d="M70.429,124.332h-11.364v1.693h11.079v2.485h-10.937c.332,1.076,1.108,1.662,2.754,1.662h8.468v2.626h-8.515c-3.435,0-5.54-2.12-5.54-5.508v-5.571h14.054v2.612Z"/>
  <path class="cls-12" d="M82.891,134.597l-4.273-4.288h-2.078v4.288h-6.285v-14.674h18.314v3.919c0,2.466-.924,4.327-2.615,5.404l5.195,5.351h-8.257Z"/>
  <path class="cls-6" d="M75.993,126.026h6.299c1.092,0,1.709-.602,1.867-1.693h-9.417v8.467h-2.69v-11.079h14.719v2.121c0,2.802-1.362,4.337-4.084,4.621l4.21,4.337h-3.261l-4.273-4.289h-3.371v-2.485Z"/>
  <rect class="cls-12" x="86.929" y="119.923" width="6.286" height="14.674"/>
  <path class="cls-6" d="M91.417,132.799h-2.691v-11.079h2.691v11.079Z"/>
  <path class="cls-12" d="M103.343,134.597v-4.288h-5.426v4.288h-6.286v-7.351c0-4.517,2.806-7.322,7.322-7.322h10.692v14.674h-6.303Z"/>
  <path class="cls-6" d="M107.849,132.799h-2.708v-4.289h-9.021v4.289h-2.691v-5.554c0-3.467,2.01-5.525,5.525-5.525h8.895v11.079ZM105.141,124.332h-4.874c-3.23,0-3.752.711-3.973,1.741h8.847v-1.741Z"/>
  <path class="cls-12" d="M108.134,134.597v-14.674h6.285v8.453h3.979c.853,0,.938-.248,1.007-.448l.416-1.214h6.194l-.351,2.095c-.608,3.624-3.305,5.788-7.217,5.788h-10.313Z"/>
  <path class="cls-6" d="M112.621,121.72v8.453h5.777c1.424,0,2.326-.554,2.706-1.662h2.786c-.476,2.833-2.454,4.289-5.445,4.289h-8.515v-11.079h2.69Z"/>
  <path class="cls-12" d="M129.829,134.597v-7.351c0-4.517,2.811-7.322,7.337-7.322h10.091v6.207h-10.044c-.876,0-1.098.114-1.098,1.162v1.084h11.142v6.221h-17.428Z"/>
  <path class="cls-6" d="M145.459,132.799h-13.833v-5.554c0-3.467,2.01-5.525,5.54-5.525h8.293v2.612h-8.247c-1.931,0-2.896.981-2.896,2.959v2.882h11.142v2.626Z"/>
  <path class="cls-12" d="M145.285,134.597v-7.351c0-4.448,2.88-7.322,7.337-7.322h10.96v7.369c0,4.438-2.874,7.305-7.321,7.305h-10.977ZM156.198,128.376c.624,0,.893-.064.992-.098.036-.101.108-.384.108-1.032v-1.116h-4.63c-.618,0-.89.066-.988.1-.037.103-.11.391-.11,1.062v1.084h4.628Z"/>
  <path class="cls-6" d="M161.785,121.72v5.571c0,3.451-2.009,5.508-5.524,5.508h-9.18v-5.554c0-3.388,2.041-5.525,5.54-5.525h9.163ZM159.095,124.332h-6.427c-2.215,0-2.896.68-2.896,2.959v2.882h6.426c2.169,0,2.897-.634,2.897-2.928v-2.913Z"/>
  <path class="cls-12" d="M175.904,134.597v-7.336c0-.949-.17-1.109-.87-1.129v8.465h-6.301v-8.467h-.52v8.467h-6.269v-14.674h12.908c4.252,0,7.338,2.893,7.338,6.879v7.795h-6.286Z"/>
  <path class="cls-6" d="M163.741,121.72h11.11c3.293,0,5.54,2.089,5.54,5.082v5.998h-2.691v-5.539c0-1.963-.95-2.928-2.849-2.928h-8.436v8.467h-2.674v-11.079ZM170.53,125.693h2.706v7.106h-2.706v-7.106Z"/>
  <path class="cls-12" d="M180.678,134.597v-14.674h13.492c3.029,0,4.837,1.719,4.837,4.599,0,1.051-.248,1.959-.71,2.677.462.751.71,1.695.71,2.783,0,2.889-1.808,4.615-4.837,4.615h-13.492Z"/>
  <path class="cls-6" d="M182.476,121.72h11.695c2.026,0,3.039.934,3.039,2.802,0,1.535-.664,2.406-1.915,2.628,1.219.253,1.915,1.171,1.915,2.833,0,1.884-1.013,2.817-3.039,2.817h-11.695v-11.079ZM185.165,130.236h8.294c.601,0,.902-.285.902-.856,0-.616-.302-.933-.902-.933h-6.395v-2.358h6.395c.601,0,.902-.317.902-.965,0-.539-.302-.808-.902-.808h-8.294v5.92Z"/>
  <path class="cls-12" d="M219.029,134.597v-8.467s-.145,0-.174.004c-.002.013-.141,1.69-.141,1.69h-6.153l.16-1.945c.316-3.841,2.683-5.956,6.666-5.956h11.025v6.207h-5.097v8.467h-6.286Z"/>
  <path class="cls-6" d="M228.614,124.332h-5.097v8.467h-2.691v-8.467h-1.867c-1.171,0-1.804.554-1.9,1.693h-2.548c.237-2.88,1.852-4.306,4.875-4.306h9.227v2.612Z"/>
  <path class="cls-12" d="M209.018,134.597v-4.288h-5.426v4.288h-6.286v-7.351c0-4.517,2.805-7.322,7.321-7.322h10.693v14.674h-6.302Z"/>
  <path class="cls-6" d="M213.523,132.799h-2.707v-4.289h-9.021v4.289h-2.691v-5.554c0-3.467,2.01-5.525,5.524-5.525h8.896v11.079ZM210.816,124.332h-4.875c-3.229,0-3.751.711-3.973,1.741h8.847v-1.741Z"/>
  <g>
    <g>
      <path class="cls-5" d="M215.271,28.253h-2.198c-.286-6.675-5.652-12.032-12.33-12.306v-2.125c0-.261-.211-.472-.472-.472s-.472.211-.472.472v2.12c-6.771.21-12.224,5.645-12.463,12.408h-2.066c-.261,0-.472.211-.472.472s.211.472.472.472h2.066c.247,6.756,5.697,12.183,12.463,12.393v2.128c0,.261.211.472.472.472s.472-.211.472-.472v-2.133c6.738-.276,12.14-5.728,12.337-12.485h2.192c.261,0,.472-.211.472-.472s-.211-.472-.472-.472ZM200.743,40.579v-4.131c0-.261-.211-.472-.472-.472s-.472.211-.472.472v4.136c-6.157-.209-11.114-5.143-11.36-11.29h4.198c.261,0,.472-.211.472-.472s-.211-.472-.472-.472h-4.199c.239-6.154,5.199-11.096,11.36-11.305v4.144c0,.261.211.472.472.472s.472-.211.472-.472v-4.139c6.069.272,10.942,5.137,11.227,11.203h-4.066c-.261,0-.472.211-.472.472s.211.472.472.472h4.073c-.196,6.149-5.105,11.108-11.234,11.382Z"/>
      <path class="cls-11" d="M200.271,44.455c-.353,0-.639-.287-.639-.64v-1.967c-6.701-.291-12.127-5.688-12.456-12.387h-1.906c-.353,0-.639-.287-.639-.639s.287-.64.639-.64h1.905c.321-6.707,5.748-12.111,12.457-12.402v-1.958c0-.353.287-.64.639-.64s.64.287.64.64v1.965c6.589.353,11.957,5.71,12.322,12.299h2.039c.353,0,.639.287.639.64s-.287.639-.639.639h-2.03c-.278,6.685-5.65,12.121-12.331,12.478v1.973c0,.353-.287.64-.64.64ZM185.27,28.518c-.167,0-.304.136-.304.304s.136.304.304.304h2.228l.006.162c.244,6.652,5.647,12.025,12.301,12.231l.163.005v2.291c0,.168.136.304.304.304s.304-.136.304-.304v-2.294l.161-.007c6.634-.272,11.983-5.685,12.176-12.323l.005-.163h2.355c.167,0,.304-.136.304-.304s-.136-.304-.304-.304h-2.359l-.007-.161c-.281-6.542-5.626-11.878-12.169-12.146l-.161-.007v-2.286c0-.168-.136-.304-.304-.304s-.304.136-.304.304v2.283l-.163.005c-6.662.207-12.065,5.586-12.301,12.246l-.006.162h-2.228ZM199.967,40.757l-.174-.006c-6.212-.211-11.273-5.241-11.522-11.451l-.007-.175h4.373c.168,0,.304-.136.304-.304s-.136-.304-.304-.304h-4.373l.007-.174c.241-6.219,5.302-11.255,11.522-11.466l.174-.006v4.318c0,.168.136.304.304.304s.304-.136.304-.304v-4.315l.175.008c6.201.278,11.096,5.163,11.387,11.363l.009.176h-4.242c-.167,0-.304.136-.304.304s.136.304.304.304h4.246l-.006.173c-.198,6.196-5.202,11.267-11.394,11.545l-.175.008v-4.307c0-.167-.136-.304-.304-.304s-.304.136-.304.304v4.31ZM188.615,29.461c.325,5.897,5.116,10.658,11.016,10.947v-3.961c0-.353.287-.639.639-.639s.64.287.64.639v3.954c5.879-.353,10.616-5.153,10.891-11.038h-3.898c-.353,0-.639-.287-.639-.639s.287-.64.639-.64h3.889c-.363-5.883-4.998-10.509-10.882-10.859v3.963c0,.353-.287.64-.64.64s-.639-.287-.639-.64v-3.969c-5.907.289-10.699,5.057-11.017,10.963h4.023c.353,0,.64.287.64.64s-.287.639-.64.639h-4.022Z"/>
    </g>
    <g>
      <path class="cls-5" d="M200.271,44.465c-.358,0-.65-.292-.65-.65v-1.957c-3.252-.144-6.308-1.485-8.623-3.787-2.314-2.302-3.671-5.35-3.832-8.599h-1.895c-.358,0-.65-.292-.65-.65s.292-.65.65-.65h1.895c.158-3.253,1.513-6.304,3.828-8.61,2.315-2.306,5.374-3.649,8.628-3.792v-1.948c0-.358.292-.65.65-.65s.65.292.65.65v1.955c3.21.174,6.227,1.518,8.51,3.797,2.283,2.279,3.632,5.292,3.812,8.501h2.029c.358,0,.65.292.65.65s-.292.65-.65.65h-2.019c-.137,3.247-1.469,6.303-3.761,8.62-2.291,2.316-5.328,3.682-8.57,3.857v1.963c0,.358-.292.65-.65.65ZM185.27,28.529c-.162,0-.293.132-.293.293s.132.293.293.293h2.238l.006.172c.118,3.223,1.444,6.253,3.735,8.531,2.291,2.279,5.33,3.59,8.555,3.69l.173.005v2.301c0,.162.132.293.293.293s.293-.132.293-.293v-2.305l.171-.007c3.215-.132,6.234-1.467,8.502-3.759,2.269-2.294,3.57-5.332,3.664-8.553l.005-.173h2.365c.162,0,.293-.132.293-.293s-.132-.293-.293-.293h-2.369l-.007-.171c-.137-3.184-1.456-6.179-3.716-8.435-2.26-2.256-5.258-3.57-8.443-3.701l-.171-.007v-2.296c0-.162-.132-.293-.293-.293s-.293.132-.293.293v2.293l-.173.005c-3.228.1-6.269,1.412-8.56,3.695-2.291,2.282-3.616,5.315-3.73,8.541l-.006.172h-2.238ZM199.978,40.768l-.184-.006c-3.022-.103-5.869-1.335-8.016-3.47-2.146-2.134-3.395-4.972-3.516-7.991l-.007-.186h4.384c.162,0,.293-.132.293-.293s-.132-.293-.293-.293h-4.384l.007-.185c.117-3.022,1.364-5.864,3.511-8.002,2.148-2.138,4.997-3.373,8.021-3.475l.184-.006v4.329c0,.162.132.293.293.293s.293-.132.293-.293v-4.326l.186.008c2.98.134,5.785,1.37,7.901,3.481,2.115,2.111,3.357,4.914,3.497,7.892l.009.187h-4.253c-.162,0-.293.132-.293.293s.132.293.293.293h4.257l-.006.184c-.096,3.017-1.319,5.863-3.444,8.014-2.123,2.149-4.95,3.406-7.961,3.541l-.186.008v-4.318c0-.162-.132-.293-.293-.293s-.293.132-.293.293v4.321ZM188.627,29.472c.16,2.859,1.364,5.54,3.402,7.567,2.039,2.028,4.729,3.216,7.592,3.359v-3.95c0-.358.292-.65.65-.65s.65.292.65.65v3.943c2.851-.174,5.521-1.386,7.536-3.426,2.018-2.042,3.197-4.732,3.333-7.59h-3.887c-.358,0-.65-.292-.65-.65s.292-.65.65-.65h3.877c-.178-2.82-1.374-5.466-3.382-7.47-2.008-2.004-4.657-3.195-7.478-3.367v3.951c0,.358-.292.65-.65.65s-.65-.292-.65-.65v-3.958c-2.865.143-5.557,1.333-7.597,3.364-2.039,2.03-3.241,4.715-3.398,7.577h4.012c.358,0,.65.292.65.65s-.292.65-.65.65h-4.011Z"/>
      <path class="cls-11" d="M200.271,44.633c-.451,0-.818-.367-.818-.818v-1.797c-3.232-.182-6.271-1.537-8.574-3.828-2.302-2.29-3.673-5.321-3.873-8.551h-1.737c-.451,0-.818-.367-.818-.818s.367-.818.818-.818h1.736c.196-3.233,1.566-6.268,3.868-8.561,2.303-2.293,5.344-3.651,8.579-3.833v-1.789c0-.451.367-.818.818-.818s.818.367.818.818v1.797c3.191.211,6.19,1.569,8.461,3.836,2.27,2.267,3.634,5.263,3.851,8.452h1.871c.451,0,.818.367.818.818s-.367.818-.818.818h-1.86c-.176,3.227-1.522,6.265-3.802,8.571-2.279,2.304-5.299,3.684-8.521,3.897v1.805c0,.451-.367.818-.818.818ZM185.27,28.34c-.266,0-.482.216-.482.482s.216.482.482.482h2.055l.008.159c.159,3.206,1.503,6.22,3.783,8.489,2.281,2.269,5.304,3.597,8.512,3.739l.16.007v2.117c0,.266.216.482.482.482s.482-.216.482-.482v-2.122l.159-.009c3.198-.173,6.202-1.525,8.459-3.807,2.259-2.284,3.577-5.306,3.712-8.509l.007-.161h2.181c.266,0,.482-.216.482-.482s-.216-.482-.482-.482h-2.187l-.009-.158c-.177-3.166-1.513-6.146-3.763-8.392-2.25-2.246-5.233-3.577-8.4-3.748l-.159-.009v-2.114c0-.266-.216-.482-.482-.482s-.482.216-.482.482v2.109l-.16.007c-3.211.142-6.236,1.471-8.517,3.744-2.281,2.271-3.623,5.29-3.779,8.499l-.008.16h-2.055ZM200.271,44.276c-.254,0-.461-.207-.461-.461l-.01-2.139c-3.268-.101-6.347-1.429-8.669-3.739-2.321-2.309-3.665-5.379-3.784-8.644v-.01h-2.077c-.254,0-.461-.207-.461-.461s.207-.461.461-.461l2.076-.01c.116-3.269,1.458-6.342,3.779-8.654,2.322-2.313,5.403-3.642,8.674-3.744h.01v-2.131c0-.254.207-.461.461-.461s.461.207.461.461l.01,2.136c3.227.132,6.265,1.464,8.555,3.75,2.289,2.285,3.627,5.32,3.765,8.546v.01h2.209c.254,0,.461.207.461.461s-.207.461-.461.461l-2.202.01c-.095,3.264-1.414,6.342-3.713,8.666-2.297,2.323-5.356,3.676-8.614,3.809h-.01v2.144c0,.254-.207.461-.461.461ZM185.27,28.696c-.069,0-.126.056-.126.126s.056.126.126.126h2.4l.012.333c.116,3.18,1.425,6.17,3.685,8.419,2.261,2.249,5.259,3.543,8.442,3.641l.335.011v2.464c0,.069.056.126.125.126s.126-.056.126-.126v-2.466l.332-.014c3.172-.13,6.152-1.448,8.389-3.71,2.239-2.264,3.523-5.261,3.616-8.44l.01-.336h2.528c.069,0,.126-.056.126-.125s-.056-.126-.126-.126h-2.531l-.014-.332c-.135-3.142-1.437-6.097-3.667-8.323-2.23-2.226-5.189-3.523-8.331-3.652l-.332-.014v-2.457c0-.069-.056-.126-.126-.126s-.125.056-.125.126v2.456l-.335.011c-3.186.099-6.186,1.394-8.447,3.646-2.261,2.252-3.568,5.245-3.681,8.428l-.012.334h-2.4ZM200.146,40.942l-.358-.012c-3.064-.104-5.951-1.354-8.129-3.519-2.177-2.164-3.443-5.042-3.565-8.103l-.014-.36h4.559c.069,0,.126-.056.126-.126s-.056-.126-.126-.126h-4.559l.014-.36c.119-3.065,1.383-5.946,3.561-8.114,2.178-2.168,5.067-3.42,8.134-3.524l.358-.012v4.502c0,.069.056.126.125.126s.126-.056.126-.126v-4.502l.362.016c3.022.136,5.867,1.389,8.012,3.53,2.145,2.141,3.404,4.983,3.545,8.003l.017.362h-4.429c-.069,0-.126.056-.126.126s.056.125.126.125h4.43l-.011.357c-.097,3.06-1.338,5.946-3.492,8.126-2.152,2.179-5.019,3.454-8.073,3.591l-.362.016v-4.493c0-.069-.056-.125-.126-.125s-.125.056-.125.125v4.494ZM188.428,29.283v.011c.12,2.976,1.351,5.775,3.467,7.879,2.117,2.105,4.924,3.32,7.903,3.422h.011s0-4.147,0-4.147c0-.254.207-.461.461-.461s.461.207.461.461v4.142h.011c2.969-.134,5.756-1.374,7.849-3.492,2.095-2.12,3.3-4.926,3.395-7.901v-.011s-4.083,0-4.083,0c-.254,0-.461-.207-.461-.461s.207-.461.461-.461h4.077v-.011c-.138-2.936-1.362-5.7-3.448-7.781-2.085-2.082-4.852-3.3-7.79-3.432h-.011s0,4.15,0,4.15c0,.254-.207.461-.461.461s-.461-.207-.461-.461v-4.155h-.011c-2.982.102-5.791,1.319-7.909,3.427-2.117,2.108-3.347,4.909-3.462,7.889v.011s4.209,0,4.209,0c.254,0,.461.207.461.461s-.207.461-.461.461h-4.209ZM199.789,40.574l-.176-.009c-2.902-.144-5.637-1.355-7.702-3.407-2.064-2.052-3.289-4.778-3.451-7.676l-.01-.177h4.188c.266,0,.482-.216.482-.482s-.216-.482-.482-.482h-4.189l.01-.177c.159-2.902,1.383-5.632,3.447-7.687,2.065-2.056,4.802-3.268,7.707-3.413l.176-.009v4.135c0,.266.216.482.482.482s.482-.216.482-.482v-4.13l.178.011c2.86.174,5.554,1.387,7.587,3.416,2.032,2.028,3.251,4.719,3.431,7.578l.011.178h-4.056c-.266,0-.482.216-.482.482s.216.482.482.482h4.063l-.009.176c-.138,2.898-1.339,5.632-3.382,7.7-2.04,2.065-4.755,3.299-7.645,3.475l-.178.011v-4.121c0-.266-.216-.482-.482-.482s-.482.216-.482.482v4.126ZM188.806,29.64c.197,2.75,1.379,5.329,3.342,7.28,1.964,1.953,4.552,3.121,7.306,3.3v-3.772c0-.451.367-.818.818-.818s.818.367.818.818v3.763c2.741-.21,5.309-1.4,7.249-3.364,1.943-1.967,3.102-4.555,3.276-7.304h-3.71c-.451,0-.818-.367-.818-.818s.367-.818.818-.818h3.697c-.213-2.71-1.388-5.255-3.32-7.183-1.932-1.928-4.48-3.098-7.192-3.306v3.771c0,.451-.367.818-.818.818s-.818-.367-.818-.818v-3.78c-2.756.18-5.346,1.349-7.311,3.305-1.963,1.954-3.144,4.537-3.338,7.29h3.833c.451,0,.818.367.818.818s-.367.818-.818.818h-3.832Z"/>
    </g>
    <path class="cls-7" d="M228.918,28.818c0,7.96-2.814,14.753-8.44,20.379-5.627,5.627-12.42,8.44-20.379,8.44s-14.753-2.813-20.379-8.44c-5.627-5.626-8.44-12.419-8.44-20.379s2.813-14.751,8.44-20.379c5.626-5.626,12.419-8.44,20.379-8.44s14.752,2.814,20.379,8.44c5.626,5.627,8.44,12.42,8.44,20.379ZM215.744,28.818c0-4.335-1.523-8.028-4.57-11.074-3.047-3.047-6.739-4.57-11.075-4.57-4.282,0-7.96,1.523-11.033,4.57-3.075,3.046-4.611,6.739-4.611,11.074s1.536,8.028,4.611,11.075c3.073,3.047,6.752,4.57,11.033,4.57,4.336,0,8.028-1.523,11.075-4.57,3.047-3.047,4.57-6.738,4.57-11.075Z"/>
    <path class="cls-2" d="M200.099,53.673c-6.93,0-12.679-2.381-17.576-7.278-4.898-4.897-7.279-10.647-7.279-17.577s2.381-12.678,7.279-17.576c4.898-4.898,10.647-7.279,17.576-7.279s12.677,2.381,17.576,7.279c4.898,4.898,7.279,10.648,7.279,17.575s-2.381,12.678-7.279,17.576c-4.898,4.898-10.647,7.279-17.575,7.279ZM200.099,9.21c-5.345,0-9.996,1.924-13.824,5.719-3.838,3.802-5.785,8.475-5.785,13.889s1.947,10.087,5.785,13.891c3.827,3.794,8.478,5.718,13.823,5.718,5.406,0,10.075-1.928,13.877-5.731,3.803-3.802,5.731-8.471,5.731-13.877s-1.928-10.075-5.731-13.877c-3.803-3.803-8.471-5.731-13.877-5.731Z"/>
    <circle class="cls-3" cx="200.271" cy="28.814" r="3.02"/>
    <path class="cls-1" d="M200.271,32.002c-1.758,0-3.188-1.43-3.188-3.188s1.43-3.188,3.188-3.188,3.188,1.43,3.188,3.188-1.43,3.188-3.188,3.188ZM200.271,25.962c-1.573,0-2.852,1.279-2.852,2.852s1.279,2.852,2.852,2.852,2.852-1.279,2.852-2.852-1.279-2.852-2.852-2.852Z"/>
  </g>
</svg>