<?xml version="1.0" encoding="UTF-8"?>
<svg id="Layer_1" data-name="Layer 1" xmlns="http://www.w3.org/2000/svg" viewBox="0 0 163.726 163.687">
  <defs>
    <style>
      .cls-1 {
        fill: #ad0000;
      }

      .cls-2 {
        fill: #191919;
      }
    </style>
  </defs>
  <path class="cls-2" d="M160.326,78.886h-.794s-10.706,0-10.706,0c-1.498-34.913-29.564-62.938-64.494-64.37V4.194s0-.794,0-.794c0-1.363-1.105-2.467-2.467-2.467s-2.467,1.105-2.467,2.467v.794s0,10.296,0,10.296C43.983,15.59,15.459,44.019,14.206,79.394H4.194s-.794,0-.794,0c-1.363,0-2.467,1.105-2.467,2.467,0,1.363,1.105,2.467,2.467,2.467h10.808c1.294,35.338,29.801,63.725,65.189,64.824v11.133c0,1.363,1.105,2.467,2.467,2.467s2.467-1.105,2.467-2.467v-.794s0-10.365,0-10.365c35.242-1.445,63.5-29.959,64.53-65.307h10.67s.794,0,.794,0c1.363,0,2.467-1.105,2.467-2.467s-1.105-2.467-2.467-2.467ZM84.332,143.358v-20.815s0-.794,0-.794c0-1.363-1.105-2.467-2.467-2.467s-2.467,1.105-2.467,2.467v.794s0,20.841,0,20.841c-32.203-1.094-58.131-26.901-59.419-59.055h21.959c1.363,0,2.467-1.105,2.467-2.467s-1.105-2.467-2.467-2.467h-.794s-21.168,0-21.168,0c1.248-32.19,27.193-58.04,59.422-59.134v21.677c0,1.363,1.105,2.467,2.467,2.467,1.363,0,2.467-1.105,2.467-2.467v-.794s0-20.858,0-20.858c31.745,1.424,57.236,26.872,58.725,58.6h-21.268c-1.363,0-2.467,1.105-2.467,2.467,0,1.363,1.105,2.467,2.467,2.467h.794s20.509,0,20.509,0c-1.026,32.163-26.703,58.1-58.76,59.537Z"/>
  <path class="cls-1" d="M81.865,163.687c-1.875,0-3.401-1.526-3.401-3.401v-10.234c-17.011-.751-32.998-7.765-45.105-19.81-12.103-12.041-19.2-27.984-20.045-44.98H3.401c-1.875,0-3.401-1.526-3.401-3.401s1.526-3.401,3.401-3.401h9.91c.825-17.013,7.915-32.975,20.022-45.033,12.11-12.061,28.107-19.084,45.131-19.836V3.401c0-1.875,1.526-3.401,3.401-3.401,1.875,0,3.4,1.526,3.4,3.401v10.226c16.793.908,32.569,7.939,44.51,19.859,11.94,11.919,19,27.68,19.939,44.468h10.611c1.875,0,3.401,1.525,3.401,3.4s-1.526,3.401-3.401,3.401h-10.563c-.718,16.986-7.684,32.968-19.673,45.09-11.981,12.115-27.869,19.258-44.825,20.173v10.269c0,1.875-1.525,3.401-3.4,3.401ZM3.401,80.328c-.846,0-1.534.688-1.534,1.534,0,.846.688,1.534,1.534,1.534h11.708s.033.899.033.899c.617,16.858,7.555,32.706,19.535,44.624,11.985,11.923,27.877,18.777,44.75,19.301l.904.028v12.037c0,.846.688,1.534,1.534,1.534.846,0,1.534-.688,1.534-1.534v-12.054l.895-.037c16.818-.689,32.61-7.673,44.469-19.664,11.869-12.001,18.675-27.889,19.166-44.738l.026-.906h12.37c.846,0,1.534-.688,1.534-1.534,0-.846-.688-1.534-1.534-1.534h-12.394l-.038-.893c-.714-16.653-7.617-32.321-19.437-44.12-11.821-11.8-27.505-18.675-44.163-19.357l-.895-.037V3.401c0-.846-.688-1.534-1.534-1.534s-1.534.688-1.534,1.534v11.995l-.904.028c-16.887.524-32.789,7.388-44.777,19.327-11.984,11.935-18.913,27.802-19.512,44.677l-.032.9H3.401ZM80.331,144.349l-.965-.033c-15.806-.537-30.697-6.983-41.929-18.151-11.227-11.163-17.758-26.008-18.391-41.799l-.039-.971h22.93c.846,0,1.534-.688,1.534-1.534s-.688-1.534-1.534-1.534h-22.932l.038-.969c.613-15.809,7.136-30.672,18.367-41.853,11.235-11.185,26.135-17.64,41.956-18.178l.965-.033v22.643c0,.846.688,1.534,1.534,1.534.846,0,1.534-.688,1.534-1.534v-22.628l.975.044c15.585.699,30.262,7.165,41.326,18.208,11.063,11.041,17.558,25.702,18.289,41.281l.046.977h-22.246c-.846,0-1.534.688-1.534,1.534s.688,1.534,1.534,1.534h22.267l-.031.963c-.503,15.782-6.9,30.668-18.012,41.917-11.102,11.238-25.89,17.817-41.639,18.523l-.975.044v-22.585c0-.846-.688-1.534-1.534-1.534-.846,0-1.534.688-1.534,1.534v22.6ZM20.957,85.262c.837,14.956,7.133,28.978,17.795,39.579,10.668,10.607,24.737,16.824,39.711,17.569v-20.661c0-1.875,1.526-3.4,3.401-3.4s3.4,1.525,3.4,3.4v20.625c14.913-.908,28.878-7.248,39.42-17.919,10.554-10.683,16.723-24.749,17.436-39.701h-20.332c-1.875,0-3.401-1.526-3.401-3.401s1.526-3.4,3.401-3.4h20.282c-.93-14.748-7.189-28.591-17.69-39.071-10.503-10.482-24.361-16.714-39.116-17.613v20.668c0,1.875-1.525,3.401-3.4,3.401-1.875,0-3.401-1.526-3.401-3.401v-20.704c-14.987.746-29.066,6.972-39.737,17.595-10.666,10.618-16.955,24.66-17.774,39.633h20.984c1.875,0,3.401,1.526,3.401,3.401,0,1.875-1.526,3.401-3.401,3.401h-20.98Z"/>
</svg>