<?xml version="1.0" encoding="UTF-8"?>
<svg id="Layer_1" data-name="Layer 1" xmlns="http://www.w3.org/2000/svg" viewBox="0 0 556.022 164.601">
  <defs>
    <style>
      .cls-1 {
        fill: none;
      }

      .cls-2 {
        stroke: #ad0000;
      }

      .cls-2, .cls-3, .cls-4 {
        stroke-width: .777px;
      }

      .cls-2, .cls-3, .cls-4, .cls-5, .cls-6, .cls-7, .cls-8 {
        stroke-miterlimit: 10;
      }

      .cls-2, .cls-9 {
        fill: #ff2727;
      }

      .cls-10 {
        fill: #595959;
      }

      .cls-3, .cls-7 {
        fill: #437a89;
        stroke: #3ca6bf;
      }

      .cls-11 {
        fill: #727272;
      }

      .cls-12 {
        fill: #030303;
      }

      .cls-13 {
        fill: #b5b5b5;
      }

      .cls-14 {
        fill: #fff;
      }

      .cls-15 {
        fill: #02182b;
      }

      .cls-16 {
        fill: #666;
      }

      .cls-4 {
        stroke: #f03127;
      }

      .cls-4, .cls-17 {
        fill: #f03127;
      }

      .cls-5 {
        fill: #2d2d2d;
      }

      .cls-5, .cls-8 {
        stroke: #4c4c4c;
      }

      .cls-6 {
        stroke: #1e1e1e;
      }

      .cls-6, .cls-8, .cls-18 {
        fill: #191919;
      }

      .cls-19 {
        fill: #3f0000;
      }

      .cls-20 {
        fill: #701111;
      }

      .cls-21 {
        fill: #424242;
      }

      .cls-22 {
        fill: #ad0000;
      }

      .cls-23 {
        fill: #9fc5ce;
      }

      .cls-8 {
        stroke-width: 2px;
      }

      .cls-24 {
        fill: #626361;
      }

      .cls-25 {
        fill: #4d4d4d;
      }
    </style>
  </defs>
  <rect class="cls-6" x="227.435" y="-98.564" width="90.012" height="366.194" transform="translate(356.974 -187.908) rotate(90)"/>
  <rect class="cls-5" x="94.773" y="42.936" width="355.337" height="83.195"/>
  <rect class="cls-8" x="242.278" y="-79.231" width="75.673" height="327.251" transform="translate(364.509 -195.72) rotate(90)"/>
  <g>
    <path class="cls-20" d="M210.303,85.855c5.03,0,8.848,1.302,11.452,3.907s3.907,6.422,3.907,11.453v16.027c0,5.031-1.302,8.848-3.907,11.453s-6.423,3.907-11.452,3.907h-26.044v-46.745h26.044ZM213.642,101.214c0-4.007-2.004-6.01-6.011-6.01h-11.352v28.047h11.352c4.007,0,6.011-2.004,6.011-6.01v-16.027Z"/>
    <path class="cls-19" d="M210.303,133.387h-26.83v-48.318h26.83c5.224,0,9.264,1.392,12.009,4.137,2.745,2.746,4.137,6.786,4.137,12.009v16.027c0,5.223-1.392,9.263-4.137,12.009-2.745,2.745-6.785,4.137-12.009,4.137ZM185.046,131.814h25.257c4.791,0,8.457-1.237,10.896-3.676,2.439-2.44,3.676-6.106,3.676-10.897v-16.027c0-4.791-1.237-8.457-3.676-10.897-2.439-2.439-6.105-3.676-10.896-3.676h-25.257v45.172ZM207.631,124.037h-12.138v-29.62h12.138c4.447,0,6.797,2.35,6.797,6.797v16.027c0,4.446-2.35,6.797-6.797,6.797ZM197.066,122.464h10.565c3.564,0,5.224-1.66,5.224-5.224v-16.027c0-3.564-1.66-5.224-5.224-5.224h-10.565v26.474Z"/>
    <path class="cls-22" d="M187.306,129.553v-40.651h22.997c4.17,0,7.298,1.014,9.298,3.014,2,2,3.014,5.129,3.014,9.298v16.027c0,4.17-1.014,7.298-3.014,9.298-2,2-5.128,3.014-9.298,3.014h-22.997ZM193.232,126.298h14.399c5.672,0,9.058-3.386,9.058-9.057v-16.027c0-5.671-3.386-9.057-9.058-9.057h-14.399v34.141Z"/>
    <path class="cls-17" d="M210.303,130.025h-23.469v-41.595h23.469c4.299,0,7.54,1.061,9.631,3.152,2.092,2.092,3.152,5.333,3.152,9.632v16.027c0,4.299-1.061,7.54-3.152,9.632-2.091,2.092-5.332,3.152-9.631,3.152ZM187.778,129.081h22.525c4.04,0,7.056-.967,8.964-2.876,1.908-1.909,2.876-4.925,2.876-8.965v-16.027c0-4.04-.968-7.056-2.876-8.965-1.908-1.908-4.924-2.876-8.964-2.876h-22.525v39.708ZM207.631,126.77h-14.871v-35.085h14.871c5.967,0,9.53,3.562,9.53,9.529v16.027c0,5.967-3.563,9.529-9.53,9.529ZM193.704,125.826h13.927c5.376,0,8.586-3.21,8.586-8.585v-16.027c0-5.376-3.21-8.585-8.586-8.585h-13.927v33.197Z"/>
    <path class="cls-20" d="M265.141,85.855h12.02v34.057c0,4.675-1.058,8.07-3.172,10.184-2.115,2.115-5.509,3.172-10.183,3.172h-15.36c-4.675,0-8.069-1.057-10.183-3.172-2.115-2.114-3.172-5.509-3.172-10.184v-34.057h12.02v34.057c0,2.672,1.335,4.007,4.006,4.007h10.018c2.671,0,4.006-1.336,4.006-4.007v-34.057Z"/>
    <path class="cls-19" d="M263.806,134.054h-15.36c-4.87,0-8.483-1.145-10.74-3.403-2.257-2.257-3.402-5.87-3.402-10.74v-34.844h13.593v34.844c0,2.227.993,3.221,3.22,3.221h10.018c2.227,0,3.22-.993,3.22-3.221v-34.844h13.593v34.844c0,4.869-1.145,8.482-3.402,10.74-2.257,2.258-5.87,3.403-10.74,3.403ZM235.877,86.641v33.271c0,4.438.99,7.677,2.942,9.628,1.951,1.952,5.19,2.942,9.627,2.942h15.36c4.437,0,7.676-.99,9.627-2.942,1.952-1.952,2.942-5.191,2.942-9.628v-33.271h-10.447v33.271c0,3.091-1.702,4.794-4.793,4.794h-10.018c-3.091,0-4.793-1.702-4.793-4.794v-33.271h-10.447Z"/>
    <path class="cls-22" d="M248.446,130.221c-3.816,0-6.517-.767-8.028-2.279-1.513-1.513-2.28-4.214-2.28-8.03v-31.01h5.926v31.01c0,4.351,2.702,7.054,7.053,7.054h10.018c4.351,0,7.053-2.703,7.053-7.054v-31.01h5.926v31.01c0,3.815-.767,6.517-2.279,8.029-1.513,1.513-4.214,2.28-8.029,2.28h-15.36Z"/>
    <path class="cls-17" d="M263.806,130.693h-15.36c-3.945,0-6.759-.814-8.362-2.418-1.604-1.604-2.418-4.418-2.418-8.364v-31.482h6.87v31.482c0,4.06,2.522,6.582,6.581,6.582h10.018c4.06,0,6.581-2.522,6.581-6.582v-31.482h6.87v31.482c0,3.945-.813,6.759-2.418,8.363-1.604,1.605-4.418,2.418-8.363,2.418ZM238.61,89.373v30.538c0,3.686.721,6.276,2.142,7.696,1.42,1.421,4.009,2.141,7.695,2.141h15.36c3.685,0,6.274-.72,7.695-2.142,1.421-1.421,2.141-4.01,2.141-7.696v-30.538h-4.982v30.538c0,4.642-2.883,7.526-7.525,7.526h-10.018c-4.642,0-7.525-2.884-7.525-7.526v-30.538h-4.982Z"/>
    <path class="cls-20" d="M324.989,132.6h-37.062v-46.745h37.062v9.349h-25.042v9.015h19.699v9.349h-19.699v9.683h25.042v9.349Z"/>
    <path class="cls-19" d="M325.775,133.387h-38.635v-48.318h38.635v10.922h-25.042v7.442h19.699v10.922h-19.699v8.11h25.042v10.922ZM288.713,131.814h35.489v-7.776h-25.042v-11.256h19.699v-7.776h-19.699v-10.588h25.042v-7.776h-35.489v45.172Z"/>
    <polygon class="cls-22" points="290.973 129.553 290.973 88.902 321.942 88.902 321.942 92.157 296.899 92.157 296.899 107.266 316.599 107.266 316.599 110.521 296.899 110.521 296.899 126.298 321.942 126.298 321.942 129.553 290.973 129.553"/>
    <path class="cls-17" d="M322.414,130.025h-31.912v-41.595h31.912v4.199h-25.042v14.165h19.699v4.199h-19.699v14.833h25.042v4.199ZM291.445,129.081h30.025v-2.311h-25.042v-16.721h19.699v-2.311h-19.699v-16.053h25.042v-2.311h-30.025v39.708Z"/>
    <path class="cls-20" d="M347.579,123.251h24.374v9.349h-36.394v-46.745h12.02v37.396Z"/>
    <path class="cls-19" d="M372.739,133.387h-37.967v-48.318h13.593v37.396h24.374v10.922ZM336.345,131.814h34.821v-7.776h-24.374v-37.396h-10.447v45.172Z"/>
    <polygon class="cls-22" points="338.606 129.553 338.606 88.902 344.532 88.902 344.532 126.298 368.905 126.298 368.905 129.553 338.606 129.553"/>
    <path class="cls-17" d="M369.377,130.025h-31.244v-41.595h6.87v37.396h24.374v4.199ZM339.078,129.081h29.356v-2.311h-24.374v-37.396h-4.982v39.708Z"/>
  </g>
  <path class="cls-15" d="M225.396,81.251h-28.685l-4.897-11.783h16.076l-8.727-19.71-13.679,31.493h-12.561v-11.783h4.968l16.722-37.782h9.095l21.688,49.565Z"/>
  <polygon class="cls-7" points="198.904 77.898 196.94 73.409 213.041 73.409 199.162 41.475 183.301 77.898 176.275 77.898 176.275 73.409 180.073 73.409 196.795 35.038 201.526 35.038 220.245 77.898 198.904 77.898"/>
  <path class="cls-15" d="M273.528,81.251h-41.98V31.686h41.98v11.195h-30.785v7.696h23.789v11.195h-23.789v7.696h30.785v11.783Z"/>
  <polygon class="cls-7" points="234.901 77.898 234.901 35.038 270.175 35.038 270.175 39.528 239.39 39.528 239.39 53.929 263.178 53.929 263.178 58.418 239.39 58.418 239.39 73.409 270.175 73.409 270.175 77.898 234.901 77.898"/>
  <path class="cls-15" d="M325.207,81.251h-15.582l-17.352-19.48,4.897-11.195h12.944c1.072,0,1.982-.373,2.729-1.119.745-.746,1.119-1.655,1.119-2.729s-.374-1.982-1.119-2.729c-.747-.745-1.656-1.119-2.729-1.119h-19.241v38.37h-11.195V31.686h30.436c4.151,0,7.696,1.469,10.635,4.408,2.939,2.939,4.408,6.484,4.408,10.635s-1.467,7.696-4.399,10.635c-2.932,2.939-6.47,4.408-10.612,4.408l-2.513-.034,17.574,19.514Z"/>
  <path class="cls-7" d="M311.098,77.898l-14.877-16.785,3.142-7.183h10.751c1.961,0,3.724-.726,5.099-2.101,1.376-1.377,2.102-3.14,2.102-5.1s-.726-3.722-2.099-5.097c-1.38-1.377-3.143-2.103-5.102-2.103h-22.594v38.37h-4.489v-42.86h27.083c3.256,0,5.959,1.121,8.264,3.426,2.306,2.306,3.426,5.009,3.426,8.264s-1.119,5.96-3.42,8.267c-2.293,2.298-4.981,3.418-8.217,3.423l-10.323-.14,17.672,19.62h-6.42Z"/>
  <path class="cls-18" d="M185.559,151.748l-3.851-3.865h-1.872v3.865h-5.665v-13.225h16.506v3.532c0,2.223-.833,3.9-2.357,4.87l4.682,4.823h-7.442Z"/>
  <path class="cls-14" d="M179.342,144.024h5.677c.984,0,1.54-.542,1.683-1.526h-8.488v7.631h-2.425v-9.985h13.266v1.912c0,2.525-1.227,3.908-3.68,4.165l3.794,3.908h-2.939l-3.851-3.865h-3.038v-2.239Z"/>
  <path class="cls-18" d="M188.528,151.748v-6.625c0-4.071,2.534-6.599,6.612-6.599h9.094v5.594h-9.052c-.79,0-.99.103-.99,1.047v.977h10.042v5.607h-15.707Z"/>
  <path class="cls-14" d="M202.615,150.129h-12.467v-5.006c0-3.124,1.811-4.979,4.993-4.979h7.474v2.354h-7.432c-1.74,0-2.61.884-2.61,2.667v2.597h10.042v2.367Z"/>
  <path class="cls-18" d="M218.893,151.748v-3.865h-4.89v3.865h-5.665v-6.625c0-4.071,2.528-6.599,6.598-6.599h9.637v13.225h-5.68Z"/>
  <path class="cls-14" d="M222.953,150.129h-2.44v-3.865h-8.13v3.865h-2.425v-5.006c0-3.124,1.812-4.979,4.978-4.979h8.017v9.985ZM220.513,142.498h-4.393c-2.91,0-3.381.641-3.58,1.569h7.974v-1.569Z"/>
  <path class="cls-18" d="M229.722,151.748c-3.955,0-6.612-2.646-6.612-6.584v-6.641h15.906v5.594h-.257v2.024h.257v5.607h-9.294Z"/>
  <path class="cls-14" d="M237.397,142.498h-10.242v1.526h9.985v2.239h-9.857c.3.97.999,1.498,2.482,1.498h7.632v2.367h-7.674c-3.096,0-4.993-1.911-4.993-4.964v-5.021h12.667v2.354Z"/>
  <path class="cls-18" d="M248.628,151.748l-3.851-3.865h-1.873v3.865h-5.664v-13.225h16.506v3.532c0,2.223-.833,3.9-2.357,4.87l4.682,4.823h-7.442Z"/>
  <path class="cls-14" d="M242.411,144.024h5.677c.984,0,1.54-.542,1.683-1.526h-8.487v7.631h-2.425v-9.985h13.266v1.912c0,2.525-1.228,3.908-3.681,4.165l3.795,3.908h-2.939l-3.851-3.865h-3.038v-2.239Z"/>
  <rect class="cls-18" x="252.268" y="138.523" width="5.665" height="13.225"/>
  <path class="cls-14" d="M256.313,150.129h-2.425v-9.985h2.425v9.985Z"/>
  <path class="cls-18" d="M267.061,151.748v-3.865h-4.89v3.865h-5.665v-6.625c0-4.071,2.529-6.599,6.599-6.599h9.636v13.225h-5.68Z"/>
  <path class="cls-14" d="M271.122,150.129h-2.44v-3.865h-8.13v3.865h-2.425v-5.006c0-3.124,1.812-4.979,4.979-4.979h8.017v9.985ZM268.681,142.498h-4.393c-2.911,0-3.381.641-3.581,1.569h7.974v-1.569Z"/>
  <path class="cls-18" d="M271.379,151.748v-13.225h5.664v7.618h3.586c.769,0,.846-.224.907-.404l.375-1.094h5.582l-.316,1.888c-.548,3.266-2.979,5.217-6.504,5.217h-9.294Z"/>
  <path class="cls-14" d="M275.423,140.143v7.618h5.207c1.283,0,2.096-.499,2.439-1.498h2.511c-.429,2.553-2.211,3.865-4.907,3.865h-7.674v-9.985h2.424Z"/>
  <path class="cls-18" d="M290.931,151.748v-6.625c0-4.071,2.534-6.599,6.613-6.599h9.094v5.594h-9.052c-.789,0-.99.103-.99,1.047v.977h10.042v5.607h-15.707Z"/>
  <path class="cls-14" d="M305.019,150.129h-12.467v-5.006c0-3.124,1.812-4.979,4.993-4.979h7.474v2.354h-7.432c-1.74,0-2.61.884-2.61,2.667v2.597h10.042v2.367Z"/>
  <path class="cls-18" d="M304.861,151.748v-6.625c0-4.009,2.595-6.599,6.613-6.599h9.878v6.641c0,3.999-2.59,6.584-6.598,6.584h-9.893ZM314.697,146.142c.562,0,.804-.058.894-.089.032-.091.097-.346.097-.93v-1.005h-4.173c-.557,0-.802.059-.891.09-.033.093-.099.353-.099.957v.977h4.171Z"/>
  <path class="cls-14" d="M319.732,140.143v5.021c0,3.11-1.811,4.964-4.978,4.964h-8.273v-5.006c0-3.054,1.84-4.979,4.993-4.979h8.258ZM317.308,142.498h-5.792c-1.997,0-2.61.613-2.61,2.667v2.597h5.791c1.955,0,2.611-.571,2.611-2.639v-2.625Z"/>
  <path class="cls-18" d="M332.457,151.748v-6.612c0-.855-.153-1-.784-1.017v7.629h-5.679v-7.631h-.469v7.631h-5.65v-13.225h11.633c3.832,0,6.614,2.607,6.614,6.2v7.025h-5.665Z"/>
  <path class="cls-14" d="M321.495,140.143h10.013c2.968,0,4.993,1.883,4.993,4.58v5.406h-2.425v-4.992c0-1.769-.856-2.639-2.568-2.639h-7.603v7.631h-2.41v-9.985ZM327.614,143.724h2.439v6.404h-2.439v-6.404Z"/>
  <path class="cls-18" d="M336.76,151.748v-13.225h12.16c2.73,0,4.359,1.55,4.359,4.145,0,.947-.224,1.766-.64,2.413.416.677.64,1.527.64,2.508,0,2.604-1.629,4.159-4.359,4.159h-12.16Z"/>
  <path class="cls-14" d="M338.38,140.143h10.541c1.826,0,2.739.842,2.739,2.525,0,1.383-.598,2.169-1.726,2.368,1.099.228,1.726,1.056,1.726,2.553,0,1.698-.913,2.539-2.739,2.539h-10.541v-9.985ZM340.804,147.818h7.475c.541,0,.813-.257.813-.771,0-.555-.272-.841-.813-.841h-5.763v-2.126h5.763c.541,0,.813-.286.813-.87,0-.486-.272-.728-.813-.728h-7.475v5.336Z"/>
  <path class="cls-18" d="M371.324,151.748v-7.631s-.131,0-.157.003c-.002.012-.127,1.523-.127,1.523h-5.546l.144-1.753c.285-3.461,2.418-5.368,6.008-5.368h9.937v5.594h-4.593v7.631h-5.665Z"/>
  <path class="cls-14" d="M379.963,142.498h-4.594v7.631h-2.425v-7.631h-1.683c-1.056,0-1.626.499-1.712,1.526h-2.296c.214-2.596,1.669-3.881,4.394-3.881h8.316v2.354Z"/>
  <path class="cls-18" d="M381.883,51.897c.177.376.353.753.52,1.134.023.054.091.22.031.073.039.096.078.193.115.29.074.193.145.388.209.585.128.392.23.79.306,1.195.016.085.028.223.012.058.01.102.02.205.025.308.011.189.012.378.002.568-.004.079-.014.158-.019.237-.012.214.056-.254.004-.045-.038.154-.063.311-.106.465-.021.076-.045.152-.07.228-.011.033-.092.282-.028.098.062-.18-.026.055-.044.091-.034.07-.07.14-.109.208-.038.068-.078.135-.12.2-.019.03-.155.248-.049.085.103-.157-.036.041-.064.072-.051.057-.103.113-.158.166s-.115.101-.168.155c-.138.137.203-.119.031-.027-.09.048-.532.286-.202.147l1.694.689c-.152-.223-.295-.45-.423-.688-.064-.119-.12-.241-.181-.361-.156-.31.045.162-.058-.138-.087-.256-.176-.508-.244-.77-.034-.13-.064-.262-.09-.394-.01-.048-.077-.509-.059-.333.019.185-.016-.225-.019-.27-.009-.135-.013-.269-.015-.404-.003-.271.027-.537.036-.807.012-.111.008-.089-.013.065.01-.067.02-.133.033-.199.023-.133.05-.264.081-.395.067-.285.154-.562.253-.837l-2.742.358c.098.169.194.34.282.514.055.109.107.22.159.33.107.223-.07-.183.023.046.157.384.285.781.388,1.183.048.189.091.38.127.572.018.096.033.193.05.289-.029-.159-.007-.073.005.037.046.439.062.877.05,1.318-.021.785.705,1.536,1.5,1.5.83-.037,1.478-.659,1.5-1.5.053-2.03-.475-4.05-1.495-5.803-.303-.521-.907-.795-1.495-.716-.619.083-1.039.5-1.247,1.074-.929,2.56-.538,5.597,1,7.844.337.492,1.065.955,1.694.689.995-.42,1.77-1.019,2.37-1.928.531-.804.788-1.743.899-2.69.25-2.138-.713-4.2-1.598-6.081-.335-.712-1.413-.95-2.052-.538-.733.472-.896,1.291-.538,2.052h0Z"/>
  <path class="cls-18" d="M362.573,151.748v-3.865h-4.89v3.865h-5.665v-6.625c0-4.071,2.528-6.599,6.598-6.599h9.637v13.225h-5.68Z"/>
  <path class="cls-14" d="M366.632,150.129h-2.44v-3.865h-8.13v3.865h-2.425v-5.006c0-3.124,1.812-4.979,4.978-4.979h8.017v9.985ZM364.193,142.498h-4.393c-2.91,0-3.381.641-3.58,1.569h7.974v-1.569Z"/>
  <path class="cls-12" d="M108.925,58.87c.336-.073.237-.516.281-.562l-.281.562Z"/>
  <path class="cls-18" d="M118.483,62.527l-.003,1.406,1.407-.004c-.09-.246-1.067-1.797-1.404-1.402Z"/>
  <g>
    <path class="cls-12" d="M108.746,58.59c.336-.073.237-.516.281-.562l-.281.562Z"/>
    <path class="cls-18" d="M118.304,62.247l-.003,1.406,1.407-.004c-.09-.246-1.067-1.797-1.404-1.402Z"/>
    <path class="cls-23" d="M144.211,84.868c0,35.454-28.741,64.195-64.195,64.195-35.454,0-64.195-28.741-64.195-64.195,0-35.454,28.741-64.195,64.195-64.195,35.454,0,64.195,28.741,64.195,64.195Z"/>
    <path class="cls-16" d="M15.372,84.868c0-35.645,29-64.645,64.644-64.645,35.645,0,64.645,29,64.645,64.645s-29,64.645-64.645,64.645c-35.645,0-64.644-29-64.644-64.645ZM16.271,84.868c0,35.149,28.596,63.745,63.745,63.745s63.746-28.596,63.746-63.745-28.597-63.745-63.746-63.745c-35.149,0-63.745,28.596-63.745,63.745Z"/>
    <path class="cls-10" d="M80.016,149.218c-35.483,0-64.351-28.868-64.351-64.351,0-35.483,28.868-64.351,64.351-64.351,35.483,0,64.351,28.868,64.351,64.351,0,35.483-28.868,64.351-64.351,64.351ZM80.016,20.828c-35.312,0-64.04,28.728-64.04,64.04,0,35.312,28.728,64.04,64.04,64.04,35.312,0,64.04-28.728,64.04-64.04S115.328,20.828,80.016,20.828Z"/>
    <path class="cls-10" d="M15.188,84.868c0-35.746,29.082-64.827,64.828-64.827,35.746,0,64.827,29.082,64.827,64.827,0,35.746-29.082,64.828-64.827,64.828-35.746,0-64.828-29.082-64.828-64.828ZM16.454,84.868c0,35.049,28.514,63.563,63.563,63.563,35.049,0,63.562-28.514,63.562-63.563,0-35.049-28.514-63.562-63.562-63.562-35.049,0-63.563,28.514-63.563,63.562Z"/>
    <path class="cls-14" d="M21.975,99.358c36.583-10.642,78.335-22.816,118.197-34.45-.266-.991-.513-1.985-.729-2.984-.421-1.95-.844-3.904-1.328-5.841L21.024,94.219c.329,1.71.635,3.426.951,5.139Z"/>
    <path class="cls-14" d="M22.475,101.983c.329,1.665.686,3.324,1.104,4.969,36.434-9.331,78.23-20.064,118.373-30.383-.797-2.952-1.361-5.915-1.232-8.911L22.475,101.983Z"/>
    <path class="cls-14" d="M140.892,103.906l-75.338,5.928-40.398,2.251c.933,2.494,2.088,4.889,3.393,7.206.278.32.528.657.748,1.011,24.724,3.115,57.52,7.215,93.048,11.705,7.959-7.853,14.01-17.859,18.547-28.102Z"/>
    <path class="cls-14" d="M20.317,90.768c27.534-14.867,63.931-34.545,103.512-55.907-1.694-1.44-3.408-2.85-5.226-4.113-4.837-3.36-10.216-5.725-15.552-8.159l-58.196,42.406-25.983,18.261c.362,2.523.905,5.023,1.446,7.513Z"/>
    <circle class="cls-1" cx="81.865" cy="82.174" r="61.602"/>
    <path class="cls-18" d="M160.326,79.8h-.794s-10.706,0-10.706,0c-1.498-34.913-29.564-62.938-64.494-64.37V5.109s0-.794,0-.794c0-1.363-1.105-2.467-2.467-2.467s-2.467,1.105-2.467,2.467v.794s0,10.296,0,10.296c-35.414,1.1-63.938,29.529-65.192,64.904H4.194s-.794,0-.794,0c-1.363,0-2.467,1.105-2.467,2.467,0,1.363,1.105,2.467,2.467,2.467h10.808c1.294,35.338,29.801,63.725,65.189,64.824v11.133c0,1.363,1.105,2.467,2.467,2.467s2.467-1.105,2.467-2.467v-.794s0-10.365,0-10.365c35.242-1.445,63.5-29.959,64.53-65.307h10.67s.794,0,.794,0c1.363,0,2.467-1.105,2.467-2.467s-1.105-2.467-2.467-2.467ZM84.332,144.272v-20.815s0-.794,0-.794c0-1.363-1.105-2.467-2.467-2.467s-2.467,1.105-2.467,2.467v.794s0,20.841,0,20.841c-32.203-1.094-58.131-26.901-59.419-59.055h21.959c1.363,0,2.467-1.105,2.467-2.467s-1.105-2.467-2.467-2.467h-.794s-21.168,0-21.168,0c1.248-32.19,27.193-58.04,59.422-59.134v21.677c0,1.363,1.105,2.467,2.467,2.467,1.363,0,2.467-1.105,2.467-2.467v-.794s0-20.858,0-20.858c31.745,1.424,57.236,26.872,58.725,58.6h-21.268c-1.363,0-2.467,1.105-2.467,2.467,0,1.363,1.105,2.467,2.467,2.467h.794s20.509,0,20.509,0c-1.026,32.163-26.703,58.1-58.76,59.537Z"/>
    <path class="cls-22" d="M81.865,164.601c-1.875,0-3.401-1.526-3.401-3.401v-10.234c-17.011-.751-32.998-7.765-45.105-19.81-12.103-12.041-19.2-27.984-20.045-44.98H3.401c-1.875,0-3.401-1.526-3.401-3.401s1.526-3.401,3.401-3.401h9.91c.825-17.013,7.915-32.975,20.022-45.033,12.11-12.061,28.107-19.084,45.131-19.836V4.315c0-1.875,1.526-3.401,3.401-3.401,1.875,0,3.4,1.526,3.4,3.401v10.226c16.793.908,32.569,7.939,44.51,19.859,11.94,11.919,19,27.68,19.939,44.468h10.611c1.875,0,3.401,1.525,3.401,3.4,0,1.875-1.526,3.401-3.401,3.401h-10.563c-.718,16.986-7.684,32.968-19.673,45.09-11.981,12.115-27.869,19.258-44.825,20.173v10.269c0,1.875-1.525,3.401-3.4,3.401ZM3.401,81.242c-.846,0-1.534.688-1.534,1.534,0,.846.688,1.534,1.534,1.534h11.708s.033.899.033.899c.617,16.858,7.555,32.706,19.535,44.624,11.985,11.923,27.877,18.777,44.75,19.301l.904.028v12.037c0,.846.688,1.534,1.534,1.534.846,0,1.534-.688,1.534-1.534v-12.054l.895-.037c16.818-.689,32.61-7.673,44.469-19.664,11.869-12.001,18.675-27.889,19.166-44.738l.026-.906h12.37c.846,0,1.534-.688,1.534-1.534,0-.846-.688-1.534-1.534-1.534h-12.394l-.038-.893c-.714-16.653-7.617-32.321-19.437-44.12-11.821-11.8-27.505-18.675-44.163-19.357l-.895-.037V4.315c0-.846-.688-1.534-1.534-1.534s-1.534.688-1.534,1.534v11.995l-.904.028c-16.887.524-32.789,7.388-44.777,19.327-11.984,11.935-18.913,27.802-19.512,44.677l-.032.9H3.401ZM80.331,145.263l-.965-.033c-15.806-.537-30.697-6.983-41.929-18.151-11.227-11.163-17.758-26.008-18.391-41.799l-.039-.971h22.93c.846,0,1.534-.688,1.534-1.534s-.688-1.534-1.534-1.534h-22.932l.038-.969c.613-15.809,7.136-30.672,18.367-41.853,11.235-11.185,26.135-17.64,41.956-18.178l.965-.033v22.643c0,.846.688,1.534,1.534,1.534.846,0,1.534-.688,1.534-1.534v-22.628l.975.044c15.585.699,30.262,7.165,41.326,18.208,11.063,11.041,17.558,25.702,18.289,41.281l.046.977h-22.246c-.846,0-1.534.688-1.534,1.534s.688,1.534,1.534,1.534h22.267l-.031.963c-.503,15.782-6.9,30.668-18.012,41.917-11.102,11.238-25.89,17.817-41.639,18.523l-.975.044v-22.585c0-.846-.688-1.534-1.534-1.534-.846,0-1.534.688-1.534,1.534v22.6ZM20.957,86.177c.837,14.956,7.133,28.978,17.795,39.579,10.668,10.607,24.737,16.824,39.711,17.569v-20.661c0-1.875,1.526-3.4,3.401-3.4s3.4,1.525,3.4,3.4v20.625c14.913-.908,28.878-7.248,39.42-17.919,10.554-10.683,16.723-24.749,17.436-39.701h-20.332c-1.875,0-3.401-1.526-3.401-3.401s1.526-3.4,3.401-3.4h20.282c-.93-14.748-7.189-28.591-17.69-39.071-10.503-10.482-24.361-16.714-39.116-17.613v20.668c0,1.875-1.525,3.401-3.4,3.401-1.875,0-3.401-1.526-3.401-3.401v-20.704c-14.987.746-29.066,6.972-39.737,17.595-10.666,10.618-16.955,24.66-17.774,39.633h20.984c1.875,0,3.401,1.526,3.401,3.401,0,1.875-1.526,3.401-3.401,3.401h-20.98Z"/>
    <g>
      <path class="cls-21" d="M57.384,104.204c.12-.015.208-.021.27-.012l.082-.683-38.391-4.575-3.452,1.326,7.922,1.59.059-.293c-1.138-.22-2.252-.463-3.34-.739-.393-.097-.88.003-.985-.557l28.751,4.006c1.103-.006,2.98,1.472,3.772,1.543.895.082,4.018-1.449,5.314-1.604Z"/>
      <path class="cls-21" d="M76.911,66.494l-4.757.428-8.737-7.737c3.728,1.114,6.402,3.939,9.485,6.118l4.009,1.191ZM91.818,60.021l23.345-39.664-.619-.367-24.964,42.365-7.323,3.012.833-1.003-.282-.531-29.516-19.7-6.746,3.654,1.757,1.757.49-.49,4.229,1.815,17.993,17.453c1.244.575,7.91-1.892,9.69-2.115l.144.563.273.675c8.326-3.379,16.576-6.965,24.967-10.165,1.003-.381,2.296-.971,3.264-1.249.628-.179.261-.39.742.334.592-.83,1.293-1.622,1.968-2.39l-.414-.135-19.412,7.869c-.191.062-.205-.267-.138-.416.041-.091.455-.534,1.015-1.109l-.657-.176c-.1.079-.249.097-.639.012Z"/>
      <path class="cls-21" d="M117.352,96.4l-18.931,5.54-.109-.812,22.19-6.778-3.15,2.05ZM90.132,67.479c4.003-1.959,9.03-2.038,12.371-5.2l-30.088,10.684.279-.419,35.998-13.925.282-.563c.088-.094.205-.179.282-.282l-35.326,13.195-.39-.531c2.54-.968,5.065-1.971,7.584-2.991l-.273-.675-10.397,3.537-21.659-21.254-.49.49,20.19,20.172c.481,1.044.598,2.628-.578,3.25l.282.144-.282,1.264c.804-.214,2.115-.765,2.678-.845.551-.076.44.106.416.56-3.097,1.229-6.833,2.528-9.649,4.276-3.599,2.241-6.279,6.663-6.66,10.916l1.461-3.176,1.346-1.604c-.862,1.93-.809,3.584.443,5.326.804,1.117,2.942,2.484,2.537.293-.458-2.469-1.528-3.487-.815-6.411.226-.93,1.804-3.563,2.472-4.279.804-.856,2.469-1.83,3.519-1.824-4.203,2.816-5.273,8.191-3.103,12.687,3.942-1.238,8.394-2.352,12.532-2.692.308-.026,1.305-.229,1.255.273l-18.192,5.572-7.957,7.232,12.089,2.387-3.502.569-1.05-.126-.082.683c.235.021.153.191.138.56l-6.001,2.754c-1.27-.458-2.238-1.396-3.549-1.777-7.402-2.144-16.409-2.616-24.369-4.173l-.059.293,23.577,4.731,3.085,1.833c-1.217-.199-2.425-.414-3.654-.56.123.487.76,1.314.845,1.686.15-.179.358-.147.589-.035.343.164.733.502,1.029.551,2.42.405,11.482-5.848,12.16-5.297-2.625,4.361-8.244,5.332-12.761,6.772l-1.003-1.683-.015-.026c-4.927,7.174-10.585,14.022-15.746,21.099.578-.422,1.097-.393,1.974-1.258,5.13-5.056,9.781-11.189,14.887-16.336l2.821-.833-17.286,18.999c-.475.399-2.038.944-2.678,1.117l.282.147-.563.98c.724-.191,1.528-.191,2.255-.419l19.536-21.248c1.012-.809,3.141-.719,4.071-1.273.44-.261.513-.839.868-1.097.229-.167,2.132-.801,2.235-.719-7.875,14.541-16.154,28.871-24.184,43.324.49-.047.977.047,1.123.563,1.505-1.419,7.071-2.182,8.731-4.068l32.032-39.693c.997-.912,2.947-.771,3.939-1.408.915-.587,1.754-2.739,2.901-3.566,1.329-.956,7.37-4.074,8.916-4.584.29-.097.537-.188.851-.132l-.282.56c.475-.147.795.548.842.563.226.065.771-.372.842-.282l-.144,1.962,1.939.848c8.297-2.575,16.752-4.294,24.639-8.018.287-.135.956-.704,1.129-.138.534-.466,1.396-2.308,1.686-3.094-1.018.135-1.924-.941-2.742-1.079-1.065-.176-5.159,2.469-6.672,3.053-5.259,2.03-11.344,3.015-16.673,5.009-.487.141-1.056.038-1.191-.51,5.235-2.112,11.614-3.358,16.67-5.69.988-.458,2.722-1.525,3.578-2.191-2.358-1.167-2.936.587-5,1.329l-30.625,8.177-1.493-.924,30.903-9.03c1.009-.519,4.03-3.135,4.132-4.191.111-1.129-2.241-3.543-1.575-4.924l-30.648,8.156,19.333-6.379,2.035-2.203c-5.619.164-11.089,1.839-16.459,3.446l-.414-.487,8.977-4.103,1.422-1.666c-.267-.408-.543-.39-.965-.437-1.944-.223-6.423,1.2-8.59,1.701.141.261.264.546.282.845.009.179.041.361-.021.537-4.273.575-8.889,2.575-13.089,3.091-.302.038-1.021.243-.95-.249,3.484-.877,6.927-1.906,10.403-2.816l-.563-.282c-5.015,1.205-10.077,2.235-15.04,3.66l-.015-.856,10.837-4.209-11.808,2.249-.17-1.135,31.103-10.819.279-.422c-1.22-.015-2.226-.414-3.49-.261-5.168.625-11.904,4.027-17.245,4.974-.399.07-1.038.34-.915-.352l23.9-7.743-.372-.516c-3.745.965-7.526,2.291-11.315,3.047-.425.085-.534.502-.965-.138ZM62.291,109.254c1.05.079,2.053-.331,3.074-.44.39-.044.675-.393.578.299l-25.498,39.467-.933.343,23.422-42.676,1.326-.226-1.968,3.232ZM68.766,107.41l-4.789.721,2.082-2.839,25.193-6.725c.155.751-.188.487-.551.701-1.833,1.076-4.555,1.936-6.177,3.115-1.417,1.032-2.877,3.93-4.132,4.59-1.469.771-3.39.167-4.616,1.288l-18.972,24.909-.414-.414,12.875-21.729-.499-3.616ZM64.543,96.596l.842-4.358c4.185-1.208,8.244-2.93,12.652-3.235.144.795-.188.463-.616.633-3.226,1.285-7.042,1.983-10.341,3.173-1,.669-.554,3.895-2.537,3.786ZM79.301,98.564c-.44-.249.097-.633.252-.874.554-.851,2.516-3.909,3.071-4.379,4.81-4.077,19.04-5.121,25.158-7.913l4.282,1.076-3.669.402c-7.485,3.065-16.961,4.393-24.252,7.529-1.845.795-3.021,3.176-4.842,4.159Z"/>
      <path class="cls-21" d="M99.429,53.927c-3.78.534-4.417,3.651-6.681,5.748-.15.141-.199.261-.29.334l.657.176c1.235-1.261,3.191-3.165,3.502-3.376,1.425-.974,3.587-1.352,5.135-2.179,2.103-1.123,3.886-2.965,5.933-4.194l8.499-19.116c.402.044,1.106-.243.912.396l-5.326,16.632c.062.51,3.144,2.428,3.666,2.569.61.164.859-.443,1.408-.46l-3.379-2.642,8.183-26.439-4.074-2.12.114-1.147c-.428.1-.848.44-1.405.279l1.123-1.968c-.264.05-.66-.167-.865.182l-1.997,3.39.619.367.83.419-16.565,33.15Z"/>
    </g>
    <path class="cls-21" d="M76.632,52.992c-.418,1.207-.477,2.922-1.406,3.939.428.307,3.289,2.628,3.654,2.251l.844-6.752-3.092.563Z"/>
    <polyline class="cls-21" points="73.84 85.48 93.366 80 91.748 77.086 71.306 82.919"/>
    <polygon class="cls-21" points="76.232 57.83 74.397 56.319 75.967 53.063 78.066 52.731 76.232 57.83"/>
    <polyline class="cls-21" points="68.493 69.716 67.915 72.966 68.493 73.247 69.742 71.562 68.493 69.716"/>
    <path class="cls-21" d="M80.851,49.616v.844c.266-.104.583-.123.841-.281l-.981,10.402c.219.252.461.636.839.568.63-.113,1.268-11.138,1.837-12.514-.784-.171-1.777.646-2.535.98Z"/>
    <g>
      <path class="cls-21" d="M147.78,56.645c1.378-1.282,1.686-2.801.282-4.214.991-.12,1.44.763,2.384.862,1.343.144,3.552-.531,5.053-.595,2.991-.129,5.646.604,8.59.578-.375.701-.387,1.264,0,1.965-1.132-.22-1.537-.994-2.748-1.329-2.194-.601-8.552-.49-10.558.537-.546.282-1.285,2.604-3.003,2.197ZM142.51,50.809c.83.299,5.341,2.176,5.502,2.648.176.504.117,1.554-.1,2.062-.862,2.032-12.347,10.761-14.635,11.526-.419.141-.856.267-1.311.217l-16.183-3.079c-.425-2.2-2.965-4.693-1.308-6.672,3.012-3.599,10.57-7.728,15.195-8.429,4.775-.721,8.397.109,12.84,1.727ZM133.614,77.433c-.358-.053-1.531-.114-1.581-.525,7.095-.839,14.207-3.261,20.718-6.141,1.367-.604,2.748-1.246,4.091-1.953l-.384-.748c-4.912,2.431-18.318,7.414-23.202,7.702-.51.029-1.05.067-1.226-.546,2.387-.695,4.871-1.167,7.247-1.9.824-.255,1.727-.54,2.692-.853l-.194-.587c-.789.264-1.513.487-2.15.666-.801.223-6.552,1.487-6.901,1.437-.29-.038-.851-.698-.977-1.015,11.784-2.337,24.955-6.734,32.334-16.761.37-.355,1.082.414,1.085.578.003.199-.381.757-.953,1.466l.809.179c.196-.261.361-.452.466-.522.405-.261.833.106.842.284.003.073-.029.182-.085.317l.824.305c.205-.516.381-1.056.531-1.616-1.299-.66-.783-2.563-2.106-2.807v-.414c2.074-1.27.809-1.939-.903-2.478-5.197-1.639-11.614-.522-16.92-1.076-3.927-.411-8.142-2.783-12.397-3.074-7.153-.487-21.122,5.08-24.677,11.632-1.848,3.405,1.103,7.435,3.431,9.904l-2.247-.701c1.818,2.983,5.203,4.98,8.432,6.191l-2.381.273-5.209-1.117c1.78,1.965,4.681,3,7.312,3.094l-3.939.845c-.088.097.235.851.284,1.12.493.299,1.129.924,1.405,1.408.167-.563.845,0,1.129.138.554.267,1.346.812,1.889.924,1.37.284,9.136-.519,10.837-.848,2.015-.387,4.276-1.657,6.394-1.906.431-.399-.035-.507-.419-.557-1.264-.155-2.648-.141-3.904-.317ZM126.549,78.055c2.434.021,4.907-1.106,7.452.117,0,.135-2.074.61-2.425.669-2.361.384-8.711,1.176-10.796.742-.243-.053-2.458-.789-1.965-1.27,1.229-.062,2.273-.839,3.516-.871,1.311-.032,2.93.601,4.217.613ZM118.595,66.57c-.499-.176-1.39-.182-1.185-.918l15.189,3.264c5.206-1.859,9.523-6.801,14.298-9.353.384-.205.648-.499,1.164-.378-4.162,3.068-8.071,6.86-12.4,9.675-1.522.991-2.631,1.428-4.54,1.223-2.692-.287-9.74-2.531-12.526-3.514Z"/>
      <path class="cls-21" d="M159.444,63.394c-3.54,2.854-12.157,6.634-17.667,8.488l.194.587c6.877-2.247,16.688-6.001,20.706-10.623.519-.598,1.645-2.469,2.349-3.414l-.809-.179c-1.455,1.81-4.135,4.628-4.772,5.141Z"/>
      <path class="cls-21" d="M156.458,68.066l.384.748c.589-.311,1.173-.633,1.742-.971l-.405-.698c-.481.279-.98.546-1.493.807-.073.038-.15.076-.229.114Z"/>
      <path class="cls-21" d="M158.18,67.145l.405.698c.575-.34,1.138-.695,1.686-1.068l-.364-.751c-.554.402-1.129.771-1.727,1.12Z"/>
      <path class="cls-21" d="M159.907,66.025l.364.751c2.959-2.012,5.455-4.54,6.801-7.96l-.824-.305c-.54,1.258-3.443,4.907-4.121,5.602-.71.727-1.443,1.352-2.22,1.912Z"/>
    </g>
    <polygon class="cls-21" points="134.875 78.285 127.667 78.874 125.022 77.442 130.64 76.807 135.688 78.165 134.875 78.285"/>
    <polygon class="cls-11" points="115.419 83.85 106.23 82.36 114.46 78.874 115.995 83.159 115.419 83.85"/>
    <polygon class="cls-11" points="119.92 90.03 83.165 100.151 81.794 99.397 117.683 89.004 119.92 90.03"/>
    <polygon class="cls-11" points="95.827 100.306 94.476 99.722 93.206 100.306 95.044 101.397 95.827 100.306"/>
    <polyline class="cls-11" points="99.43 53.926 95.31 55.86 95.58 54.554 99.43 52.72 99.43 53.926"/>
    <path class="cls-11" d="M36.138,152.302c-.691,1.243-1.509,2.601-1.968,3.939h10.545s37.679-45.86,37.679-45.86c11.328-4.017,23.667-6.351,34.947-10.332,7.822-2.761,9.56-6.703,11.505-14.442,8.563-4.416,17.819-7.971,26.344-12.399.597-.31,2.149-.834,1.73-1.646l-28.917,13.482-1.737,5.36c-1.33-1.325-4.324-2.206-5.488-3.507-1.243-1.39-2.1-5.154-3.09-6.896-.275-.484-.912-1.11-1.406-1.407.493,2.757,2.195,5.115,2.809,7.877-.067.084-1.589-1.217-1.69-1.34-.802-.976-1.732-4.274-2.807-4.286-.667,1.383,1.684,3.794,1.575,4.924-.102,1.057-3.125,3.674-4.134,4.19l-30.903,9.03,1.494.924,30.624-8.176c2.066-.742,2.644-2.496,5.001-1.327.851-.662,1.707-1.417,1.974-2.531l5.216,3.372c.19.217-.092.381-.16.565-.29.787-1.153,2.63-1.687,3.095-1.416,1.234-3.63,2.522-5.191,3.668l-32.354,9.551c-.368-.507.772-1.371,1.134-1.678,2.457-2.085,5.652-3.658,8.008-5.914-.049-.014-.368-.708-.844-.563-2.393,2.086-5.979,3.596-8.29,5.632-2.114,1.863-2.228,3.703-5.757,4.087l-35.505,44.234-8.096.059c-.05-.037.509-1.073.562-1.122-.147-.516-.634-.61-1.125-.563Z"/>
    <path class="cls-11" d="M117.408,16.419l-1.123,1.968c.555.16.977-.18,1.405-.28,2.324-.543,4.673-.789,7.029-1.124l-8.178,30.529c.907.777,1.786,2.17,3.117,1.538l-.794-1.464,7.824-32.291c-3.054.317-6.269.556-9.279,1.124Z"/>
    <path class="cls-11" d="M46.824,107.851c-.512-.062-1.118-.695-1.697.132l-17.703,26.177c-.062.471-.025.449.417.421,1.168-.074,2.394-.555,3.517-.848l.565-.979-.283-.146c-.471.127-1.264.477-1.686.142.605-.883,1.154-1.236,1.967-1.83,5.164-7.077,10.82-13.925,15.748-21.1-.015-.091.02-.193,0-.281-.086-.372-.722-1.199-.844-1.688Z"/>
    <path class="cls-11" d="M75.226,56.93c.348-1.071.988-2.731,1.406-3.939s2.935-2.032,4.218-2.532v-.844c-1.346.594-4.955,1.85-5.754,2.824-.248.302-1.566,2.971-1.559,3.239.019.81,1.264.947,1.69,1.252Z"/>
    <path class="cls-11" d="M67.915,72.966l-.56.281c.05-.643-.349-3.015-1.263-2.812l-2.117,4.638c.053.682,3.641-.621,3.94-.7l.281-1.262-.281-.145Z"/>
    <path class="cls-11" d="M62.934,106.247l-23.421,42.676.931-.342,25.499-39.468c.094-.691-.188-.342-.579-.299-1.021.111-2.024.521-3.074.442l1.967-3.234-1.324.226Z"/>
    <path class="cls-11" d="M115.162,20.358l-23.344,39.664c.747.163.617-.057.93-.347,2.264-2.097,2.9-5.213,6.683-5.75l16.565-33.148-.833-.419Z"/>
    <path class="cls-11" d="M48.793,49.056l21.662,21.253,10.395-3.536-.143-.562c-1.781.222-8.448,2.688-9.691,2.114l-17.992-17.455-4.231-1.813Z"/>
    <path class="cls-11" d="M19.547,100.258c.108.563.594.46.985.559,8.694,2.195,19.25,2.463,27.71,4.913,1.312.38,2.28,1.319,3.55,1.777l5.999-2.754c.019-.471.148-.617-.406-.549-1.295.158-4.419,1.686-5.315,1.606-.792-.071-2.668-1.549-3.77-1.543l-28.752-4.008Z"/>
    <polygon class="cls-11" points="98.313 101.128 98.422 101.939 117.351 96.4 120.501 94.35 98.313 101.128"/>
    <path class="cls-11" d="M132.032,75.22c.174.614.713.576,1.225.546,4.959-.293,18.718-5.428,23.43-7.814,2.058-1.042,3.823-2.182,5.441-3.841.751-.77,4.232-5.161,4.204-5.917-.007-.18-.436-.548-.842-.285-.488.316-2.151,3.171-2.816,3.936-4.58,5.269-16.686,9.409-23.398,11.477-2.375.732-4.858,1.204-7.244,1.899Z"/>
    <path class="cls-11" d="M118.814,78.314c-.49.48,1.722,1.217,1.965,1.267,2.086.436,8.436-.357,10.796-.742.352-.057,2.428-.533,2.427-.669-5.395-.292-5.018-.094-7.453-.116-1.286-.012-2.907-.644-4.218-.612-1.244.031-2.287.808-3.517.872Z"/>
    <path class="cls-18" d="M31.076,157.647l25.309-45.01c-.265-.208-2.87.703-3.107,1.25l-17.312,20.379-13.045,3.123,19.403-30.378-31.776-6.189,8.013-3.099,28.136,2.687c.568-.061,2.768-1.808,3.177-2.307.328-.4,3.008-5.041,3.059-5.345.083-.494-.449-1.507-.482-2.211-.277-5.885,1.607-11.028,7.154-13.655l4.611-8.526-20.203-20.714,8.735-5.204.891-.099,17.8,12.06,2.588-3.395,11.039-5.054-1.416,16.409c.91.952,2.109-.306,3.186-.433l28.752-46.351,13.348-2.54-7.472,34.616c.544.768,4.508-1.024,5.505-1.279,9.107-2.324,11.763.234,19.858,1.793,6.645,1.28,30.527-1.791,26.274,11.443-2.408,7.492-11.021,7.016-14.002,13.638l-28.123,13.847c-1.302,3.423-2.058,7.161-4.423,10.065-2.692,3.306-6.481,4.109-10.338,5.413-11.124,3.761-22.494,6.87-33.596,10.701l-35.925,44.094c-.626,1.023-1.281.279-1.7.271-4.636-.087-9.286.065-13.92,0ZM116.542,16.601l-26.961,45.753-7.325,3.013.833-1.002-.282-.531-29.514-19.699-6.746,3.652,21.944,21.929c.184.179-.297,2.177-.578,3.251l-.56.281c.05-.643-.349-3.015-1.263-2.812l-2.117,4.638c.053.682,3.641-.621,3.94-.7.804-.214,2.115-.763,2.678-.843.552-.078.439.106.416.558-3.095,1.23-6.833,2.529-9.647,4.279-3.601,2.239-6.28,6.661-6.661,10.915l1.46-3.177,1.347-1.604c-.862,1.93-.809,3.586.443,5.327.803,1.117,2.941,2.484,2.536.293-.456-2.471-1.526-3.487-.815-6.412.226-.928,1.805-3.563,2.474-4.277.802-.856,2.469-1.831,3.519-1.825-4.204,2.815-5.273,8.19-3.103,12.686,3.942-1.237,8.394-2.352,12.531-2.691.308-.025,1.306-.228,1.257.272l-18.193,5.573-7.956,7.233,12.089,2.387-3.503.57-39.441-4.701-3.453,1.324,31.498,6.322,3.087,1.831c-1.217-.198-2.428-.411-3.654-.56-.512-.062-1.118-.695-1.697.132l-17.703,26.177c-.062.471-.025.449.417.421,1.168-.074,2.394-.555,3.517-.848.726-.19,1.529-.188,2.255-.418l19.536-21.248c1.013-.81,3.141-.72,4.071-1.273.442-.263.515-.84.87-1.098.228-.166,2.13-.801,2.233-.717-7.873,14.542-16.154,28.87-24.184,43.322-.691,1.243-1.509,2.601-1.968,3.939h10.545s37.679-45.86,37.679-45.86c11.328-4.017,23.667-6.351,34.947-10.332,7.822-2.761,9.56-6.703,11.505-14.442,8.563-4.416,17.819-7.971,26.344-12.399.597-.31,2.149-.834,1.73-1.646l-28.917,13.482-1.737,5.36c-1.33-1.325-4.324-2.206-5.488-3.507-1.243-1.39-2.1-5.154-3.09-6.896.168-.563.843,0,1.129.137.554.268,1.347.811,1.888.924,1.37.285,9.138-.519,10.837-.846,2.016-.388,4.276-1.657,6.394-1.906.43-.4-.034-.509-.42-.557-1.262-.158-2.646-.142-3.903-.319-.357-.05-1.53-.112-1.581-.524,7.097-.838,14.207-3.261,20.719-6.141,6.324-2.798,12.949-6.393,14.851-13.566-1.299-.661-.784-2.564-2.105-2.808v-.414c2.074-1.27.808-1.939-.902-2.478-5.198-1.638-11.614-.521-16.922-1.076-3.926-.41-8.14-2.782-12.396-3.072-7.153-.488-21.122,5.078-24.677,11.63-1.847,3.405,1.101,7.436,3.431,9.906l-2.248-.702c1.821,2.983,5.204,4.981,8.434,6.19l-2.383.273-5.207-1.118c1.781,1.966,4.681,3.001,7.31,3.095l-3.937.843c-.088.099.234.852.283,1.123.493,2.757,2.195,5.115,2.809,7.877-.067.084-1.589-1.217-1.69-1.34-.802-.976-1.732-4.274-2.807-4.286l-30.651,8.156,19.334-6.378,2.035-2.201c-5.617.164-11.089,1.837-16.459,3.443l-.411-.485,8.976-4.105,1.423-1.666c-.265-.407-.542-.387-.965-.436-1.944-.222-6.424,1.199-8.591,1.702-1.326.308-2.638.813-3.937,1.125-5.016,1.204-10.078,2.234-15.041,3.661l-.014-.859,10.836-4.207-11.808,2.249-.17-1.136,31.104-10.819.278-.422c-1.22-.015-2.228-.413-3.492-.26-5.166.624-11.902,4.025-17.245,4.974-.397.07-1.039.34-.914-.351l23.9-7.745-.373-.516c-3.746.964-7.524,2.29-11.313,3.047-.426.085-.534.503-.966-.138,4.002-1.96,9.03-2.037,12.372-5.2l-30.089,10.685.28-.42,35.996-13.925c.336-.073.237-.516.281-.563.089-.094.205-.178.281-.281.379-.513.55-.993.844-1.407.591-.832,1.293-1.622,1.967-2.393l-.414-.134-19.412,7.87c-.19.061-.204-.267-.136-.416.131-.29,4.064-4.179,4.515-4.487,1.426-.973,3.587-1.351,5.135-2.177,2.102-1.123,3.885-2.965,5.932-4.193l8.501-19.118c.402.045,1.106-.241.912.398l-5.325,16.633c.061.508,3.143,2.426,3.664,2.568.61.165.859-.442,1.409-.461l-3.379-2.642,8.183-26.44-4.076-2.12.116-1.147c2.324-.543,4.673-.789,7.029-1.124l-8.178,30.529c.907.777,1.786,2.17,3.117,1.538l-.794-1.464,7.824-32.291c-3.054.317-6.269.556-9.279,1.124-.265.05-.659-.169-.866.183ZM75.096,52.44c-.248.302-1.566,2.971-1.559,3.239.019.81,1.264.947,1.69,1.252.428.307,3.289,2.628,3.654,2.251l.844-6.752-3.092.563c.417-1.202,2.935-2.032,4.218-2.532.266-.104.583-.123.841-.281l-.981,10.402c.219.252.461.636.839.568.63-.113,1.268-11.138,1.837-12.514-.784-.171-1.777.646-2.535.98-1.346.594-4.955,1.85-5.754,2.824Z"/>
    <path class="cls-18" d="M110.097,56.368c-.481-.727-.116-.513-.742-.334-.97.277-2.261.866-3.265,1.249-10.928,4.166-21.621,8.991-32.551,13.155l.389.531,35.325-13.194c.379-.513.55-.993.844-1.407Z"/>
    <line class="cls-25" x1="85.35" y1="80" x2="85.912" y2="80.281"/>
    <path class="cls-25" d="M89.568,79.718c-.018-.3-.139-.584-.281-.844"/>
    <path class="cls-12" d="M108.691,58.618c.336-.073.237-.516.281-.563l-.281.563Z"/>
    <path class="cls-18" d="M37.263,152.864c-.053.05-.613,1.085-.562,1.122l8.096-.059,35.505-44.234c3.529-.385,3.643-2.224,5.757-4.087,2.311-2.036,5.897-3.547,8.29-5.632l.283-.56c-.314-.056-.562.036-.852.132-1.545.51-7.586,3.63-8.914,4.586-1.148.826-1.988,2.979-2.903,3.566-.99.636-2.941.496-3.936,1.408l-32.034,39.692c-1.66,1.885-7.226,2.649-8.73,4.067Z"/>
    <path class="cls-18" d="M63.978,108.13l4.79-.719.496,3.615-12.876,21.728.415.415,18.973-24.908c1.225-1.121,3.145-.516,4.617-1.289,1.255-.659,2.716-3.556,4.131-4.588,1.621-1.181,4.343-2.039,6.176-3.116.364-.214.709.05.553-.699l-25.193,6.725-2.083,2.837Z"/>
    <path class="cls-18" d="M123.595,94.91c-.171-.565-.841.001-1.129.137-7.886,3.725-16.343,5.443-24.639,8.018l-1.939-.845.145-1.964c-.071-.09-.616.345-.841.281-2.356,2.257-5.551,3.829-8.008,5.914-.363.308-1.502,1.171-1.134,1.678l32.354-9.551c1.561-1.146,3.775-2.434,5.191-3.668Z"/>
    <path class="cls-18" d="M82.625,93.311c-.554.469-2.516,3.529-3.072,4.38-.156.239-.691.625-.251.875,1.822-.982,2.997-3.366,4.841-4.16,7.291-3.136,16.766-4.463,24.252-7.528l3.668-.404-4.282-1.076c-6.118,2.794-20.348,3.837-25.156,7.913Z"/>
    <path class="cls-18" d="M31.92,130.921c-.813.594-1.362.947-1.967,1.83.422.335,1.215-.016,1.686-.142.641-.172,2.203-.717,2.678-1.119l17.286-18.998-2.822.834c-5.107,5.147-9.757,11.28-14.886,16.336-.877.865-1.396.834-1.976,1.258Z"/>
    <path class="cls-18" d="M125.282,91.816c.068-.184.349-.348.16-.565l-5.216-3.372c-.267,1.113-1.123,1.869-1.974,2.531-.856.666-2.59,1.733-3.577,2.189-5.056,2.334-11.437,3.58-16.67,5.692.135.549.704.649,1.19.509,5.328-1.995,11.413-2.981,16.672-5.008,1.515-.584,5.608-3.231,6.671-3.054.819.137,1.724,1.214,2.744,1.079Z"/>
    <path class="cls-18" d="M47.668,109.539c.02.088-.015.19,0,.281l1.016,1.711c4.517-1.44,10.138-2.413,12.763-6.772-.679-.554-9.74,5.7-12.161,5.294-.496-.083-1.248-.964-1.618-.514Z"/>
    <path class="cls-18" d="M63.416,59.184l8.738,7.738,4.758-.429-4.009-1.189c-3.085-2.18-5.758-5.004-9.487-6.12Z"/>
    <path class="cls-18" d="M64.542,96.597c1.983.108,1.538-3.119,2.538-3.788,3.299-1.191,7.114-1.888,10.34-3.172.428-.17.76.162.616-.633-4.407.304-8.466,2.025-12.653,3.234l-.842,4.359Z"/>
    <polygon class="cls-11" points="135.459 49.21 128.938 49.833 124.641 51.138 119.261 54.117 114.425 58.337 114.765 60.552 116.659 62.948 117.081 64.222 132.032 66.394 133.564 66.054 146.376 56.694 147.458 54.557 147.458 53.225 136.424 49.503 135.459 49.21"/>
    <path class="cls-18" d="M114.474,57.511c3.012-3.6,10.572-7.729,15.196-8.429,4.773-.722,8.396.109,12.84,1.725.829.301,5.34,2.179,5.503,2.651.173.502.116,1.553-.1,2.06-.865,2.033-12.349,10.761-14.635,11.525-.422.141-.859.269-1.311.218l-16.183-3.081c-.427-2.199-2.965-4.692-1.31-6.67ZM130.347,58.336l.837-1.966,1.833,3.935.703-4.217,2.808,2.249-.839-5.625c.246-.274,4.895,2.895,5.487,3.089.423.138.444.009.37-.367-.185-.939-.362-1.747-.233-2.723l5.341,1.403c-.387-.595-1.406-.881-2.062-1.169-2.284-1.004-6.974-2.736-9.35-3.024-1.641-.199-3.21-.035-4.992.245-.334.079-.382.841-.468,1.138-.704,2.433.363,4.562.565,7.032ZM118.811,55.1c-.634.536-3.477,3.428-3.613,4.002-.267,1.13,1.521,2.629,2.352,3.173l.142-1.686,1.963,1.688-.557-3.376,2.951,3.093-.151-3.022c.42.357.486.383.653.57.619.695,1.096,1.663,1.885,2.172l-.838-4.783,3.514,4.219-.141-2.81,1.967,1.121c-.95-2.798-1.592-5.793-.844-8.716-.378-.331-5.519,1.872-6.291,2.282-.753.401-1.042.687-1.669,1.022-.537.287-.688.516-1.322,1.052ZM134.703,58.343l-1.405,3.932-1.826-2.249c-.732,2.013.887,4.203,2.542,5.234,1.854-1.11,12.334-8.662,12.362-10.155l-4.22-.988-.145,3.098-4.356-1.972v5.064s-2.953-1.964-2.953-1.964ZM125.283,60.589l.277,3.093-2.389-1.968-.142,1.686-2.527-1.686.014,2.235,10.671,1.699c-.744-.783-1.79-4.532-2.395-4.777-.838-.339-.482,1.991-.98,2.248-.212-.222-.288-.335-.562-.563.117-.548-1.682-2.281-1.967-1.968ZM118.25,63.684l1.407-.004c-.09-.246-1.067-1.798-1.404-1.402l-.003,1.407Z"/>
    <path class="cls-18" d="M131.75,72.969c.125.317.685.976.975,1.016.349.049,6.1-1.217,6.901-1.439,5.098-1.418,15.77-5.892,19.817-9.151.885-.713,5.735-5.9,5.726-6.607-.002-.166-.717-.933-1.086-.58-7.38,10.03-20.549,14.426-32.333,16.762Z"/>
    <path class="cls-18" d="M117.41,65.653c-.206.735.686.74,1.186.917,2.785.983,9.833,3.226,12.526,3.514,1.908.205,3.017-.233,4.539-1.222,4.33-2.816,8.238-6.609,12.399-9.677-.515-.12-.779.173-1.164.38-4.773,2.552-9.091,7.493-14.297,9.351l-15.188-3.262Z"/>
    <path class="cls-18" d="M148.06,52.432c1.407,1.413,1.099,2.932-.281,4.214,1.72.407,2.46-1.917,3.004-2.196,2.005-1.029,8.365-1.14,10.558-.537,1.213.334,1.617,1.109,2.748,1.327-.387-.701-.376-1.263,0-1.964-2.944.027-5.597-.707-8.59-.579-1.501.064-3.711.739-5.053.597-.943-.1-1.393-.983-2.385-.862Z"/>
    <path class="cls-18" d="M121.909,53.275l.558,3.937-1.4-1.125c-.146.313-.306,1.96-.421,2.529l-2.391-2.248-.006,2.25-1.402-.842c-.43,1.912-.01,2.529.143,3.09l.42-1.685,1.4,1.405.006-2.812,2.389,2.249.142-2.53,1.963,1.688-.838-4.782,4.076,4.781.142-2.249,1.403.56c-.159-1.16-.835-1.275-1.825-1.688l-.283,1.69c-.664-.216-3.568-4.788-4.077-4.217Z"/>
    <path class="cls-18" d="M134.001,50.461l.558,3.937-1.681-1.125-.288,2.531-1.825-2.526c-.656.61-.728,1.45-.418,2.243l.28-.842,1.969,3.374.56-3.372,2.245,1.405-.557-4.783,5.901,3.093-.293-2.523-.829-.008-.139.842-5.484-2.247Z"/>
    <polygon class="cls-18" points="63.163 96.599 63.975 92.802 58.848 94.35 52.737 100.258 60.526 101.397 60.127 100.258 59.727 97.099 63.163 96.599"/>
    <polygon class="cls-18" points="76.912 98.855 63.975 102.485 62.662 98.566 66.526 98.566 66.919 99.397 76.912 98.855"/>
    <polygon class="cls-18" points="111.756 81.461 81.381 90.03 82.048 89.004 112.063 79.709 111.756 81.461"/>
    <polygon class="cls-18" points="83.019 61.985 69.763 53.273 68.916 54.195 82.619 63.414 83.019 61.985"/>
    <polygon class="cls-18" points="88.172 61.157 83.386 63.053 83.858 63.743 88.692 61.985 88.172 61.157"/>
    <polygon class="cls-18" points="50.733 152.422 46.144 158.106 30.763 158.106 32.157 155.725 33.36 156.988 44.586 157.347 49.82 152.074 50.733 152.422"/>
    <polygon class="cls-18" points="67.355 73.247 44.014 47.652 51.364 53.489 68.196 70.968 67.355 73.247"/>
  </g>
  <g>
    <g>
      <g>
        <circle class="cls-23" cx="475.992" cy="83.968" r="64.206"/>
        <path class="cls-16" d="M475.992,148.624c-35.652,0-64.656-29.005-64.656-64.656s29.005-64.656,64.656-64.656c35.651,0,64.656,29.005,64.656,64.656s-29.005,64.656-64.656,64.656ZM475.992,20.212c-35.155,0-63.757,28.601-63.757,63.757s28.602,63.757,63.757,63.757,63.756-28.601,63.756-63.757-28.601-63.757-63.756-63.757Z"/>
      </g>
      <path class="cls-10" d="M411.63,83.968c0-35.489,28.873-64.362,64.362-64.362,35.489,0,64.362,28.873,64.362,64.362,0,35.489-28.873,64.362-64.362,64.362s-64.362-28.873-64.362-64.362ZM411.941,83.968c0,35.318,28.733,64.051,64.051,64.051,35.318,0,64.051-28.733,64.051-64.051,0-35.318-28.733-64.051-64.051-64.051-35.318,0-64.051,28.733-64.051,64.051Z"/>
      <path class="cls-10" d="M475.992,148.808c-35.752,0-64.839-29.087-64.839-64.839s29.087-64.839,64.839-64.839c35.753,0,64.839,29.087,64.839,64.839,0,35.752-29.087,64.839-64.839,64.839ZM475.992,20.395c-35.055,0-63.573,28.519-63.573,63.573s28.519,63.574,63.573,63.574c35.055,0,63.574-28.519,63.574-63.574,0-35.055-28.519-63.573-63.574-63.573Z"/>
      <path class="cls-14" d="M534.044,98.462c-36.59-10.644-78.349-22.82-118.218-34.456.266-.991.513-1.986.729-2.984.421-1.95.844-3.904,1.328-5.842l117.112,38.142c-.329,1.711-.635,3.427-.951,5.14Z"/>
      <path class="cls-14" d="M533.544,101.087c-.329,1.666-.686,3.325-1.104,4.97-36.441-9.333-78.244-20.067-118.394-30.388.797-2.952,1.361-5.916,1.232-8.913l118.266,34.331Z"/>
      <path class="cls-14" d="M415.106,103.01l75.351,5.929,40.405,2.251c-.933,2.494-2.088,4.89-3.394,7.208-.278.321-.528.657-.748,1.011-24.729,3.116-57.53,7.217-93.064,11.707-7.961-7.855-14.012-17.862-18.551-28.107Z"/>
      <path class="cls-14" d="M535.702,89.869c-27.538-14.869-63.942-34.551-103.53-55.917,1.694-1.44,3.409-2.851,5.227-4.114,4.838-3.361,10.217-5.726,15.554-8.161l58.206,42.413,25.988,18.264c-.362,2.524-.905,5.024-1.446,7.514Z"/>
      <circle class="cls-1" cx="474.143" cy="81.274" r="61.613"/>
      <path class="cls-18" d="M393.2,81.368c0,1.363,1.105,2.468,2.468,2.468h.794s10.672,0,10.672,0c1.03,35.354,29.293,63.873,64.541,65.318v10.367s0,.794,0,.794c0,1.363,1.105,2.468,2.468,2.468s2.468-1.105,2.468-2.468v-.794s0-10.341,0-10.341c35.394-1.099,63.906-29.491,65.2-64.836h10.016s.794,0,.794,0c1.363,0,2.468-1.105,2.468-2.468,0-1.363-1.105-2.468-2.468-2.468h-.794s-10.013,0-10.013,0c-1.254-35.381-29.783-63.816-65.203-64.916V4.195s0-.794,0-.794c0-1.363-1.105-2.468-2.468-2.468-1.363,0-2.468,1.105-2.468,2.468v.794s0,10.324,0,10.324c-34.936,1.432-63.008,29.462-64.506,64.381h-10.708s-.794,0-.794,0c-1.363,0-2.468,1.105-2.468,2.468ZM412.905,83.835h20.513s.794,0,.794,0c1.363,0,2.468-1.105,2.468-2.468,0-1.363-1.105-2.468-2.468-2.468h-.794s-20.478,0-20.478,0c1.489-31.734,26.984-57.186,58.735-58.611v20.861s0,.794,0,.794c0,1.363,1.105,2.468,2.468,2.468,1.363,0,2.468-1.105,2.468-2.468v-.794s0-20.887,0-20.887c32.235,1.095,58.184,26.949,59.433,59.145h-21.172s-.794,0-.794,0c-1.363,0-2.468,1.105-2.468,2.468s1.105,2.468,2.468,2.468h.794s21.169,0,21.169,0c-1.288,32.159-27.221,57.971-59.43,59.065v-20.844s0-.794,0-.794c0-1.363-1.105-2.468-2.468-2.468s-2.468,1.105-2.468,2.468v.794s0,20.818,0,20.818c-32.063-1.438-57.745-27.379-58.771-59.548Z"/>
      <path class="cls-22" d="M470.742,160.314v-10.27c-16.959-.916-32.849-8.06-44.833-20.177-11.991-12.125-18.957-28.109-19.676-45.098h-10.565c-1.875,0-3.401-1.526-3.401-3.401,0-1.875,1.526-3.401,3.401-3.401h10.613c.939-16.791,8-32.554,19.942-44.475,11.943-11.922,27.723-18.954,44.518-19.862V3.401c0-1.875,1.526-3.401,3.401-3.401,1.875,0,3.401,1.526,3.401,3.401v10.193c17.027.752,33.027,7.777,45.139,19.84,12.109,12.06,19.2,28.025,20.025,45.041h9.912c1.875,0,3.401,1.526,3.401,3.401s-1.526,3.401-3.401,3.401h-9.916c-.845,16.999-7.943,32.945-20.048,44.988-12.109,12.047-28.099,19.062-45.113,19.813v10.236c0,1.875-1.526,3.401-3.401,3.401s-3.401-1.526-3.401-3.401ZM540.913,80.342l-.032-.9c-.598-16.878-7.529-32.748-19.515-44.685-11.99-11.941-27.895-18.806-44.785-19.331l-.904-.028V3.401c0-.846-.688-1.534-1.534-1.534s-1.534.688-1.534,1.534v12.013s-.895.037-.895.037c-16.661.683-32.348,7.559-44.171,19.361-11.822,11.801-18.726,27.472-19.44,44.128l-.038.893h-12.396c-.846,0-1.534.688-1.534,1.534s.688,1.534,1.534,1.534h12.372s.026.906.026.906c.491,16.852,7.299,32.743,19.17,44.746,11.861,11.993,27.656,18.978,44.477,19.667l.895.037v12.056c0,.846.688,1.534,1.534,1.534.846,0,1.534-.688,1.534-1.534v-12.04s.904-.028.904-.028c16.876-.524,32.772-7.38,44.758-19.305,11.982-11.92,18.921-27.771,19.538-44.632l.033-.899h11.71c.846,0,1.534-.688,1.534-1.534,0-.846-.688-1.534-1.534-1.534h-11.708ZM475.678,121.771c0-.846-.688-1.534-1.534-1.534-.846,0-1.534.688-1.534,1.534v22.589s-.975-.044-.975-.044c-15.752-.706-30.542-7.286-41.647-18.527-11.114-11.25-17.512-26.139-18.015-41.924l-.031-.963h22.271c.846,0,1.534-.688,1.534-1.534,0-.846-.688-1.534-1.534-1.534h-22.25s.046-.977.046-.977c.731-15.582,7.228-30.246,18.292-41.288,11.066-11.044,25.745-17.512,41.333-18.211l.975-.044v22.632c0,.846.688,1.534,1.534,1.534.846,0,1.534-.688,1.534-1.534v-22.647s.965.033.965.033c15.823.537,30.726,6.994,41.963,18.181,11.233,11.183,17.758,26.049,18.37,41.861l.038.97h-22.936c-.846,0-1.534.688-1.534,1.534,0,.846.688,1.534,1.534,1.534h22.934s-.039.971-.039.971c-.633,15.794-7.165,30.641-18.394,41.806-11.234,11.17-26.127,17.617-41.936,18.154l-.965.033v-22.604ZM514.078,85.277c-1.875,0-3.401-1.526-3.401-3.401,0-1.875,1.526-3.401,3.401-3.401h20.988c-.819-14.976-7.109-29.02-17.777-39.64-10.673-10.625-24.754-16.852-39.744-17.598v20.708c0,1.875-1.526,3.401-3.401,3.401-1.875,0-3.401-1.526-3.401-3.401v-20.671c-14.758.899-28.618,7.132-39.123,17.616-10.503,10.482-16.763,24.327-17.693,39.077h20.285c1.875,0,3.401,1.526,3.401,3.401,0,1.875-1.526,3.401-3.401,3.401h-20.336c.713,14.955,6.883,29.023,17.439,39.708,10.543,10.673,24.512,17.014,39.427,17.922v-20.628c0-1.875,1.526-3.401,3.401-3.401s3.401,1.526,3.401,3.401v20.665c14.977-.745,29.049-6.963,39.718-17.572,10.664-10.603,16.962-24.627,17.798-39.586h-20.983Z"/>
    </g>
    <g>
      <path class="cls-14" d="M498.277,102.614l38.398-4.576,3.453,1.323-7.923,1.59-.059-.29c1.138-.22,2.253-.463,3.341-.739.393-.1.88.003.986-.56l-28.756,4.01c-1.103-.006-2.98,1.473-3.772,1.543-.895.079-4.019-1.449-5.315-1.607-.12-.015-.205-.021-.27-.012l-.082-.681Z"/>
      <path class="cls-14" d="M479.098,65.59l4.758.428,8.738-7.738c-3.728,1.118-6.404,3.939-9.486,6.122l-4.01,1.188ZM464.188,59.119l-23.349-39.671.619-.367,24.969,42.369,7.325,3.015-.833-1.003.282-.531,29.518-19.703,6.75,3.652-1.76,1.757-.487-.487-4.23,1.813-17.996,17.459c-1.244.572-7.911-1.895-9.692-2.115l-.144.563-.273.672c-8.328-3.379-16.579-6.967-24.972-10.164-1.003-.384-2.297-.974-3.268-1.25-.625-.179-.261-.393-.739.334-.593-.833-1.294-1.622-1.968-2.394l.414-.135,19.416,7.873c.191.062.202-.267.135-.417-.044-.1-.537-.625-1.185-1.285l.681-.179c.155.202.185.323.789.191Z"/>
      <path class="cls-14" d="M490.647,107.918c-.39-.041-.675-.39-.578.299l25.503,39.474.93.343-23.423-42.683-1.326-.226,1.968,3.235c-1.05.079-2.053-.331-3.074-.443ZM492.034,107.234l-2.086-2.837-25.195-6.726c-.158.748.188.484.551.698,1.833,1.079,4.555,1.936,6.178,3.118,1.414,1.033,2.878,3.931,4.13,4.588,1.473.774,3.394.167,4.62,1.291l18.976,24.91.414-.414-12.877-21.73.496-3.617,4.793.719ZM438.65,95.504l18.932,5.538.111-.81-22.194-6.779,3.15,2.05ZM458.178,102.168c-8.298-2.575-16.755-4.291-24.643-8.02-.287-.135-.956-.701-1.129-.135-.534-.466-1.396-2.309-1.687-3.098,1.018.138,1.924-.942,2.743-1.077,1.065-.179,5.16,2.47,6.673,3.054,5.259,2.027,11.346,3.013,16.676,5.007.484.141,1.053.041,1.188-.507-5.233-2.112-11.613-3.359-16.67-5.694-.989-.455-2.722-1.522-3.579-2.188,2.355-1.17,2.936.584,5.001,1.326l30.63,8.178,1.493-.924-30.909-9.032c-1.009-.516-4.033-3.133-4.133-4.192-.111-1.129,2.241-3.541,1.575-4.925l30.654,8.158-19.337-6.38-2.036-2.2c5.617.164,11.091,1.836,16.462,3.444l.411-.484-8.976-4.107-1.423-1.666c.264-.408.543-.387.965-.434,1.945-.223,6.424,1.197,8.592,1.701-.141.258-.264.543-.282.845-.009.179-.041.361.021.534,4.274.578,8.891,2.575,13.089,3.095.305.038,1.024.241.953-.249-3.485-.88-6.929-1.91-10.405-2.816l.56-.282c5.019,1.203,10.082,2.232,15.045,3.661l.015-.859-10.839-4.206,11.81,2.25.17-1.135-31.108-10.821-.279-.422c1.22-.015,2.226-.414,3.491-.261,5.169.625,11.906,4.025,17.248,4.975.396.07,1.038.34.915-.352l-23.904-7.747.373-.516c3.746.965,7.524,2.291,11.314,3.048.428.085.537.505.968-.138-4.004-1.959-9.032-2.036-12.373-5.201l30.093,10.686-.282-.419-36.001-13.928-.282-.563c-.088-.094-.205-.176-.282-.279l35.332,13.194.39-.531c-2.54-.968-5.066-1.971-7.586-2.992l.273-.672,10.396,3.535,21.666-21.255.487.487-20.19,20.176c-.481,1.047-.598,2.631.578,3.25l-.282.147.282,1.261c-.804-.214-2.115-.763-2.678-.842-.551-.079-.44.106-.417.557,3.098,1.232,6.835,2.531,9.651,4.28,3.599,2.238,6.28,6.662,6.662,10.918l-1.461-3.18-1.346-1.605c.862,1.933.81,3.587-.443,5.33-.804,1.118-2.942,2.485-2.537.293.458-2.473,1.528-3.488.815-6.415-.226-.927-1.804-3.561-2.473-4.277-.804-.857-2.47-1.83-3.52-1.825,4.203,2.813,5.274,8.19,3.103,12.687-3.945-1.238-8.398-2.353-12.534-2.693-.308-.023-1.305-.226-1.258.273l18.199,5.573,7.955,7.237-12.091,2.385,3.505.572,1.05-.126.082.681c-.235.023-.153.191-.138.56l6.002,2.757c1.27-.461,2.238-1.399,3.549-1.778,7.404-2.144,16.412-2.617,24.373-4.174l.059.29-23.581,4.734-3.086,1.83c1.217-.197,2.426-.411,3.655-.56-.123.49-.76,1.317-.845,1.69-.15-.182-.358-.147-.59-.038-.343.167-.733.502-1.03.551-2.42.405-11.484-5.849-12.162-5.295,2.625,4.359,8.246,5.333,12.763,6.773l1.003-1.687.015-.023c4.928,7.175,10.586,14.024,15.749,21.103-.578-.425-1.097-.393-1.974-1.258-5.13-5.057-9.783-11.191-14.89-16.339l-2.822-.836,17.289,19.002c.475.402,2.039.947,2.678,1.121l-.282.144.563.98c-.727-.188-1.528-.188-2.256-.417l-19.539-21.252c-1.012-.81-3.142-.722-4.071-1.273-.44-.264-.513-.839-.871-1.1-.226-.164-2.13-.801-2.232-.716,7.876,14.544,16.157,28.873,24.188,43.329-.49-.047-.977.047-1.123.563-1.505-1.417-7.072-2.182-8.733-4.069l-32.041-39.697c-.994-.912-2.945-.771-3.937-1.408-.915-.59-1.754-2.743-2.901-3.567-1.332-.956-7.372-4.077-8.917-4.588-.29-.094-.537-.188-.851-.132l.282.56c-.475-.144-.795.549-.845.563-.223.065-.769-.373-.839-.282l.144,1.965-1.939.845ZM491.468,95.7l-.842-4.362c-4.189-1.209-8.246-2.93-12.654-3.233-.144.795.188.461.616.634,3.227,1.282,7.043,1.98,10.343,3.171,1,.669.554,3.898,2.537,3.79ZM476.708,97.669c.44-.249-.097-.637-.252-.874-.554-.854-2.517-3.913-3.071-4.382-4.811-4.077-19.043-5.119-25.162-7.914l-4.283,1.077,3.67.405c7.486,3.065,16.964,4.391,24.256,7.53,1.845.792,3.018,3.177,4.843,4.159Z"/>
      <path class="cls-14" d="M462.718,59.107c-1.238-1.255-3.033-3.001-3.329-3.203-1.426-.974-3.587-1.349-5.136-2.177-2.103-1.123-3.887-2.966-5.934-4.195l-8.501-19.123c-.402.047-1.109-.241-.912.399l5.324,16.635c-.062.507-3.142,2.426-3.664,2.567-.61.167-.859-.44-1.408-.461l3.379-2.643-8.184-26.444,4.074-2.121-.114-1.147c.425.1.848.44,1.405.282l-1.123-1.968c.264.05.657-.17.865.182l1.998,3.391-.619.367-.833.419,16.57,33.153c3.781.537,4.418,3.655,6.682,5.752.059.056.103.109.141.155l-.681.179Z"/>
    </g>
    <path class="cls-14" d="M479.376,52.087c.419,1.207.477,2.923,1.406,3.939-.428.307-3.289,2.628-3.655,2.251l-.844-6.753,3.092.563Z"/>
    <polyline class="cls-14" points="482.169 84.581 462.64 79.099 464.259 76.186 484.703 82.019"/>
    <polygon class="cls-13" points="479.777 56.926 481.612 55.414 480.042 52.158 477.943 51.826 479.777 56.926"/>
    <polyline class="cls-14" points="487.518 68.814 488.096 72.065 487.518 72.346 486.268 70.66 487.518 68.814"/>
    <path class="cls-14" d="M475.158,48.71v.844c-.266-.104-.583-.123-.841-.281l.982,10.404c-.219.252-.461.636-.84.568-.63-.113-1.268-11.14-1.837-12.516.785-.171,1.778.646,2.536.981Z"/>
    <g>
      <path class="cls-14" d="M408.217,55.742c-1.379-1.282-1.69-2.801-.282-4.215-.991-.12-1.44.763-2.385.862-1.343.141-3.552-.534-5.054-.598-2.992-.126-5.647.607-8.592.581.375.701.387,1.261,0,1.962,1.132-.217,1.537-.991,2.749-1.326,2.194-.604,8.554-.493,10.56.537.543.279,1.285,2.605,3.004,2.197ZM408.082,54.613c.865,2.036,12.352,10.765,14.64,11.528.419.141.857.27,1.311.22l16.183-3.083c.428-2.2,2.966-4.693,1.311-6.67-3.013-3.602-10.575-7.732-15.198-8.43-4.775-.722-8.398.109-12.842,1.725-.83.302-5.342,2.179-5.506,2.652-.173.502-.114,1.552.1,2.059ZM429.451,77.153c-2.438.023-4.907-1.106-7.454.117,0,.135,2.074.613,2.426.669,2.361.384,8.712,1.179,10.798.742.243-.05,2.458-.786,1.965-1.267-1.229-.065-2.273-.842-3.517-.871-1.311-.032-2.93.598-4.218.61ZM418.481,76.851c1.261-.158,2.646-.141,3.904-.32.358-.05,1.531-.111,1.581-.525-7.099-.836-14.209-3.259-20.721-6.142-1.367-.604-2.749-1.247-4.095-1.957l.387-.742c4.913,2.432,18.322,7.413,23.206,7.7.51.032,1.05.07,1.223-.546-2.385-.695-4.869-1.167-7.245-1.898-.821-.252-1.725-.537-2.687-.854l.188-.59c.789.264,1.514.49,2.15.666.801.223,6.553,1.49,6.902,1.44.29-.041.851-.701.977-1.018-11.786-2.335-24.96-6.732-32.34-16.764-.37-.352-1.085.414-1.085.581-.003.199.381.754.953,1.467l-.81.179c-.197-.264-.361-.455-.466-.525-.405-.261-.833.106-.842.287-.003.073.029.182.085.317l-.824.305c-.205-.519-.381-1.056-.531-1.616,1.299-.663.783-2.564,2.106-2.807v-.417c-2.074-1.27-.81-1.939.901-2.479,5.201-1.637,11.616-.519,16.925-1.074,3.928-.411,8.143-2.784,12.399-3.074,7.154-.487,21.126,5.078,24.681,11.631,1.848,3.409-1.103,7.439-3.432,9.909l2.247-.701c-1.822,2.983-5.204,4.981-8.433,6.189l2.382.273,5.21-1.118c-1.781,1.968-4.682,3.001-7.313,3.095l3.939.845c.088.1-.235.854-.285,1.123-.493.296-1.132.924-1.405,1.408-.17-.563-.845-.003-1.129.135-.554.27-1.346.813-1.889.924-1.37.285-9.137-.519-10.839-.845-2.015-.387-4.277-1.657-6.395-1.907-.431-.399.035-.507.419-.557ZM437.407,65.666c.499-.176,1.39-.182,1.185-.915l-15.192,3.262c-5.207-1.86-9.525-6.8-14.3-9.352-.384-.208-.648-.502-1.165-.381,4.162,3.068,8.073,6.864,12.402,9.68,1.522.989,2.631,1.426,4.541,1.223,2.693-.29,9.742-2.534,12.528-3.517Z"/>
      <path class="cls-14" d="M396.551,62.492c3.541,2.851,12.159,6.635,17.671,8.486l-.188.59c-6.879-2.247-16.694-6.002-20.715-10.625-.519-.598-1.646-2.473-2.35-3.414l.81-.179c1.455,1.81,4.136,4.629,4.773,5.142Z"/>
      <path class="cls-14" d="M399.537,67.165l-.387.742c-.59-.308-1.17-.631-1.739-.965l.405-.698c.481.279.98.546,1.493.807.073.038.15.076.229.114Z"/>
      <path class="cls-14" d="M397.815,66.244l-.405.698c-.575-.34-1.138-.695-1.687-1.068l.364-.751c.554.402,1.129.771,1.728,1.121Z"/>
      <path class="cls-14" d="M396.087,65.123l-.364.751c-2.96-2.015-5.456-4.541-6.802-7.961l.824-.305c.54,1.258,3.444,4.905,4.121,5.6.71.727,1.443,1.355,2.221,1.915Z"/>
    </g>
    <polygon class="cls-14" points="421.124 77.384 428.333 77.974 430.978 76.541 425.359 75.906 420.311 77.264 421.124 77.384"/>
    <polygon class="cls-13" points="440.583 82.95 449.774 81.46 441.542 77.974 440.007 82.259 440.583 82.95"/>
    <polygon class="cls-13" points="436.081 89.132 472.843 99.255 474.214 98.5 438.319 88.105 436.081 89.132"/>
    <polygon class="cls-13" points="460.178 99.41 461.529 98.825 462.8 99.41 460.962 100.5 460.178 99.41"/>
    <polyline class="cls-13" points="456.575 53.021 460.695 54.955 460.425 53.649 456.575 51.815 456.575 53.021"/>
    <path class="cls-13" d="M519.878,151.414c.691,1.243,1.509,2.602,1.969,3.939h-10.547s-37.686-45.868-37.686-45.868c-11.33-4.017-23.672-6.352-34.953-10.334-7.824-2.761-9.562-6.704-11.507-14.445-8.565-4.417-17.822-7.972-26.348-12.401-.597-.31-2.149-.835-1.73-1.646l28.922,13.484,1.737,5.361c1.33-1.325,4.325-2.206,5.489-3.508,1.243-1.39,2.101-5.155,3.09-6.898.275-.484.912-1.11,1.406-1.407-.493,2.757-2.195,5.116-2.81,7.879.067.084,1.589-1.218,1.69-1.34.802-.976,1.733-4.274,2.807-4.287.667,1.383-1.685,3.795-1.575,4.925.102,1.057,3.125,3.674,4.135,4.191l30.909,9.032-1.494.924-30.629-8.178c-2.066-.743-2.645-2.496-5.001-1.328-.851-.662-1.707-1.417-1.974-2.531l-5.217,3.373c-.19.217.092.381.16.565.29.787,1.154,2.63,1.688,3.095,1.417,1.234,3.631,2.522,5.192,3.669l32.359,9.553c.368-.507-.772-1.371-1.135-1.679-2.457-2.086-5.653-3.658-8.01-5.915.049-.014.368-.708.844-.563,2.393,2.086,5.98,3.597,8.291,5.633,2.115,1.863,2.228,3.703,5.758,4.088l35.511,44.242,8.098.059c.05-.037-.509-1.073-.562-1.123.147-.516.634-.61,1.125-.563Z"/>
    <path class="cls-13" d="M438.594,15.507l1.124,1.968c-.555.16-.978-.18-1.405-.28-2.324-.543-4.674-.789-7.03-1.124l8.179,30.534c-.908.778-1.786,2.171-3.117,1.538l.794-1.464-7.825-32.297c3.054.317,6.27.556,9.28,1.124Z"/>
    <path class="cls-13" d="M509.19,106.956c.512-.062,1.118-.695,1.698.132l17.706,26.181c.062.471.025.449-.417.421-1.168-.074-2.395-.555-3.517-.848l-.565-.979.284-.146c.471.127,1.264.477,1.686.142-.605-.883-1.155-1.236-1.967-1.83-5.165-7.078-10.822-13.927-15.751-21.104.015-.091-.02-.193,0-.281.086-.372.722-1.199.844-1.688Z"/>
    <path class="cls-13" d="M480.783,56.026c-.348-1.071-.988-2.732-1.406-3.939s-2.936-2.033-4.219-2.532v-.844c1.346.594,4.956,1.851,5.755,2.824.248.302,1.566,2.972,1.56,3.239-.019.81-1.264.948-1.69,1.253Z"/>
    <path class="cls-13" d="M488.096,72.065l.56.281c-.05-.643.349-3.016,1.264-2.813l2.117,4.639c-.053.682-3.642-.621-3.941-.7l-.281-1.262.281-.145Z"/>
    <path class="cls-13" d="M493.078,105.352l23.425,42.683-.931-.342-25.504-39.475c-.094-.691.188-.342.579-.299,1.021.111,2.024.521,3.074.442l-1.967-3.234,1.324.226Z"/>
    <path class="cls-13" d="M440.84,19.447l23.349,39.671c-.747.163-.617-.057-.93-.347-2.264-2.097-2.901-5.214-6.684-5.751l-16.568-33.154.833-.419Z"/>
    <path class="cls-13" d="M507.221,48.15l-21.665,21.257-10.397-3.537.143-.562c1.781.222,8.45,2.688,9.692,2.114l17.996-17.458,4.231-1.814Z"/>
    <path class="cls-13" d="M536.472,99.362c-.108.563-.594.46-.985.559-8.695,2.195-19.254,2.464-27.715,4.914-1.312.38-2.28,1.319-3.55,1.777l-6-2.755c-.019-.471-.148-.617.406-.549,1.295.158,4.42,1.686,5.316,1.606.792-.071,2.668-1.549,3.771-1.543l28.757-4.009Z"/>
    <polygon class="cls-13" points="457.692 100.231 457.583 101.043 438.651 95.503 435.5 93.453 457.692 100.231"/>
    <path class="cls-13" d="M423.967,74.319c-.174.614-.713.577-1.225.546-4.96-.293-18.721-5.429-23.434-7.816-2.058-1.042-3.823-2.182-5.442-3.841-.751-.77-4.232-5.161-4.205-5.918.007-.18.436-.548.842-.285.489.316,2.151,3.171,2.816,3.937,4.581,5.27,16.689,9.411,23.402,11.479,2.375.732,4.859,1.205,7.246,1.899Z"/>
    <path class="cls-13" d="M437.188,77.414c.49.48-1.723,1.217-1.966,1.268-2.086.436-8.437-.358-10.798-.742-.352-.057-2.429-.533-2.427-.67,5.396-.292,5.019-.094,7.455-.116,1.287-.012,2.907-.644,4.219-.612,1.244.031,2.287.808,3.518.872Z"/>
    <path class="cls-24" d="M511.018,156.761c-.419.008-1.074.752-1.701-.271l-35.931-44.102c-11.104-3.832-22.476-6.941-33.602-10.703-3.857-1.304-7.647-2.107-10.339-5.414-2.365-2.905-3.121-6.644-4.423-10.067l-28.128-13.85c-2.982-6.623-11.597-6.147-14.005-13.64-4.254-13.236,19.632-10.165,26.278-11.445,8.097-1.559,10.753-4.117,19.862-1.793.997.254,4.962,2.047,5.506,1.279l-7.473-34.622,13.35,2.54,28.757,46.36c1.078.127,2.277,1.386,3.187.434l-1.417-16.412,11.041,5.055,2.589,3.396,17.803-12.063.891.099,8.736,5.205-20.207,20.717,4.612,8.528c5.548,2.627,7.433,7.771,7.155,13.657-.033.704-.566,1.718-.482,2.212.051.304,2.732,4.946,3.06,5.346.41.499,2.61,2.247,3.178,2.307l28.14-2.687,8.015,3.099-31.781,6.19,19.406,30.383-13.047-3.124-17.315-20.383c-.237-.547-2.843-1.457-3.107-1.25l25.313,45.018c-4.635.065-9.285-.087-13.922,0ZM438.594,15.507c-3.01-.568-6.226-.807-9.28-1.124l7.825,32.297-.794,1.464c1.331.633,2.21-.761,3.117-1.538l-8.179-30.534c2.357.335,4.706.58,7.03,1.124l.116,1.147-4.076,2.12,8.184,26.445-3.379,2.643c.55.019.8.627,1.409.461.521-.141,3.603-2.06,3.665-2.568l-5.326-16.636c-.194-.639.51-.353.912-.398l8.503,19.122c2.048,1.228,3.831,3.071,5.934,4.194,1.548.827,3.71,1.204,5.136,2.178.451.308,4.385,4.198,4.516,4.488.068.149.053.478-.136.416l-19.416-7.871-.414.134c.674.771,1.376,1.561,1.967,2.393.294.414.465.893.844,1.407.076.104.192.187.281.281.044.046-.054.489.281.563l36.002,13.928.28.42-30.095-10.687c3.342,3.163,8.371,3.241,12.374,5.201-.432.64-.541.223-.966.138-3.79-.757-7.569-2.084-11.315-3.048l-.373.516,23.904,7.746c.125.692-.517.422-.914.351-5.343-.948-12.081-4.35-17.248-4.975-1.264-.153-2.272.245-3.492.26l.278.422,31.11,10.821-.17,1.136-11.81-2.25,10.837,4.207-.014.859c-4.963-1.428-10.027-2.457-15.044-3.662-1.3-.312-2.611-.818-3.938-1.126-2.168-.503-6.648-1.924-8.592-1.702-.423.048-.699.029-.965.436l1.423,1.666,8.977,4.106-.412.485c-5.371-1.607-10.844-3.28-16.462-3.444l2.035,2.201,19.338,6.379-30.656-8.157c-1.075.013-2.005,3.311-2.807,4.287-.101.123-1.623,1.425-1.69,1.34.614-2.762,2.317-5.122,2.81-7.879.048-.271.371-1.025.283-1.123l-3.938-.844c2.63-.094,5.53-1.129,7.311-3.095l-5.208,1.118-2.384-.273c3.23-1.209,6.614-3.208,8.436-6.191l-2.249.702c2.33-2.47,5.279-6.502,3.432-9.908-3.555-6.553-17.526-12.12-24.681-11.632-4.256.29-8.471,2.662-12.398,3.073-5.309.555-11.726-.562-16.925,1.076-1.711.539-2.976,1.208-.902,2.478v.414c-1.322.244-.806,2.147-2.106,2.808,1.903,7.173,8.529,10.77,14.854,13.568,6.513,2.881,13.624,5.305,20.722,6.142-.051.412-1.224.474-1.581.524-1.258.177-2.642.161-3.904.319-.386.048-.851.158-.42.557,2.119.249,4.379,1.518,6.395,1.906,1.7.327,9.469,1.131,10.839.846.541-.112,1.334-.656,1.888-.924.286-.138.961-.701,1.129-.137-.99,1.743-1.847,5.507-3.09,6.898-1.164,1.302-4.159,2.183-5.489,3.508l-1.737-5.361-28.922-13.484c-.419.811,1.133,1.336,1.73,1.646,8.526,4.428,17.784,7.984,26.348,12.401,1.945,7.741,3.684,11.684,11.507,14.445,11.282,3.982,23.623,6.317,34.953,10.334l37.686,45.868h10.547c-.46-1.337-1.278-2.696-1.969-3.939-8.032-14.455-16.314-28.786-24.188-43.33.102-.083,2.005.551,2.233.717.356.259.429.836.871,1.099.929.553,3.058.463,4.071,1.273l19.539,21.252c.726.229,1.529.228,2.255.418,1.122.293,2.349.774,3.517.848.442.028.479.05.417-.421l-17.706-26.181c-.58-.827-1.186-.195-1.698-.132-1.226.149-2.438.362-3.655.56l3.088-1.831,31.504-6.323-3.453-1.324-39.448,4.701-3.503-.57,12.091-2.387-7.957-7.234-18.197-5.574c-.049-.5.949-.297,1.257-.272,4.137.339,8.59,1.455,12.533,2.692,2.171-4.497,1.102-9.873-3.103-12.688,1.05-.006,2.717.969,3.519,1.825.669.715,2.249,3.35,2.474,4.278.711,2.926-.358,3.942-.815,6.413-.405,2.191,1.734.824,2.536-.293,1.251-1.742,1.305-3.398.443-5.328l1.347,1.604,1.46,3.178c-.381-4.255-3.061-8.678-6.662-10.917-2.814-1.75-6.553-3.049-9.648-4.279-.023-.452-.136-.636.416-.558.563.079,1.874.629,2.678.843.299.079,3.888,1.383,3.941.7l-2.117-4.639c-.915-.203-1.314,2.169-1.264,2.813l-.56-.281c-.281-1.074-.762-3.072-.578-3.251l21.948-21.932-6.747-3.652-29.52,19.702-.282.531.834,1.002-7.326-3.014-26.966-45.761c-.206-.351-.601-.133-.866-.183ZM475.158,48.71c-.758-.335-1.751-1.152-2.536-.981.569,1.376,1.207,12.403,1.837,12.516.379.068.621-.316.84-.568l-.982-10.404c.258.158.574.178.841.281,1.283.5,3.802,1.33,4.219,2.532l-3.092-.563.844,6.753c.366.377,3.227-1.944,3.655-2.251.426-.305,1.671-.443,1.69-1.253.006-.267-1.312-2.937-1.56-3.239-.8-.973-4.41-2.23-5.755-2.824Z"/>
    <path class="cls-24" d="M445.906,55.463c.481-.727.116-.513.742-.335.971.277,2.262.866,3.266,1.249,10.93,4.167,21.625,8.993,32.557,13.157l-.389.531-35.332-13.196c-.379-.514-.55-.993-.844-1.407Z"/>
    <path class="cls-12" d="M447.313,57.714c-.336-.073-.237-.516-.281-.563l.281.563Z"/>
    <path class="cls-24" d="M518.753,151.977c.053.05.613,1.085.562,1.123l-8.098-.059-35.511-44.242c-3.53-.385-3.643-2.225-5.758-4.088-2.311-2.037-5.898-3.547-8.291-5.633l-.283-.56c.314-.056.562.036.852.132,1.545.51,7.587,3.63,8.916,4.587,1.148.826,1.988,2.979,2.904,3.567.99.636,2.941.496,3.937,1.408l32.04,39.699c1.661,1.885,7.228,2.649,8.731,4.068Z"/>
    <path class="cls-24" d="M492.033,107.235l-4.791-.719-.496,3.616,12.878,21.732-.415.415-18.977-24.912c-1.225-1.122-3.146-.516-4.618-1.289-1.255-.659-2.716-3.557-4.132-4.589-1.621-1.182-4.344-2.039-6.177-3.117-.364-.214-.709.05-.553-.699l25.197,6.726,2.083,2.837Z"/>
    <path class="cls-24" d="M432.406,94.013c.171-.566.841.001,1.129.137,7.888,3.726,16.346,5.444,24.643,8.019l1.939-.845-.145-1.964c.071-.09.616.345.841.281,2.357,2.257,5.552,3.83,8.01,5.915.363.308,1.502,1.172,1.135,1.679l-32.359-9.553c-1.561-1.147-3.776-2.435-5.192-3.669Z"/>
    <path class="cls-24" d="M473.383,92.413c.554.469,2.517,3.529,3.072,4.381.156.239.691.625.251.875-1.822-.983-2.997-3.367-4.842-4.16-7.292-3.136-16.769-4.464-24.257-7.529l-3.668-.405,4.283-1.077c6.119,2.795,20.352,3.838,25.161,7.915Z"/>
    <path class="cls-24" d="M524.097,130.029c.813.594,1.362.947,1.967,1.83-.422.335-1.215-.016-1.686-.142-.641-.172-2.203-.717-2.679-1.119l-17.289-19.001,2.822.835c5.108,5.148,9.759,11.282,14.888,16.339.877.865,1.396.834,1.976,1.259Z"/>
    <path class="cls-24" d="M430.718,90.917c-.068-.184-.349-.348-.16-.565l5.217-3.373c.267,1.114,1.123,1.869,1.974,2.531.856.666,2.591,1.734,3.578,2.189,5.057,2.334,11.439,3.581,16.673,5.693-.135.549-.704.649-1.19.509-5.329-1.995-11.415-2.981-16.675-5.009-1.515-.584-5.609-3.232-6.672-3.055-.819.137-1.725,1.215-2.744,1.079Z"/>
    <path class="cls-24" d="M508.346,108.644c-.02.088.015.19,0,.281l-1.017,1.711c-4.518-1.44-10.14-2.413-12.765-6.773.679-.554,9.742,5.701,12.163,5.295.496-.083,1.248-.964,1.618-.514Z"/>
    <path class="cls-24" d="M492.596,58.28l-8.739,7.739-4.759-.429,4.01-1.189c3.085-2.18,5.759-5.004,9.489-6.121Z"/>
    <path class="cls-24" d="M491.469,95.7c-1.984.108-1.538-3.12-2.539-3.788-3.3-1.191-7.115-1.889-10.342-3.173-.428-.17-.76.162-.617-.633,4.408.304,8.467,2.025,12.655,3.234l.842,4.36Z"/>
    <polygon class="cls-13" points="408.69 52.798 408.69 54.165 413.277 59.174 421.724 64.746 423.541 65.333 427.583 64.746 439.343 62.971 440.831 59.648 441.57 58.252 440.831 56.914 437.047 53.353 432.172 50.709 427.062 48.928 422.438 48.304 419.272 48.666 413.876 50.29 408.69 52.798"/>
    <path class="cls-24" d="M440.218,63.278l-16.186,3.081c-.452.051-.889-.077-1.311-.218-2.286-.764-13.773-9.494-14.638-11.527-.216-.508-.273-1.559-.1-2.061.163-.472,4.675-2.35,5.504-2.651,4.444-1.617,8.068-2.447,12.842-1.725,4.625.7,12.186,4.829,15.199,8.43,1.656,1.979-.882,4.472-1.31,6.671ZM426.218,50.399c-.086-.296-.134-1.059-.468-1.138-1.782-.28-3.351-.444-4.993-.245-2.377.288-7.067,2.021-9.352,3.025-.657.289-1.675.574-2.063,1.169l5.342-1.403c.129.975-.048,1.784-.233,2.723-.074.376-.053.505.37.367.593-.194,5.243-3.364,5.488-3.09l-.839,5.626,2.808-2.25.703,4.218,1.833-3.936.837,1.966c.203-2.47,1.27-4.599.566-7.033ZM435.868,53.143c-.628-.335-.916-.622-1.669-1.023-.772-.411-5.914-2.614-6.292-2.283.748,2.924.105,5.92-.845,8.718l1.967-1.121-.141,2.811,3.514-4.219-.838,4.783c.789-.509,1.266-1.477,1.885-2.172.167-.187.232-.213.653-.57l-.151,3.022,2.952-3.093-.557,3.376,1.963-1.688.142,1.687c.831-.544,2.619-2.043,2.352-3.173-.136-.574-2.979-3.466-3.613-4.003s-.785-.765-1.322-1.052ZM418.343,59.403v-5.065s-4.356,1.973-4.356,1.973l-.145-3.099-4.22.988c.028,1.493,10.51,9.047,12.364,10.156,1.655-1.031,3.275-3.221,2.542-5.235l-1.827,2.249-1.405-3.932-2.953,1.964ZM428.749,61.654c-.275.228-.351.341-.563.563-.498-.257-.142-2.587-.98-2.248-.605.245-1.651,3.994-2.395,4.778l10.672-1.7.014-2.235-2.527,1.687-.142-1.687-2.389,1.968.277-3.094c-.285-.314-2.085,1.42-1.967,1.968ZM437.748,61.374c-.337-.396-1.314,1.157-1.405,1.403l1.408.004-.003-1.407Z"/>
    <path class="cls-24" d="M424.249,72.068c-.125.317-.685.976-.975,1.017-.349.049-6.101-1.217-6.902-1.44-5.099-1.418-15.773-5.893-19.821-9.153-.885-.713-5.736-5.901-5.727-6.609.002-.166.717-.933,1.086-.58,7.381,10.031,20.553,14.429,32.339,16.765Z"/>
    <path class="cls-24" d="M438.592,64.75c.206.735-.686.74-1.186.917-2.785.983-9.835,3.226-12.528,3.515-1.908.205-3.018-.233-4.54-1.223-4.331-2.816-8.24-6.611-12.401-9.679.515-.12.779.173,1.165.38,4.774,2.553,9.092,7.494,14.3,9.353l15.191-3.263Z"/>
    <path class="cls-24" d="M407.936,51.527c-1.408,1.413-1.099,2.932.281,4.215-1.72.408-2.46-1.917-3.005-2.197-2.005-1.029-8.367-1.141-10.559-.537-1.213.334-1.617,1.109-2.749,1.327.387-.701.376-1.263,0-1.964,2.945.027,5.598-.707,8.592-.579,1.501.064,3.711.739,5.054.597.943-.1,1.393-.983,2.385-.862Z"/>
    <path class="cls-24" d="M434.092,52.37l-.558,3.938,1.401-1.125c.146.313.306,1.961.421,2.53l2.392-2.249.006,2.251,1.402-.843c.43,1.912.01,2.53-.143,3.091l-.42-1.685-1.4,1.405-.006-2.812-2.389,2.25-.142-2.531-1.963,1.688.838-4.783-4.077,4.782-.142-2.25-1.403.56c.159-1.161.836-1.275,1.825-1.688l.283,1.69c.664-.216,3.569-4.789,4.078-4.218Z"/>
    <path class="cls-24" d="M421.998,49.556l-.558,3.938,1.681-1.125.288,2.532,1.825-2.527c.656.611.728,1.451.418,2.243l-.28-.842-1.97,3.374-.56-3.373-2.246,1.405.557-4.783-5.902,3.094.293-2.523.83-.008.139.843,5.485-2.248Z"/>
    <polygon class="cls-24" points="492.848 95.702 492.037 91.904 497.164 93.453 503.276 99.362 495.485 100.5 495.885 99.362 496.285 96.202 492.848 95.702"/>
    <polygon class="cls-24" points="479.097 97.958 492.037 101.589 493.35 97.669 489.485 97.669 489.092 98.5 479.097 97.958"/>
    <polygon class="cls-24" points="444.247 80.561 474.627 89.132 473.96 88.105 443.94 78.809 444.247 80.561"/>
    <polygon class="cls-24" points="472.989 61.081 486.247 52.368 487.094 53.29 473.389 62.511 472.989 61.081"/>
    <polygon class="cls-24" points="467.835 60.253 472.622 62.15 472.15 62.84 467.315 61.081 467.835 60.253"/>
    <polygon class="cls-24" points="505.28 151.534 509.87 157.22 525.254 157.22 523.859 154.838 522.657 156.101 511.429 156.461 506.194 151.186 505.28 151.534"/>
    <polygon class="cls-24" points="488.656 72.346 512.001 46.746 504.649 52.584 487.814 70.066 488.656 72.346"/>
  </g>
  <g>
    <g>
      <path class="cls-9" d="M365.847,55.918h-1.886c-.246-5.725-4.848-10.32-10.575-10.555v-1.823c0-.223-.181-.405-.405-.405s-.405.181-.405.405v1.818c-5.807.18-10.484,4.842-10.69,10.643h-1.772c-.223,0-.405.181-.405.405s.181.405.405.405h1.772c.212,5.795,4.887,10.449,10.689,10.63v1.826c0,.223.181.405.405.405s.405-.181.405-.405v-1.83c5.779-.237,10.412-4.913,10.581-10.709h1.88c.223,0,.405-.181.405-.405s-.181-.405-.405-.405ZM353.386,66.49v-3.543c0-.223-.181-.405-.405-.405s-.405.181-.405.405v3.547c-5.28-.179-9.532-4.411-9.743-9.683h3.601c.223,0,.405-.181.405-.405s-.181-.405-.405-.405h-3.601c.205-5.278,4.459-9.517,9.744-9.697v3.555c0,.223.181.405.405.405s.405-.181.405-.405v-3.55c5.205.233,9.385,4.406,9.629,9.609h-3.487c-.223,0-.405.181-.405.405s.181.405.405.405h3.493c-.168,5.274-4.379,9.527-9.635,9.763Z"/>
      <path class="cls-22" d="M352.981,69.814c-.302,0-.548-.246-.548-.549v-1.687c-5.747-.25-10.402-4.879-10.683-10.624h-1.634c-.302,0-.548-.246-.548-.548s.246-.549.548-.549h1.634c.275-5.753,4.93-10.387,10.684-10.637v-1.68c0-.302.246-.549.548-.549s.549.246.549.549v1.685c5.651.302,10.255,4.898,10.568,10.548h1.749c.302,0,.548.246.548.549s-.246.548-.548.548h-1.741c-.239,5.734-4.846,10.397-10.576,10.702v1.692c0,.302-.246.549-.549.549ZM340.115,56.145c-.144,0-.261.117-.261.261s.117.261.261.261h1.911l.005.139c.209,5.706,4.843,10.314,10.55,10.491l.139.004v1.965c0,.144.117.261.261.261s.261-.117.261-.261v-1.968l.138-.006c5.69-.233,10.277-4.876,10.443-10.569l.004-.14h2.02c.144,0,.261-.117.261-.261s-.117-.261-.261-.261h-2.024l-.006-.138c-.241-5.611-4.825-10.187-10.437-10.417l-.138-.006v-1.961c0-.144-.117-.261-.261-.261s-.261.117-.261.261v1.958l-.139.004c-5.714.177-10.348,4.791-10.551,10.504l-.005.139h-1.911ZM352.721,66.643l-.149-.005c-5.328-.181-9.669-4.495-9.882-9.821l-.006-.15h3.751c.144,0,.261-.117.261-.261s-.117-.261-.261-.261h-3.751l.006-.15c.207-5.334,4.548-9.654,9.883-9.835l.149-.005v3.703c0,.144.117.261.261.261s.261-.117.261-.261v-3.701l.15.007c5.318.239,9.517,4.428,9.767,9.746l.007.151h-3.638c-.144,0-.261.117-.261.261s.117.261.261.261h3.642l-.005.149c-.17,5.314-4.462,9.664-9.773,9.902l-.15.007v-3.694c0-.144-.117-.261-.261-.261s-.261.117-.261.261v3.696ZM342.984,56.955c.279,5.058,4.388,9.142,9.448,9.39v-3.398c0-.302.246-.548.548-.548s.549.246.549.548v3.392c5.043-.303,9.105-4.42,9.341-9.467h-3.343c-.302,0-.548-.246-.548-.548s.246-.549.548-.549h3.335c-.311-5.046-4.286-9.013-9.333-9.313v3.399c0,.302-.246.549-.549.549s-.548-.246-.548-.549v-3.405c-5.067.248-9.176,4.338-9.449,9.403h3.451c.302,0,.549.246.549.549s-.246.548-.549.548h-3.45Z"/>
    </g>
    <g>
      <path class="cls-9" d="M352.981,69.823c-.307,0-.558-.25-.558-.558v-1.678c-2.789-.123-5.411-1.273-7.396-3.248-1.985-1.974-3.148-4.589-3.287-7.376h-1.626c-.307,0-.558-.25-.558-.558s.25-.558.558-.558h1.625c.135-2.79,1.298-5.407,3.283-7.384,1.986-1.978,4.609-3.129,7.4-3.253v-1.671c0-.307.25-.558.558-.558s.558.25.558.558v1.677c2.754.149,5.341,1.302,7.299,3.256,1.958,1.954,3.116,4.539,3.269,7.292h1.74c.307,0,.558.25.558.558s-.25.558-.558.558h-1.732c-.118,2.785-1.26,5.406-3.226,7.394-1.965,1.987-4.57,3.158-7.35,3.308v1.684c0,.307-.25.558-.558.558ZM340.115,56.155c-.139,0-.252.113-.252.252s.113.252.252.252h1.92l.005.147c.101,2.764,1.239,5.363,3.203,7.317,1.965,1.955,4.571,3.079,7.338,3.165l.148.005v1.974c0,.139.113.252.252.252s.252-.113.252-.252v-1.977l.147-.006c2.758-.113,5.347-1.258,7.292-3.224,1.946-1.968,3.062-4.573,3.143-7.336l.004-.149h2.028c.139,0,.252-.113.252-.252s-.113-.252-.252-.252h-2.032l-.006-.146c-.117-2.731-1.249-5.3-3.187-7.235-1.938-1.935-4.51-3.062-7.242-3.174l-.147-.006v-1.97c0-.139-.113-.252-.252-.252s-.252.113-.252.252v1.967l-.148.005c-2.769.086-5.377,1.211-7.342,3.169-1.965,1.957-3.101,4.559-3.199,7.326l-.005.148h-1.919ZM352.73,66.653l-.158-.005c-2.592-.088-5.034-1.145-6.875-2.976-1.841-1.831-2.912-4.265-3.016-6.854l-.006-.159h3.76c.139,0,.252-.113.252-.252s-.113-.252-.252-.252h-3.76l.006-.159c.1-2.592,1.17-5.03,3.012-6.863,1.842-1.834,4.286-2.893,6.88-2.981l.158-.005v3.713c0,.139.113.252.252.252s.252-.113.252-.252v-3.71l.16.007c2.556.115,4.962,1.175,6.776,2.986,1.814,1.81,2.879,4.214,2.999,6.769l.008.16h-3.648c-.139,0-.252.113-.252.252s.113.252.252.252h3.651l-.005.158c-.083,2.588-1.131,5.029-2.954,6.873-1.82,1.843-4.245,2.922-6.828,3.037l-.16.007v-3.703c0-.139-.113-.252-.252-.252s-.252.113-.252.252v3.706ZM342.994,56.964c.137,2.452,1.17,4.752,2.918,6.49,1.749,1.739,4.056,2.759,6.512,2.881v-3.388c0-.307.25-.558.558-.558s.558.25.558.558v3.382c2.445-.149,4.735-1.188,6.464-2.938,1.731-1.752,2.742-4.058,2.859-6.51h-3.334c-.307,0-.558-.25-.558-.558s.25-.558.558-.558h3.326c-.152-2.418-1.179-4.688-2.901-6.407-1.722-1.719-3.995-2.741-6.414-2.888v3.389c0,.307-.25.558-.558.558s-.558-.25-.558-.558v-3.395c-2.458.122-4.766,1.143-6.516,2.885-1.749,1.741-2.78,4.044-2.914,6.499h3.441c.307,0,.558.25.558.558s-.25.558-.558.558h-3.44Z"/>
      <path class="cls-22" d="M352.981,69.967c-.387,0-.702-.315-.702-.702v-1.541c-2.772-.156-5.379-1.319-7.354-3.283-1.974-1.964-3.15-4.564-3.321-7.334h-1.489c-.387,0-.702-.315-.702-.702s.315-.702.702-.702h1.489c.168-2.773,1.343-5.376,3.318-7.343,1.975-1.967,4.584-3.131,7.358-3.287v-1.534c0-.387.315-.702.702-.702s.702.315.702.702v1.541c2.737.181,5.309,1.346,7.257,3.29,1.947,1.944,3.117,4.514,3.303,7.249h1.605c.387,0,.701.315.701.702s-.315.702-.701.702h-1.595c-.151,2.768-1.305,5.374-3.261,7.351-1.955,1.976-4.545,3.16-7.309,3.342v1.548c0,.387-.315.702-.702.702ZM340.115,55.993c-.228,0-.414.186-.414.414s.186.414.414.414h1.763l.007.137c.136,2.749,1.289,5.335,3.244,7.281,1.956,1.946,4.549,3.085,7.301,3.207l.138.006v1.816c0,.228.186.414.414.414s.414-.186.414-.414v-1.82l.136-.007c2.743-.148,5.32-1.308,7.256-3.265,1.937-1.959,3.068-4.551,3.184-7.299l.006-.138h1.87c.228,0,.414-.186.414-.414s-.186-.414-.414-.414h-1.876l-.008-.136c-.152-2.715-1.298-5.272-3.227-7.198-1.93-1.926-4.488-3.068-7.205-3.215l-.136-.007v-1.813c0-.228-.186-.414-.414-.414s-.414.186-.414.414v1.809l-.138.006c-2.754.122-5.348,1.262-7.305,3.211-1.956,1.948-3.107,4.537-3.241,7.289l-.007.137h-1.762ZM352.981,69.661c-.218,0-.395-.177-.395-.396l-.009-1.835c-2.803-.087-5.444-1.226-7.435-3.207-1.991-1.98-3.143-4.613-3.245-7.414v-.009h-1.781c-.218,0-.396-.177-.396-.396s.177-.396.396-.396l1.781-.009c.099-2.804,1.251-5.44,3.242-7.423,1.992-1.984,4.634-3.124,7.439-3.211h.009v-1.828c0-.218.177-.396.395-.396s.396.177.396.396l.009,1.832c2.768.113,5.374,1.256,7.337,3.216,1.964,1.96,3.111,4.563,3.229,7.33v.009h1.895c.218,0,.396.177.396.396s-.177.395-.396.395l-1.889.009c-.082,2.8-1.213,5.439-3.184,7.433-1.97,1.992-4.594,3.153-7.388,3.267h-.009v1.839c0,.218-.177.396-.396.396ZM340.115,56.299c-.059,0-.108.048-.108.108s.048.108.108.108h2.058l.011.286c.1,2.728,1.222,5.292,3.161,7.221,1.939,1.929,4.511,3.038,7.241,3.123l.288.009v2.113c0,.059.048.108.108.108s.108-.048.108-.108v-2.115l.285-.012c2.721-.111,5.276-1.242,7.195-3.182,1.92-1.942,3.022-4.512,3.101-7.239l.008-.288h2.168c.059,0,.108-.048.108-.108s-.048-.108-.108-.108h-2.17l-.012-.284c-.116-2.695-1.232-5.23-3.145-7.139-1.913-1.909-4.45-3.022-7.146-3.132l-.285-.012v-2.108c0-.059-.048-.108-.108-.108s-.108.048-.108.108v2.106l-.288.009c-2.732.085-5.305,1.195-7.245,3.127-1.939,1.931-3.06,4.498-3.157,7.229l-.01.286h-2.058ZM352.874,66.801l-.307-.01c-2.628-.089-5.104-1.161-6.972-3.018-1.867-1.856-2.953-4.324-3.058-6.95l-.012-.309h3.91c.059,0,.108-.048.108-.108s-.048-.108-.108-.108h-3.91l.012-.309c.102-2.629,1.186-5.1,3.054-6.959,1.868-1.86,4.346-2.933,6.976-3.022l.307-.01v3.862c0,.059.048.108.108.108s.108-.048.108-.108v-3.861l.31.014c2.592.116,5.032,1.191,6.872,3.028,1.84,1.836,2.919,4.274,3.041,6.864l.015.311h-3.799c-.059,0-.108.048-.108.108s.048.108.108.108h3.8l-.01.307c-.083,2.624-1.147,5.1-2.995,6.97-1.846,1.869-4.305,2.962-6.924,3.08l-.31.014v-3.854c0-.059-.048-.108-.108-.108s-.108.048-.108.108v3.855ZM342.824,56.802v.009c.103,2.553,1.159,4.953,2.974,6.758,1.816,1.806,4.223,2.848,6.779,2.935h.009s0-3.557,0-3.557c0-.218.177-.395.395-.395s.396.177.396.395v3.553h.009c2.546-.115,4.937-1.178,6.732-2.995,1.797-1.819,2.831-4.225,2.912-6.777v-.009s-3.502,0-3.502,0c-.218,0-.396-.177-.396-.395s.177-.396.396-.396h3.497v-.01c-.118-2.519-1.169-4.889-2.957-6.674-1.789-1.785-4.162-2.831-6.681-2.944h-.009s0,3.559,0,3.559c0,.218-.177.396-.396.396s-.395-.177-.395-.396v-3.564h-.009c-2.558.087-4.967,1.131-6.783,2.939-1.816,1.808-2.87,4.211-2.969,6.767v.009s3.61,0,3.61,0c.218,0,.396.177.396.396s-.177.396-.396.396h-3.61ZM352.568,66.486l-.151-.007c-2.489-.124-4.835-1.162-6.606-2.923-1.77-1.76-2.821-4.098-2.96-6.584l-.009-.152h3.592c.228,0,.414-.186.414-.414s-.186-.414-.414-.414h-3.593l.008-.152c.136-2.489,1.186-4.831,2.957-6.593,1.771-1.763,4.119-2.803,6.61-2.927l.151-.007v3.546c0,.228.186.414.414.414s.414-.186.414-.414v-3.542l.153.009c2.453.149,4.764,1.19,6.507,2.93,1.743,1.74,2.788,4.048,2.942,6.499l.01.153h-3.479c-.228,0-.414.186-.414.414s.186.414.414.414h3.485l-.007.151c-.118,2.485-1.149,4.831-2.901,6.604-1.75,1.771-4.079,2.83-6.557,2.981l-.153.009v-3.535c0-.228-.186-.414-.414-.414s-.414.186-.414.414v3.539ZM343.147,57.108c.169,2.358,1.183,4.57,2.866,6.244,1.684,1.675,3.905,2.676,6.266,2.831v-3.236c0-.387.315-.702.702-.702s.702.315.702.702v3.228c2.351-.18,4.554-1.201,6.218-2.885,1.666-1.687,2.661-3.906,2.809-6.265h-3.182c-.387,0-.702-.315-.702-.702s.315-.702.702-.702h3.171c-.183-2.324-1.191-4.507-2.848-6.161-1.657-1.654-3.843-2.657-6.168-2.836v3.235c0,.387-.315.702-.702.702s-.702-.315-.702-.702v-3.242c-2.364.154-4.585,1.157-6.27,2.835-1.684,1.676-2.697,3.892-2.863,6.253h3.288c.387,0,.702.315.702.702s-.315.702-.702.702h-3.287Z"/>
    </g>
    <path class="cls-15" d="M377.552,56.403c0,6.827-2.413,12.653-7.239,17.479-4.826,4.826-10.652,7.239-17.479,7.239s-12.653-2.412-17.479-7.239c-4.827-4.826-7.239-10.652-7.239-17.479s2.412-12.652,7.239-17.479,10.651-7.239,17.479-7.239,12.652,2.413,17.479,7.239c4.826,4.827,7.239,10.653,7.239,17.479ZM366.252,56.403c0-3.718-1.307-6.886-3.92-9.498-2.613-2.613-5.78-3.92-9.499-3.92-3.672,0-6.827,1.307-9.463,3.92-2.637,2.613-3.955,5.78-3.955,9.498s1.318,6.886,3.955,9.499c2.636,2.613,5.791,3.92,9.463,3.92,3.719,0,6.886-1.307,9.499-3.92,2.613-2.613,3.92-5.779,3.92-9.499Z"/>
    <path class="cls-3" d="M352.834,77.721c-5.944,0-10.875-2.042-15.075-6.242-4.201-4.201-6.243-9.132-6.243-15.075s2.042-10.874,6.243-15.075c4.201-4.201,9.132-6.243,15.075-6.243s10.873,2.042,15.075,6.243c4.201,4.201,6.243,9.133,6.243,15.074s-2.042,10.874-6.243,15.075c-4.201,4.201-9.132,6.243-15.074,6.243ZM352.834,39.585c-4.584,0-8.573,1.65-11.857,4.905-3.292,3.261-4.961,7.269-4.961,11.913s1.67,8.652,4.962,11.914c3.283,3.254,7.272,4.904,11.856,4.904,4.636,0,8.641-1.654,11.903-4.916,3.262-3.261,4.916-7.266,4.916-11.903s-1.654-8.641-4.916-11.903c-3.261-3.261-7.266-4.915-11.902-4.915Z"/>
    <circle class="cls-4" cx="352.981" cy="56.4" r="2.59"/>
    <path class="cls-2" d="M352.981,59.134c-1.507,0-2.734-1.226-2.734-2.734s1.226-2.734,2.734-2.734,2.734,1.226,2.734,2.734-1.226,2.734-2.734,2.734ZM352.981,53.953c-1.349,0-2.446,1.097-2.446,2.446s1.097,2.446,2.446,2.446,2.446-1.097,2.446-2.446-1.097-2.446-2.446-2.446Z"/>
  </g>
</svg>