<?xml version="1.0" encoding="UTF-8"?>
<svg id="Layer_1" data-name="Layer 1" xmlns="http://www.w3.org/2000/svg" viewBox="0 0 393.371 163.687">
  <defs>
    <style>
      .cls-1 {
        fill: none;
      }

      .cls-2 {
        stroke: #ad0000;
      }

      .cls-2, .cls-3, .cls-4, .cls-5, .cls-6, .cls-7, .cls-8 {
        stroke-miterlimit: 10;
      }

      .cls-2, .cls-3, .cls-5 {
        stroke-width: .82px;
      }

      .cls-2, .cls-9 {
        fill: #ff2727;
      }

      .cls-10 {
        fill: #595959;
      }

      .cls-3, .cls-7 {
        fill: #437a89;
        stroke: #3ca6bf;
      }

      .cls-11 {
        fill: #727272;
      }

      .cls-12 {
        fill: #030303;
      }

      .cls-13 {
        fill: #fff;
      }

      .cls-14 {
        fill: #02182b;
      }

      .cls-15 {
        fill: #666;
      }

      .cls-4 {
        fill: #2d2d2d;
      }

      .cls-4, .cls-8 {
        stroke: #4c4c4c;
      }

      .cls-5 {
        stroke: #f03127;
      }

      .cls-5, .cls-16 {
        fill: #f03127;
      }

      .cls-6 {
        stroke: #1e1e1e;
      }

      .cls-6, .cls-8, .cls-17 {
        fill: #191919;
      }

      .cls-18 {
        fill: #3f0000;
      }

      .cls-19 {
        fill: #701111;
      }

      .cls-20 {
        fill: #424242;
      }

      .cls-21 {
        fill: #ad0000;
      }

      .cls-22 {
        fill: #9fc5ce;
      }

      .cls-8 {
        stroke-width: 2px;
      }

      .cls-23 {
        fill: #4d4d4d;
      }
    </style>
  </defs>
  <rect class="cls-6" x="195.886" y="-69.643" width="90.012" height="303.958" transform="translate(323.228 -158.556) rotate(90)"/>
  <rect class="cls-4" x="93.419" y="40.738" width="294.946" height="83.195"/>
  <rect class="cls-8" x="209.425" y="-53.62" width="75.673" height="271.634" transform="translate(329.458 -165.064) rotate(90)"/>
  <g>
    <path class="cls-19" d="M206.872,83.657c5.03,0,8.848,1.302,11.452,3.907s3.907,6.422,3.907,11.453v16.027c0,5.031-1.302,8.848-3.907,11.453-2.604,2.604-6.423,3.907-11.452,3.907h-26.044v-46.745h26.044ZM210.211,99.016c0-4.007-2.004-6.01-6.011-6.01h-11.352v28.047h11.352c4.007,0,6.011-2.004,6.011-6.01v-16.027Z"/>
    <path class="cls-18" d="M206.872,131.189h-26.83v-48.318h26.83c5.224,0,9.264,1.392,12.009,4.137,2.745,2.746,4.137,6.786,4.137,12.009v16.027c0,5.223-1.392,9.263-4.137,12.009-2.745,2.745-6.785,4.137-12.009,4.137ZM181.615,129.616h25.257c4.791,0,8.457-1.237,10.896-3.676,2.439-2.44,3.676-6.106,3.676-10.897v-16.027c0-4.791-1.237-8.457-3.676-10.897-2.439-2.439-6.105-3.676-10.896-3.676h-25.257v45.172ZM204.2,121.84h-12.138v-29.62h12.138c4.447,0,6.797,2.35,6.797,6.797v16.027c0,4.446-2.35,6.797-6.797,6.797ZM193.635,120.267h10.565c3.564,0,5.224-1.66,5.224-5.224v-16.027c0-3.564-1.66-5.224-5.224-5.224h-10.565v26.474Z"/>
    <path class="cls-21" d="M183.875,127.355v-40.651h22.997c4.17,0,7.298,1.014,9.298,3.014,2,2,3.014,5.129,3.014,9.298v16.027c0,4.17-1.014,7.298-3.014,9.298-2,2-5.128,3.014-9.298,3.014h-22.997ZM189.801,124.1h14.399c5.672,0,9.058-3.386,9.058-9.057v-16.027c0-5.671-3.386-9.057-9.058-9.057h-14.399v34.141Z"/>
    <path class="cls-16" d="M206.872,127.827h-23.469v-41.595h23.469c4.299,0,7.54,1.061,9.631,3.152,2.092,2.092,3.152,5.333,3.152,9.632v16.027c0,4.299-1.061,7.54-3.152,9.632-2.091,2.092-5.332,3.152-9.631,3.152ZM184.347,126.883h22.525c4.04,0,7.056-.967,8.964-2.876,1.908-1.909,2.876-4.925,2.876-8.965v-16.027c0-4.04-.968-7.056-2.876-8.965-1.908-1.908-4.924-2.876-8.964-2.876h-22.525v39.708ZM204.2,124.572h-14.871v-35.085h14.871c5.967,0,9.53,3.562,9.53,9.529v16.027c0,5.967-3.563,9.529-9.53,9.529ZM190.273,123.628h13.927c5.376,0,8.586-3.21,8.586-8.585v-16.027c0-5.376-3.21-8.585-8.586-8.585h-13.927v33.197Z"/>
    <path class="cls-19" d="M261.71,83.657h12.02v34.057c0,4.675-1.058,8.07-3.172,10.184-2.115,2.115-5.509,3.172-10.183,3.172h-15.36c-4.675,0-8.069-1.057-10.183-3.172-2.115-2.114-3.172-5.509-3.172-10.184v-34.057h12.02v34.057c0,2.672,1.335,4.007,4.006,4.007h10.018c2.671,0,4.006-1.336,4.006-4.007v-34.057Z"/>
    <path class="cls-18" d="M260.375,131.857h-15.36c-4.87,0-8.483-1.145-10.74-3.403-2.257-2.257-3.402-5.87-3.402-10.74v-34.844h13.593v34.844c0,2.227.993,3.221,3.22,3.221h10.018c2.227,0,3.22-.993,3.22-3.221v-34.844h13.593v34.844c0,4.869-1.145,8.482-3.402,10.74-2.257,2.258-5.87,3.403-10.74,3.403ZM232.446,84.443v33.271c0,4.438.99,7.677,2.942,9.628,1.951,1.952,5.19,2.942,9.627,2.942h15.36c4.437,0,7.676-.99,9.627-2.942,1.952-1.952,2.942-5.191,2.942-9.628v-33.271h-10.447v33.271c0,3.091-1.702,4.794-4.793,4.794h-10.018c-3.091,0-4.793-1.702-4.793-4.794v-33.271h-10.447Z"/>
    <path class="cls-21" d="M245.015,128.023c-3.816,0-6.517-.767-8.028-2.279-1.513-1.513-2.28-4.214-2.28-8.03v-31.01h5.926v31.01c0,4.351,2.702,7.054,7.053,7.054h10.018c4.351,0,7.053-2.703,7.053-7.054v-31.01h5.926v31.01c0,3.815-.767,6.517-2.279,8.029-1.513,1.513-4.214,2.28-8.029,2.28h-15.36Z"/>
    <path class="cls-16" d="M260.375,128.495h-15.36c-3.945,0-6.759-.814-8.362-2.418-1.604-1.604-2.418-4.418-2.418-8.364v-31.482h6.87v31.482c0,4.06,2.522,6.582,6.581,6.582h10.018c4.06,0,6.581-2.522,6.581-6.582v-31.482h6.87v31.482c0,3.945-.813,6.759-2.418,8.363-1.604,1.605-4.418,2.418-8.363,2.418ZM235.179,87.176v30.538c0,3.686.721,6.276,2.142,7.696,1.42,1.421,4.009,2.141,7.695,2.141h15.36c3.685,0,6.274-.72,7.695-2.142,1.421-1.421,2.141-4.01,2.141-7.696v-30.538h-4.982v30.538c0,4.642-2.883,7.526-7.525,7.526h-10.018c-4.642,0-7.525-2.884-7.525-7.526v-30.538h-4.982Z"/>
    <path class="cls-19" d="M321.558,130.402h-37.062v-46.745h37.062v9.349h-25.042v9.015h19.699v9.349h-19.699v9.683h25.042v9.349Z"/>
    <path class="cls-18" d="M322.344,131.189h-38.635v-48.318h38.635v10.922h-25.042v7.442h19.699v10.922h-19.699v8.11h25.042v10.922ZM285.282,129.616h35.489v-7.776h-25.042v-11.256h19.699v-7.776h-19.699v-10.588h25.042v-7.776h-35.489v45.172Z"/>
    <polygon class="cls-21" points="287.542 127.355 287.542 86.704 318.511 86.704 318.511 89.959 293.468 89.959 293.468 105.068 313.168 105.068 313.168 108.323 293.468 108.323 293.468 124.1 318.511 124.1 318.511 127.355 287.542 127.355"/>
    <path class="cls-16" d="M318.983,127.827h-31.912v-41.595h31.912v4.199h-25.042v14.165h19.699v4.199h-19.699v14.833h25.042v4.199ZM288.014,126.883h30.025v-2.311h-25.042v-16.721h19.699v-2.311h-19.699v-16.053h25.042v-2.311h-30.025v39.708Z"/>
    <path class="cls-19" d="M344.148,121.053h24.374v9.349h-36.394v-46.745h12.02v37.396Z"/>
    <path class="cls-18" d="M369.308,131.189h-37.967v-48.318h13.593v37.396h24.374v10.922ZM332.914,129.616h34.821v-7.776h-24.374v-37.396h-10.447v45.172Z"/>
    <polygon class="cls-21" points="335.175 127.355 335.175 86.704 341.101 86.704 341.101 124.1 365.474 124.1 365.474 127.355 335.175 127.355"/>
    <path class="cls-16" d="M365.946,127.827h-31.244v-41.595h6.87v37.396h24.374v4.199ZM335.647,126.883h29.356v-2.311h-24.374v-37.396h-4.982v39.708Z"/>
  </g>
  <path class="cls-14" d="M222.965,79.053h-28.685l-4.897-11.783h16.076l-8.727-19.71-13.679,31.493h-12.561v-11.783h4.968l16.722-37.782h9.095l21.688,49.565Z"/>
  <polygon class="cls-7" points="196.473 75.7 194.509 71.211 210.61 71.211 196.731 39.277 180.87 75.7 173.844 75.7 173.844 71.211 177.642 71.211 194.364 32.841 199.095 32.841 217.814 75.7 196.473 75.7"/>
  <path class="cls-14" d="M271.097,79.053h-41.98V29.488h41.98v11.195h-30.785v7.696h23.789v11.195h-23.789v7.696h30.785v11.783Z"/>
  <polygon class="cls-7" points="232.47 75.7 232.47 32.841 267.744 32.841 267.744 37.33 236.959 37.33 236.959 51.732 260.747 51.732 260.747 56.221 236.959 56.221 236.959 71.211 267.744 71.211 267.744 75.7 232.47 75.7"/>
  <path class="cls-14" d="M322.776,79.053h-15.582l-17.352-19.48,4.897-11.195h12.944c1.072,0,1.982-.373,2.729-1.119.745-.746,1.119-1.655,1.119-2.729s-.374-1.982-1.119-2.729c-.747-.745-1.656-1.119-2.729-1.119h-19.241v38.37h-11.195V29.488h30.436c4.151,0,7.696,1.469,10.635,4.408,2.939,2.939,4.408,6.484,4.408,10.635s-1.467,7.696-4.399,10.635c-2.932,2.939-6.47,4.408-10.612,4.408l-2.513-.034,17.574,19.514Z"/>
  <path class="cls-7" d="M308.667,75.7l-14.877-16.785,3.142-7.183h10.751c1.961,0,3.724-.726,5.099-2.101,1.376-1.377,2.102-3.14,2.102-5.1s-.726-3.722-2.099-5.097c-1.38-1.377-3.143-2.103-5.102-2.103h-22.594v38.37h-4.489v-42.86h27.083c3.256,0,5.959,1.121,8.264,3.426,2.306,2.306,3.426,5.009,3.426,8.264s-1.119,5.96-3.42,8.267c-2.293,2.298-4.981,3.418-8.217,3.423l-10.323-.14,17.672,19.62h-6.42Z"/>
  <path class="cls-17" d="M182.128,149.551l-3.851-3.865h-1.872v3.865h-5.665v-13.225h16.506v3.532c0,2.223-.833,3.9-2.357,4.87l4.682,4.823h-7.442Z"/>
  <path class="cls-13" d="M175.911,141.826h5.677c.984,0,1.54-.542,1.683-1.526h-8.488v7.631h-2.425v-9.985h13.266v1.912c0,2.525-1.227,3.908-3.68,4.165l3.794,3.908h-2.939l-3.851-3.865h-3.038v-2.239Z"/>
  <path class="cls-17" d="M185.097,149.551v-6.625c0-4.071,2.534-6.599,6.612-6.599h9.094v5.594h-9.052c-.79,0-.99.103-.99,1.047v.977h10.042v5.607h-15.707Z"/>
  <path class="cls-13" d="M199.184,147.931h-12.467v-5.006c0-3.124,1.811-4.979,4.993-4.979h7.474v2.354h-7.432c-1.74,0-2.61.884-2.61,2.667v2.597h10.042v2.367Z"/>
  <path class="cls-17" d="M215.462,149.551v-3.865h-4.89v3.865h-5.665v-6.625c0-4.071,2.528-6.599,6.598-6.599h9.637v13.225h-5.68Z"/>
  <path class="cls-13" d="M219.522,147.931h-2.44v-3.865h-8.13v3.865h-2.425v-5.006c0-3.124,1.812-4.979,4.978-4.979h8.017v9.985ZM217.082,140.3h-4.393c-2.91,0-3.381.641-3.58,1.569h7.974v-1.569Z"/>
  <path class="cls-17" d="M226.291,149.551c-3.955,0-6.612-2.646-6.612-6.584v-6.641h15.906v5.594h-.257v2.024h.257v5.607h-9.294Z"/>
  <path class="cls-13" d="M233.966,140.3h-10.242v1.526h9.985v2.239h-9.857c.3.97.999,1.498,2.482,1.498h7.632v2.367h-7.674c-3.096,0-4.993-1.911-4.993-4.964v-5.021h12.667v2.354Z"/>
  <path class="cls-17" d="M245.197,149.551l-3.851-3.865h-1.873v3.865h-5.664v-13.225h16.506v3.532c0,2.223-.833,3.9-2.357,4.87l4.682,4.823h-7.442Z"/>
  <path class="cls-13" d="M238.98,141.826h5.677c.984,0,1.54-.542,1.683-1.526h-8.487v7.631h-2.425v-9.985h13.266v1.912c0,2.525-1.228,3.908-3.681,4.165l3.795,3.908h-2.939l-3.851-3.865h-3.038v-2.239Z"/>
  <rect class="cls-17" x="248.837" y="136.326" width="5.665" height="13.225"/>
  <path class="cls-13" d="M252.882,147.931h-2.425v-9.985h2.425v9.985Z"/>
  <path class="cls-17" d="M263.63,149.551v-3.865h-4.89v3.865h-5.665v-6.625c0-4.071,2.529-6.599,6.599-6.599h9.636v13.225h-5.68Z"/>
  <path class="cls-13" d="M267.691,147.931h-2.44v-3.865h-8.13v3.865h-2.425v-5.006c0-3.124,1.812-4.979,4.979-4.979h8.017v9.985ZM265.25,140.3h-4.393c-2.911,0-3.381.641-3.581,1.569h7.974v-1.569Z"/>
  <path class="cls-17" d="M267.948,149.551v-13.225h5.664v7.618h3.586c.769,0,.846-.224.907-.404l.375-1.094h5.582l-.316,1.888c-.548,3.266-2.979,5.217-6.504,5.217h-9.294Z"/>
  <path class="cls-13" d="M271.992,137.946v7.618h5.207c1.283,0,2.096-.499,2.439-1.498h2.511c-.429,2.553-2.211,3.865-4.907,3.865h-7.674v-9.985h2.424Z"/>
  <path class="cls-17" d="M287.5,149.551v-6.625c0-4.071,2.534-6.599,6.613-6.599h9.094v5.594h-9.052c-.789,0-.99.103-.99,1.047v.977h10.042v5.607h-15.707Z"/>
  <path class="cls-13" d="M301.588,147.931h-12.467v-5.006c0-3.124,1.812-4.979,4.993-4.979h7.474v2.354h-7.432c-1.74,0-2.61.884-2.61,2.667v2.597h10.042v2.367Z"/>
  <path class="cls-17" d="M301.43,149.551v-6.625c0-4.009,2.595-6.599,6.613-6.599h9.878v6.641c0,3.999-2.59,6.584-6.598,6.584h-9.893ZM311.266,143.944c.562,0,.804-.058.894-.089.032-.091.097-.346.097-.93v-1.005h-4.173c-.557,0-.802.059-.891.09-.033.093-.099.353-.099.957v.977h4.171Z"/>
  <path class="cls-13" d="M316.301,137.946v5.021c0,3.11-1.811,4.964-4.978,4.964h-8.273v-5.006c0-3.054,1.84-4.979,4.993-4.979h8.258ZM313.877,140.3h-5.792c-1.997,0-2.61.613-2.61,2.667v2.597h5.791c1.955,0,2.611-.571,2.611-2.639v-2.625Z"/>
  <path class="cls-17" d="M329.026,149.551v-6.612c0-.855-.153-1-.784-1.017v7.629h-5.679v-7.631h-.469v7.631h-5.65v-13.225h11.633c3.832,0,6.614,2.607,6.614,6.2v7.025h-5.665Z"/>
  <path class="cls-13" d="M318.064,137.946h10.013c2.968,0,4.993,1.883,4.993,4.58v5.406h-2.425v-4.992c0-1.769-.856-2.639-2.568-2.639h-7.603v7.631h-2.41v-9.985ZM324.183,141.526h2.439v6.404h-2.439v-6.404Z"/>
  <path class="cls-17" d="M333.329,149.551v-13.225h12.16c2.73,0,4.359,1.55,4.359,4.145,0,.947-.224,1.766-.64,2.413.416.677.64,1.527.64,2.508,0,2.604-1.629,4.159-4.359,4.159h-12.16Z"/>
  <path class="cls-13" d="M334.949,137.946h10.541c1.826,0,2.739.842,2.739,2.525,0,1.383-.598,2.169-1.726,2.368,1.099.228,1.726,1.056,1.726,2.553,0,1.698-.913,2.539-2.739,2.539h-10.541v-9.985ZM337.373,145.621h7.475c.541,0,.813-.257.813-.771,0-.555-.272-.841-.813-.841h-5.763v-2.126h5.763c.541,0,.813-.286.813-.87,0-.486-.272-.728-.813-.728h-7.475v5.336Z"/>
  <path class="cls-17" d="M367.893,149.551v-7.631s-.131,0-.157.003c-.002.012-.127,1.523-.127,1.523h-5.546l.144-1.753c.285-3.461,2.418-5.368,6.008-5.368h9.937v5.594h-4.593v7.631h-5.665Z"/>
  <path class="cls-13" d="M376.532,140.3h-4.594v7.631h-2.425v-7.631h-1.683c-1.056,0-1.626.499-1.712,1.526h-2.296c.214-2.596,1.669-3.881,4.394-3.881h8.316v2.354Z"/>
  <path class="cls-17" d="M359.014,149.551v-3.865h-4.89v3.865h-5.665v-6.625c0-4.071,2.528-6.599,6.598-6.599h9.637v13.225h-5.68Z"/>
  <path class="cls-13" d="M363.074,147.931h-2.44v-3.865h-8.13v3.865h-2.425v-5.006c0-3.124,1.812-4.979,4.978-4.979h8.017v9.985ZM360.634,140.3h-4.393c-2.91,0-3.381.641-3.58,1.569h7.974v-1.569Z"/>
  <g>
    <path class="cls-12" d="M108.746,57.676c.336-.073.237-.516.281-.562l-.281.562Z"/>
    <path class="cls-17" d="M118.304,61.333l-.003,1.406,1.407-.004c-.09-.246-1.067-1.797-1.404-1.402Z"/>
    <path class="cls-22" d="M144.211,83.954c0,35.454-28.741,64.195-64.195,64.195-35.454,0-64.195-28.741-64.195-64.195,0-35.454,28.741-64.195,64.195-64.195,35.454,0,64.195,28.741,64.195,64.195Z"/>
    <path class="cls-15" d="M15.372,83.954c0-35.645,29-64.645,64.644-64.645,35.645,0,64.645,29,64.645,64.645s-29,64.645-64.645,64.645c-35.645,0-64.644-29-64.644-64.645ZM16.271,83.954c0,35.149,28.596,63.745,63.745,63.745s63.746-28.596,63.746-63.745-28.597-63.745-63.746-63.745c-35.149,0-63.745,28.596-63.745,63.745Z"/>
    <path class="cls-10" d="M80.016,148.304c-35.483,0-64.351-28.868-64.351-64.351,0-35.483,28.868-64.351,64.351-64.351,35.483,0,64.351,28.868,64.351,64.351,0,35.483-28.868,64.351-64.351,64.351ZM80.016,19.914c-35.312,0-64.04,28.728-64.04,64.04,0,35.312,28.728,64.04,64.04,64.04,35.312,0,64.04-28.728,64.04-64.04S115.328,19.914,80.016,19.914Z"/>
    <path class="cls-10" d="M15.188,83.953c0-35.746,29.082-64.827,64.828-64.827,35.746,0,64.827,29.082,64.827,64.827,0,35.746-29.082,64.828-64.827,64.828-35.746,0-64.828-29.082-64.828-64.828ZM16.454,83.953c0,35.049,28.514,63.563,63.563,63.563,35.049,0,63.562-28.514,63.562-63.563,0-35.049-28.514-63.562-63.562-63.562-35.049,0-63.563,28.514-63.563,63.562Z"/>
    <path class="cls-13" d="M21.975,98.444c36.583-10.642,78.335-22.816,118.197-34.45-.266-.991-.513-1.985-.729-2.984-.421-1.95-.844-3.904-1.328-5.841L21.024,93.305c.329,1.71.635,3.426.951,5.139Z"/>
    <path class="cls-13" d="M22.475,101.069c.329,1.665.686,3.324,1.104,4.969,36.434-9.331,78.23-20.064,118.373-30.383-.797-2.952-1.361-5.915-1.232-8.911L22.475,101.069Z"/>
    <path class="cls-13" d="M140.892,102.992l-75.338,5.928-40.398,2.251c.933,2.494,2.088,4.889,3.393,7.206.278.32.528.657.748,1.011,24.724,3.115,57.52,7.215,93.048,11.705,7.959-7.853,14.01-17.859,18.547-28.102Z"/>
    <path class="cls-13" d="M20.317,89.853c27.534-14.867,63.931-34.545,103.512-55.907-1.694-1.44-3.408-2.85-5.226-4.113-4.837-3.36-10.216-5.725-15.552-8.159l-58.196,42.406-25.983,18.261c.362,2.523.905,5.023,1.446,7.513Z"/>
    <circle class="cls-1" cx="81.865" cy="81.26" r="61.602"/>
    <path class="cls-17" d="M160.326,78.886h-.794s-10.706,0-10.706,0c-1.498-34.913-29.564-62.938-64.494-64.37V4.194s0-.794,0-.794c0-1.363-1.105-2.467-2.467-2.467s-2.467,1.105-2.467,2.467v.794s0,10.296,0,10.296C43.983,15.59,15.459,44.019,14.206,79.394H4.194s-.794,0-.794,0c-1.363,0-2.467,1.105-2.467,2.467,0,1.363,1.105,2.467,2.467,2.467h10.808c1.294,35.338,29.801,63.725,65.189,64.824v11.133c0,1.363,1.105,2.467,2.467,2.467s2.467-1.105,2.467-2.467v-.794s0-10.365,0-10.365c35.242-1.445,63.5-29.959,64.53-65.307h10.67s.794,0,.794,0c1.363,0,2.467-1.105,2.467-2.467s-1.105-2.467-2.467-2.467ZM84.332,143.358v-20.815s0-.794,0-.794c0-1.363-1.105-2.467-2.467-2.467s-2.467,1.105-2.467,2.467v.794s0,20.841,0,20.841c-32.203-1.094-58.131-26.901-59.419-59.055h21.959c1.363,0,2.467-1.105,2.467-2.467s-1.105-2.467-2.467-2.467h-.794s-21.168,0-21.168,0c1.248-32.19,27.193-58.04,59.422-59.134v21.677c0,1.363,1.105,2.467,2.467,2.467,1.363,0,2.467-1.105,2.467-2.467v-.794s0-20.858,0-20.858c31.745,1.424,57.236,26.872,58.725,58.6h-21.268c-1.363,0-2.467,1.105-2.467,2.467,0,1.363,1.105,2.467,2.467,2.467h.794s20.509,0,20.509,0c-1.026,32.163-26.703,58.1-58.76,59.537Z"/>
    <path class="cls-21" d="M81.865,163.687c-1.875,0-3.401-1.526-3.401-3.401v-10.234c-17.011-.751-32.998-7.765-45.105-19.81-12.103-12.041-19.2-27.984-20.045-44.98H3.401c-1.875,0-3.401-1.526-3.401-3.401s1.526-3.401,3.401-3.401h9.91c.825-17.013,7.915-32.975,20.022-45.033,12.11-12.061,28.107-19.084,45.131-19.836V3.401c0-1.875,1.526-3.401,3.401-3.401,1.875,0,3.4,1.526,3.4,3.401v10.226c16.793.908,32.569,7.939,44.51,19.859,11.94,11.919,19,27.68,19.939,44.468h10.611c1.875,0,3.401,1.525,3.401,3.4s-1.526,3.401-3.401,3.401h-10.563c-.718,16.986-7.684,32.968-19.673,45.09-11.981,12.115-27.869,19.258-44.825,20.173v10.269c0,1.875-1.525,3.401-3.4,3.401ZM3.401,80.328c-.846,0-1.534.688-1.534,1.534,0,.846.688,1.534,1.534,1.534h11.708s.033.899.033.899c.617,16.858,7.555,32.706,19.535,44.624,11.985,11.923,27.877,18.777,44.75,19.301l.904.028v12.037c0,.846.688,1.534,1.534,1.534.846,0,1.534-.688,1.534-1.534v-12.054l.895-.037c16.818-.689,32.61-7.673,44.469-19.664,11.869-12.001,18.675-27.889,19.166-44.738l.026-.906h12.37c.846,0,1.534-.688,1.534-1.534,0-.846-.688-1.534-1.534-1.534h-12.394l-.038-.893c-.714-16.653-7.617-32.321-19.437-44.12-11.821-11.8-27.505-18.675-44.163-19.357l-.895-.037V3.401c0-.846-.688-1.534-1.534-1.534s-1.534.688-1.534,1.534v11.995l-.904.028c-16.887.524-32.789,7.388-44.777,19.327-11.984,11.935-18.913,27.802-19.512,44.677l-.032.9H3.401ZM80.331,144.349l-.965-.033c-15.806-.537-30.697-6.983-41.929-18.151-11.227-11.163-17.758-26.008-18.391-41.799l-.039-.971h22.93c.846,0,1.534-.688,1.534-1.534s-.688-1.534-1.534-1.534h-22.932l.038-.969c.613-15.809,7.136-30.672,18.367-41.853,11.235-11.185,26.135-17.64,41.956-18.178l.965-.033v22.643c0,.846.688,1.534,1.534,1.534.846,0,1.534-.688,1.534-1.534v-22.628l.975.044c15.585.699,30.262,7.165,41.326,18.208,11.063,11.041,17.558,25.702,18.289,41.281l.046.977h-22.246c-.846,0-1.534.688-1.534,1.534s.688,1.534,1.534,1.534h22.267l-.031.963c-.503,15.782-6.9,30.668-18.012,41.917-11.102,11.238-25.89,17.817-41.639,18.523l-.975.044v-22.585c0-.846-.688-1.534-1.534-1.534-.846,0-1.534.688-1.534,1.534v22.6ZM20.957,85.262c.837,14.956,7.133,28.978,17.795,39.579,10.668,10.607,24.737,16.824,39.711,17.569v-20.661c0-1.875,1.526-3.4,3.401-3.4s3.4,1.525,3.4,3.4v20.625c14.913-.908,28.878-7.248,39.42-17.919,10.554-10.683,16.723-24.749,17.436-39.701h-20.332c-1.875,0-3.401-1.526-3.401-3.401s1.526-3.4,3.401-3.4h20.282c-.93-14.748-7.189-28.591-17.69-39.071-10.503-10.482-24.361-16.714-39.116-17.613v20.668c0,1.875-1.525,3.401-3.4,3.401-1.875,0-3.401-1.526-3.401-3.401v-20.704c-14.987.746-29.066,6.972-39.737,17.595-10.666,10.618-16.955,24.66-17.774,39.633h20.984c1.875,0,3.401,1.526,3.401,3.401,0,1.875-1.526,3.401-3.401,3.401h-20.98Z"/>
    <g>
      <path class="cls-20" d="M57.384,103.288c.12-.015.205-.021.27-.012l.082-.68-38.391-4.575-3.452,1.326,7.922,1.59.059-.293c-1.138-.22-2.252-.463-3.34-.739-.393-.1-.88.003-.985-.56l28.751,4.009c1.103-.006,2.98,1.472,3.772,1.543.895.079,4.018-1.449,5.314-1.607Z"/>
      <path class="cls-20" d="M76.911,65.578l-4.757.431-8.737-7.74c3.728,1.117,6.402,3.942,9.488,6.121l4.006,1.188ZM91.818,59.108l23.345-39.664-.619-.367-24.964,42.362-7.323,3.015.833-1.003-.282-.531-29.513-19.7-6.748,3.651,1.76,1.757.487-.487,4.229,1.812,17.993,17.456c1.244.572,7.91-1.892,9.69-2.115l.144.563.273.672c8.326-3.379,16.576-6.965,24.967-10.162,1.003-.384,2.296-.974,3.267-1.249.625-.179.261-.393.739.334.592-.833,1.293-1.622,1.968-2.393l-.414-.132-19.412,7.869c-.191.062-.202-.267-.135-.416.041-.091.452-.534,1.012-1.109l-.657-.176c-.097.079-.249.097-.639.012Z"/>
      <path class="cls-20" d="M68.769,106.497l-4.792.719,2.085-2.836,25.19-6.725c.158.748-.188.484-.551.698-1.833,1.079-4.555,1.936-6.177,3.118-1.414,1.032-2.877,3.93-4.129,4.587-1.472.774-3.393.17-4.619,1.29l-18.972,24.909-.414-.416,12.875-21.726-.496-3.616ZM64.258,105.106l-1.968,3.235c1.05.079,2.053-.331,3.074-.443.39-.041.675-.39.578.299l-25.498,39.47-.93.34,23.419-42.676,1.326-.226ZM97.828,102.15c8.297-2.575,16.752-4.291,24.639-8.015.287-.138.956-.704,1.129-.138.534-.466,1.396-2.308,1.686-3.094-1.018.135-1.924-.944-2.742-1.079-1.065-.179-5.159,2.469-6.672,3.053-5.259,2.027-11.344,3.012-16.673,5.009-.484.138-1.053.038-1.188-.51,5.232-2.112,11.611-3.358,16.667-5.693.988-.455,2.722-1.522,3.578-2.188-2.355-1.167-2.936.584-5,1.326l-30.625,8.177-1.493-.924,30.903-9.03c1.009-.516,4.033-3.132,4.132-4.191.111-1.129-2.241-3.54-1.572-4.924l-30.651,8.156,19.333-6.376,2.035-2.203c-5.616.164-11.089,1.836-16.459,3.443l-.411-.484,8.974-4.106,1.422-1.666c-.264-.408-.543-.387-.965-.434-1.944-.223-6.423,1.197-8.59,1.701.141.261.264.543.282.845.012.179.041.361-.021.534-4.273.578-8.889,2.575-13.086,3.094-.305.038-1.024.24-.953-.249,3.484-.88,6.927-1.909,10.403-2.816l-.56-.282c-5.018,1.202-10.08,2.232-15.042,3.66l-.015-.859,10.837-4.206-11.808,2.249-.17-1.135,31.103-10.819.279-.422c-1.22-.015-2.226-.414-3.49-.261-5.168.625-11.904,4.027-17.245,4.974-.396.07-1.038.34-.915-.352l23.9-7.746-.372-.516c-3.745.965-7.523,2.291-11.312,3.047-.428.085-.537.504-.968-.135,4.003-1.962,9.03-2.038,12.371-5.203l-30.088,10.687.282-.422,35.995-13.925.282-.56c.088-.097.205-.179.282-.282l-35.326,13.192-.39-.531c2.54-.968,5.065-1.971,7.584-2.991l-.273-.672-10.394,3.534-21.662-21.251-.487.487,20.187,20.172c.481,1.047.598,2.631-.578,3.253l.282.144-.282,1.261c.804-.214,2.115-.763,2.678-.842.551-.079.44.106.416.557-3.097,1.232-6.833,2.531-9.649,4.279-3.599,2.238-6.279,6.66-6.66,10.916l1.461-3.179,1.346-1.601c-.862,1.93-.809,3.584.443,5.326.804,1.117,2.942,2.484,2.537.293-.458-2.472-1.528-3.487-.815-6.411.226-.93,1.804-3.563,2.472-4.279.804-.856,2.469-1.83,3.519-1.824-4.203,2.813-5.273,8.188-3.103,12.685,3.945-1.235,8.397-2.352,12.532-2.689.308-.026,1.305-.229,1.258.27l-18.195,5.572-7.954,7.235,12.089,2.384-3.505.572-1.05-.126-.082.68c.235.023.153.194.138.563l-6.001,2.754c-1.27-.458-2.238-1.399-3.549-1.777-7.402-2.144-16.409-2.616-24.369-4.173l-.059.293,23.577,4.731,3.085,1.83c-1.214-.196-2.425-.411-3.651-.56.12.49.757,1.317.842,1.689.15-.179.358-.147.589-.035.343.164.733.499,1.029.548,2.42.408,11.482-5.848,12.16-5.294-2.625,4.358-8.244,5.332-12.761,6.772l-1.003-1.683-.015-.026c-4.927,7.174-10.585,14.022-15.746,21.099.578-.425,1.097-.393,1.974-1.258,5.13-5.056,9.781-11.189,14.887-16.336l2.821-.833-17.286,18.996c-.475.402-2.038.947-2.678,1.12l.282.147-.563.977c.727-.188,1.528-.188,2.255-.416l19.536-21.248c1.012-.809,3.141-.721,4.071-1.273.44-.264.513-.839.871-1.1.226-.164,2.129-.801,2.232-.716-7.872,14.541-16.154,28.871-24.184,43.321.49-.047.977.047,1.123.563,1.505-1.417,7.071-2.182,8.731-4.065l32.035-39.693c.994-.912,2.945-.771,3.936-1.408.915-.587,1.754-2.739,2.901-3.566,1.332-.956,7.37-4.077,8.916-4.587.29-.094.537-.188.851-.132l-.282.56c.475-.144.795.548.845.563.223.065.768-.37.839-.282l-.144,1.965,1.939.845ZM117.351,95.487l-18.928,5.537-.111-.809,22.19-6.778-3.15,2.05ZM64.543,95.683l.842-4.361c4.188-1.208,8.244-2.927,12.652-3.232.144.795-.188.463-.616.633-3.226,1.282-7.042,1.98-10.341,3.17-1,.669-.554,3.898-2.537,3.789ZM79.301,97.651c-.44-.249.097-.636.252-.874.554-.851,2.516-3.912,3.071-4.382,4.81-4.077,19.04-5.118,25.158-7.913l4.282,1.076-3.669.405c-7.485,3.065-16.961,4.393-24.252,7.529-1.845.792-3.018,3.176-4.842,4.159Z"/>
      <path class="cls-20" d="M116.542,15.687l-1.997,3.39.619.367.833.419-16.568,33.147c-3.78.537-4.417,3.654-6.681,5.751-.15.141-.199.261-.29.334l.657.176c1.235-1.264,3.191-3.167,3.502-3.379,1.425-.974,3.587-1.349,5.135-2.176,2.103-1.123,3.886-2.965,5.933-4.194l8.499-19.119c.402.047,1.109-.24.912.399l-5.323,16.632c.062.507,3.141,2.425,3.663,2.569.61.164.859-.443,1.408-.463l-3.379-2.642,8.183-26.439-4.074-2.12.114-1.147c-.425.1-.848.44-1.405.282l1.123-1.968c-.264.05-.657-.17-.865.182Z"/>
    </g>
    <path class="cls-20" d="M76.632,52.078c-.418,1.207-.477,2.922-1.406,3.939.428.307,3.289,2.628,3.654,2.251l.844-6.752-3.092.563Z"/>
    <polyline class="cls-20" points="73.84 84.566 93.366 79.085 91.748 76.172 71.306 82.005"/>
    <polygon class="cls-20" points="76.232 56.916 74.397 55.405 75.967 52.148 78.066 51.817 76.232 56.916"/>
    <polyline class="cls-20" points="68.493 68.802 67.915 72.052 68.493 72.333 69.742 70.647 68.493 68.802"/>
    <path class="cls-20" d="M80.851,48.702v.844c.266-.104.583-.123.841-.281l-.981,10.402c.219.252.461.636.839.568.63-.113,1.268-11.138,1.837-12.514-.784-.171-1.777.646-2.535.98Z"/>
    <g>
      <path class="cls-20" d="M147.914,54.606c-.865,2.032-12.35,10.761-14.638,11.523-.419.141-.856.27-1.308.22l-16.183-3.082c-.428-2.2-2.965-4.69-1.311-6.669,3.012-3.602,10.573-7.728,15.195-8.429,4.775-.721,8.397.109,12.84,1.725.83.302,5.341,2.179,5.505,2.651.173.502.114,1.551-.1,2.062ZM126.549,77.142c2.437.021,4.907-1.109,7.452.114,0,.138-2.074.613-2.425.669-2.361.384-8.711,1.179-10.796.742-.243-.05-2.458-.786-1.965-1.267,1.229-.065,2.273-.842,3.516-.871,1.311-.032,2.93.601,4.217.613ZM139.277,72.408c.821-.252,1.725-.537,2.686-.853l-.188-.589c-.789.264-1.513.49-2.15.666-.801.223-6.552,1.49-6.901,1.44-.29-.041-.851-.698-.977-1.015,11.784-2.337,24.955-6.734,32.334-16.764.37-.352,1.085.414,1.085.581.003.199-.381.754-.953,1.466l.809.179c.196-.261.361-.452.466-.522.405-.264.836.106.842.284.003.073-.029.182-.085.317l.824.305c.205-.516.381-1.056.531-1.616-1.299-.66-.783-2.563-2.106-2.807v-.416c2.074-1.27.809-1.939-.9-2.475-5.2-1.639-11.614-.522-16.922-1.076-3.927-.411-8.142-2.783-12.397-3.074-7.153-.487-21.122,5.077-24.677,11.632-1.848,3.405,1.103,7.435,3.431,9.904l-2.247-.701c1.821,2.983,5.203,4.98,8.432,6.188l-2.381.273-5.209-1.117c1.78,1.968,4.681,3.003,7.312,3.097l-3.939.842c-.088.1.235.853.284,1.123.493.296,1.132.924,1.405,1.408.17-.563.845-.003,1.129.138.554.267,1.346.809,1.889.921,1.37.287,9.136-.519,10.837-.845,2.015-.387,4.276-1.657,6.394-1.906.431-.399-.035-.507-.419-.557-1.261-.158-2.645-.141-3.904-.32-.358-.05-1.531-.111-1.581-.525,7.097-.836,14.207-3.258,20.718-6.138,1.367-.604,2.748-1.246,4.091-1.953l-.384-.748c-4.912,2.431-18.318,7.414-23.202,7.699-.51.032-1.05.07-1.223-.546,2.384-.695,4.869-1.167,7.244-1.898ZM147.78,55.732c1.378-1.282,1.689-2.801.282-4.214.991-.12,1.44.763,2.384.862,1.343.141,3.552-.534,5.053-.598,2.991-.126,5.646.607,8.59.581-.375.701-.387,1.261,0,1.962-1.132-.217-1.537-.991-2.748-1.326-2.194-.604-8.552-.493-10.558.537-.543.279-1.285,2.604-3.003,2.197ZM118.595,65.654c-.499-.176-1.39-.182-1.185-.915l15.189,3.261c5.206-1.859,9.523-6.798,14.298-9.35.384-.208.648-.502,1.164-.381-4.162,3.068-8.071,6.863-12.4,9.678-1.522.988-2.631,1.425-4.54,1.223-2.692-.29-9.74-2.531-12.526-3.516Z"/>
      <path class="cls-20" d="M159.443,62.481c-3.54,2.851-12.157,6.634-17.667,8.485l.188.589c6.877-2.247,16.691-6.001,20.712-10.623.519-.598,1.645-2.472,2.349-3.414l-.809-.179c-1.455,1.81-4.135,4.628-4.772,5.141Z"/>
      <path class="cls-20" d="M156.458,67.153l.384.748c.589-.311,1.173-.633,1.742-.971l-.405-.698c-.481.279-.98.546-1.493.807-.073.038-.15.076-.229.114Z"/>
      <path class="cls-20" d="M158.179,66.232l.405.698c.575-.34,1.138-.695,1.686-1.068l-.364-.751c-.554.402-1.129.771-1.727,1.12Z"/>
      <path class="cls-20" d="M159.907,65.111l.364.751c2.959-2.012,5.455-4.54,6.801-7.96l-.824-.305c-.54,1.258-3.443,4.904-4.121,5.599-.71.727-1.443,1.355-2.22,1.915Z"/>
    </g>
    <polygon class="cls-20" points="134.875 77.371 127.667 77.96 125.022 76.527 130.64 75.892 135.688 77.251 134.875 77.371"/>
    <polygon class="cls-11" points="115.419 82.936 106.23 81.446 114.46 77.96 115.995 82.245 115.419 82.936"/>
    <polygon class="cls-11" points="119.92 89.116 83.165 99.237 81.794 98.483 117.683 88.09 119.92 89.116"/>
    <polygon class="cls-11" points="95.827 99.392 94.476 98.807 93.206 99.392 95.044 100.483 95.827 99.392"/>
    <polyline class="cls-11" points="99.43 53.011 95.31 54.945 95.58 53.64 99.43 51.806 99.43 53.011"/>
    <path class="cls-11" d="M36.138,151.388c-.691,1.243-1.509,2.601-1.968,3.939h10.545s37.679-45.86,37.679-45.86c11.328-4.017,23.667-6.351,34.947-10.332,7.822-2.761,9.56-6.703,11.505-14.442,8.563-4.416,17.819-7.971,26.344-12.399.597-.31,2.149-.834,1.73-1.646l-28.917,13.482-1.737,5.36c-1.33-1.325-4.324-2.206-5.488-3.507-1.243-1.39-2.1-5.154-3.09-6.896-.275-.484-.912-1.11-1.406-1.407.493,2.757,2.195,5.115,2.809,7.877-.067.084-1.589-1.217-1.69-1.34-.802-.976-1.732-4.274-2.807-4.286-.667,1.383,1.684,3.794,1.575,4.924-.102,1.057-3.125,3.674-4.134,4.19l-30.903,9.03,1.494.924,30.624-8.176c2.066-.742,2.644-2.496,5.001-1.327.851-.662,1.707-1.417,1.974-2.531l5.216,3.372c.19.217-.092.381-.16.565-.29.787-1.153,2.63-1.687,3.095-1.416,1.234-3.63,2.522-5.191,3.668l-32.354,9.551c-.368-.507.772-1.371,1.134-1.678,2.457-2.085,5.652-3.658,8.008-5.914-.049-.014-.368-.708-.844-.563-2.393,2.086-5.979,3.596-8.29,5.632-2.114,1.863-2.228,3.703-5.757,4.087l-35.505,44.234-8.096.059c-.05-.037.509-1.073.562-1.122-.147-.516-.634-.61-1.125-.563Z"/>
    <path class="cls-11" d="M117.408,15.505l-1.123,1.968c.555.16.977-.18,1.405-.28,2.324-.543,4.673-.789,7.029-1.124l-8.178,30.529c.907.777,1.786,2.17,3.117,1.538l-.794-1.464,7.824-32.291c-3.054.317-6.269.556-9.279,1.124Z"/>
    <path class="cls-11" d="M46.824,106.937c-.512-.062-1.118-.695-1.697.132l-17.703,26.177c-.062.471-.025.449.417.421,1.168-.074,2.394-.555,3.517-.848l.565-.979-.283-.146c-.471.127-1.264.477-1.686.142.605-.883,1.154-1.236,1.967-1.83,5.164-7.077,10.82-13.925,15.748-21.1-.015-.091.02-.193,0-.281-.086-.372-.722-1.199-.844-1.688Z"/>
    <path class="cls-11" d="M75.226,56.016c.348-1.071.988-2.731,1.406-3.939s2.935-2.032,4.218-2.532v-.844c-1.346.594-4.955,1.85-5.754,2.824-.248.302-1.566,2.971-1.559,3.239.019.81,1.264.947,1.69,1.252Z"/>
    <path class="cls-11" d="M67.915,72.052l-.56.281c.05-.643-.349-3.015-1.263-2.812l-2.117,4.638c.053.682,3.641-.621,3.94-.7l.281-1.262-.281-.145Z"/>
    <path class="cls-11" d="M62.934,105.333l-23.421,42.676.931-.342,25.499-39.468c.094-.691-.188-.342-.579-.299-1.021.111-2.024.521-3.074.442l1.967-3.234-1.324.226Z"/>
    <path class="cls-11" d="M115.162,19.444l-23.344,39.664c.747.163.617-.057.93-.347,2.264-2.097,2.9-5.213,6.683-5.75l16.565-33.148-.833-.419Z"/>
    <path class="cls-11" d="M48.793,48.142l21.662,21.253,10.395-3.536-.143-.562c-1.781.222-8.448,2.688-9.691,2.114l-17.992-17.455-4.231-1.813Z"/>
    <path class="cls-11" d="M19.547,99.344c.108.563.594.46.985.559,8.694,2.195,19.25,2.463,27.71,4.913,1.312.38,2.28,1.319,3.55,1.777l5.999-2.754c.019-.471.148-.617-.406-.549-1.295.158-4.419,1.686-5.315,1.606-.792-.071-2.668-1.549-3.77-1.543l-28.752-4.008Z"/>
    <polygon class="cls-11" points="98.313 100.214 98.422 101.025 117.351 95.486 120.501 93.436 98.313 100.214"/>
    <path class="cls-11" d="M132.032,74.306c.174.614.713.576,1.225.546,4.959-.293,18.718-5.428,23.43-7.814,2.058-1.042,3.823-2.182,5.441-3.841.751-.77,4.232-5.161,4.204-5.917-.007-.18-.436-.548-.842-.285-.488.316-2.151,3.171-2.816,3.936-4.58,5.269-16.686,9.409-23.398,11.477-2.375.732-4.858,1.204-7.244,1.899Z"/>
    <path class="cls-11" d="M118.814,77.4c-.49.48,1.722,1.217,1.965,1.267,2.086.436,8.436-.357,10.796-.742.352-.057,2.428-.533,2.427-.669-5.395-.292-5.018-.094-7.453-.116-1.286-.012-2.907-.644-4.218-.612-1.244.031-2.287.808-3.517.872Z"/>
    <path class="cls-17" d="M31.076,156.733l25.309-45.01c-.265-.208-2.87.703-3.107,1.25l-17.312,20.379-13.045,3.123,19.403-30.378-31.776-6.189,8.013-3.099,28.136,2.687c.568-.061,2.768-1.808,3.177-2.307.328-.4,3.008-5.041,3.059-5.345.083-.494-.449-1.507-.482-2.211-.277-5.885,1.607-11.028,7.154-13.655l4.611-8.526-20.203-20.714,8.735-5.204.891-.099,17.8,12.06,2.588-3.395,11.039-5.054-1.416,16.409c.91.952,2.109-.306,3.186-.433l28.752-46.351,13.348-2.54-7.472,34.616c.544.768,4.508-1.024,5.505-1.279,9.107-2.324,11.763.234,19.858,1.793,6.645,1.28,30.527-1.791,26.274,11.443-2.408,7.492-11.021,7.016-14.002,13.638l-28.123,13.847c-1.302,3.423-2.058,7.161-4.423,10.065-2.692,3.306-6.481,4.109-10.338,5.413-11.124,3.761-22.494,6.87-33.596,10.701l-35.925,44.094c-.626,1.023-1.281.279-1.7.271-4.636-.087-9.286.065-13.92,0ZM116.542,15.687l-26.961,45.753-7.325,3.013.833-1.002-.282-.531-29.514-19.699-6.746,3.652,21.944,21.929c.184.179-.297,2.177-.578,3.251l-.56.281c.05-.643-.349-3.015-1.263-2.812l-2.117,4.638c.053.682,3.641-.621,3.94-.7.804-.214,2.115-.763,2.678-.843.552-.078.439.106.416.558-3.095,1.23-6.833,2.529-9.647,4.279-3.601,2.239-6.28,6.661-6.661,10.915l1.46-3.177,1.347-1.604c-.862,1.93-.809,3.586.443,5.327.803,1.117,2.941,2.484,2.536.293-.456-2.471-1.526-3.487-.815-6.412.226-.928,1.805-3.563,2.474-4.277.802-.856,2.469-1.831,3.519-1.825-4.204,2.815-5.273,8.19-3.103,12.686,3.942-1.237,8.394-2.352,12.531-2.691.308-.025,1.306-.228,1.257.272l-18.193,5.573-7.956,7.233,12.089,2.387-3.503.57-39.441-4.701-3.453,1.324,31.498,6.322,3.087,1.831c-1.217-.198-2.428-.411-3.654-.56-.512-.062-1.118-.695-1.697.132l-17.703,26.177c-.062.471-.025.449.417.421,1.168-.074,2.394-.555,3.517-.848.726-.19,1.529-.188,2.255-.418l19.536-21.248c1.013-.81,3.141-.72,4.071-1.273.442-.263.515-.84.87-1.098.228-.166,2.13-.801,2.233-.717-7.873,14.542-16.154,28.87-24.184,43.322-.691,1.243-1.509,2.601-1.968,3.939h10.545s37.679-45.86,37.679-45.86c11.328-4.017,23.667-6.351,34.947-10.332,7.822-2.761,9.56-6.703,11.505-14.442,8.563-4.416,17.819-7.971,26.344-12.399.597-.31,2.149-.834,1.73-1.646l-28.917,13.482-1.737,5.36c-1.33-1.325-4.324-2.206-5.488-3.507-1.243-1.39-2.1-5.154-3.09-6.896.168-.563.843,0,1.129.137.554.268,1.347.811,1.888.924,1.37.285,9.138-.519,10.837-.846,2.016-.388,4.276-1.657,6.394-1.906.43-.4-.034-.509-.42-.557-1.262-.158-2.646-.142-3.903-.319-.357-.05-1.53-.112-1.581-.524,7.097-.838,14.207-3.261,20.719-6.141,6.324-2.798,12.949-6.393,14.851-13.566-1.299-.661-.784-2.564-2.105-2.808v-.414c2.074-1.27.808-1.939-.902-2.478-5.198-1.638-11.614-.521-16.922-1.076-3.926-.41-8.14-2.782-12.396-3.072-7.153-.488-21.122,5.078-24.677,11.63-1.847,3.405,1.101,7.436,3.431,9.906l-2.248-.702c1.821,2.983,5.204,4.981,8.434,6.19l-2.383.273-5.207-1.118c1.781,1.966,4.681,3.001,7.31,3.095l-3.937.843c-.088.099.234.852.283,1.123.493,2.757,2.195,5.115,2.809,7.877-.067.084-1.589-1.217-1.69-1.34-.802-.976-1.732-4.274-2.807-4.286l-30.651,8.156,19.334-6.378,2.035-2.201c-5.617.164-11.089,1.837-16.459,3.443l-.411-.485,8.976-4.105,1.423-1.666c-.265-.407-.542-.387-.965-.436-1.944-.222-6.424,1.199-8.591,1.702-1.326.308-2.638.813-3.937,1.125-5.016,1.204-10.078,2.234-15.041,3.661l-.014-.859,10.836-4.207-11.808,2.249-.17-1.136,31.104-10.819.278-.422c-1.22-.015-2.228-.413-3.492-.26-5.166.624-11.902,4.025-17.245,4.974-.397.07-1.039.34-.914-.351l23.9-7.745-.373-.516c-3.746.964-7.524,2.29-11.313,3.047-.426.085-.534.503-.966-.138,4.002-1.96,9.03-2.037,12.372-5.2l-30.089,10.685.28-.42,35.996-13.925c.336-.073.237-.516.281-.563.089-.094.205-.178.281-.281.379-.513.55-.993.844-1.407.591-.832,1.293-1.622,1.967-2.393l-.414-.134-19.412,7.87c-.19.061-.204-.267-.136-.416.131-.29,4.064-4.179,4.515-4.487,1.426-.973,3.587-1.351,5.135-2.177,2.102-1.123,3.885-2.965,5.932-4.193l8.501-19.118c.402.045,1.106-.241.912.398l-5.325,16.633c.061.508,3.143,2.426,3.664,2.568.61.165.859-.442,1.409-.461l-3.379-2.642,8.183-26.44-4.076-2.12.116-1.147c2.324-.543,4.673-.789,7.029-1.124l-8.178,30.529c.907.777,1.786,2.17,3.117,1.538l-.794-1.464,7.824-32.291c-3.054.317-6.269.556-9.279,1.124-.265.05-.659-.169-.866.183ZM75.096,51.525c-.248.302-1.566,2.971-1.559,3.239.019.81,1.264.947,1.69,1.252.428.307,3.289,2.628,3.654,2.251l.844-6.752-3.092.563c.417-1.202,2.935-2.032,4.218-2.532.266-.104.583-.123.841-.281l-.981,10.402c.219.252.461.636.839.568.63-.113,1.268-11.138,1.837-12.514-.784-.171-1.777.646-2.535.98-1.346.594-4.955,1.85-5.754,2.824Z"/>
    <path class="cls-17" d="M110.097,55.454c-.481-.727-.116-.513-.742-.334-.97.277-2.261.866-3.265,1.249-10.928,4.166-21.621,8.991-32.551,13.155l.389.531,35.325-13.194c.379-.513.55-.993.844-1.407Z"/>
    <line class="cls-23" x1="85.35" y1="79.085" x2="85.912" y2="79.367"/>
    <path class="cls-23" d="M89.568,78.804c-.018-.3-.139-.584-.281-.844"/>
    <path class="cls-12" d="M108.691,57.704c.336-.073.237-.516.281-.563l-.281.563Z"/>
    <path class="cls-17" d="M37.263,151.95c-.053.05-.613,1.085-.562,1.122l8.096-.059,35.505-44.234c3.529-.385,3.643-2.224,5.757-4.087,2.311-2.036,5.897-3.547,8.29-5.632l.283-.56c-.314-.056-.562.036-.852.132-1.545.51-7.586,3.63-8.914,4.586-1.148.826-1.988,2.979-2.903,3.566-.99.636-2.941.496-3.936,1.408l-32.034,39.692c-1.66,1.885-7.226,2.649-8.73,4.067Z"/>
    <path class="cls-17" d="M63.978,107.216l4.79-.719.496,3.615-12.876,21.728.415.415,18.973-24.908c1.225-1.121,3.145-.516,4.617-1.289,1.255-.659,2.716-3.556,4.131-4.588,1.621-1.181,4.343-2.039,6.176-3.116.364-.214.709.05.553-.699l-25.193,6.725-2.083,2.837Z"/>
    <path class="cls-17" d="M123.595,93.996c-.171-.565-.841.001-1.129.137-7.886,3.725-16.343,5.443-24.639,8.018l-1.939-.845.145-1.964c-.071-.09-.616.345-.841.281-2.356,2.257-5.551,3.829-8.008,5.914-.363.308-1.502,1.171-1.134,1.678l32.354-9.551c1.561-1.146,3.775-2.434,5.191-3.668Z"/>
    <path class="cls-17" d="M82.625,92.397c-.554.469-2.516,3.529-3.072,4.38-.156.239-.691.625-.251.875,1.822-.982,2.997-3.366,4.841-4.16,7.291-3.136,16.766-4.463,24.252-7.528l3.668-.404-4.282-1.076c-6.118,2.794-20.348,3.837-25.156,7.913Z"/>
    <path class="cls-17" d="M31.92,130.006c-.813.594-1.362.947-1.967,1.83.422.335,1.215-.016,1.686-.142.641-.172,2.203-.717,2.678-1.119l17.286-18.998-2.822.834c-5.107,5.147-9.757,11.28-14.886,16.336-.877.865-1.396.834-1.976,1.258Z"/>
    <path class="cls-17" d="M125.282,90.901c.068-.184.349-.348.16-.565l-5.216-3.372c-.267,1.113-1.123,1.869-1.974,2.531-.856.666-2.59,1.733-3.577,2.189-5.056,2.334-11.437,3.58-16.67,5.692.135.549.704.649,1.19.509,5.328-1.995,11.413-2.981,16.672-5.008,1.515-.584,5.608-3.231,6.671-3.054.819.137,1.724,1.214,2.744,1.079Z"/>
    <path class="cls-17" d="M47.668,108.625c.02.088-.015.19,0,.281l1.016,1.711c4.517-1.44,10.138-2.413,12.763-6.772-.679-.554-9.74,5.7-12.161,5.294-.496-.083-1.248-.964-1.618-.514Z"/>
    <path class="cls-17" d="M63.416,58.27l8.738,7.738,4.758-.429-4.009-1.189c-3.085-2.18-5.758-5.004-9.487-6.12Z"/>
    <path class="cls-17" d="M64.542,95.683c1.983.108,1.538-3.119,2.538-3.788,3.299-1.191,7.114-1.888,10.34-3.172.428-.17.76.162.616-.633-4.407.304-8.466,2.025-12.653,3.234l-.842,4.359Z"/>
    <polygon class="cls-11" points="135.459 48.296 128.938 48.919 124.641 50.223 119.261 53.202 114.425 57.423 114.765 59.637 116.659 62.034 117.081 63.307 132.032 65.48 133.564 65.139 146.376 55.78 147.458 53.643 147.458 52.311 136.424 48.589 135.459 48.296"/>
    <path class="cls-17" d="M114.474,56.597c3.012-3.6,10.572-7.729,15.196-8.429,4.773-.722,8.396.109,12.84,1.725.829.301,5.34,2.179,5.503,2.651.173.502.116,1.553-.1,2.06-.865,2.033-12.349,10.761-14.635,11.525-.422.141-.859.269-1.311.218l-16.183-3.081c-.427-2.199-2.965-4.692-1.31-6.67ZM130.347,57.421l.837-1.966,1.833,3.935.703-4.217,2.808,2.249-.839-5.625c.246-.274,4.895,2.895,5.487,3.089.423.138.444.009.37-.367-.185-.939-.362-1.747-.233-2.723l5.341,1.403c-.387-.595-1.406-.881-2.062-1.169-2.284-1.004-6.974-2.736-9.35-3.024-1.641-.199-3.21-.035-4.992.245-.334.079-.382.841-.468,1.138-.704,2.433.363,4.562.565,7.032ZM118.811,54.186c-.634.536-3.477,3.428-3.613,4.002-.267,1.13,1.521,2.629,2.352,3.173l.142-1.686,1.963,1.688-.557-3.376,2.951,3.093-.151-3.022c.42.357.486.383.653.57.619.695,1.096,1.663,1.885,2.172l-.838-4.783,3.514,4.219-.141-2.81,1.967,1.121c-.95-2.798-1.592-5.793-.844-8.716-.378-.331-5.519,1.872-6.291,2.282-.753.401-1.042.687-1.669,1.022-.537.287-.688.516-1.322,1.052ZM134.703,57.428l-1.405,3.932-1.826-2.249c-.732,2.013.887,4.203,2.542,5.234,1.854-1.11,12.334-8.662,12.362-10.155l-4.22-.988-.145,3.098-4.356-1.972v5.064s-2.953-1.964-2.953-1.964ZM125.283,59.675l.277,3.093-2.389-1.968-.142,1.686-2.527-1.686.014,2.235,10.671,1.699c-.744-.783-1.79-4.532-2.395-4.777-.838-.339-.482,1.991-.98,2.248-.212-.222-.288-.335-.562-.563.117-.548-1.682-2.281-1.967-1.968ZM118.25,62.77l1.407-.004c-.09-.246-1.067-1.798-1.404-1.402l-.003,1.407Z"/>
    <path class="cls-17" d="M131.75,72.055c.125.317.685.976.975,1.016.349.049,6.1-1.217,6.901-1.439,5.098-1.418,15.77-5.892,19.817-9.151.885-.713,5.735-5.9,5.726-6.607-.002-.166-.717-.933-1.086-.58-7.38,10.03-20.549,14.426-32.333,16.762Z"/>
    <path class="cls-17" d="M117.41,64.738c-.206.735.686.74,1.186.917,2.785.983,9.833,3.226,12.526,3.514,1.908.205,3.017-.233,4.539-1.222,4.33-2.816,8.238-6.609,12.399-9.677-.515-.12-.779.173-1.164.38-4.773,2.552-9.091,7.493-14.297,9.351l-15.188-3.262Z"/>
    <path class="cls-17" d="M148.06,51.518c1.407,1.413,1.099,2.932-.281,4.214,1.72.407,2.46-1.917,3.004-2.196,2.005-1.029,8.365-1.14,10.558-.537,1.213.334,1.617,1.109,2.748,1.327-.387-.701-.376-1.263,0-1.964-2.944.027-5.597-.707-8.59-.579-1.501.064-3.711.739-5.053.597-.943-.1-1.393-.983-2.385-.862Z"/>
    <path class="cls-17" d="M121.909,52.36l.558,3.937-1.4-1.125c-.146.313-.306,1.96-.421,2.529l-2.391-2.248-.006,2.25-1.402-.842c-.43,1.912-.01,2.529.143,3.09l.42-1.685,1.4,1.405.006-2.812,2.389,2.249.142-2.53,1.963,1.688-.838-4.782,4.076,4.781.142-2.249,1.403.56c-.159-1.16-.835-1.275-1.825-1.688l-.283,1.69c-.664-.216-3.568-4.788-4.077-4.217Z"/>
    <path class="cls-17" d="M134.001,49.547l.558,3.937-1.681-1.125-.288,2.531-1.825-2.526c-.656.61-.728,1.45-.418,2.243l.28-.842,1.969,3.374.56-3.372,2.245,1.405-.557-4.783,5.901,3.093-.293-2.523-.829-.008-.139.842-5.484-2.247Z"/>
    <polygon class="cls-17" points="63.163 95.685 63.975 91.887 58.848 93.436 52.737 99.344 60.526 100.483 60.127 99.344 59.727 96.185 63.163 95.685"/>
    <polygon class="cls-17" points="76.912 97.941 63.975 101.571 62.662 97.651 66.526 97.651 66.919 98.483 76.912 97.941"/>
    <polygon class="cls-17" points="111.756 80.547 81.381 89.116 82.048 88.09 112.063 78.795 111.756 80.547"/>
    <polygon class="cls-17" points="83.019 61.071 69.763 52.359 68.916 53.28 82.619 62.5 83.019 61.071"/>
    <polygon class="cls-17" points="88.172 60.243 83.386 62.139 83.858 62.829 88.692 61.071 88.172 60.243"/>
    <polygon class="cls-17" points="50.733 151.508 46.144 157.192 30.763 157.192 32.157 154.81 33.36 156.074 44.586 156.433 49.82 151.16 50.733 151.508"/>
    <polygon class="cls-17" points="67.355 72.333 44.014 46.738 51.364 52.575 68.196 70.054 67.355 72.333"/>
  </g>
  <g>
    <g>
      <path class="cls-9" d="M364.336,53.922h-1.988c-.259-6.037-5.112-10.883-11.152-11.131v-1.922c0-.236-.191-.427-.427-.427s-.427.191-.427.427v1.918c-6.124.19-11.056,5.106-11.273,11.223h-1.868c-.236,0-.427.191-.427.427s.191.427.427.427h1.869c.224,6.111,5.153,11.019,11.272,11.209v1.925c0,.236.191.427.427.427s.427-.191.427-.427v-1.929c6.094-.25,10.98-5.18,11.158-11.293h1.982c.236,0,.427-.191.427-.427s-.191-.427-.427-.427ZM351.196,65.07v-3.736c0-.236-.191-.427-.427-.427s-.427.191-.427.427v3.741c-5.568-.189-10.052-4.652-10.275-10.212h3.797c.236,0,.427-.191.427-.427s-.191-.427-.427-.427h-3.798c.216-5.566,4.702-10.036,10.275-10.225v3.748c0,.236.191.427.427.427s.427-.191.427-.427v-3.744c5.489.246,9.897,4.647,10.154,10.133h-3.678c-.236,0-.427.191-.427.427s.191.427.427.427h3.684c-.177,5.561-4.617,10.046-10.161,10.295Z"/>
      <path class="cls-21" d="M350.769,68.576c-.319,0-.578-.26-.578-.579v-1.779c-6.061-.263-10.969-5.145-11.266-11.204h-1.724c-.319,0-.578-.259-.578-.578s.259-.579.578-.579h1.723c.29-6.066,5.199-10.954,11.267-11.217v-1.771c0-.319.259-.579.578-.579s.579.26.579.579v1.777c5.96.319,10.814,5.165,11.145,11.124h1.844c.319,0,.578.26.578.579s-.259.578-.578.578h-1.836c-.252,6.046-5.11,10.963-11.153,11.286v1.785c0,.319-.26.579-.579.579ZM337.201,54.162c-.151,0-.275.123-.275.275s.123.275.275.275h2.015l.005.146c.22,6.017,5.107,10.876,11.125,11.063l.147.005v2.072c0,.152.123.275.275.275s.275-.123.275-.275v-2.075l.146-.006c6.001-.246,10.838-5.142,11.013-11.145l.004-.147h2.13c.151,0,.275-.123.275-.275s-.123-.275-.275-.275h-2.134l-.006-.145c-.254-5.917-5.088-10.743-11.007-10.985l-.146-.006v-2.068c0-.152-.123-.275-.275-.275s-.275.123-.275.275v2.065l-.147.005c-6.025.187-10.912,5.053-11.126,11.076l-.005.146h-2.015ZM350.494,65.232l-.157-.005c-5.619-.191-10.196-4.74-10.421-10.357l-.006-.158h3.955c.152,0,.275-.123.275-.275s-.123-.275-.275-.275h-3.955l.006-.158c.218-5.625,4.796-10.18,10.421-10.371l.157-.005v3.905c0,.152.123.275.275.275s.275-.123.275-.275v-3.903l.159.007c5.608.252,10.036,4.67,10.299,10.277l.008.159h-3.837c-.151,0-.275.123-.275.275s.123.275.275.275h3.84l-.005.157c-.179,5.604-4.705,10.191-10.305,10.442l-.159.007v-3.895c0-.151-.123-.275-.275-.275s-.275.123-.275.275v3.898ZM340.227,55.015c.294,5.334,4.627,9.64,9.964,9.902v-3.583c0-.319.259-.578.578-.578s.579.259.579.578v3.577c5.318-.319,9.601-4.661,9.851-9.983h-3.526c-.319,0-.578-.259-.578-.578s.259-.579.578-.579h3.517c-.328-5.321-4.52-9.505-9.842-9.821v3.584c0,.319-.26.579-.579.579s-.578-.26-.578-.579v-3.59c-5.343.262-9.677,4.574-9.964,9.915h3.639c.319,0,.579.26.579.579s-.26.578-.579.578h-3.638Z"/>
    </g>
    <g>
      <path class="cls-9" d="M350.769,68.586c-.324,0-.588-.264-.588-.588v-1.77c-2.941-.13-5.706-1.343-7.799-3.425-2.093-2.082-3.32-4.839-3.466-7.778h-1.714c-.324,0-.588-.264-.588-.588s.264-.588.588-.588h1.714c.143-2.942,1.369-5.702,3.462-7.787,2.094-2.086,4.86-3.3,7.804-3.43v-1.762c0-.324.264-.588.588-.588s.588.264.588.588v1.768c2.904.157,5.632,1.373,7.697,3.434,2.065,2.061,3.285,4.786,3.448,7.689h1.835c.324,0,.588.264.588.588s-.264.588-.588.588h-1.827c-.124,2.937-1.329,5.701-3.402,7.797-2.072,2.095-4.819,3.33-7.751,3.488v1.776c0,.324-.264.588-.588.588ZM337.201,54.171c-.146,0-.265.119-.265.265s.119.265.265.265h2.024l.006.155c.107,2.915,1.306,5.655,3.378,7.716,2.072,2.062,4.82,3.247,7.738,3.337l.156.005v2.081c0,.146.119.265.265.265s.265-.119.265-.265v-2.084l.155-.006c2.908-.119,5.639-1.327,7.689-3.4,2.052-2.075,3.229-4.822,3.314-7.736l.005-.157h2.139c.146,0,.265-.119.265-.265s-.119-.265-.265-.265h-2.143l-.007-.154c-.124-2.879-1.317-5.589-3.361-7.629-2.044-2.04-4.756-3.229-7.637-3.347l-.155-.006v-2.077c0-.146-.119-.265-.265-.265s-.265.119-.265.265v2.074l-.156.005c-2.92.091-5.67,1.278-7.743,3.342-2.072,2.064-3.27,4.807-3.374,7.725l-.006.156h-2.024ZM350.504,65.242l-.167-.006c-2.733-.093-5.308-1.207-7.25-3.139-1.941-1.93-3.071-4.497-3.18-7.228l-.007-.168h3.965c.146,0,.265-.119.265-.265s-.119-.265-.265-.265h-3.965l.007-.168c.106-2.734,1.234-5.304,3.176-7.237,1.943-1.934,4.519-3.05,7.255-3.143l.167-.006v3.915c0,.146.119.265.265.265s.265-.119.265-.265v-3.913l.169.008c2.695.121,5.233,1.239,7.146,3.148,1.913,1.909,3.036,4.444,3.162,7.138l.008.169h-3.847c-.146,0-.265.119-.265.265s.119.265.265.265h3.85l-.005.167c-.087,2.729-1.193,5.303-3.115,7.248-1.92,1.943-4.477,3.081-7.2,3.203l-.169.008v-3.905c0-.146-.119-.265-.265-.265s-.265.119-.265.265v3.908ZM340.237,55.025c.145,2.586,1.233,5.011,3.077,6.844,1.845,1.834,4.277,2.909,6.867,3.038v-3.573c0-.324.264-.588.588-.588s.588.264.588.588v3.566c2.579-.157,4.994-1.253,6.816-3.098,1.825-1.847,2.892-4.28,3.015-6.865h-3.516c-.324,0-.588-.264-.588-.588s.264-.588.588-.588h3.507c-.161-2.55-1.243-4.944-3.059-6.756-1.816-1.812-4.212-2.89-6.764-3.046v3.574c0,.324-.264.588-.588.588s-.588-.264-.588-.588v-3.58c-2.592.129-5.026,1.206-6.871,3.042-1.844,1.836-2.932,4.264-3.073,6.853h3.628c.324,0,.588.264.588.588s-.264.588-.588.588h-3.628Z"/>
      <path class="cls-21" d="M350.769,68.737c-.408,0-.74-.332-.74-.74v-1.625c-2.923-.165-5.672-1.391-7.755-3.462-2.082-2.071-3.322-4.813-3.503-7.734h-1.571c-.408,0-.74-.332-.74-.74s.332-.74.74-.74h1.57c.177-2.924,1.416-5.669,3.499-7.743,2.083-2.074,4.833-3.302,7.759-3.467v-1.618c0-.408.332-.74.74-.74s.74.332.74.74v1.625c2.886.191,5.598,1.419,7.652,3.469,2.053,2.05,3.287,4.76,3.483,7.645h1.692c.408,0,.74.332.74.74s-.332.74-.74.74h-1.682c-.159,2.919-1.376,5.667-3.438,7.752-2.061,2.084-4.793,3.332-7.707,3.525v1.633c0,.408-.332.74-.74.74ZM337.201,54c-.241,0-.436.196-.436.436s.196.436.436.436h1.859l.007.144c.144,2.899,1.359,5.626,3.421,7.678,2.063,2.052,4.797,3.253,7.699,3.381l.145.006v1.915c0,.241.196.436.436.436s.436-.196.436-.436v-1.919l.144-.008c2.892-.156,5.61-1.379,7.651-3.443,2.043-2.066,3.235-4.799,3.358-7.696l.006-.145h1.972c.24,0,.436-.196.436-.436s-.196-.436-.436-.436h-1.978l-.008-.143c-.16-2.863-1.369-5.559-3.403-7.59-2.035-2.031-4.733-3.235-7.598-3.39l-.144-.008v-1.912c0-.241-.196-.436-.436-.436s-.436.196-.436.436v1.907l-.145.006c-2.904.128-5.64,1.331-7.703,3.386-2.063,2.054-3.277,4.784-3.418,7.687l-.007.144h-1.858ZM350.769,68.415c-.23,0-.417-.187-.417-.417l-.009-1.935c-2.956-.092-5.741-1.293-7.84-3.381-2.099-2.088-3.314-4.865-3.422-7.818v-.009h-1.879c-.23,0-.417-.187-.417-.417s.187-.417.417-.417l1.878-.009c.105-2.957,1.319-5.737,3.418-7.828,2.1-2.092,4.887-3.294,7.845-3.386h.009v-1.927c0-.23.187-.417.417-.417s.417.187.417.417l.009,1.932c2.919.12,5.667,1.324,7.738,3.391,2.071,2.067,3.28,4.812,3.406,7.73v.009h1.998c.23,0,.417.187.417.417s-.187.417-.417.417l-1.992.009c-.086,2.952-1.279,5.736-3.358,7.838-2.078,2.101-4.845,3.324-7.791,3.445h-.009v1.939c0,.23-.187.417-.417.417ZM337.201,54.323c-.063,0-.114.051-.114.114s.051.114.114.114h2.171l.011.301c.105,2.877,1.289,5.581,3.333,7.614,2.045,2.034,4.757,3.204,7.636,3.293l.303.01v2.228c0,.063.051.114.113.114s.114-.051.114-.114v-2.23l.3-.012c2.869-.118,5.564-1.309,7.588-3.355,2.025-2.048,3.186-4.758,3.27-7.634l.009-.304h2.287c.063,0,.114-.051.114-.113s-.051-.114-.114-.114h-2.289l-.013-.3c-.122-2.842-1.3-5.515-3.317-7.528-2.017-2.013-4.693-3.186-7.535-3.303l-.3-.012v-2.223c0-.063-.051-.114-.114-.114s-.113.051-.113.114v2.221l-.303.01c-2.881.089-5.595,1.26-7.64,3.298-2.045,2.037-3.227,4.744-3.329,7.623l-.011.302h-2.171ZM350.656,65.399l-.324-.011c-2.772-.094-5.383-1.224-7.352-3.183-1.969-1.957-3.114-4.56-3.225-7.329l-.013-.326h4.123c.063,0,.114-.051.114-.114s-.051-.114-.114-.114h-4.123l.013-.325c.107-2.772,1.251-5.378,3.221-7.339,1.97-1.961,4.583-3.093,7.357-3.187l.324-.011v4.072c0,.063.051.114.113.114s.114-.051.114-.114v-4.071l.327.015c2.733.123,5.306,1.256,7.246,3.193,1.94,1.936,3.079,4.507,3.207,7.238l.016.328h-4.006c-.063,0-.114.051-.114.114s.051.113.114.113h4.007l-.01.323c-.088,2.767-1.21,5.378-3.158,7.35-1.947,1.97-4.54,3.124-7.301,3.248l-.327.015v-4.064c0-.063-.051-.113-.114-.113s-.113.051-.113.113v4.065ZM340.058,54.854v.01c.108,2.692,1.222,5.223,3.136,7.126,1.915,1.904,4.453,3.003,7.148,3.095h.01s0-3.751,0-3.751c0-.23.187-.417.417-.417s.417.187.417.417v3.747h.01c2.685-.121,5.206-1.242,7.099-3.158,1.895-1.918,2.985-4.456,3.071-7.146v-.01s-3.693,0-3.693,0c-.23,0-.417-.187-.417-.417s.187-.417.417-.417h3.687v-.01c-.125-2.656-1.232-5.155-3.119-7.038-1.886-1.883-4.388-2.985-7.045-3.104h-.01s0,3.754,0,3.754c0,.23-.187.417-.417.417s-.417-.187-.417-.417v-3.758h-.01c-2.697.092-5.238,1.193-7.153,3.099-1.915,1.906-3.027,4.44-3.131,7.135v.01s3.807,0,3.807,0c.23,0,.417.187.417.417s-.187.417-.417.417h-3.807ZM350.333,65.066l-.159-.008c-2.625-.131-5.099-1.225-6.966-3.082-1.866-1.856-2.975-4.321-3.122-6.943l-.009-.16h3.788c.241,0,.436-.196.436-.436s-.196-.436-.436-.436h-3.789l.009-.16c.143-2.625,1.251-5.094,3.118-6.953,1.868-1.859,4.343-2.956,6.971-3.087l.159-.008v3.74c0,.241.196.436.436.436s.436-.196.436-.436v-3.735l.161.01c2.587.158,5.023,1.255,6.862,3.089,1.838,1.835,2.94,4.269,3.103,6.854l.01.161h-3.668c-.241,0-.436.196-.436.436s.196.436.436.436h3.675l-.008.159c-.125,2.621-1.211,5.094-3.059,6.964-1.845,1.868-4.301,2.984-6.915,3.143l-.161.01v-3.728c0-.241-.196-.436-.436-.436s-.436.196-.436.436v3.732ZM340.399,55.176c.178,2.487,1.247,4.82,3.022,6.585,1.776,1.766,4.117,2.822,6.608,2.985v-3.412c0-.408.332-.74.74-.74s.74.332.74.74v3.404c2.479-.19,4.802-1.266,6.557-3.043,1.757-1.779,2.806-4.119,2.963-6.606h-3.355c-.408,0-.74-.332-.74-.74s.332-.74.74-.74h3.344c-.193-2.451-1.255-4.753-3.003-6.497-1.748-1.744-4.052-2.802-6.505-2.99v3.411c0,.408-.332.74-.74.74s-.74-.332-.74-.74v-3.419c-2.493.163-4.836,1.22-6.612,2.989-1.776,1.768-2.844,4.104-3.019,6.594h3.467c.408,0,.74.332.74.74s-.332.74-.74.74h-3.466Z"/>
    </g>
    <path class="cls-14" d="M376.679,54.433c0,7.199-2.545,13.343-7.634,18.432s-11.233,7.633-18.432,7.633-13.343-2.544-18.432-7.633c-5.09-5.089-7.634-11.233-7.634-18.432s2.544-13.342,7.634-18.432,11.232-7.633,18.432-7.633,13.342,2.545,18.432,7.633c5.089,5.09,7.634,11.234,7.634,18.432ZM364.764,54.433c0-3.921-1.378-7.261-4.133-10.016-2.756-2.756-6.095-4.133-10.017-4.133-3.873,0-7.199,1.378-9.979,4.133-2.781,2.755-4.171,6.095-4.171,10.016s1.389,7.261,4.171,10.017c2.78,2.756,6.107,4.133,9.979,4.133,3.922,0,7.261-1.378,10.017-4.133,2.756-2.756,4.133-6.094,4.133-10.017Z"/>
    <path class="cls-3" d="M350.614,76.913c-6.268,0-11.468-2.153-15.896-6.583-4.43-4.43-6.584-9.629-6.584-15.897s2.154-11.467,6.584-15.896c4.43-4.43,9.63-6.583,15.897-6.583s11.466,2.153,15.897,6.584c4.43,4.43,6.583,9.63,6.583,15.896s-2.154,11.467-6.584,15.897c-4.43,4.43-9.629,6.583-15.896,6.583ZM350.614,36.698c-4.834,0-9.041,1.74-12.503,5.172-3.471,3.439-5.232,7.665-5.232,12.562s1.761,9.124,5.233,12.563c3.461,3.431,7.668,5.172,12.503,5.172,4.889,0,9.112-1.744,12.552-5.184,3.44-3.439,5.184-7.662,5.184-12.552s-1.744-9.113-5.184-12.552c-3.439-3.439-7.662-5.183-12.551-5.183Z"/>
    <circle class="cls-5" cx="350.769" cy="54.43" r="2.731"/>
    <path class="cls-2" d="M350.769,57.313c-1.59,0-2.883-1.293-2.883-2.883s1.293-2.883,2.883-2.883,2.883,1.293,2.883,2.883-1.293,2.883-2.883,2.883ZM350.769,51.85c-1.422,0-2.579,1.157-2.579,2.579s1.157,2.579,2.579,2.579,2.579-1.157,2.579-2.579-1.157-2.579-2.579-2.579Z"/>
  </g>
</svg>