<?xml version="1.0" encoding="UTF-8"?>
<svg id="Layer_1" data-name="Layer 1" xmlns="http://www.w3.org/2000/svg" viewBox="0 0 516.693 123.862">
  <defs>
    <style>
      .cls-1 {
        fill: none;
      }

      .cls-2 {
        fill: #595959;
      }

      .cls-3 {
        stroke: #ad0000;
      }

      .cls-3, .cls-4, .cls-5, .cls-6, .cls-7, .cls-8, .cls-9 {
        stroke-miterlimit: 10;
      }

      .cls-3, .cls-4, .cls-6 {
        stroke-width: .689px;
      }

      .cls-3, .cls-10 {
        fill: #ff2727;
      }

      .cls-4, .cls-8 {
        fill: #437a89;
        stroke: #3ca6bf;
      }

      .cls-11 {
        fill: #727272;
      }

      .cls-12 {
        fill: #030303;
      }

      .cls-13 {
        fill: #fff;
      }

      .cls-14 {
        fill: #02182b;
      }

      .cls-15 {
        fill: #666;
      }

      .cls-5 {
        fill: #2d2d2d;
      }

      .cls-5, .cls-9 {
        stroke: #4c4c4c;
      }

      .cls-6 {
        stroke: #f03127;
      }

      .cls-6, .cls-16 {
        fill: #f03127;
      }

      .cls-7 {
        stroke: #1e1e1e;
      }

      .cls-7, .cls-9, .cls-17 {
        fill: #191919;
      }

      .cls-18 {
        fill: #3f0000;
      }

      .cls-19 {
        fill: #701111;
      }

      .cls-20 {
        fill: #424242;
      }

      .cls-21 {
        fill: #ad0000;
      }

      .cls-22 {
        fill: #9fc5ce;
      }

      .cls-9 {
        stroke-width: 2px;
      }

      .cls-23 {
        fill: #4d4d4d;
      }
    </style>
  </defs>
  <rect class="cls-7" x="217.102" y="-193.391" width="82.49" height="515.693" transform="translate(322.802 -193.891) rotate(90)"/>
  <rect class="cls-5" x="5.348" y="28.059" width="505.997" height="72.794"/>
  <rect class="cls-9" x="225.671" y="-184.364" width="66.212" height="497.397" transform="translate(323.112 -194.443) rotate(90)"/>
  <path class="cls-14" d="M64.58,86.279h-25.266l-4.313-10.379h14.159l-7.687-17.36-12.048,27.739h-11.064v-10.379h4.376l14.729-33.278h8.011l19.103,43.657Z"/>
  <polygon class="cls-8" points="41.246 83.326 39.516 79.372 53.698 79.372 41.473 51.245 27.503 83.326 21.315 83.326 21.315 79.372 24.66 79.372 39.388 45.576 43.555 45.576 60.043 83.326 41.246 83.326"/>
  <path class="cls-14" d="M103.974,86.279h-36.976v-43.657h36.976v9.86h-27.115v6.779h20.953v9.86h-20.953v6.779h27.115v10.379Z"/>
  <polygon class="cls-8" points="69.952 83.326 69.952 45.576 101.021 45.576 101.021 49.53 73.906 49.53 73.906 62.215 94.858 62.215 94.858 66.169 73.906 66.169 73.906 79.372 101.021 79.372 101.021 83.326 69.952 83.326"/>
  <path class="cls-14" d="M146.493,86.279h-13.724l-15.283-17.158,4.313-9.86h11.401c.945,0,1.746-.328,2.403-.986.657-.657.986-1.458.986-2.403s-.329-1.746-.986-2.403c-.658-.657-1.459-.986-2.403-.986h-16.947v33.796h-9.86v-43.657h26.807c3.656,0,6.779,1.294,9.367,3.883,2.588,2.588,3.883,5.711,3.883,9.367s-1.292,6.779-3.875,9.367c-2.583,2.588-5.699,3.883-9.347,3.883l-2.214-.03,15.479,17.188Z"/>
  <path class="cls-8" d="M134.066,83.326l-13.103-14.784,2.768-6.327h9.47c1.727,0,3.28-.64,4.491-1.85,1.212-1.213,1.851-2.766,1.851-4.492s-.639-3.278-1.849-4.49c-1.216-1.213-2.768-1.853-4.493-1.853h-19.9v33.796h-3.954v-37.75h23.854c2.868,0,5.248.987,7.279,3.017,2.031,2.031,3.018,4.412,3.018,7.279s-.985,5.25-3.012,7.281c-2.02,2.024-4.388,3.011-7.237,3.015l-9.092-.124,15.566,17.281h-5.655Z"/>
  <path class="cls-19" d="M356.819,43.79c4.506,0,7.927,1.166,10.26,3.5s3.5,5.754,3.5,10.26v14.358c0,4.508-1.167,7.927-3.5,10.26-2.333,2.333-5.754,3.5-10.26,3.5h-23.332v-41.878h23.332ZM359.81,57.55c0-3.59-1.795-5.384-5.385-5.384h-10.17v25.127h10.17c3.59,0,5.385-1.795,5.385-5.384v-14.358Z"/>
  <path class="cls-18" d="M356.819,86.373h-24.037v-43.287h24.037c4.68,0,8.299,1.247,10.758,3.706,2.459,2.46,3.706,6.079,3.706,10.758v14.358c0,4.679-1.247,8.299-3.706,10.758-2.459,2.459-6.078,3.706-10.758,3.706ZM334.192,84.964h22.628c4.292,0,7.577-1.108,9.762-3.293,2.185-2.186,3.293-5.47,3.293-9.762v-14.358c0-4.292-1.108-7.576-3.293-9.762-2.185-2.185-5.469-3.293-9.762-3.293h-22.628v40.469ZM354.426,77.997h-10.874v-26.536h10.874c3.984,0,6.089,2.106,6.089,6.089v14.358c0,3.983-2.106,6.089-6.089,6.089ZM344.96,76.588h9.465c3.193,0,4.68-1.487,4.68-4.68v-14.358c0-3.193-1.487-4.68-4.68-4.68h-9.465v23.718Z"/>
  <path class="cls-21" d="M336.217,82.938v-36.419h20.602c3.736,0,6.538.909,8.33,2.7,1.792,1.792,2.7,4.595,2.7,8.33v14.358c0,3.735-.909,6.538-2.7,8.33-1.791,1.792-4.594,2.7-8.33,2.7h-20.602ZM341.526,80.022h12.9c5.081,0,8.115-3.033,8.115-8.114v-14.358c0-5.081-3.033-8.114-8.115-8.114h-12.9v30.586Z"/>
  <path class="cls-16" d="M356.819,83.361h-21.025v-37.264h21.025c3.852,0,6.755.95,8.629,2.824,1.874,1.874,2.824,4.778,2.824,8.629v14.358c0,3.852-.95,6.755-2.824,8.629-1.873,1.874-4.776,2.824-8.629,2.824ZM336.64,82.516h20.18c3.62,0,6.322-.867,8.031-2.576,1.709-1.71,2.576-4.412,2.576-8.031v-14.358c0-3.619-.867-6.321-2.576-8.031-1.709-1.709-4.411-2.576-8.031-2.576h-20.18v35.573ZM354.426,80.445h-13.322v-31.432h13.322c5.346,0,8.538,3.191,8.538,8.537v14.358c0,5.346-3.192,8.537-8.538,8.537ZM341.949,79.6h12.477c4.816,0,7.692-2.875,7.692-7.691v-14.358c0-4.816-2.876-7.691-7.692-7.691h-12.477v29.741Z"/>
  <path class="cls-19" d="M403.947,43.79h10.769v30.511c0,4.188-.948,7.23-2.842,9.123-1.895,1.895-4.935,2.842-9.123,2.842h-13.76c-4.188,0-7.229-.947-9.123-2.842-1.895-1.894-2.842-4.936-2.842-9.123v-30.511h10.769v30.511c0,2.393,1.196,3.59,3.589,3.59h8.975c2.393,0,3.589-1.196,3.589-3.59v-30.511Z"/>
  <path class="cls-18" d="M402.751,86.971h-13.76c-4.363,0-7.6-1.026-9.621-3.049-2.022-2.022-3.048-5.259-3.048-9.622v-31.216h12.178v31.216c0,1.995.89,2.885,2.884,2.885h8.975c1.995,0,2.884-.89,2.884-2.885v-31.216h12.178v31.216c0,4.362-1.026,7.599-3.048,9.622-2.022,2.023-5.259,3.049-9.621,3.049ZM377.73,44.495v29.806c0,3.976.887,6.877,2.635,8.625,1.748,1.749,4.65,2.636,8.625,2.636h13.76c3.975,0,6.877-.887,8.625-2.636,1.749-1.749,2.635-4.651,2.635-8.625v-29.806h-9.36v29.806c0,2.769-1.525,4.295-4.294,4.295h-8.975c-2.769,0-4.294-1.525-4.294-4.295v-29.806h-9.359Z"/>
  <path class="cls-21" d="M388.991,83.537c-3.418,0-5.838-.687-7.192-2.042-1.356-1.355-2.043-3.775-2.043-7.194v-27.781h5.309v27.781c0,3.898,2.421,6.32,6.319,6.32h8.975c3.898,0,6.319-2.421,6.319-6.32v-27.781h5.309v27.781c0,3.418-.687,5.838-2.042,7.193-1.355,1.355-3.775,2.042-7.193,2.042h-13.76Z"/>
  <path class="cls-16" d="M402.751,83.96h-13.76c-3.534,0-6.055-.729-7.491-2.166-1.437-1.437-2.166-3.958-2.166-7.493v-28.204h6.155v28.204c0,3.637,2.259,5.897,5.896,5.897h8.975c3.637,0,5.896-2.26,5.896-5.897v-28.204h6.154v28.204c0,3.534-.729,6.055-2.166,7.492-1.437,1.438-3.958,2.166-7.492,2.166ZM380.178,46.942v27.358c0,3.303.646,5.622,1.919,6.895,1.272,1.273,3.591,1.918,6.893,1.918h13.76c3.301,0,5.621-.645,6.894-1.919,1.273-1.273,1.918-3.592,1.918-6.894v-27.358h-4.463v27.358c0,4.159-2.583,6.742-6.742,6.742h-8.975c-4.158,0-6.741-2.584-6.741-6.742v-27.358h-4.464Z"/>
  <path class="cls-19" d="M455.564,85.668h-33.203v-41.878h33.203v8.376h-22.435v8.076h17.648v8.376h-17.648v8.675h22.435v8.376Z"/>
  <path class="cls-18" d="M456.268,86.373h-34.613v-43.287h34.613v9.785h-22.435v6.667h17.648v9.785h-17.648v7.266h22.435v9.785ZM423.065,84.964h31.794v-6.967h-22.435v-10.084h17.648v-6.967h-17.648v-9.485h22.435v-6.966h-31.794v40.469Z"/>
  <polygon class="cls-21" points="425.09 82.938 425.09 46.52 452.834 46.52 452.834 49.436 430.399 49.436 430.399 62.972 448.047 62.972 448.047 65.888 430.399 65.888 430.399 80.022 452.834 80.022 452.834 82.938 425.09 82.938"/>
  <path class="cls-16" d="M453.257,83.361h-28.589v-37.264h28.589v3.762h-22.435v12.69h17.648v3.762h-17.648v13.289h22.435v3.762ZM425.513,82.516h26.898v-2.071h-22.435v-14.98h17.648v-2.071h-17.648v-14.381h22.435v-2.071h-26.898v35.573Z"/>
  <path class="cls-19" d="M473.801,77.292h21.836v8.376h-32.605v-41.878h10.769v33.502Z"/>
  <path class="cls-18" d="M496.342,86.373h-34.014v-43.287h12.178v33.502h21.836v9.785ZM463.737,84.964h31.195v-6.967h-21.836v-33.502h-9.359v40.469Z"/>
  <polygon class="cls-21" points="465.763 82.938 465.763 46.52 471.072 46.52 471.072 80.022 492.908 80.022 492.908 82.938 465.763 82.938"/>
  <path class="cls-16" d="M493.33,83.361h-27.99v-37.264h6.155v33.503h21.836v3.762ZM466.185,82.516h26.299v-2.071h-21.836v-33.503h-4.464v35.573Z"/>
  <g>
    <g>
      <g>
        <path class="cls-22" d="M306.636,63.528c0,26.828-21.748,48.577-48.577,48.577-26.828,0-48.577-21.748-48.577-48.577,0-26.828,21.748-48.577,48.577-48.577,26.828,0,48.577,21.748,48.577,48.577Z"/>
        <path class="cls-15" d="M209.143,63.528c0-26.973,21.944-48.917,48.916-48.917,26.973,0,48.917,21.944,48.917,48.917,0,26.973-21.944,48.917-48.917,48.917-26.972,0-48.916-21.944-48.916-48.917ZM209.823,63.528c0,26.597,21.638,48.236,48.236,48.236,26.597,0,48.237-21.639,48.237-48.236,0-26.597-21.639-48.236-48.237-48.236-26.597,0-48.236,21.639-48.236,48.236Z"/>
      </g>
      <path class="cls-2" d="M258.059,112.222c-26.85,0-48.694-21.844-48.694-48.694,0-26.85,21.844-48.694,48.694-48.694,26.85,0,48.694,21.844,48.694,48.694,0,26.85-21.844,48.694-48.694,48.694ZM258.059,15.069c-26.72,0-48.459,21.739-48.459,48.459s21.739,48.459,48.459,48.459c26.72,0,48.459-21.739,48.459-48.459s-21.739-48.459-48.459-48.459Z"/>
      <path class="cls-2" d="M209.004,63.528c0-27.049,22.006-49.055,49.055-49.055,27.049,0,49.055,22.006,49.055,49.055s-22.006,49.055-49.055,49.055c-27.049,0-49.055-22.006-49.055-49.055ZM209.961,63.528c0,26.522,21.577,48.098,48.098,48.098,26.521,0,48.098-21.576,48.098-48.098,0-26.521-21.576-48.098-48.098-48.098-26.521,0-48.098,21.576-48.098,48.098Z"/>
      <path class="cls-13" d="M214.139,74.493c27.683-8.053,59.276-17.265,89.44-26.069-.201-.75-.388-1.502-.552-2.258-.319-1.476-.639-2.954-1.005-4.42l-88.603,28.857c.249,1.294.48,2.593.72,3.889Z"/>
      <path class="cls-13" d="M214.518,76.479c.249,1.26.519,2.515.835,3.76,27.57-7.061,59.197-15.182,89.573-22.991-.603-2.234-1.03-4.476-.932-6.743l-89.476,25.974Z"/>
      <path class="cls-13" d="M304.124,77.934l-57.008,4.486-30.569,1.703c.706,1.887,1.58,3.7,2.567,5.453.21.242.399.497.566.765,18.709,2.357,43.526,5.46,70.409,8.857,6.023-5.943,10.601-13.514,14.035-21.265Z"/>
      <path class="cls-13" d="M212.885,67.992c20.835-11.25,48.377-26.14,78.327-42.305-1.282-1.09-2.579-2.157-3.955-3.112-3.66-2.543-7.73-4.332-11.768-6.174l-44.037,32.089-19.662,13.818c.274,1.909.685,3.801,1.094,5.685Z"/>
      <circle class="cls-1" cx="259.458" cy="61.489" r="46.615"/>
      <path class="cls-17" d="M318.83,59.693h-.601s-8.101,0-8.101,0c-1.133-26.419-22.371-47.625-48.803-48.709V2.573c0-1.031-.836-1.867-1.867-1.867s-1.867.836-1.867,1.867v8.392c-26.798.832-48.382,22.345-49.331,49.113h-7.576s-.601,0-.601,0c-1.031,0-1.867.836-1.867,1.867,0,1.031.836,1.867,1.867,1.867h8.179c.979,26.74,22.551,48.221,49.328,49.053v8.424c0,1.031.836,1.867,1.867,1.867s1.867-.836,1.867-1.867v-8.444c26.668-1.093,48.05-22.67,48.83-49.418h8.074s.601,0,.601,0c1.031,0,1.867-.836,1.867-1.867,0-1.031-.836-1.867-1.867-1.867ZM261.325,108.479v-16.351c0-1.031-.836-1.867-1.867-1.867s-1.867.836-1.867,1.867v.601s0,15.77,0,15.77c-24.368-.828-43.988-20.356-44.963-44.687h16.616c1.031,0,1.867-.836,1.867-1.867s-.836-1.867-1.867-1.867h-.601s-16.018,0-16.018,0c.944-24.358,20.577-43.919,44.965-44.747v15.803s0,.601,0,.601c0,1.031.836,1.867,1.867,1.867s1.867-.836,1.867-1.867v-.601s0-15.783,0-15.783c24.022,1.077,43.31,20.334,44.437,44.343h-16.093c-1.031,0-1.867.836-1.867,1.867s.836,1.867,1.867,1.867h.601s15.52,0,15.52,0c-.776,24.338-20.206,43.964-44.464,45.052Z"/>
      <path class="cls-21" d="M259.458,123.862c-1.419,0-2.573-1.154-2.573-2.573v-7.744c-12.872-.569-24.969-5.876-34.131-14.99-9.158-9.111-14.529-21.176-15.168-34.037h-7.502c-1.419,0-2.573-1.154-2.573-2.573,0-1.419,1.154-2.573,2.573-2.573h7.499c.625-12.874,5.989-24.952,15.151-34.077,9.164-9.126,21.269-14.441,34.151-15.01V2.573c0-1.419,1.154-2.573,2.573-2.573,1.419,0,2.573,1.154,2.573,2.573v7.738c12.707.687,24.645,6.008,33.681,15.027,9.035,9.019,14.377,20.945,15.088,33.649h8.029c1.419,0,2.573,1.154,2.573,2.573s-1.154,2.573-2.573,2.573h-7.993c-.544,12.853-5.814,24.947-14.886,34.12-9.066,9.167-21.089,14.572-33.919,15.265v7.77c0,1.419-1.154,2.573-2.573,2.573ZM200.084,60.784c-.64,0-1.161.521-1.161,1.161s.521,1.161,1.161,1.161h8.859s.025.68.025.68c.467,12.757,5.717,24.749,14.782,33.767,9.069,9.022,21.095,14.209,33.863,14.605l.684.021v9.109c0,.64.521,1.161,1.161,1.161s1.161-.521,1.161-1.161v-9.122l.677-.028c12.726-.522,24.676-5.806,33.65-14.879,8.981-9.081,14.131-21.104,14.503-33.853l.02-.686h9.36c.64,0,1.161-.521,1.161-1.161s-.521-1.161-1.161-1.161h-9.378l-.029-.676c-.541-12.601-5.764-24.458-14.708-33.385-8.945-8.929-20.813-14.131-33.418-14.648l-.677-.028V2.573c0-.64-.521-1.161-1.161-1.161s-1.161.521-1.161,1.161v9.076l-.684.021c-12.778.397-24.811,5.591-33.883,14.625-9.068,9.031-14.312,21.038-14.764,33.807l-.024.681h-8.858ZM258.297,109.229l-.73-.025c-11.961-.406-23.229-5.284-31.728-13.735-8.496-8.447-13.438-19.68-13.916-31.629l-.029-.734h17.351c.64,0,1.161-.521,1.161-1.161s-.521-1.161-1.161-1.161h-17.353l.029-.734c.464-11.962,5.4-23.21,13.899-31.67,8.502-8.463,19.777-13.348,31.748-13.755l.73-.025v17.134c0,.64.521,1.161,1.161,1.161.64,0,1.161-.521,1.161-1.161V14.612l.738.033c11.793.529,22.899,5.422,31.272,13.778,8.371,8.355,13.286,19.448,13.839,31.238l.035.739h-16.833c-.64,0-1.161.521-1.161,1.161s.521,1.161,1.161,1.161h16.849l-.023.729c-.381,11.942-5.221,23.207-13.63,31.718-8.401,8.504-19.591,13.482-31.508,14.017l-.738.033v-17.09c0-.64-.521-1.161-1.161-1.161s-1.161.521-1.161,1.161v17.101ZM213.369,64.518c.633,11.318,5.398,21.928,13.466,29.95,8.072,8.026,18.719,12.73,30.05,13.294v-15.635c0-1.419,1.154-2.573,2.573-2.573s2.573,1.154,2.573,2.573v15.607c11.284-.687,21.852-5.484,29.829-13.559,7.986-8.084,12.655-18.728,13.194-30.042h-15.385c-1.419,0-2.573-1.154-2.573-2.573s1.154-2.573,2.573-2.573h15.347c-.704-11.16-5.44-21.634-13.386-29.565-7.947-7.932-18.434-12.647-29.599-13.327v15.639c0,1.419-1.154,2.573-2.573,2.573s-2.573-1.154-2.573-2.573v-15.667c-11.341.564-21.995,5.275-30.069,13.314-8.071,8.035-12.83,18.661-13.449,29.991h15.879c1.419,0,2.573,1.154,2.573,2.573,0,1.419-1.154,2.573-2.573,2.573h-15.875Z"/>
    </g>
    <g>
      <path class="cls-20" d="M240.933,78.159c.091-.011.155-.016.204-.009l.062-.515-29.05-3.462-2.612,1.001,5.994,1.203.044-.22c-.861-.166-1.707-.351-2.528-.559-.297-.075-.666.002-.746-.424l21.756,3.034c.834-.004,2.255,1.114,2.854,1.167.677.06,3.04-1.096,4.021-1.216Z"/>
      <path class="cls-20" d="M255.709,49.623l-3.6.324-6.611-5.854c2.821.846,4.845,2.98,7.177,4.632l3.034.899ZM284.187,14.436l-18.89,32.055-5.542,2.279.63-.757-.213-.402-22.335-14.907-5.104,2.763,1.332,1.329.368-.368,3.2,1.372,13.615,13.209c.941.433,5.985-1.434,7.332-1.6l.109.426.206.508c6.301-2.557,12.543-5.271,18.893-7.69.759-.291,1.738-.737,2.47-.945.475-.135.198-.297.561.253.448-.63.979-1.227,1.489-1.811l-.313-.102-14.689,5.957c-.144.047-.155-.202-.102-.315.033-.075.406-.473.897-.972l-.515-.135c-.118.153-.14.242-.597.144l17.665-30.014-.468-.277Z"/>
      <path class="cls-20" d="M244.646,81.982c.795.06,1.553-.251,2.326-.335.295-.031.51-.295.437.226l-19.294,29.865-.706.26,17.723-32.293,1.003-.171-1.489,2.448ZM249.549,80.586l-3.626.544,1.576-2.146,19.064-5.089c.12.566-.142.366-.417.528-1.387.817-3.447,1.465-4.674,2.359-1.072.781-2.177,2.974-3.127,3.471-1.112.586-2.565.126-3.493.976l-14.357,18.846-.313-.313,9.743-16.443-.375-2.734ZM286.311,72.255l-14.323,4.19-.084-.613,16.791-5.129-2.384,1.551ZM271.537,77.297c6.278-1.949,12.677-3.247,18.644-6.068.217-.102.723-.53.854-.102.404-.353,1.056-1.747,1.276-2.344-.77.104-1.456-.712-2.075-.817-.806-.133-3.904,1.871-5.049,2.312-3.979,1.534-8.584,2.279-12.617,3.788-.368.107-.799.031-.899-.384,3.959-1.598,8.786-2.541,12.612-4.308.748-.344,2.059-1.152,2.708-1.656-1.784-.885-2.221.442-3.784,1.003l-23.174,6.187-1.13-.699,23.385-6.833c.763-.391,3.049-2.37,3.127-3.171.084-.854-1.696-2.679-1.192-3.726l-23.191,6.172,14.629-4.827,1.54-1.664c-4.252.124-8.391,1.389-12.455,2.605l-.313-.366,6.793-3.107,1.076-1.261c-.202-.308-.411-.293-.73-.328-1.471-.169-4.86.905-6.5,1.287.107.195.2.411.213.639.007.135.031.273-.016.404-3.233.437-6.727,1.949-9.902,2.341-.231.029-.775.182-.721-.189,2.637-.666,5.242-1.445,7.872-2.133l-.424-.211c-3.797.91-7.628,1.689-11.383,2.77l-.011-.65,8.2-3.182-8.935,1.702-.129-.859,23.535-8.187.211-.32c-.923-.013-1.684-.313-2.641-.198-3.91.473-9.008,3.045-13.049,3.764-.302.053-.786.257-.692-.266l18.085-5.861-.282-.391c-2.834.73-5.692,1.733-8.562,2.306-.322.064-.404.382-.73-.104,3.029-1.482,6.833-1.54,9.361-3.935l-22.768,8.085.211-.317,27.239-10.537.213-.426c.067-.071.155-.133.213-.213l-26.731,9.985-.295-.402c1.92-.732,3.833-1.491,5.739-2.264l-.206-.508-7.865,2.674-16.392-16.081-.368.368,15.275,15.264c.364.792.453,1.991-.437,2.459l.213.111-.213.954c.608-.162,1.6-.577,2.026-.637.417-.06.333.08.315.422-2.344.932-5.171,1.915-7.301,3.238-2.723,1.693-4.751,5.04-5.04,8.26l1.105-2.406,1.019-1.214c-.652,1.46-.613,2.714.335,4.032.608.846,2.226,1.88,1.92.222-.346-1.871-1.156-2.639-.617-4.854.171-.701,1.365-2.694,1.871-3.236.608-.648,1.869-1.385,2.663-1.38-3.18,2.128-3.99,6.196-2.348,9.598,2.983-.937,6.352-1.78,9.483-2.037.233-.018.988-.171.952.206l-13.768,4.217-6.019,5.475,9.146,1.804-2.65.433-.795-.095-.062.515c.178.018.115.144.104.424l-4.541,2.086c-.961-.348-1.693-1.059-2.685-1.345-5.601-1.622-12.417-1.98-18.44-3.158l-.044.22,17.841,3.582,2.335,1.385c-.921-.149-1.835-.311-2.765-.424.093.371.575.996.639,1.278.113-.138.271-.111.446-.029.26.126.555.379.779.417,1.831.306,8.688-4.425,9.201-4.006-1.986,3.298-6.238,4.035-9.656,5.124l-.759-1.276-.011-.018c-3.728,5.428-8.009,10.61-11.915,15.965.437-.322.83-.297,1.494-.952,3.882-3.826,7.401-8.467,11.265-12.361l2.135-.632-13.08,14.376c-.36.304-1.542.717-2.026.846l.213.111-.426.741c.548-.142,1.156-.142,1.707-.315l14.783-16.079c.766-.613,2.377-.546,3.08-.963.333-.2.388-.635.659-.832.171-.124,1.611-.606,1.689-.542-5.959,11.003-12.224,21.844-18.3,32.781.371-.036.739.036.85.426,1.138-1.074,5.351-1.651,6.607-3.078l24.241-30.034c.752-.69,2.228-.584,2.978-1.065.692-.446,1.327-2.075,2.195-2.699,1.005-.723,5.577-3.085,6.747-3.471.22-.071.406-.142.644-.1l-.213.424c.36-.109.601.415.637.426.171.049.584-.282.637-.213l-.109,1.487,1.467.639ZM246.351,72.404l.637-3.3c3.169-.914,6.238-2.217,9.574-2.446.109.601-.142.348-.466.477-2.441.972-5.328,1.5-7.825,2.401-.757.506-.419,2.949-1.92,2.867ZM257.518,73.893c-.333-.189.073-.482.191-.661.419-.646,1.904-2.961,2.324-3.316,3.64-3.085,14.408-3.873,19.037-5.988l3.24.814-2.776.306c-5.664,2.319-12.834,3.322-18.351,5.697-1.396.599-2.284,2.403-3.664,3.147Z"/>
      <path class="cls-20" d="M283.371,35.488l6.192-20.007-3.083-1.605.087-.868c-.324.075-.641.333-1.063.211l.85-1.487c-.2.038-.499-.129-.655.138l-1.511,2.565.468.277.628.317-12.534,25.082c-2.861.406-3.342,2.765-5.056,4.352-.047.042-.078.082-.107.118l.515.135c.937-.95,2.295-2.27,2.519-2.423,1.079-.737,2.714-1.023,3.886-1.647,1.591-.85,2.941-2.244,4.49-3.174l6.431-14.467c.304.036.837-.182.69.302l-4.028,12.586c.044.384,2.377,1.835,2.772,1.942.462.126.65-.333,1.065-.348l-2.557-2Z"/>
    </g>
    <path class="cls-20" d="M255.499,39.407c-.317.914-.361,2.211-1.064,2.98.324.232,2.489,1.988,2.765,1.703l.639-5.109-2.34.426Z"/>
    <polyline class="cls-20" points="253.386 63.991 268.161 59.844 266.937 57.64 251.469 62.053"/>
    <polygon class="cls-20" points="255.196 43.068 253.808 41.925 254.996 39.461 256.584 39.21 255.196 43.068"/>
    <polyline class="cls-20" points="249.34 52.062 248.902 54.522 249.34 54.735 250.285 53.459 249.34 52.062"/>
    <path class="cls-20" d="M258.691,36.853v.639c.202-.079.441-.093.636-.213l-.743,7.872c.166.191.349.481.635.43.477-.085.959-8.428,1.39-9.469-.594-.13-1.345.489-1.918.742Z"/>
    <g>
      <path class="cls-20" d="M293.271,58.371c1.842.018,3.713-.837,5.639.089,0,.102-1.569.464-1.835.506-1.787.291-6.591.892-8.169.561-.184-.038-1.86-.595-1.487-.959.93-.049,1.72-.637,2.661-.659.992-.024,2.217.453,3.191.462ZM309.336,42.173c1.043-.97,1.276-2.119.213-3.189.75-.093,1.09.577,1.804.652,1.016.107,2.688-.404,3.824-.453,2.264-.095,4.272.459,6.5.439-.284.53-.293.954,0,1.485-.857-.164-1.163-.75-2.079-1.003-1.66-.457-6.471-.373-7.989.406-.413.211-.972,1.971-2.273,1.662ZM303.166,54.204c-.606.169-4.958,1.127-5.222,1.09-.22-.031-.644-.53-.739-.77,8.917-1.767,18.884-5.093,24.468-12.683.28-.266.819.313.821.439.002.151-.289.57-.721,1.11l.613.135c.149-.2.271-.344.353-.397.306-.198.63.08.637.217.002.055-.022.138-.064.24l.624.231c.155-.393.289-.799.402-1.223-.983-.502-.593-1.94-1.593-2.124v-.315c1.569-.961.613-1.467-.684-1.875-3.933-1.238-8.788-.393-12.803-.812-2.972-.311-6.161-2.106-9.381-2.326-5.413-.368-15.983,3.842-18.673,8.799-1.398,2.579.834,5.628,2.597,7.497l-1.7-.53c1.378,2.257,3.937,3.768,6.38,4.683l-1.802.206-3.941-.846c1.347,1.489,3.542,2.27,5.533,2.341l-2.98.639c-.067.075.178.646.215.85.373.224.857.699,1.063,1.065.126-.426.639-.002.854.102.419.204,1.019.615,1.429.699,1.036.215,6.913-.393,8.2-.639,1.525-.293,3.236-1.254,4.838-1.443.326-.302-.027-.386-.317-.422-.957-.12-2.002-.107-2.954-.242-.271-.038-1.158-.084-1.196-.397,5.371-.632,10.75-2.466,15.677-4.647,1.034-.457,2.079-.943,3.098-1.48l-.293-.561c-3.717,1.84-13.862,5.608-17.557,5.826-.386.024-.795.051-.928-.413,1.806-.526,3.686-.883,5.484-1.436.621-.191,1.305-.406,2.033-.646l-.142-.446c-.597.2-1.145.371-1.627.504ZM309.436,41.318c-.652,1.54-9.343,8.145-11.074,8.722-.317.107-.648.204-.992.166l-12.246-2.332c-.322-1.664-2.244-3.551-.99-5.047,2.279-2.725,7.998-5.85,11.498-6.378,3.613-.546,6.354.082,9.716,1.305.628.229,4.041,1.649,4.166,2.006.131.379.087,1.174-.078,1.558ZM287.252,49.681c-.377-.133-1.052-.138-.897-.692l11.494,2.468c3.939-1.407,7.206-5.144,10.819-7.075.291-.158.49-.379.881-.289-3.149,2.321-6.107,5.193-9.383,7.324-1.152.748-1.991,1.079-3.435.925-2.037-.22-7.37-1.917-9.479-2.661Z"/>
      <path class="cls-20" d="M318.162,47.279c-2.681,2.157-9.199,5.02-13.369,6.42l.142.446c5.204-1.7,12.63-4.541,15.673-8.04.393-.451,1.245-1.869,1.778-2.581l-.613-.135c-1.101,1.369-3.129,3.502-3.611,3.89Z"/>
      <path class="cls-20" d="M315.903,50.815l.293.561c.444-.233.883-.475,1.314-.73l-.306-.528c-.362.211-.737.413-1.127.61-.055.029-.113.058-.173.087Z"/>
      <path class="cls-20" d="M317.203,50.118l.306.528c.437-.257.863-.526,1.278-.808l-.275-.568c-.419.304-.854.584-1.309.848Z"/>
      <path class="cls-20" d="M318.513,49.27l.275.568c2.239-1.525,4.128-3.435,5.147-6.023l-.624-.231c-.408.952-2.605,3.711-3.118,4.237-.535.55-1.092,1.025-1.68,1.449Z"/>
    </g>
    <polygon class="cls-20" points="299.571 58.546 294.117 58.992 292.115 57.908 296.366 57.428 300.186 58.456 299.571 58.546"/>
    <path class="cls-11" d="M288.375,40.08c-.825.446-1.21.757-1.204,1.184l1.207,1.121.415-1.285.751.009.113-1.909-1.281.879Z"/>
    <path class="cls-11" d="M296.139,37.121c1.682-.194,1.337-.264,3.734-.103,1.807.121,5.322,1.595,7.051,2.355"/>
    <path class="cls-11" d="M306.924,39.372c.497.218,1.267.434,1.56.885l-4.042-1.061c-.097.738.036,1.35.177,2.06.056.284.04.382-.28.278-.448-.147-3.967-2.545-4.152-2.338l.635,4.257-2.125-1.702-.532,3.191-1.387-2.978-.633,1.487c-.153-1.869-.961-3.48-.428-5.321-.082.236.056.764.002,1.064l.529-.638,1.066,1.488.321-1.49.848.212-.524-1.243c-.58.125-.787.312-1.071.815-.142-.774-.997-.707-1.17-.209.065-.224.041-1.143.422-1.009M299.332,40.472l-1.272-.851-.218,1.915-1.381-1.912c-.497.462-.551,1.097-.316,1.697l.212-.637,1.49,2.553.424-2.552,1.699,1.063-.421-3.619,4.465,2.341-.222-1.909-.628-.006-.105.637-4.15-1.701.422,2.979Z"/>
    <polygon class="cls-11" points="285.362 43.945 285.952 43.809 286.224 45.366 286.133 45.502 285.285 45.26 285.362 43.945"/>
    <polygon class="cls-11" points="284.849 62.758 277.895 61.63 284.123 58.992 285.285 62.235 284.849 62.758"/>
    <polygon class="cls-11" points="288.254 67.434 260.442 75.093 259.405 74.522 286.562 66.658 288.254 67.434"/>
    <polygon class="cls-11" points="270.024 75.21 269.001 74.768 268.04 75.21 269.431 76.035 270.024 75.21"/>
    <polyline class="cls-11" points="272.75 40.114 269.632 41.577 269.837 40.589 272.75 39.201 272.75 40.114"/>
    <path class="cls-11" d="M224.857,114.555c-.523.94-1.142,1.969-1.49,2.98h7.98s28.512-34.702,28.512-34.702c8.572-3.039,17.909-4.806,26.445-7.818,5.919-2.089,7.234-5.072,8.706-10.929,6.48-3.342,13.484-6.032,19.934-9.382.452-.235,1.626-.631,1.309-1.245l-21.881,10.202-1.314,4.056c-1.006-1.003-3.272-1.669-4.153-2.654-.941-1.052-1.589-3.9-2.338-5.218-.208-.366-.69-.84-1.064-1.064.373,2.086,1.661,3.871,2.126,5.961-.051.064-1.202-.921-1.278-1.014-.607-.739-1.311-3.234-2.124-3.244-.505,1.047,1.275,2.871,1.192,3.726-.077.799-2.365,2.78-3.129,3.171l-23.385,6.833,1.131.699,23.173-6.187c1.563-.562,2.001-1.888,3.784-1.004.644-.501,1.292-1.072,1.494-1.915l3.947,2.552c.143.164-.07.289-.121.428-.22.595-.873,1.99-1.277,2.342-1.072.934-2.747,1.908-3.928,2.776l-24.482,7.227c-.278-.384.584-1.037.858-1.27,1.859-1.578,4.277-2.768,6.06-4.475-.037-.011-.278-.536-.638-.426-1.811,1.578-4.524,2.721-6.273,4.262-1.6,1.41-1.686,2.802-4.356,3.093l-26.867,33.472-6.127.044c-.038-.028.385-.812.426-.849-.111-.39-.48-.462-.851-.426Z"/>
    <path class="cls-11" d="M286.354,11.732l-.85,1.489c.42.121.74-.136,1.063-.212,1.758-.411,3.536-.597,5.319-.85l-6.188,23.101c.687.588,1.351,1.642,2.359,1.164l-.601-1.108,5.92-24.435c-2.311.24-4.744.421-7.021.85Z"/>
    <path class="cls-11" d="M232.943,80.92c-.387-.047-.846-.526-1.284.1l-13.396,19.808c-.047.357-.019.34.316.319.883-.056,1.812-.42,2.661-.642l.427-.741-.215-.111c-.357.096-.956.361-1.276.107.458-.668.874-.935,1.489-1.385,3.907-5.355,8.187-10.537,11.916-15.966-.012-.069.015-.146,0-.213-.065-.282-.546-.907-.638-1.277Z"/>
    <path class="cls-11" d="M254.435,42.388c.263-.81.747-2.067,1.064-2.98s2.221-1.538,3.192-1.916v-.639c-1.018.449-3.749,1.4-4.354,2.137-.188.228-1.185,2.248-1.18,2.451.015.613.956.717,1.279.948Z"/>
    <path class="cls-11" d="M248.902,54.522l-.424.213c.038-.487-.264-2.282-.956-2.128l-1.602,3.509c.04.516,2.755-.47,2.982-.53l.213-.955-.213-.109Z"/>
    <path class="cls-11" d="M245.133,79.706l-17.723,32.293.705-.259,19.295-29.865c.071-.523-.142-.259-.438-.227-.773.084-1.531.394-2.326.334l1.488-2.447-1.002.171Z"/>
    <path class="cls-11" d="M284.654,14.713l-17.665,30.014c.565.123.467-.043.704-.263,1.713-1.587,2.195-3.945,5.057-4.351l12.535-25.083-.63-.317Z"/>
    <path class="cls-11" d="M234.432,36.429l16.391,16.082,7.866-2.676-.108-.425c-1.348.168-6.393,2.034-7.333,1.599l-13.615-13.208-3.201-1.372Z"/>
    <path class="cls-11" d="M212.302,75.174c.081.426.45.348.745.423,6.579,1.661,14.567,1.864,20.968,3.717.993.287,1.725.998,2.686,1.344l4.539-2.084c.014-.356.112-.467-.307-.416-.98.119-3.344,1.276-4.022,1.215-.599-.053-2.019-1.172-2.853-1.167l-21.757-3.033Z"/>
    <polygon class="cls-11" points="271.904 75.832 271.987 76.446 286.311 72.255 288.695 70.703 271.904 75.832"/>
    <path class="cls-11" d="M297.42,56.228c.131.465.54.436.927.413,3.752-.222,14.164-4.107,17.73-5.913,1.557-.789,2.893-1.651,4.117-2.906.568-.582,3.202-3.905,3.181-4.478-.005-.136-.33-.414-.637-.216-.37.239-1.627,2.399-2.131,2.978-3.466,3.987-12.626,7.12-17.706,8.684-1.797.554-3.676.911-5.482,1.437Z"/>
    <path class="cls-11" d="M287.417,58.569c-.371.363,1.303.921,1.487.959,1.578.33,6.383-.271,8.17-.561.266-.043,1.838-.404,1.837-.507-4.083-.221-3.797-.071-5.64-.088-.973-.009-2.2-.487-3.192-.463-.941.023-1.731.611-2.661.66Z"/>
    <path class="cls-11" d="M293.377,38.341l-.002.853-.847-.214-.218.852c-.533.194-.717-.821-.951-.841l-.744.523,1.809,1.593.634-1.057.743.847c-.06-.715.091-1.545.003-2.239-.037-.293-.161-.67-.425-.317Z"/>
    <path class="cls-11" d="M295.717,38.13c-.082.236.056.764.002,1.064l.529-.638,1.066,1.488.321-1.49.848.212-.524-1.243c-.58.125-.787.312-1.071.815-.142-.774-.997-.707-1.17-.209Z"/>
    <polygon class="cls-11" points="308.274 41.006 308.274 41.577 305.234 44.072 302.011 46.65 298.919 48.69 298.483 48.985 296.151 44.404 296.859 45.128 298.654 48.344 301.597 46.419 304.942 43.666 308.274 41.006"/>
    <polygon class="cls-11" points="295.308 45.128 296.652 48.135 297.208 49.356 293.706 48.69 286.602 47.496 285.787 47.377 285.504 46.65 286.224 46.941 294.117 48.344 296.276 48.69 295.495 46.23 295.308 45.128"/>
    <path class="cls-11" d="M302.739,42.6c2.131,1.144,3.331,1.913,3.406-1.278.082-.086,1.315.614,1.488-.21l-2.028-.225-.101,2.351-3.404-1.489v3.832s-2.442-1.279-2.442-1.279l-.964,2.769c-.353.335-.978-1.261-1.485-1.278-.012.845.939,1.466,1.382,2.128l1.28-2.768,1.726,1.266,1.142-.626v-3.193Z"/>
    <path class="cls-11" d="M303.166,43.666v1.275c.671.025.501-.872,1.275-.639l-.132-.422-1.142-.214Z"/>
    <path class="cls-11" d="M301.675,41.11l3.296,1.492.11-2.344,3.193.748c-.021,1.129-7.951,6.844-9.354,7.684-1.252-.78-2.477-2.437-1.923-3.961l1.382,1.702,1.063-2.975,2.234,1.486v-3.832ZM306.145,41.323c.082-.086,1.315.614,1.488-.21l-2.028-.225-.101,2.351-3.404-1.489v3.832s-2.442-1.279-2.442-1.279l-.964,2.769c-.353.335-.978-1.261-1.485-1.278-.012.845.939,1.466,1.382,2.128l1.28-2.768,1.726,1.266,1.142-.626v-3.193c2.131,1.144,3.331,1.913,3.406-1.278ZM303.166,44.941c.671.025.501-.872,1.275-.639l-.132-.422-1.142-.214v1.275ZM300.291,46.437l.957.316-1.171-.954-.954,2.337c.747-.286.605-1.235,1.168-1.699Z"/>
    <path class="cls-11" d="M293.802,46.645c-.18-.149-.912-.81-1.063-.638v2.129s.636,0,.636,0l.106-1.065,1.278,1.272.321-1.275c.862.656.176-.998-.212-1.062l-.217,1.49c-.259.013-.311-.307-.423-.426-.16-.168-.218-.254-.426-.426Z"/>
    <path class="cls-11" d="M286.993,46.433l-.002,1.064,1.065-.003c-.068-.186-.807-1.361-1.063-1.061Z"/>
    <path class="cls-11" d="M290.824,46.859v.85c.611-.236.78-.187,1.273.213.186-.507-1.114-1.242-1.273-1.063Z"/>
    <path class="cls-11" d="M288.908,47.496l.849-.317-.531-.529c-.329.225-.368.456-.318.846Z"/>
    <path class="cls-11" d="M292.739,46.008v2.129s.636,0,.636,0l.106-1.065,1.278,1.272.321-1.275c.862.656.176-.998-.212-1.062l-.217,1.49c-.259.013-.311-.307-.423-.426.377-.194.108-1.957.742-1.701.458.185,1.249,3.022,1.812,3.615l-8.074-1.286-.01-1.691,1.912,1.276.108-1.276,1.808,1.489-.21-2.341c.216-.237,1.577,1.074,1.488,1.489-.18-.149-.912-.81-1.063-.638ZM289.757,47.179l-.531-.529c-.329.225-.368.456-.318.846l.849-.317ZM290.824,47.709c.611-.236.78-.187,1.273.213.186-.507-1.114-1.242-1.273-1.063v.85Z"/>
    <g>
      <path class="cls-11" d="M285.929,43.027l1.061.637.004-1.702-.297-.273c-.317.317-.684.697-1.016,1.061l.249.277Z"/>
      <path class="cls-11" d="M286.038,45.366c-.721-.635-.06-1.562-.109-2.339l-.249-.277c-.517.564-.954,1.09-.999,1.281-.202.854,1.152,1.988,1.78,2.401l.107-1.276,1.485,1.276-.422-2.554h-.213s-.002,1.276-.002,1.276l-1.061-1.063-.317,1.276Z"/>
      <path class="cls-11" d="M289.678,39.432c-.568.304-.719.65-.983.826l.619.022.231.83-.752-.009-.415,1.285-.957-.957c.635-.852,1.092.213,1.274-1.172-.384.257-.799.34-1.278.746-.135.113-.402.368-.719.686l.297.273,1.809,1.7c.251.104.328-.166.342-.537.02-.522-.087-1.236-.022-1.376l1.059.852-.422-2.98c.022-.024.051-.038.087-.038l-.109-.182c-.022.011-.042.022-.06.031Z"/>
      <path class="cls-11" d="M293.377,38.342c.058-.078.109-.12.153-.135l-.102-.311c-.632.211-1.456.535-2.177.834l.107.26c.235.02.419,1.034.952.841l.217-.852.848.215.002-.852Z"/>
      <path class="cls-11" d="M289.318,43.134l-.091,1.593-1.806-1.7-.002.85h.213s2.235,2.341,2.235,2.341l-.107-2.126c.408.313.373.284.499.426.468.526.817,1.103,1.411,1.487l-.632-3.617,2.659,3.191-.107-2.126-.28-.018-.04.655-3.085-3.62.635,3.62-1.485-1.276-.018.32Z"/>
      <path class="cls-11" d="M291.251,38.731c-.677.282-1.261.544-1.514.67l.109.182c.55,0,2.526,3.074,2.998,3.229l.215-1.278c.677.284,1.161.382,1.336,1.052l.164-.038c-.386-1.589-.533-3.231-.12-4.842-.084-.073-.479.018-1.012.191l.102.311c.16-.06.242.222.271.451.089.695-.062,1.525-.002,2.239l-.741-.848-.635,1.059-1.809-1.593.743-.524-.107-.26Z"/>
      <path class="cls-11" d="M295.077,44.301c-.195-.575-.373-1.161-.517-1.753l-.164.038c.018.069.033.144.044.226l-1.063-.424-.067,1.047.28.018,1.487.848Z"/>
    </g>
    <path class="cls-17" d="M221.026,118.6l19.151-34.059c-.2-.157-2.171.532-2.351.946l-13.1,15.421-9.871,2.363,14.682-22.987-24.045-4.683,6.064-2.345,21.29,2.033c.43-.046,2.094-1.368,2.404-1.746.248-.302,2.276-3.815,2.315-4.045.063-.374-.34-1.14-.365-1.673-.21-4.453,1.216-8.345,5.414-10.332l3.489-6.452-15.288-15.674,6.61-3.938.674-.075,13.469,9.126,1.959-2.569,8.353-3.824-1.072,12.417c.689.72,1.596-.232,2.411-.328l21.757-35.074,10.1-1.922-5.654,26.194c.412.581,3.411-.775,4.166-.968,6.891-1.758,8.901.177,15.027,1.357,5.029.968,23.1-1.355,19.881,8.659-1.822,5.669-8.34,5.309-10.596,10.32l-21.281,10.478c-.985,2.59-1.557,5.419-3.347,7.617-2.037,2.501-4.904,3.109-7.822,4.096-8.418,2.846-17.021,5.199-25.422,8.098l-27.184,33.366c-.474.774-.97.211-1.287.205-3.508-.066-7.026.049-10.533,0ZM285.699,11.87l-20.402,34.621-5.542,2.28.631-.758-.213-.402-22.334-14.906-5.104,2.763,16.605,16.593c.139.136-.225,1.647-.437,2.46l-.424.213c.038-.487-.264-2.282-.956-2.128l-1.602,3.509c.04.516,2.755-.47,2.982-.53.608-.162,1.6-.578,2.026-.638.417-.059.332.08.315.422-2.342.931-5.171,1.914-7.3,3.238-2.725,1.694-4.752,5.04-5.04,8.259l1.105-2.404,1.019-1.214c-.652,1.46-.612,2.713.335,4.031.607.846,2.225,1.88,1.919.222-.345-1.869-1.155-2.639-.617-4.852.171-.702,1.366-2.696,1.872-3.237.607-.648,1.868-1.386,2.663-1.381-3.181,2.13-3.99,6.197-2.348,9.599,2.983-.936,6.352-1.78,9.482-2.037.233-.019.988-.173.951.206l-13.767,4.217-6.02,5.473,9.148,1.806-2.65.432-29.845-3.557-2.613,1.002,23.835,4.784,2.336,1.385c-.921-.15-1.837-.311-2.765-.424-.387-.047-.846-.526-1.284.1l-13.396,19.808c-.047.357-.019.34.316.319.883-.056,1.812-.42,2.661-.642.55-.144,1.157-.143,1.706-.316l14.783-16.078c.766-.613,2.377-.545,3.08-.963.334-.199.389-.635.659-.831.173-.126,1.612-.606,1.69-.543-5.957,11.004-12.223,21.846-18.3,32.782-.523.94-1.142,1.969-1.49,2.98h7.98s28.512-34.702,28.512-34.702c8.572-3.039,17.909-4.806,26.445-7.818,5.919-2.089,7.234-5.072,8.706-10.929,6.48-3.342,13.484-6.032,19.934-9.382.452-.235,1.626-.631,1.309-1.245l-21.881,10.202-1.314,4.056c-1.006-1.003-3.272-1.669-4.153-2.654-.941-1.052-1.589-3.9-2.338-5.218.127-.426.638,0,.854.104.419.203,1.019.614,1.428.699,1.037.215,6.915-.393,8.201-.64,1.526-.293,3.236-1.254,4.838-1.442.326-.302-.026-.385-.318-.422-.955-.12-2.002-.107-2.954-.242-.27-.038-1.158-.085-1.196-.397,5.37-.634,10.75-2.467,15.678-4.647,4.786-2.117,9.798-4.838,11.238-10.265-.983-.5-.593-1.94-1.593-2.125v-.313c1.569-.961.612-1.467-.683-1.875-3.933-1.239-8.788-.394-12.805-.814-2.971-.311-6.16-2.105-9.38-2.325-5.413-.369-15.983,3.842-18.673,8.8-1.398,2.577.833,5.627,2.596,7.496l-1.701-.531c1.378,2.257,3.938,3.769,6.382,4.684l-1.804.206-3.94-.846c1.347,1.488,3.542,2.271,5.531,2.342l-2.979.638c-.067.075.177.645.214.85.373,2.086,1.661,3.871,2.126,5.961-.051.064-1.202-.921-1.278-1.014-.607-.739-1.311-3.234-2.124-3.244l-23.193,6.171,14.63-4.826,1.54-1.666c-4.251.124-8.391,1.39-12.455,2.606l-.311-.367,6.792-3.106,1.077-1.261c-.201-.308-.41-.293-.73-.33-1.471-.168-4.861.907-6.501,1.288-1.003.233-1.996.615-2.979.852-3.795.911-7.626,1.69-11.381,2.771l-.011-.65,8.199-3.183-8.935,1.702-.128-.859,23.536-8.187.21-.319c-.923-.011-1.686-.312-2.642-.197-3.909.472-9.006,3.046-13.049,3.764-.3.053-.786.257-.692-.266l18.085-5.861-.282-.39c-2.834.729-5.693,1.733-8.561,2.306-.322.064-.404.38-.731-.104,3.029-1.483,6.833-1.542,9.362-3.935l-22.769,8.085.212-.318,27.238-10.537c.254-.055.18-.391.213-.426.067-.071.155-.134.213-.213.286-.389.416-.751.638-1.064.447-.63.979-1.228,1.489-1.811l-.313-.101-14.689,5.955c-.143.046-.154-.202-.103-.315.099-.219,3.075-3.162,3.417-3.395,1.079-.737,2.714-1.022,3.886-1.648,1.591-.85,2.94-2.244,4.489-3.173l6.433-14.467c.304.034.837-.183.69.301l-4.03,12.586c.046.385,2.378,1.836,2.773,1.943.461.125.65-.334,1.066-.349l-2.557-1.999,6.192-20.007-3.084-1.604.088-.868c1.758-.411,3.536-.597,5.319-.85l-6.188,23.101c.687.588,1.351,1.642,2.359,1.164l-.601-1.108,5.92-24.435c-2.311.24-4.744.421-7.021.85-.2.038-.499-.128-.655.138ZM254.336,38.989c-.188.228-1.185,2.248-1.18,2.451.015.613.956.717,1.279.948.324.232,2.489,1.988,2.765,1.703l.639-5.109-2.34.426c.315-.91,2.221-1.538,3.192-1.916.202-.079.441-.093.636-.213l-.743,7.872c.166.191.349.481.635.43.477-.085.959-8.428,1.39-9.469-.594-.13-1.345.489-1.918.742-1.018.449-3.749,1.4-4.354,2.137Z"/>
    <path class="cls-17" d="M280.821,41.962c-.364-.55-.088-.388-.561-.253-.734.21-1.711.656-2.471.945-8.27,3.153-16.361,6.803-24.631,9.954l.294.402,26.731-9.984c.286-.389.416-.751.638-1.064Z"/>
    <line class="cls-23" x1="262.095" y1="59.844" x2="262.521" y2="60.057"/>
    <path class="cls-23" d="M265.287,59.631c-.014-.227-.105-.442-.213-.639"/>
    <path class="cls-12" d="M279.757,43.665c.254-.055.18-.391.213-.426l-.213.426Z"/>
    <path class="cls-17" d="M225.708,114.981c-.04.038-.464.821-.426.849l6.127-.044,26.867-33.472c2.671-.291,2.756-1.683,4.356-3.093,1.749-1.541,4.462-2.684,6.273-4.262l.214-.424c-.238-.042-.425.027-.644.1-1.169.386-5.74,2.747-6.746,3.47-.868.625-1.504,2.254-2.197,2.699-.749.481-2.225.375-2.978,1.065l-24.24,30.035c-1.256,1.426-5.468,2.004-6.606,3.077Z"/>
    <path class="cls-17" d="M245.923,81.13l3.624-.544.376,2.735-9.743,16.442.314.314,14.357-18.848c.927-.849,2.38-.391,3.494-.975.95-.498,2.055-2.691,3.126-3.472,1.226-.894,3.287-1.543,4.673-2.358.275-.162.536.037.418-.529l-19.063,5.089-1.576,2.147Z"/>
    <path class="cls-17" d="M291.035,71.127c-.13-.428-.636.001-.854.104-5.967,2.819-12.366,4.119-18.644,6.067l-1.467-.64.11-1.486c-.053-.068-.466.261-.636.213-1.783,1.708-4.201,2.897-6.06,4.475-.274.233-1.137.886-.858,1.27l24.482-7.227c1.181-.867,2.857-1.842,3.928-2.776Z"/>
    <path class="cls-17" d="M260.033,69.917c-.419.355-1.904,2.67-2.324,3.315-.118.181-.523.473-.19.662,1.378-.743,2.267-2.547,3.663-3.148,5.517-2.373,12.687-3.377,18.352-5.696l2.775-.306-3.24-.815c-4.629,2.114-15.397,2.903-19.036,5.988Z"/>
    <path class="cls-17" d="M221.665,98.376c-.615.45-1.031.717-1.489,1.385.319.253.919-.012,1.276-.107.485-.13,1.667-.543,2.027-.846l13.081-14.376-2.135.631c-3.864,3.895-7.383,8.535-11.264,12.361-.664.654-1.056.631-1.495.952Z"/>
    <path class="cls-17" d="M292.312,68.785c.051-.139.264-.263.121-.428l-3.947-2.552c-.202.843-.849,1.414-1.494,1.915-.648.504-1.96,1.312-2.707,1.656-3.826,1.766-8.654,2.709-12.614,4.307.102.415.532.491.9.385,4.031-1.509,8.636-2.255,12.616-3.79,1.146-.442,4.244-2.445,5.048-2.311.62.103,1.305.919,2.076.816Z"/>
    <path class="cls-17" d="M233.581,82.197c.015.067-.012.144,0,.213l.769,1.294c3.418-1.089,7.671-1.826,9.658-5.124-.514-.419-7.37,4.313-9.202,4.006-.375-.063-.944-.729-1.224-.389Z"/>
    <path class="cls-17" d="M245.498,44.093l6.612,5.855,3.601-.325-3.034-.9c-2.334-1.65-4.357-3.786-7.179-4.631Z"/>
    <path class="cls-17" d="M246.35,72.403c1.501.082,1.164-2.36,1.921-2.866,2.497-.901,5.383-1.429,7.825-2.401.324-.129.575.123.466-.479-3.335.23-6.406,1.532-9.575,2.447l-.637,3.299Z"/>
    <path class="cls-17" d="M284.134,42.827c2.279-2.724,8-5.849,11.499-6.378,3.612-.546,6.353.082,9.716,1.305.627.228,4.041,1.649,4.164,2.006.131.38.088,1.175-.076,1.559-.654,1.539-9.345,8.143-11.074,8.721-.319.107-.65.204-.992.165l-12.246-2.331c-.323-1.664-2.244-3.55-.991-5.047ZM296.145,43.451l.633-1.487,1.387,2.978.532-3.191,2.125,1.702-.635-4.257c.186-.208,3.704,2.191,4.152,2.338.32.105.336.007.28-.278-.14-.71-.274-1.322-.177-2.06l4.042,1.061c-.293-.45-1.064-.667-1.56-.885-1.729-.759-5.277-2.07-7.075-2.288-1.242-.151-2.429-.027-3.777.185-.253.06-.289.637-.354.861-.533,1.841.275,3.452.428,5.321ZM287.415,41.002c-.48.406-2.631,2.594-2.734,3.028-.202.855,1.151,1.989,1.78,2.401l.107-1.276,1.485,1.277-.421-2.554,2.233,2.34-.114-2.287c.318.27.368.29.494.431.468.526.83,1.259,1.426,1.643l-.634-3.619,2.659,3.192-.106-2.127,1.488.848c-.719-2.117-1.205-4.384-.639-6.596-.286-.25-4.176,1.417-4.76,1.727-.57.303-.788.52-1.263.774-.406.217-.521.39-1,.796ZM299.441,43.456l-1.063,2.975-1.382-1.702c-.554,1.523.671,3.181,1.923,3.961,1.403-.84,9.333-6.555,9.354-7.684l-3.193-.748-.11,2.344-3.296-1.492v3.832s-2.234-1.486-2.234-1.486ZM292.313,45.156l.21,2.341-1.808-1.489-.108,1.276-1.912-1.276.01,1.691,8.074,1.286c-.563-.593-1.354-3.43-1.812-3.615-.634-.256-.365,1.507-.742,1.701-.16-.168-.218-.254-.426-.426.089-.415-1.273-1.726-1.488-1.489ZM286.991,47.498l1.065-.003c-.068-.186-.807-1.361-1.063-1.061l-.002,1.064Z"/>
    <path class="cls-17" d="M297.206,54.524c.095.24.518.738.738.769.264.037,4.616-.921,5.222-1.089,3.858-1.073,11.933-4.459,14.996-6.925.67-.539,4.34-4.464,4.333-5-.002-.126-.543-.706-.822-.439-5.584,7.589-15.549,10.916-24.466,12.684Z"/>
    <path class="cls-17" d="M286.355,48.988c-.156.556.519.56.897.694,2.107.744,7.441,2.441,9.478,2.659,1.444.155,2.283-.176,3.435-.925,3.276-2.131,6.234-5.001,9.382-7.323-.39-.091-.589.131-.881.287-3.612,1.931-6.879,5.67-10.819,7.076l-11.493-2.469Z"/>
    <path class="cls-17" d="M309.548,38.984c1.065,1.069.831,2.218-.213,3.189,1.301.308,1.861-1.451,2.273-1.662,1.517-.778,6.33-.863,7.989-.406.918.253,1.223.839,2.08,1.004-.293-.53-.285-.955,0-1.486-2.228.02-4.235-.535-6.5-.438-1.136.049-2.808.559-3.824.452-.714-.076-1.054-.744-1.805-.652Z"/>
    <path class="cls-17" d="M289.76,39.621l.422,2.979-1.06-.851c-.11.237-.232,1.483-.318,1.914l-1.81-1.701-.004,1.703-1.061-.638c-.325,1.447-.008,1.914.109,2.338l.318-1.275,1.06,1.063.004-2.128,1.808,1.702.108-1.915,1.485,1.277-.634-3.619,3.084,3.618.107-1.702,1.062.424c-.121-.878-.632-.964-1.381-1.277l-.214,1.278c-.502-.164-2.7-3.623-3.085-3.191Z"/>
    <path class="cls-17" d="M298.91,37.492l.422,2.979-1.272-.851-.218,1.915-1.381-1.912c-.497.462-.551,1.097-.316,1.697l.212-.637,1.49,2.553.424-2.552,1.699,1.063-.421-3.619,4.465,2.341-.222-1.909-.628-.006-.105.637-4.15-1.701Z"/>
    <path class="cls-11" d="M299.124,48.135c.747-.286.605-1.235,1.168-1.699l.957.316-1.171-.954-.954,2.337Z"/>
    <polygon class="cls-17" points="245.307 72.405 245.921 69.531 242.042 70.703 237.417 75.174 243.311 76.035 243.009 75.174 242.707 72.783 245.307 72.405"/>
    <polygon class="cls-17" points="255.71 74.112 245.921 76.859 244.927 73.893 247.851 73.893 248.148 74.522 255.71 74.112"/>
    <polygon class="cls-17" points="282.077 60.95 259.092 67.434 259.597 66.658 282.309 59.624 282.077 60.95"/>
    <polygon class="cls-17" points="260.331 46.212 250.301 39.62 249.66 40.317 260.029 47.294 260.331 46.212"/>
    <polygon class="cls-17" points="264.231 45.586 260.609 47.02 260.966 47.542 264.624 46.212 264.231 45.586"/>
    <polygon class="cls-17" points="235.901 114.646 232.428 118.948 220.789 118.948 221.844 117.145 222.754 118.101 231.249 118.373 235.21 114.383 235.901 114.646"/>
    <polygon class="cls-17" points="248.479 54.735 230.816 35.366 236.378 39.783 249.115 53.01 248.479 54.735"/>
  </g>
  <g>
    <g>
      <path class="cls-10" d="M181.091,63.947h-1.671c-.218-5.073-4.296-9.145-9.371-9.353v-1.615c0-.198-.161-.358-.358-.358s-.358.161-.358.358v1.611c-5.146.16-9.29,4.291-9.472,9.431h-1.57c-.198,0-.358.161-.358.358s.161.358.358.358h1.57c.188,5.135,4.33,9.259,9.472,9.419v1.618c0,.198.161.358.358.358s.358-.161.358-.358v-1.621c5.121-.21,9.226-4.353,9.376-9.489h1.666c.198,0,.358-.161.358-.358s-.161-.358-.358-.358ZM170.049,73.315v-3.14c0-.198-.161-.358-.358-.358s-.358.161-.358.358v3.143c-4.679-.159-8.446-3.909-8.634-8.581h3.191c.198,0,.358-.161.358-.358s-.161-.358-.358-.358h-3.191c.181-4.677,3.951-8.433,8.634-8.592v3.15c0,.198.161.358.358.358s.358-.161.358-.358v-3.146c4.613.207,8.316,3.904,8.533,8.515h-3.09c-.198,0-.358.161-.358.358s.161.358.358.358h3.095c-.149,4.673-3.88,8.442-8.538,8.651Z"/>
      <path class="cls-21" d="M169.691,76.261c-.268,0-.486-.218-.486-.486v-1.495c-5.093-.221-9.217-4.323-9.467-9.414h-1.448c-.268,0-.486-.218-.486-.486s.218-.486.486-.486h1.448c.244-5.097,4.368-9.204,9.467-9.426v-1.488c0-.268.218-.486.486-.486s.486.218.486.486v1.493c5.008.268,9.087,4.34,9.365,9.347h1.55c.268,0,.486.218.486.486s-.218.486-.486.486h-1.543c-.211,5.081-4.294,9.212-9.372,9.483v1.5c0,.268-.218.486-.486.486ZM158.29,64.149c-.127,0-.231.104-.231.231s.104.231.231.231h1.693l.004.123c.185,5.056,4.292,9.139,9.349,9.296l.124.004v1.741c0,.127.104.231.231.231s.231-.104.231-.231v-1.744l.122-.005c5.042-.207,9.107-4.32,9.254-9.365l.004-.124h1.789c.127,0,.231-.104.231-.231s-.104-.231-.231-.231h-1.793l-.005-.122c-.213-4.972-4.276-9.027-9.249-9.231l-.122-.005v-1.737c0-.127-.104-.231-.231-.231s-.231.104-.231.231v1.735l-.124.004c-5.063.157-9.17,4.246-9.349,9.307l-.004.123h-1.693ZM169.46,73.451l-.132-.004c-4.721-.16-8.568-3.983-8.757-8.703l-.005-.133h3.323c.127,0,.231-.104.231-.231s-.104-.231-.231-.231h-3.324l.005-.133c.183-4.726,4.03-8.554,8.757-8.715l.132-.004v3.282c0,.127.104.231.231.231s.231-.104.231-.231v-3.279l.133.006c4.713.211,8.433,3.924,8.654,8.636l.006.134h-3.224c-.127,0-.231.104-.231.231s.104.231.231.231h3.227l-.004.132c-.15,4.709-3.954,8.563-8.66,8.774l-.133.006v-3.273c0-.127-.104-.231-.231-.231s-.231.104-.231.231v3.275ZM160.832,64.866c.247,4.482,3.888,8.101,8.372,8.32v-3.011c0-.268.218-.486.486-.486s.486.218.486.486v3.005c4.468-.268,8.068-3.916,8.277-8.389h-2.962c-.268,0-.486-.218-.486-.486s.218-.486.486-.486h2.956c-.276-4.471-3.798-7.987-8.27-8.253v3.012c0,.268-.218.486-.486.486s-.486-.218-.486-.486v-3.017c-4.49.22-8.131,3.844-8.373,8.332h3.058c.268,0,.486.218.486.486s-.218.486-.486.486h-3.057Z"/>
    </g>
    <g>
      <path class="cls-10" d="M169.691,76.269c-.272,0-.494-.222-.494-.494v-1.487c-2.472-.109-4.795-1.128-6.554-2.878-1.759-1.749-2.79-4.066-2.912-6.536h-1.441c-.272,0-.494-.222-.494-.494s.222-.494.494-.494h1.44c.12-2.472,1.15-4.791,2.909-6.543,1.76-1.752,4.084-2.773,6.558-2.882v-1.481c0-.272.222-.494.494-.494s.494.222.494.494v1.486c2.44.132,4.732,1.154,6.467,2.885,1.735,1.732,2.761,4.022,2.897,6.461h1.542c.272,0,.494.222.494.494s-.222.494-.494.494h-1.535c-.104,2.468-1.116,4.79-2.858,6.552-1.741,1.76-4.049,2.798-6.513,2.931v1.492c0,.272-.222.494-.494.494ZM158.29,64.157c-.123,0-.223.1-.223.223s.1.223.223.223h1.701l.005.131c.09,2.45,1.098,4.752,2.838,6.484,1.741,1.732,4.051,2.728,6.502,2.804l.131.004v1.749c0,.123.1.223.223.223s.223-.1.223-.223v-1.751l.13-.005c2.444-.1,4.738-1.115,6.461-2.857,1.724-1.744,2.713-4.052,2.785-6.5l.004-.132h1.797c.123,0,.223-.1.223-.223s-.1-.223-.223-.223h-1.801l-.006-.13c-.104-2.42-1.107-4.696-2.824-6.411-1.718-1.715-3.997-2.713-6.417-2.813l-.13-.005v-1.745c0-.123-.1-.223-.223-.223s-.223.1-.223.223v1.743l-.131.004c-2.454.076-4.764,1.073-6.506,2.808-1.741,1.734-2.748,4.04-2.835,6.492l-.005.131h-1.701ZM169.468,73.459l-.14-.005c-2.297-.078-4.46-1.015-6.092-2.637-1.631-1.622-2.58-3.779-2.672-6.073l-.006-.141h3.332c.123,0,.223-.1.223-.223s-.1-.223-.223-.223h-3.332l.005-.141c.089-2.297,1.037-4.457,2.669-6.081,1.632-1.625,3.797-2.563,6.096-2.641l.14-.005v3.29c0,.123.1.223.223.223s.223-.1.223-.223v-3.288l.142.006c2.265.102,4.397,1.041,6.005,2.646,1.607,1.604,2.551,3.734,2.657,5.998l.007.142h-3.232c-.123,0-.223.1-.223.223s.1.223.223.223h3.235l-.004.14c-.073,2.293-1.003,4.456-2.617,6.09-1.613,1.633-3.762,2.589-6.05,2.691l-.142.006v-3.282c0-.123-.1-.223-.223-.223s-.223.1-.223.223v3.284ZM160.841,64.874c.122,2.173,1.036,4.211,2.586,5.751,1.55,1.541,3.594,2.444,5.77,2.553v-3.002c0-.272.222-.494.494-.494s.494.222.494.494v2.997c2.167-.132,4.196-1.053,5.728-2.604,1.533-1.552,2.43-3.596,2.533-5.769h-2.954c-.272,0-.494-.222-.494-.494s.222-.494.494-.494h2.947c-.135-2.143-1.045-4.154-2.57-5.677-1.526-1.523-3.54-2.428-5.684-2.559v3.003c0,.272-.222.494-.494.494s-.494-.222-.494-.494v-3.008c-2.178.108-4.223,1.013-5.774,2.556-1.55,1.543-2.464,3.583-2.582,5.759h3.049c.272,0,.494.222.494.494s-.222.494-.494.494h-3.048Z"/>
      <path class="cls-21" d="M169.691,76.396c-.343,0-.622-.279-.622-.622v-1.366c-2.457-.138-4.766-1.169-6.516-2.909-1.749-1.74-2.792-4.044-2.943-6.499h-1.32c-.343,0-.622-.279-.622-.622s.279-.622.622-.622h1.319c.149-2.457,1.19-4.763,2.94-6.506,1.75-1.743,4.061-2.775,6.52-2.913v-1.359c0-.343.279-.622.622-.622s.622.279.622.622v1.366c2.425.16,4.704,1.193,6.43,2.915,1.725,1.723,2.762,4,2.927,6.424h1.422c.343,0,.621.279.621.622s-.279.622-.621.622h-1.413c-.134,2.453-1.157,4.762-2.889,6.514-1.732,1.751-4.027,2.8-6.476,2.962v1.372c0,.343-.279.622-.622.622ZM158.29,64.013c-.202,0-.367.164-.367.367s.165.367.367.367h1.562l.006.121c.121,2.436,1.142,4.727,2.875,6.452,1.734,1.724,4.031,2.734,6.469,2.841l.122.005v1.609c0,.202.164.367.367.367s.367-.164.367-.367v-1.613l.121-.007c2.43-.131,4.714-1.159,6.429-2.893,1.717-1.736,2.719-4.033,2.821-6.467l.005-.122h1.657c.202,0,.366-.164.366-.367s-.164-.367-.366-.367h-1.662l-.007-.12c-.135-2.406-1.15-4.671-2.86-6.378-1.71-1.707-3.977-2.718-6.384-2.848l-.121-.007v-1.607c0-.202-.164-.367-.367-.367s-.367.165-.367.367v1.603l-.122.005c-2.44.108-4.739,1.118-6.473,2.845-1.734,1.726-2.753,4.02-2.872,6.459l-.006.121h-1.561ZM169.691,76.125c-.193,0-.35-.157-.35-.35l-.008-1.626c-2.484-.077-4.824-1.086-6.588-2.841-1.764-1.755-2.785-4.088-2.876-6.57v-.008h-1.579c-.193,0-.35-.157-.35-.35s.157-.35.35-.35l1.578-.008c.088-2.484,1.108-4.82,2.872-6.577,1.765-1.758,4.106-2.768,6.592-2.845h.008v-1.619c0-.193.157-.35.35-.35s.35.157.35.35l.008,1.623c2.452.101,4.762,1.113,6.502,2.85,1.74,1.737,2.756,4.044,2.862,6.495v.008h1.679c.193,0,.35.157.35.35s-.157.35-.35.35l-1.674.008c-.072,2.481-1.075,4.82-2.822,6.586-1.746,1.765-4.071,2.793-6.547,2.895h-.008v1.629c0,.193-.157.35-.35.35ZM158.29,64.284c-.053,0-.095.043-.095.095s.043.095.095.095h1.824l.009.253c.088,2.417,1.083,4.689,2.801,6.398,1.719,1.71,3.997,2.692,6.416,2.767l.255.008v1.873c0,.053.043.095.095.095s.095-.043.095-.095v-1.874l.252-.01c2.411-.099,4.675-1.1,6.376-2.819,1.702-1.72,2.678-3.998,2.748-6.414l.007-.255h1.922c.053,0,.095-.043.095-.095s-.043-.095-.095-.095h-1.923l-.011-.252c-.102-2.388-1.092-4.634-2.787-6.326-1.695-1.692-3.943-2.678-6.332-2.776l-.252-.01v-1.868c0-.053-.043-.095-.095-.095s-.095.043-.095.095v1.866l-.255.008c-2.421.075-4.701,1.059-6.42,2.771-1.718,1.711-2.712,3.986-2.798,6.406l-.009.254h-1.824ZM169.595,73.591l-.272-.009c-2.329-.079-4.523-1.029-6.178-2.674-1.654-1.645-2.617-3.832-2.71-6.159l-.011-.274h3.465c.053,0,.095-.043.095-.095s-.043-.095-.095-.095h-3.465l.011-.273c.09-2.329,1.051-4.519,2.706-6.167,1.655-1.648,3.851-2.599,6.182-2.678l.272-.009v3.422c0,.053.043.095.095.095s.095-.043.095-.095v-3.421l.275.012c2.296.103,4.459,1.056,6.089,2.683,1.63,1.627,2.587,3.787,2.694,6.082l.013.275h-3.366c-.053,0-.095.043-.095.095s.043.095.095.095h3.367l-.009.272c-.074,2.325-1.017,4.519-2.654,6.176-1.636,1.656-3.815,2.625-6.135,2.729l-.275.012v-3.415c0-.053-.043-.095-.095-.095s-.095.043-.095.095v3.416ZM160.69,64.73v.008c.091,2.262,1.027,4.389,2.635,5.988,1.609,1.6,3.742,2.523,6.007,2.6h.008s0-3.152,0-3.152c0-.193.157-.35.35-.35s.35.157.35.35v3.148h.008c2.256-.102,4.375-1.044,5.965-2.654,1.592-1.611,2.508-3.744,2.58-6.005v-.008s-3.103,0-3.103,0c-.193,0-.35-.157-.35-.35s.157-.35.35-.35h3.098v-.008c-.105-2.232-1.035-4.332-2.62-5.914-1.585-1.582-3.688-2.508-5.92-2.609h-.008s0,3.154,0,3.154c0,.193-.157.35-.35.35s-.35-.157-.35-.35v-3.158h-.008c-2.266.077-4.401,1.002-6.011,2.604-1.609,1.602-2.543,3.731-2.631,5.996v.008s3.199,0,3.199,0c.193,0,.35.157.35.35s-.157.35-.35.35h-3.199ZM169.324,73.311l-.134-.007c-2.206-.11-4.285-1.03-5.854-2.59-1.568-1.559-2.5-3.631-2.623-5.834l-.008-.135h3.183c.202,0,.367-.164.367-.367s-.164-.367-.367-.367h-3.184l.007-.135c.121-2.206,1.051-4.28,2.62-5.842,1.57-1.562,3.65-2.484,5.857-2.594l.134-.007v3.142c0,.202.164.367.367.367s.367-.165.367-.367v-3.138l.135.008c2.174.132,4.221,1.054,5.766,2.596,1.544,1.542,2.471,3.587,2.607,5.759l.008.136h-3.083c-.202,0-.367.165-.367.367s.164.367.367.367h3.088l-.006.134c-.105,2.202-1.018,4.281-2.57,5.852-1.551,1.57-3.614,2.508-5.811,2.641l-.135.008v-3.132c0-.202-.164-.367-.367-.367s-.367.164-.367.367v3.136ZM160.977,65.001c.149,2.09,1.048,4.05,2.54,5.533,1.492,1.484,3.46,2.372,5.553,2.508v-2.867c0-.343.279-.622.622-.622s.622.279.622.622v2.86c2.083-.159,4.035-1.064,5.509-2.557,1.477-1.495,2.358-3.462,2.489-5.551h-2.82c-.343,0-.622-.279-.622-.622s.279-.622.622-.622h2.81c-.162-2.06-1.055-3.994-2.523-5.459-1.468-1.466-3.405-2.355-5.466-2.513v2.866c0,.343-.279.622-.622.622s-.622-.279-.622-.622v-2.873c-2.095.137-4.063,1.026-5.556,2.512-1.492,1.485-2.39,3.448-2.537,5.541h2.913c.343,0,.622.279.622.622s-.279.622-.622.622h-2.912Z"/>
    </g>
    <path class="cls-14" d="M191.463,64.377c0,6.05-2.138,11.212-6.415,15.488s-9.439,6.414-15.488,6.414-11.212-2.138-15.488-6.414c-4.277-4.276-6.415-9.439-6.415-15.488s2.138-11.211,6.415-15.488c4.276-4.276,9.438-6.414,15.488-6.414s11.211,2.138,15.488,6.414c4.276,4.277,6.415,9.44,6.415,15.488ZM181.45,64.377c0-3.295-1.158-6.101-3.473-8.416-2.315-2.315-5.121-3.473-8.417-3.473-3.254,0-6.05,1.158-8.385,3.473-2.337,2.315-3.505,5.121-3.505,8.416s1.167,6.101,3.505,8.417c2.336,2.315,5.131,3.473,8.385,3.473,3.295,0,6.101-1.158,8.417-3.473s3.473-5.121,3.473-8.417Z"/>
    <path class="cls-4" d="M169.56,83.267c-5.267,0-9.636-1.809-13.358-5.531-3.723-3.722-5.532-8.091-5.532-13.358s1.81-9.635,5.532-13.358c3.722-3.722,8.092-5.532,13.358-5.532s9.635,1.809,13.358,5.532c3.722,3.723,5.532,8.092,5.532,13.357s-1.81,9.636-5.532,13.358c-3.722,3.722-8.091,5.532-13.357,5.532ZM169.56,49.475c-4.062,0-7.597,1.462-10.506,4.346-2.917,2.889-4.396,6.441-4.396,10.556s1.479,7.667,4.397,10.557c2.909,2.883,6.444,4.346,10.506,4.346,4.108,0,7.657-1.465,10.547-4.356,2.89-2.89,4.356-6.438,4.356-10.547s-1.465-7.657-4.356-10.547c-2.89-2.89-6.438-4.355-10.547-4.355Z"/>
    <circle class="cls-6" cx="169.69" cy="64.374" r="2.295"/>
    <path class="cls-3" d="M169.69,66.797c-1.336,0-2.423-1.087-2.423-2.423s1.087-2.423,2.423-2.423,2.423,1.087,2.423,2.423-1.087,2.423-2.423,2.423ZM169.69,62.206c-1.195,0-2.167.972-2.167,2.167s.972,2.167,2.167,2.167,2.167-.972,2.167-2.167-.972-2.167-2.167-2.167Z"/>
  </g>
</svg>