<?xml version="1.0" encoding="UTF-8"?>
<svg id="Highlights" xmlns="http://www.w3.org/2000/svg" viewBox="0 0 528.236 498.053">
  <defs>
    <style>
      .cls-1 {
        fill: none;
      }

      .cls-2 {
        fill: #595959;
      }

      .cls-3 {
        fill: #030303;
      }

      .cls-4 {
        fill: #b5b5b5;
      }

      .cls-5 {
        fill: #fff;
      }

      .cls-6 {
        fill: #666;
      }

      .cls-7 {
        fill: #ad0000;
      }

      .cls-8 {
        fill: #9fc5ce;
      }

      .cls-9 {
        fill: #191919;
      }

      .cls-10 {
        fill: #626361;
      }
    </style>
  </defs>
  <g>
    <circle class="cls-8" cx="284.769" cy="255.447" r="195.328"/>
    <path class="cls-6" d="M284.77,452.143c-108.459,0-196.697-88.238-196.697-196.696S176.311,58.752,284.77,58.752c108.456,0,196.694,88.238,196.694,196.696s-88.238,196.696-196.694,196.696ZM284.77,61.488c-106.949,0-193.961,87.01-193.961,193.959,0,106.949,87.011,193.959,193.961,193.959s193.958-87.01,193.958-193.959S391.719,61.488,284.77,61.488Z"/>
  </g>
  <path class="cls-2" d="M88.968,255.447c0-107.965,87.836-195.801,195.801-195.801,107.965,0,195.801,87.836,195.801,195.801,0,107.965-87.836,195.801-195.801,195.801-107.965,0-195.801-87.836-195.801-195.801ZM89.915,255.447c0,107.443,87.411,194.855,194.855,194.855,107.443,0,194.855-87.411,194.855-194.855,0-107.443-87.411-194.855-194.855-194.855-107.443,0-194.855,87.411-194.855,194.855Z"/>
  <path class="cls-2" d="M284.769,452.7c-108.765,0-197.252-88.488-197.252-197.253,0-108.765,88.487-197.252,197.252-197.252,108.766,0,197.253,88.487,197.253,197.252,0,108.765-88.487,197.253-197.253,197.253ZM284.769,62.045c-106.643,0-193.402,86.759-193.402,193.402,0,106.644,86.759,193.403,193.402,193.403,106.643,0,193.403-86.759,193.403-193.403,0-106.643-86.76-193.402-193.403-193.402Z"/>
  <path class="cls-5" d="M461.372,299.538c-111.312-32.382-238.351-69.424-359.641-104.823.808-3.016,1.562-6.04,2.218-9.079,1.281-5.934,2.568-11.878,4.04-17.772l356.277,116.036c-1,5.204-1.931,10.425-2.894,15.638Z"/>
  <path class="cls-5" d="M459.852,307.524c-1,5.067-2.088,10.115-3.358,15.119-110.859-28.392-238.033-61.048-360.175-92.447,2.424-8.981,4.141-17.999,3.747-27.114l359.786,104.441Z"/>
  <path class="cls-5" d="M99.542,313.375l229.233,18.038,122.918,6.849c-2.838,7.588-6.352,14.876-10.324,21.927-.845.975-1.606,2-2.275,3.076-75.229,9.478-175.018,21.954-283.118,35.616-24.218-23.895-42.628-54.34-56.434-85.506Z"/>
  <path class="cls-5" d="M466.418,273.399c-83.777-45.235-194.524-105.111-314.957-170.11,5.153-4.381,10.37-8.672,15.901-12.515,14.718-10.224,31.083-17.419,47.319-24.826l177.075,129.029,79.06,55.562c-1.103,7.678-2.753,15.285-4.398,22.86Z"/>
  <circle class="cls-1" cx="279.144" cy="247.251" r="187.439"/>
  <path class="cls-9" d="M32.902,247.535c0,4.146,3.361,7.507,7.507,7.507h2.415s32.466,0,32.466,0c3.135,107.553,89.114,194.315,196.347,198.711v31.537s0,2.415,0,2.415c0,4.146,3.361,7.507,7.507,7.507,4.146,0,7.507-3.361,7.507-7.507v-2.415s0-31.459,0-31.459c107.674-3.343,194.415-89.718,198.351-197.242h30.471s2.415,0,2.415,0c4.146,0,7.507-3.361,7.507-7.507,0-4.146-3.361-7.507-7.507-7.507h-2.415s-30.462,0-30.462,0c-3.814-107.637-90.605-194.139-198.36-197.485V12.763s0-2.415,0-2.415c0-4.146-3.361-7.507-7.507-7.507-4.146,0-7.507,3.361-7.507,7.507v2.415s0,31.406,0,31.406c-106.283,4.357-191.681,89.628-196.238,195.859h-32.574s-2.415,0-2.415,0c-4.146,0-7.507,3.361-7.507,7.507ZM92.845,255.043h62.405s2.415,0,2.415,0c4.146,0,7.507-3.361,7.507-7.507,0-4.146-3.361-7.507-7.507-7.507h-2.415s-62.296,0-62.296,0c4.531-96.541,82.091-173.972,178.683-178.304v63.464s0,2.415,0,2.415c0,4.146,3.361,7.507,7.507,7.507,4.146,0,7.507-3.361,7.507-7.507v-2.415s0-63.543,0-63.543c98.065,3.331,177.008,81.983,180.805,179.93h-64.409s-2.415,0-2.415,0c-4.146,0-7.507,3.361-7.507,7.507s3.361,7.507,7.507,7.507h2.415s64.4,0,64.4,0c-3.918,97.833-82.812,176.358-180.796,179.687v-63.412s0-2.415,0-2.415c0-4.146-3.361-7.507-7.507-7.507-4.146,0-7.507,3.361-7.507,7.507v2.415s0,63.334,0,63.334c-97.541-4.375-175.671-83.293-178.792-181.156Z"/>
  <path class="cls-7" d="M268.797,487.706v-31.244c-51.592-2.787-99.934-24.521-136.389-61.382-36.479-36.885-57.672-85.513-59.858-137.197h-32.141c-5.705,0-10.347-4.642-10.347-10.347,0-5.705,4.642-10.347,10.347-10.347h32.287c2.856-51.081,24.337-99.036,60.669-135.303,36.334-36.268,84.338-57.663,135.433-60.425V10.347c0-5.705,4.641-10.347,10.347-10.347,5.705,0,10.347,4.642,10.347,10.347v31.009c51.801,2.288,100.474,23.658,137.322,60.356,36.839,36.689,58.409,85.257,60.921,137.024h30.154c5.705,0,10.347,4.642,10.347,10.347s-4.642,10.347-10.347,10.347h-30.166c-2.57,51.715-24.164,100.226-60.991,136.862-36.838,36.648-85.482,57.989-137.241,60.275v31.139c0,5.705-4.642,10.347-10.347,10.347-5.705,0-10.347-4.642-10.347-10.347ZM482.271,244.415l-.097-2.739c-1.82-51.347-22.904-99.624-59.368-135.94-36.476-36.327-84.861-57.212-136.243-58.807l-2.751-.086V10.347c0-2.574-2.094-4.668-4.668-4.668-2.574,0-4.667,2.094-4.667,4.668v36.547s-2.723.112-2.723.112c-50.686,2.078-98.408,22.996-134.377,58.899-35.964,35.9-56.967,83.575-59.141,134.244l-.116,2.718h-37.71c-2.574,0-4.668,2.094-4.668,4.667,0,2.574,2.094,4.668,4.668,4.668h37.639s.08,2.757.08,2.757c1.495,51.267,22.205,99.61,58.318,136.125,36.083,36.485,84.136,57.733,135.307,59.831l2.723.112v36.678c0,2.574,2.094,4.668,4.667,4.668,2.574,0,4.668-2.094,4.668-4.668v-36.627s2.751-.086,2.751-.086c51.34-1.594,99.697-22.451,136.163-58.728,36.452-36.263,57.561-84.484,59.439-135.78l.1-2.736h35.624c2.574,0,4.668-2.094,4.668-4.668,0-2.574-2.094-4.668-4.668-4.668h-35.618ZM283.812,370.449c0-2.574-2.094-4.667-4.668-4.667-2.574,0-4.667,2.094-4.667,4.667v68.719s-2.967-.133-2.967-.133c-47.92-2.149-92.916-22.165-126.697-56.361-33.811-34.226-53.275-79.521-54.806-127.541l-.093-2.93h67.751c2.574,0,4.668-2.094,4.668-4.668,0-2.574-2.094-4.667-4.668-4.667h-67.688s.14-2.973.14-2.973c2.225-47.405,21.988-92.013,55.649-125.607,33.666-33.599,78.322-53.274,125.744-55.401l2.967-.133v68.85c0,2.574,2.094,4.668,4.667,4.668,2.574,0,4.668-2.094,4.668-4.668V58.708s2.936.1,2.936.1c48.137,1.635,93.474,21.278,127.66,55.31,34.174,34.02,54.022,79.247,55.886,127.348l.115,2.95h-69.776c-2.574,0-4.668,2.094-4.668,4.668,0,2.574,2.094,4.668,4.668,4.668h69.771s-.118,2.953-.118,2.953c-1.925,48.048-21.798,93.216-55.958,127.183-34.176,33.981-79.484,53.594-127.578,55.228l-2.936.1v-68.765ZM400.632,259.43c-5.705,0-10.347-4.642-10.347-10.347s4.642-10.347,10.347-10.347h63.849c-2.49-45.559-21.626-88.285-54.08-120.593-32.469-32.323-75.307-51.266-120.91-53.536v62.997c0,5.705-4.642,10.347-10.347,10.347-5.705,0-10.347-4.642-10.347-10.347v-62.886c-44.895,2.735-87.062,21.697-119.019,53.59-31.951,31.888-50.995,74.006-53.824,118.881h61.711c5.705,0,10.347,4.641,10.347,10.347,0,5.705-4.642,10.347-10.347,10.347h-61.865c2.168,45.495,20.94,88.294,53.053,120.8,32.075,32.469,74.569,51.76,119.944,54.522v-62.755c0-5.705,4.641-10.347,10.347-10.347,5.705,0,10.347,4.641,10.347,10.347v62.867c45.563-2.268,88.372-21.183,120.831-53.457,32.441-32.257,51.6-74.921,54.146-120.429h-63.836Z"/>
  <g>
    <path class="cls-5" d="M479.881,302.276l-24.103,4.837-.178-.883c3.462-.669,6.862-1.41,10.164-2.249,1.187-.303,2.668.009,2.998-1.704l-87.489,12.199c-3.355-.027-9.058,4.48-11.467,4.694-2.731.241-12.235-4.408-16.17-4.89-.366-.045-.625-.062-.821-.036l-.25-2.07,116.804-13.921,10.512,4.025Z"/>
    <path class="cls-5" d="M455.6,306.229l.178.883-71.738,14.403-9.397,5.568c3.703-.598,7.389-1.249,11.119-1.704-.366,1.49-2.302,4.007-2.57,5.14-.455-.553-1.089-.446-1.785-.116-1.053.509-2.231,1.526-3.132,1.678-7.371,1.231-34.937-17.794-37.007-16.107,7.987,13.261,25.094,16.223,38.836,20.605l3.052-5.14.036-.062c15.001,21.828,32.206,42.665,47.921,64.198-1.767-1.294-3.346-1.196-6.015-3.828-15.599-15.385-29.752-34.044-45.288-49.706l-8.585-2.543,52.597,57.808c1.446,1.223,6.193,2.882,8.147,3.4l-.866.446,1.722,2.981c-2.213-.58-4.658-.571-6.862-1.267l-59.441-64.653c-3.088-2.463-9.557-2.195-12.386-3.873-1.347-.803-1.571-2.552-2.65-3.346-.696-.5-6.479-2.436-6.791-2.177,23.951,44.244,49.152,87.837,73.586,131.813-1.499-.143-2.981.143-3.427,1.713-4.569-4.319-21.506-6.639-26.557-12.377l-97.475-120.766c-3.025-2.775-8.968-2.347-11.976-4.283-2.784-1.794-5.345-8.344-8.835-10.851-4.042-2.909-22.425-12.404-27.119-13.957-.883-.294-1.642-.571-2.597-.402l.866,1.704c-1.446-.446-2.418,1.669-2.57,1.713-.687.196-2.347-1.133-2.561-.857l.446,5.979-5.899,2.57c-25.245-7.835-50.973-13.056-74.969-24.398-.875-.41-2.918-2.133-3.436-.41-1.624-1.419-4.248-7.023-5.131-9.424,3.097.419,5.854-2.865,8.344-3.284,3.23-.535,15.688,7.523,20.302,9.299,16,6.166,34.517,9.165,50.723,15.233,1.481.428,3.213.125,3.623-1.544-15.92-6.425-35.338-10.218-50.723-17.321-2.998-1.383-8.272-4.631-10.878-6.657,7.166-3.561,8.924,1.776,15.215,4.034l93.173,24.88,4.551-2.811-94.03-27.476c-3.07-1.571-12.27-9.54-12.583-12.752-.33-3.436,6.827-10.771,4.792-14.983l93.263,24.817-58.826-19.409-6.193-6.693c17.089.5,33.741,5.586,50.08,10.477l1.249-1.472-27.307-12.493-4.328-5.069c.803-1.24,1.642-1.178,2.927-1.33,5.916-.669,19.552,3.65,26.147,5.185-.437.785-.803,1.651-.857,2.57-.036.544-.125,1.098.062,1.624,12.993,1.758,27.048,7.835,39.818,9.415.919.107,3.105.732,2.891-.759-10.593-2.677-21.078-5.809-31.653-8.576l1.713-.848c15.26,3.659,30.662,6.791,45.77,11.137l.036-2.615-32.964-12.797,35.927,6.845.518-3.462-94.646-32.911-.848-1.285c3.712-.054,6.782-1.258,10.628-.794,15.715,1.901,36.213,12.243,52.472,15.135,1.205.214,3.159,1.035,2.775-1.071l-72.711-23.568,1.133-1.571c11.396,2.936,22.89,6.969,34.419,9.272,1.294.259,1.624,1.535,2.945-.419-12.181-5.961-27.485-6.193-37.649-15.822l91.558,32.509-.857-1.276-109.522-42.37-.857-1.713c-.277-.286-.625-.535-.857-.857l107.487,40.148,1.178-1.615c-7.719-2.945-15.402-5.997-23.068-9.102l.83-2.044,31.626,10.753,65.911-64.662,1.481,1.481-61.422,61.378c-1.464,3.186-1.82,8.005,1.758,9.888l-.857.446.857,3.837c-2.445-.651-6.434-2.32-8.147-2.561-1.678-.241-1.339.321-1.267,1.696,9.415,3.748,20.792,7.692,29.35,13.02,10.958,6.809,19.106,20.266,20.266,33.214l-4.435-9.673-4.096-4.881c2.615,5.872,2.454,10.914-1.347,16.215-2.445,3.4-8.951,7.558-7.719.892,1.392-7.523,4.64-10.61,2.481-19.516-.687-2.82-5.497-10.833-7.532-13.011-2.436-2.606-7.514-5.577-10.709-5.551,12.797,8.558,16.045,24.915,9.441,38.595-11.994-3.766-25.54-7.157-38.122-8.192-.937-.071-3.98-.687-3.828.83l55.354,16.955,24.21,22.006-36.784,7.264,10.655,1.74,3.204-.384.25,2.07c-.714.071-.464.58-.419,1.704l18.249,8.379c3.864-1.392,6.809-4.248,10.807-5.399,22.524-6.523,49.929-7.969,74.148-12.699ZM408.009,450.348l-71.265-129.85-4.025-.687,5.988,9.843c-3.195.241-6.247-1.008-9.361-1.347-1.187-.125-2.044-1.196-1.758.91l77.592,120.087,2.829,1.044ZM356.661,401.151l-39.175-66.116,1.508-10.994,14.573,2.186-6.336-8.629-76.655-20.462c-.473,2.276.58,1.472,1.687,2.124,5.568,3.284,13.859,5.89,18.785,9.486,4.31,3.141,8.754,11.958,12.574,13.957,4.48,2.356,10.325.509,14.046,3.926l57.737,75.781,1.258-1.258ZM331.853,291.139l-2.561-13.27c-12.743-3.677-25.094-8.915-38.497-9.834-.437,2.418.571,1.401,1.874,1.919,9.816,3.909,21.426,6.032,31.456,9.656,3.052,2.035,1.696,11.86,7.728,11.53ZM286.94,297.127c1.339-.759-.286-1.936-.759-2.659-1.696-2.597-7.666-11.904-9.352-13.332-14.626-12.404-57.924-15.572-76.539-24.076l-13.029,3.275,11.155,1.231c22.782,9.325,51.615,13.359,73.8,22.907,5.604,2.409,9.183,9.664,14.724,12.654ZM228.766,307.389l.33-2.463-67.508-20.623,9.584,6.238,57.594,16.848Z"/>
    <path class="cls-5" d="M386.601,142.62l-5.345,5.345-1.481-1.481-12.877,5.515-54.739,53.114c-3.784,1.74-24.067-5.765-29.493-6.434l-.428,1.713-.83,2.044c-25.335-10.28-50.437-21.194-75.968-30.921-3.061-1.169-6.987-2.963-9.941-3.802-1.901-.544-.794-1.196-2.258,1.017-1.794-2.534-3.935-4.935-5.979-7.282l1.258-.41,59.067,23.951c.571.187.616-.812.41-1.267-.143-.303-1.642-1.901-3.614-3.909l2.07-.544c.473.616.571.973,2.409.58l-71.033-120.685,1.883-1.107,75.95,128.886,22.292,9.165-2.534-3.043.857-1.615,89.8-59.941,20.525,11.11ZM308.696,200.839l26.584-23.541c-11.351,3.4-19.481,11.985-28.868,18.624l-12.199,3.614,14.483,1.303Z"/>
    <path class="cls-5" d="M246.453,179.27l-2.07.544c-3.766-3.819-9.227-9.129-10.128-9.745-4.337-2.963-10.914-4.114-15.617-6.621-6.398-3.418-11.824-9.022-18.053-12.761l-25.87-58.174c-1.223.134-3.364-.732-2.775,1.214l16.206,50.607c-.187,1.544-9.566,7.38-11.146,7.808-1.856.509-2.615-1.339-4.292-1.401l10.28-8.04-24.897-80.448,12.404-6.452-.357-3.489c1.303.303,2.588,1.339,4.274.848l-3.418-5.979c.803.152,2.008-.518,2.633.553l6.086,10.325-1.883,1.107-2.534,1.276,50.402,100.857c11.512,1.633,13.448,11.119,20.337,17.5.178.17.312.33.419.473Z"/>
  </g>
  <path class="cls-5" d="M295.065,158.458c1.273,3.673,1.451,8.891,4.278,11.984-1.303.933-10.007,7.995-11.119,6.848l-2.567-20.545,9.408,1.713Z"/>
  <polyline class="cls-5" points="303.561 257.31 244.149 240.635 249.073 231.77 311.27 249.518"/>
  <polygon class="cls-4" points="296.284 173.179 301.865 168.581 297.088 158.673 290.702 157.664 296.284 173.179"/>
  <polyline class="cls-5" points="319.831 209.344 321.59 219.235 319.831 220.09 316.031 214.96 319.831 209.344"/>
  <path class="cls-5" d="M282.23,148.185v2.568c-.811-.316-1.774-.375-2.558-.856l2.986,31.652c-.666.768-1.402,1.934-2.554,1.728-1.917-.343-3.858-33.889-5.588-38.075,2.387-.521,5.408,1.966,7.714,2.983Z"/>
  <g>
    <path class="cls-5" d="M191.705,176.682c5.622,10.369-3.346,22.631-10.441,30.145l6.845-2.133c-5.542,9.075-15.84,15.153-25.665,18.829l7.255.83,15.84-3.4c-5.417,5.979-14.242,9.129-22.238,9.415l11.976,2.57c.268.303-.714,2.597-.857,3.418-1.508.901-3.445,2.811-4.283,4.283-.509-1.722-2.561-.009-3.427.41-1.687.821-4.105,2.472-5.747,2.811-4.167.866-27.807-1.58-32.973-2.57-6.14-1.178-13.011-5.042-19.454-5.8-1.312-1.214.098-1.553,1.276-1.696,3.837-.482,8.049-.428,11.878-.973,1.089-.152,4.658-.339,4.81-1.597-21.596-2.543-43.227-9.914-63.038-18.686-4.158-1.838-8.362-3.793-12.449-5.943l1.169-2.267c14.938,7.398,55.738,22.55,70.587,23.425,1.562.098,3.204.205,3.73-1.66-7.255-2.115-14.813-3.552-22.042-5.774-2.499-.767-5.247-1.642-8.174-2.597l.571-1.794c2.4.803,4.605,1.49,6.541,2.026,2.436.678,19.936,4.533,20.998,4.382.883-.125,2.588-2.133,2.963-3.097-35.856-7.103-75.924-20.48-98.376-50.999-1.124-1.071-3.302,1.258-3.311,1.767-.009.607,1.16,2.293,2.9,4.462l-2.454.544c-.598-.803-1.098-1.383-1.419-1.597-1.231-.794-2.543.321-2.561.875-.009.223.08.553.259.964l-2.508.928c-.625-1.58-1.16-3.213-1.615-4.917,3.953-2.017,2.383-7.799,6.398-8.54l.009-1.267c-6.318-3.864-2.463-5.899,2.74-7.541,15.813-4.979,35.338-1.579,51.49-3.275,11.94-1.24,24.764-8.46,37.712-9.343,21.765-1.49,64.269,15.447,75.085,35.383ZM175.937,192.504c1.303-6.693,9.022-14.278,3.989-20.293-9.165-10.958-32.17-23.523-46.243-25.647-14.519-2.195-25.549.33-39.068,5.247-2.517.919-16.241,6.63-16.741,8.067-.527,1.526-.348,4.721.303,6.265,2.633,6.193,37.578,32.75,44.53,35.071,1.285.428,2.615.821,3.989.66l49.241-9.37ZM167.379,199.768c1.526-.535,4.239-.553,3.614-2.784l-46.216,9.923c-15.84-5.658-28.984-20.685-43.503-28.449-1.178-.634-1.972-1.526-3.543-1.16,12.663,9.334,24.549,20.882,37.73,29.449,4.631,3.007,8.005,4.337,13.805,3.712,8.201-.875,29.645-7.701,38.114-10.691ZM160.74,239.363c.741-.152,7.469-2.392,5.979-3.855-3.739-.196-6.916-2.561-10.7-2.65-3.989-.098-8.924,1.82-12.832,1.856-7.416.071-14.938-3.364-22.684.357,0,.41,6.318,1.865,7.389,2.035,7.184,1.169,26.504,3.587,32.848,2.258ZM69.449,162.895c1.651.848,3.9,7.924,9.138,6.684-4.203-3.909-5.14-8.522-.857-12.823-3.016-.375-4.391,2.32-7.255,2.624-4.087.428-10.816-1.624-15.376-1.82-9.111-.393-17.178,1.847-26.138,1.767,1.142,2.133,1.169,3.837,0,5.97,3.445-.66,4.667-3.016,8.362-4.034,6.666-1.838,26.022-1.499,32.126,1.633Z"/>
    <path class="cls-5" d="M96.854,215.929l-.571,1.794c-20.935-6.836-50.785-18.258-63.02-32.331-1.58-1.812-5.015-7.514-7.148-10.378l2.454-.544c4.435,5.506,12.591,14.082,14.528,15.643,10.78,8.674,36.98,20.186,53.757,25.817Z"/>
    <path class="cls-5" d="M52.182,204.328l-1.169,2.267c-1.794-.946-3.57-1.928-5.301-2.954l1.24-2.115c1.455.848,2.963,1.66,4.533,2.454.223.116.455.232.696.348Z"/>
    <path class="cls-5" d="M46.952,201.526l-1.24,2.115c-1.749-1.035-3.471-2.115-5.131-3.248l1.098-2.276c1.696,1.223,3.445,2.347,5.274,3.409Z"/>
    <path class="cls-5" d="M41.678,198.117l-1.098,2.276c-9.013-6.122-16.607-13.805-20.694-24.21l2.508-.928c1.642,3.846,10.468,14.921,12.529,17.036,2.16,2.213,4.391,4.123,6.755,5.827Z"/>
  </g>
  <polygon class="cls-5" points="117.85 235.417 139.78 237.211 147.829 232.852 130.735 230.919 115.376 235.052 117.85 235.417"/>
  <polygon class="cls-4" points="177.047 252.35 205.007 247.816 179.966 237.211 175.295 250.247 177.047 252.35"/>
  <polygon class="cls-4" points="163.353 271.155 275.187 301.95 279.359 299.656 170.16 268.032 163.353 271.155"/>
  <polygon class="cls-4" points="236.66 302.422 240.77 300.643 244.636 302.422 239.044 305.74 236.66 302.422"/>
  <polyline class="cls-4" points="225.698 161.299 238.234 167.183 237.412 163.211 225.698 157.63 225.698 161.299"/>
  <path class="cls-4" d="M418.278,460.63c2.101,3.781,4.591,7.916,5.99,11.984h-32.087s-114.648-139.539-114.648-139.539c-34.468-12.222-72.013-19.325-106.335-31.438-23.801-8.4-29.089-20.396-35.007-43.944-26.055-13.437-54.219-24.254-80.156-37.726-1.817-.944-6.537-2.539-5.263-5.007l87.985,41.022,5.285,16.308c4.045-4.031,13.156-6.711,16.697-10.672,3.782-4.23,6.39-15.683,9.401-20.984.836-1.472,2.774-3.377,4.278-4.28-1.499,8.388-6.679,15.564-8.548,23.968.204.257,4.833-3.704,5.141-4.078,2.441-2.97,5.271-13.003,8.541-13.042,2.031,4.208-5.125,11.545-4.792,14.983.312,3.215,9.508,11.178,12.58,12.75l94.03,27.476-4.546,2.812-93.18-24.878c-6.285-2.259-8.045-7.593-15.215-4.039-2.59-2.014-5.194-4.312-6.006-7.7l-15.872,10.26c-.577.661.28,1.16.486,1.719.883,2.393,3.51,8.001,5.134,9.416,4.309,3.755,11.047,7.673,15.796,11.161l98.443,29.061c1.119-1.542-2.349-4.171-3.452-5.107-7.476-6.345-17.197-11.129-24.367-17.995.148-.042,1.119-2.155,2.567-1.712,7.281,6.346,18.192,10.942,25.224,17.138,6.433,5.668,6.778,11.266,17.517,12.436l108.031,134.593,24.635.179c.153-.114-1.55-3.263-1.711-3.415.448-1.57,1.93-1.857,3.423-1.712Z"/>
  <path class="cls-4" d="M170.996,47.176l3.418,5.987c-1.69.488-2.974-.547-4.274-.851-7.071-1.653-14.218-2.399-21.388-3.419l24.884,92.891c-2.761,2.365-5.434,6.603-9.484,4.679l2.417-4.454-23.805-98.252c9.291.963,19.075,1.693,28.232,3.419Z"/>
  <path class="cls-4" d="M385.763,325.38c1.557-.189,3.401-2.113,5.165.403l53.865,79.649c.188,1.434.076,1.366-1.269,1.281-3.553-.224-7.285-1.688-10.7-2.58l-1.718-2.979.863-.445c1.434.385,3.845,1.451,5.13.432-1.841-2.687-3.513-3.76-5.985-5.568-15.712-21.533-32.922-42.37-47.916-64.201.047-.277-.062-.587,0-.856.262-1.133,2.196-3.647,2.567-5.136Z"/>
  <path class="cls-4" d="M299.343,170.442c-1.059-3.258-3.005-8.311-4.278-11.984-1.268-3.658-8.931-6.184-12.835-7.704v-2.568c4.094,1.806,15.077,5.631,17.509,8.592.754.918,4.764,9.041,4.745,9.854-.059,2.464-3.846,2.883-5.141,3.81Z"/>
  <path class="cls-4" d="M321.59,219.235l1.704.855c-.152-1.956,1.061-9.175,3.844-8.556l6.441,14.111c-.16,2.076-11.08-1.888-11.989-2.13l-.855-3.84.855-.44Z"/>
  <path class="cls-4" d="M336.746,320.499l71.263,129.85-2.834-1.042-77.587-120.089c-.287-2.103.572-1.041,1.761-.911,3.107.338,6.158,1.586,9.352,1.345l-5.985-9.84,4.029.687Z"/>
  <path class="cls-4" d="M177.829,59.162l71.031,120.687c-2.273.496-1.877-.174-2.829-1.056-6.888-6.38-8.825-15.863-20.333-17.495l-50.402-100.861,2.534-1.276Z"/>
  <path class="cls-4" d="M379.773,146.482l-65.91,64.667-31.63-10.76.435-1.71c5.42.674,25.705,8.178,29.486,6.431l54.746-53.11,12.873-5.517Z"/>
  <path class="cls-4" d="M468.761,302.277c-.327,1.712-1.807,1.4-2.997,1.701-26.453,6.678-58.574,7.495-84.314,14.948-3.992,1.156-6.937,4.013-10.801,5.406l-18.253-8.38c-.058-1.432-.449-1.876,1.236-1.671,3.941.48,13.445,5.13,16.173,4.886,2.409-.215,8.117-4.714,11.471-4.694l87.484-12.195Z"/>
  <polygon class="cls-4" points="229.097 304.922 228.766 307.39 171.169 290.538 161.584 284.3 229.097 304.922"/>
  <path class="cls-4" d="M126.5,226.093c-.529,1.869-2.17,1.754-3.727,1.662-15.088-.891-56.953-16.514-71.292-23.777-6.261-3.171-11.632-6.639-16.555-11.686-2.285-2.342-12.876-15.702-12.791-18.004.02-.547,1.327-1.666,2.561-.868,1.486.961,6.544,9.648,8.567,11.976,13.936,16.033,50.771,28.63,71.194,34.921,7.227,2.226,14.783,3.664,22.043,5.777Z"/>
  <path class="cls-4" d="M166.719,235.507c1.492,1.46-5.241,3.702-5.98,3.857-6.346,1.327-25.668-1.088-32.85-2.256-1.071-.174-7.389-1.623-7.385-2.037,16.416-.888,15.268-.286,22.679-.354,3.914-.036,8.845-1.959,12.835-1.861,3.785.093,6.959,2.458,10.701,2.652Z"/>
  <path class="cls-10" d="M391.325,476.894c-1.275.024-3.268,2.288-5.174-.824l-109.31-134.166c-33.779-11.657-68.375-21.117-102.223-32.56-11.734-3.967-23.263-6.411-31.454-16.469-7.196-8.837-9.496-20.211-13.457-30.626l-85.57-42.133c-9.07-20.149-35.279-18.701-42.605-41.496-12.941-40.267,59.723-30.924,79.943-34.818,24.631-4.743,32.714-12.526,60.423-5.455,3.033.774,15.095,6.228,16.75,3.89l-22.734-105.328,40.614,7.727,87.484,141.034c3.28.386,6.927,4.216,9.696,1.319l-4.31-49.927,33.589,15.378,7.876,10.33,54.161-36.697,2.712.302,26.577,15.834-61.472,63.026,14.03,25.942c16.878,7.993,22.612,23.641,21.768,41.547-.101,2.143-1.721,5.226-1.468,6.729.156.924,8.311,15.048,9.309,16.264,1.246,1.519,7.94,6.835,9.668,7.02l85.609-8.175,24.382,9.428-96.684,18.832,59.037,92.431-39.692-9.503-52.675-62.008c-.722-1.663-8.648-4.434-9.453-3.802l77.008,136.953c-14.101.197-28.247-.265-42.355,0ZM170.996,47.176c-9.157-1.727-18.941-2.456-28.232-3.419l23.805,98.252-2.417,4.454c4.05,1.924,6.723-2.314,9.484-4.679l-24.884-92.891c7.17,1.019,14.317,1.765,21.388,3.419l.353,3.491-12.401,6.451,24.898,80.449-10.28,8.04c1.674.058,2.432,1.906,4.287,1.403,1.585-.43,10.962-6.266,11.148-7.813l-16.203-50.608c-.591-1.944,1.551-1.073,2.774-1.21l25.866,58.171c6.23,3.736,11.654,9.341,18.051,12.758,4.71,2.516,11.286,3.664,15.624,6.625,1.373.937,13.339,12.77,13.739,13.652.206.454.162,1.453-.415,1.267l-59.066-23.946-1.258.407c2.05,2.344,4.187,4.749,5.985,7.28.895,1.26,1.415,2.718,2.567,4.28.233.315.584.569.856.856.133.141-.166,1.489.856,1.712l109.525,42.37.853,1.277-91.554-32.511c10.167,9.624,25.466,9.859,37.644,15.823-1.315,1.948-1.645.678-2.94.419-11.53-2.303-23.026-6.339-34.423-9.272l-1.135,1.569,72.72,23.566c.38,2.104-1.574,1.283-2.781,1.069-16.256-2.885-36.753-13.234-52.471-15.133-3.845-.465-6.912.746-10.624.792l.846,1.285,94.641,32.92-.516,3.456-35.927-6.844,32.97,12.8-.043,2.612c-15.099-4.344-30.504-7.476-45.765-11.141-3.953-.949-7.944-2.488-11.979-3.424-6.594-1.53-20.224-5.854-26.139-5.179-1.286.147-2.128.087-2.935,1.326l4.329,5.069,27.31,12.491-1.252,1.474c-16.338-4.889-32.989-9.978-50.08-10.477l6.192,6.697,58.829,19.406-93.261-24.815c-3.27.039-6.1,10.072-8.541,13.042-.307.374-4.936,4.334-5.141,4.078,1.869-8.404,7.049-15.581,8.548-23.968.147-.824,1.129-3.117.86-3.417l-11.979-2.566c8-.286,16.824-3.435,22.242-9.416l-15.843,3.401-7.252-.83c9.827-3.679,20.122-9.759,25.663-18.835l-6.84,2.136c7.09-7.515,16.061-19.779,10.44-30.141-10.815-19.936-53.318-36.872-75.084-35.387-12.947.884-25.771,8.099-37.716,9.348-16.15,1.688-35.674-1.709-51.488,3.274-5.204,1.64-9.055,3.675-2.743,7.539l-.002,1.261c-4.02.742-2.451,6.532-6.405,8.544,5.789,21.823,25.946,32.764,45.189,41.276,19.814,8.765,41.447,16.137,63.041,18.686-.155,1.254-3.724,1.442-4.811,1.595-3.826.54-8.037.49-11.877.971-1.174.147-2.588.48-1.279,1.696,6.445.757,13.321,4.619,19.456,5.799,5.172.995,28.807,3.441,32.975,2.575,1.645-.342,4.059-1.996,5.743-2.811.869-.421,2.922-2.132,3.434-.418-3.01,5.301-5.619,16.754-9.401,20.984-3.541,3.961-12.652,6.64-16.697,10.672l-5.285-16.308-87.985-41.022c-1.274,2.468,3.446,4.063,5.263,5.007,25.938,13.472,54.101,24.289,80.156,37.726,5.918,23.548,11.206,35.545,35.007,43.944,34.321,12.113,71.866,19.216,106.335,31.438l114.648,139.539h32.087c-1.399-4.069-3.888-8.203-5.99-11.984-24.434-43.974-49.63-87.571-73.585-131.817.312-.254,6.099,1.677,6.794,2.182,1.083.788,1.304,2.543,2.649,3.342,2.827,1.681,9.304,1.408,12.386,3.873l59.442,64.651c2.208.698,4.651.694,6.861,1.271,3.414.892,7.147,2.355,10.7,2.58,1.345.085,1.457.153,1.269-1.281l-53.865-79.649c-1.764-2.516-3.608-.592-5.165-.403-3.731.454-7.416,1.102-11.118,1.704l9.393-5.57,95.84-19.235-10.505-4.028-120.007,14.303-10.658-1.735,36.783-7.262-24.207-22.007-55.357-16.957c-.15-1.523,2.888-.905,3.824-.828,12.587,1.032,26.133,4.426,38.129,8.189,6.604-13.68,3.351-30.035-9.441-38.599,3.195-.019,8.267,2.947,10.706,5.553,2.035,2.174,6.841,10.191,7.527,13.014,2.164,8.901-1.09,11.993-2.479,19.511-1.232,6.666,5.274,2.508,7.716-.892,3.807-5.299,3.97-10.337,1.347-16.209l4.098,4.88,4.441,9.668c-1.159-12.943-9.312-26.399-20.268-33.211-8.561-5.323-19.934-9.276-29.352-13.019-.071-1.376-.413-1.934,1.265-1.698,1.713.241,5.702,1.913,8.148,2.564.91.242,11.829,4.206,11.989,2.13l-6.441-14.111c-2.784-.618-3.996,6.6-3.844,8.556l-1.704-.855c-.855-3.267-2.317-9.345-1.758-9.891l66.771-66.723-20.525-11.112-89.804,59.938-.857,1.617,2.536,3.049-22.286-9.168L173.63,47.731c-.628-1.069-1.829-.404-2.634-.555ZM282.23,148.185c-2.307-1.018-5.328-3.505-7.714-2.983,1.73,4.186,3.671,37.732,5.588,38.075,1.152.206,1.888-.96,2.554-1.728l-2.986-31.652c.784.48,1.748.54,2.558.856,3.904,1.52,11.567,4.046,12.835,7.704l-9.408-1.713,2.567,20.545c1.112,1.147,9.816-5.915,11.119-6.848,1.295-.928,5.082-1.346,5.141-3.81.019-.814-3.991-8.936-4.745-9.854-2.433-2.961-13.415-6.785-17.509-8.592Z"/>
  <path class="cls-10" d="M193.243,168.73c1.462-2.211.352-1.561,2.256-1.018,2.953.843,6.881,2.636,9.936,3.801,33.252,12.677,65.788,27.357,99.043,40.027l-1.183,1.615-107.485-40.145c-1.152-1.562-1.672-3.021-2.567-4.28Z"/>
  <path class="cls-3" d="M197.521,175.578c-1.021-.223-.722-1.571-.856-1.712l.856,1.712Z"/>
  <path class="cls-10" d="M414.855,462.342c.161.152,1.864,3.301,1.711,3.415l-24.635-.179-108.031-134.593c-10.739-1.17-11.084-6.768-17.517-12.436-7.032-6.196-17.943-10.792-25.224-17.138l-.861-1.704c.956-.17,1.71.11,2.591.401,4.7,1.553,23.081,11.044,27.124,13.954,3.492,2.513,6.048,9.063,8.833,10.851,3.012,1.934,8.948,1.509,11.976,4.283l97.47,120.771c5.052,5.736,21.988,8.059,26.563,12.375Z"/>
  <path class="cls-10" d="M333.568,326.227l-14.574-2.188-1.51,10.999,39.177,66.112-1.261,1.262-57.731-75.787c-3.726-3.412-9.57-1.571-14.049-3.922-3.819-2.004-8.263-10.821-12.57-13.961-4.932-3.595-13.216-6.203-18.791-9.482-1.107-.651-2.157.151-1.683-2.127l76.654,20.461,6.337,8.632Z"/>
  <path class="cls-10" d="M152.171,286.003c.521-1.72,2.559.005,3.434.418,23.995,11.335,49.726,16.562,74.969,24.395l5.899-2.572-.441-5.976c.215-.275,1.875,1.051,2.559.855,7.17,6.867,16.891,11.651,24.367,17.995,1.103.936,4.571,3.565,3.452,5.107l-98.443-29.061c-4.75-3.488-11.487-7.407-15.796-11.161Z"/>
  <path class="cls-10" d="M276.832,281.137c1.685,1.428,7.657,10.737,9.346,13.328.475.728,2.103,1.902.763,2.661-5.543-2.989-9.118-10.243-14.729-12.657-22.183-9.542-51.015-13.579-73.793-22.904l-11.159-1.231,13.029-3.275c18.615,8.502,61.913,11.674,76.544,24.078Z"/>
  <path class="cls-10" d="M431.112,395.573c2.473,1.808,4.144,2.882,5.985,5.568-1.285,1.019-3.696-.047-5.13-.432-1.951-.524-6.703-2.182-8.149-3.403l-52.598-57.806,8.586,2.539c15.538,15.66,29.688,34.321,45.293,49.705,2.669,2.631,4.248,2.539,6.012,3.829Z"/>
  <path class="cls-10" d="M147.038,276.587c-.206-.559-1.063-1.058-.486-1.719l15.872-10.26c.812,3.388,3.416,5.686,6.006,7.7,2.606,2.026,7.882,5.274,10.884,6.66,15.385,7.101,34.799,10.894,50.721,17.319-.41,1.669-2.141,1.974-3.62,1.549-16.211-6.07-34.727-9.069-50.729-15.238-4.609-1.777-17.064-9.832-20.298-9.293-2.492.415-5.247,3.695-8.348,3.283Z"/>
  <path class="cls-10" d="M383.196,330.516c-.062.269.047.579,0,.856l-3.093,5.205c-13.744-4.381-30.847-7.341-38.834-20.604,2.065-1.685,29.636,17.343,37.003,16.109,1.508-.253,3.796-2.932,4.923-1.565Z"/>
  <path class="cls-10" d="M335.28,177.298l-26.587,23.544-14.478-1.306,12.199-3.617c9.386-6.633,17.519-15.224,28.867-18.621Z"/>
  <path class="cls-10" d="M331.852,291.135c-6.034.33-4.679-9.491-7.723-11.525-10.039-3.623-21.646-5.745-31.463-9.653-1.302-.518-2.312.494-1.876-1.926,13.409.926,25.759,6.162,38.499,9.84l2.562,13.264Z"/>
  <polygon class="cls-4" points="80.024 160.622 80.024 164.778 93.978 180.018 119.676 196.969 125.202 198.754 137.498 196.969 173.275 191.569 177.801 181.46 180.051 177.214 177.801 173.142 166.292 162.308 151.461 154.267 135.915 148.847 121.849 146.95 112.215 148.049 95.8 152.99 80.024 160.622"/>
  <path class="cls-10" d="M175.938,192.505l-49.241,9.374c-1.376.156-2.705-.235-3.988-.664-6.955-2.324-41.9-28.881-44.53-35.068-.657-1.544-.831-4.741-.304-6.269.495-1.436,14.222-7.148,16.744-8.066,13.521-4.918,24.545-7.446,39.068-5.249,14.071,2.128,37.073,14.692,46.238,25.646,5.037,6.02-2.685,13.604-3.985,20.296ZM133.347,153.321c-.261-.902-.409-3.221-1.425-3.462-5.423-.853-10.195-1.351-15.189-.746-7.231.876-21.499,6.147-28.45,9.201-1.998.878-5.096,1.746-6.275,3.558l16.252-4.268c.391,2.967-.146,5.428-.71,8.284-.226,1.143-.161,1.537,1.127,1.116,1.803-.59,15.95-10.235,16.697-9.4l-2.553,17.116,8.543-6.844,2.139,12.832,5.577-11.973,2.547,5.981c.616-7.515,3.864-13.992,1.72-21.396ZM162.705,161.671c-1.909-1.02-2.786-1.892-5.079-3.111-2.35-1.249-17.991-7.951-19.142-6.945,2.276,8.895.32,18.008-2.57,26.522l5.985-3.411-.428,8.551,10.691-12.836-2.549,14.552c2.399-1.547,3.852-4.494,5.734-6.608.508-.57.707-.649,1.986-1.735l-.46,9.194,8.98-9.411-1.694,10.271,5.972-5.136.432,5.131c2.527-1.654,7.968-6.214,7.156-9.653-.412-1.746-9.064-10.545-10.992-12.177-1.928-1.632-2.388-2.328-4.022-3.2ZM109.389,180.714v-15.408s-13.253,6.001-13.253,6.001l-.441-9.427-12.84,3.006c.085,4.541,31.973,27.521,37.614,30.898,5.036-3.136,9.962-9.8,7.734-15.925l-5.557,6.843-4.274-11.963-8.984,5.975ZM141.048,187.562c-.835.692-1.067,1.038-1.711,1.712-1.514-.782-.433-7.87-2.982-6.84-1.84.744-5.023,12.151-7.286,14.535l32.468-5.17.042-6.8-7.687,5.131-.432-5.132-7.269,5.988.842-9.411c-.867-.954-6.342,4.32-5.985,5.988ZM168.424,186.71c-1.027-1.205-3.998,3.52-4.273,4.267l4.282.013-.009-4.28Z"/>
  <path class="cls-10" d="M127.357,219.243c-.38.963-2.083,2.969-2.966,3.092-1.062.148-18.561-3.702-20.997-4.379-15.513-4.315-47.985-17.928-60.298-27.845-2.693-2.169-17.45-17.952-17.423-20.104.006-.506,2.182-2.838,3.305-1.765,22.454,30.517,62.525,43.895,98.38,51.002Z"/>
  <path class="cls-10" d="M170.989,196.981c.627,2.236-2.086,2.252-3.608,2.789-8.473,2.991-29.919,9.814-38.113,10.693-5.805.623-9.18-.708-13.812-3.719-13.175-8.567-25.067-20.111-37.727-29.445,1.568-.364,2.369.527,3.543,1.155,14.522,7.765,27.66,22.798,43.502,28.454l46.214-9.926Z"/>
  <path class="cls-10" d="M77.73,156.754c-4.282,4.3-3.343,8.92.856,12.823-5.233,1.24-7.485-5.833-9.141-6.683-6.1-3.13-25.454-3.47-32.124-1.634-3.691,1.016-4.919,3.374-8.362,4.037,1.177-2.132,1.144-3.842,0-5.975,8.959.082,17.031-2.152,26.138-1.762,4.567.195,11.291,2.25,15.376,1.817,2.869-.304,4.239-2.992,7.257-2.622Z"/>
  <path class="cls-10" d="M157.301,159.318l-1.698,11.98,4.261-3.424c.443.953.932,5.965,1.28,7.696l7.276-6.84.018,6.848,4.265-2.563c1.308,5.818.031,7.696-.436,9.403l-1.279-5.127-4.261,4.275-.018-8.555-7.269,6.844-.432-7.7-5.972,5.136,2.55-14.552-12.402,14.548-.432-6.843-4.269,1.703c.485-3.531,2.542-3.878,5.552-5.136l.86,5.141c2.02-.658,10.857-14.568,12.406-12.832Z"/>
  <path class="cls-10" d="M120.508,150.758l-1.698,11.98,5.114-3.422.875,7.702,5.553-7.686c1.997,1.857,2.216,4.413,1.272,6.824l-.853-2.562-5.992,10.265-1.705-10.261-6.832,4.276,1.694-14.552-17.955,9.412.892-7.677,2.524-.024.423,2.563,16.688-6.838Z"/>
  <polygon class="cls-10" points="336.048 291.144 333.579 279.588 349.176 284.3 367.772 302.277 344.071 305.74 345.286 302.277 346.502 292.664 336.048 291.144"/>
  <polygon class="cls-10" points="294.214 298.007 333.579 309.052 337.573 297.126 325.816 297.126 324.621 299.656 294.214 298.007"/>
  <polygon class="cls-10" points="188.194 245.081 280.617 271.156 278.587 268.032 187.26 239.751 188.194 245.081"/>
  <polygon class="cls-10" points="275.633 185.821 315.965 159.314 318.544 162.117 276.849 190.169 275.633 185.821"/>
  <polygon class="cls-10" points="259.952 183.301 274.516 189.07 273.08 191.17 258.372 185.821 259.952 183.301"/>
  <polygon class="cls-10" points="373.869 460.995 387.832 478.292 434.632 478.292 430.39 471.045 426.731 474.888 392.573 475.982 376.649 459.937 373.869 460.995"/>
  <polygon class="cls-10" points="323.294 220.09 394.314 142.209 371.948 159.97 320.734 213.154 323.294 220.09"/>
</svg>