<?xml version="1.0" encoding="UTF-8"?>
<svg id="Outline" xmlns="http://www.w3.org/2000/svg" viewBox="0 0 590.447 556.709">
  <defs>
    <style>
      .cls-1 {
        fill: none;
      }

      .cls-2 {
        fill: #595959;
      }

      .cls-3 {
        fill: #727272;
      }

      .cls-4 {
        fill: #030303;
      }

      .cls-5 {
        fill: #fff;
      }

      .cls-6 {
        fill: #666;
      }

      .cls-7 {
        fill: #424242;
      }

      .cls-8 {
        fill: #ad0000;
      }

      .cls-9 {
        fill: #9fc5ce;
      }

      .cls-10 {
        fill: #191919;
      }

      .cls-11 {
        fill: #4d4d4d;
      }
    </style>
  </defs>
  <path class="cls-4" d="M369.851,196.159c1.141-.249.807-1.755.956-1.913l-.956,1.913Z"/>
  <path class="cls-10" d="M402.358,208.596l-.01,4.782,4.784-.015c-.307-.835-3.627-6.113-4.774-4.767Z"/>
  <circle class="cls-9" cx="272.14" cy="285.531" r="218.332"/>
  <path class="cls-6" d="M52.28,285.531c0-121.231,98.63-219.861,219.859-219.861,121.232,0,219.862,98.63,219.862,219.861,0,121.231-98.63,219.861-219.862,219.861-121.229,0-219.859-98.63-219.859-219.861ZM55.338,285.531c0,119.545,97.256,216.802,216.801,216.802,119.545,0,216.804-97.257,216.804-216.802,0-119.545-97.259-216.802-216.804-216.802-119.545,0-216.801,97.257-216.801,216.802Z"/>
  <path class="cls-2" d="M272.14,504.392c-120.68,0-218.861-98.181-218.861-218.861,0-120.68,98.181-218.861,218.861-218.861,120.68,0,218.861,98.181,218.861,218.861,0,120.68-98.181,218.861-218.861,218.861ZM272.14,67.728c-120.097,0-217.803,97.706-217.803,217.803,0,120.097,97.706,217.803,217.803,217.803,120.097,0,217.803-97.706,217.803-217.803,0-120.097-97.706-217.803-217.803-217.803Z"/>
  <path class="cls-2" d="M51.656,285.531c0-121.574,98.908-220.482,220.484-220.482,121.574,0,220.482,98.908,220.482,220.482,0,121.574-98.908,220.484-220.482,220.484-121.576,0-220.484-98.91-220.484-220.484ZM55.96,285.531c0,119.204,96.978,216.181,216.181,216.181,119.202,0,216.179-96.977,216.179-216.181,0-119.202-96.977-216.179-216.179-216.179-119.202,0-216.181,96.977-216.181,216.179Z"/>
  <path class="cls-5" d="M74.738,334.815c124.422-36.196,266.422-77.6,401.996-117.168-.903-3.371-1.746-6.752-2.479-10.148-1.432-6.633-2.87-13.277-4.516-19.865L71.503,317.336c1.118,5.817,2.159,11.652,3.235,17.479Z"/>
  <path class="cls-5" d="M76.438,343.742c1.118,5.664,2.334,11.306,3.754,16.9,123.915-31.736,266.066-68.238,402.593-103.334-2.71-10.039-4.629-20.118-4.188-30.307l-402.158,116.741Z"/>
  <path class="cls-5" d="M479.182,350.281l-256.23,20.163-137.395,7.655c3.172,8.481,7.1,16.628,11.54,24.509.945,1.09,1.795,2.235,2.543,3.438,84.089,10.594,195.63,24.54,316.461,39.81,27.07-26.709,47.648-60.74,63.081-95.576Z"/>
  <path class="cls-5" d="M69.099,305.597c93.643-50.562,217.433-117.49,352.05-190.144-5.76-4.897-11.591-9.693-17.774-13.988-16.451-11.428-34.744-19.471-52.892-27.75l-197.929,144.225-88.371,62.105c1.232,8.582,3.078,17.085,4.916,25.552Z"/>
  <circle class="cls-1" cx="278.427" cy="276.37" r="209.514"/>
  <path class="cls-10" d="M545.279,268.296h-2.7s-36.411,0-36.411,0c-5.094-118.742-100.55-214.055-219.35-218.926V14.266s0-2.7,0-2.7c0-4.634-3.757-8.391-8.391-8.391-4.634,0-8.391,3.757-8.391,8.391v2.7s0,35.017,0,35.017c-120.446,3.74-217.458,100.43-221.721,220.743H14.265s-2.7,0-2.7,0c-4.634,0-8.391,3.757-8.391,8.391,0,4.634,3.757,8.391,8.391,8.391h36.759c4.4,120.187,101.356,216.734,221.711,220.471v35.164s0,2.7,0,2.7c0,4.634,3.757,8.391,8.391,8.391,4.634,0,8.391-3.757,8.391-8.391v-2.7s0-35.251,0-35.251c119.861-4.914,215.967-101.893,219.471-222.113h36.289s2.7,0,2.7,0c4.634,0,8.391-3.757,8.391-8.391,0-4.634-3.757-8.391-8.391-8.391ZM286.819,487.57v-70.792s0-2.7,0-2.7c0-4.634-3.757-8.391-8.391-8.391-4.634,0-8.391,3.757-8.391,8.391v2.7s0,70.88,0,70.88c-109.524-3.72-197.709-91.493-202.088-200.848h74.684c4.634,0,8.391-3.757,8.391-8.391,0-4.634-3.757-8.391-8.391-8.391h-74.694c4.244-109.481,92.484-197.396,202.099-201.12v71.026s0,2.7,0,2.7c0,4.634,3.757,8.391,8.391,8.391,4.634,0,8.391-3.757,8.391-8.391v-73.638c107.968,4.842,194.662,91.392,199.727,199.303h-69.633s-2.7,0-2.7,0c-4.634,0-8.391,3.757-8.391,8.391,0,4.634,3.757,8.391,8.391,8.391h2.7s69.754,0,69.754,0c-3.488,109.388-90.819,197.6-199.848,202.49Z"/>
  <path class="cls-8" d="M278.428,556.709c-6.377,0-11.566-5.188-11.566-11.566v-34.806c-57.855-2.555-112.227-26.41-153.404-67.374-41.163-40.951-65.301-95.175-68.174-152.98H11.566C5.188,289.983,0,284.795,0,278.417c0-6.377,5.188-11.566,11.566-11.566h33.705c2.807-57.863,26.918-112.151,68.096-153.161,41.188-41.02,95.594-64.906,153.495-67.464V11.566c0-6.377,5.188-11.566,11.566-11.566,6.377,0,11.565,5.188,11.565,11.566v34.778c57.113,3.088,110.77,27.002,151.383,67.541,40.61,40.537,64.621,94.14,67.814,151.237h36.089c6.377,0,11.566,5.188,11.566,11.565,0,6.377-5.188,11.566-11.566,11.566h-35.926c-2.444,57.77-26.132,112.125-66.908,153.354-40.749,41.203-94.784,65.497-152.452,68.611v34.924c0,6.377-5.188,11.566-11.565,11.566ZM11.566,273.2c-2.877,0-5.217,2.34-5.217,5.217,0,2.877,2.34,5.217,5.217,5.217h39.819s.112,3.058.112,3.058c2.099,57.336,25.694,111.236,66.439,151.77,40.76,40.55,94.812,63.863,152.199,65.644l3.075.096v40.94c0,2.877,2.34,5.217,5.217,5.217,2.877,0,5.217-2.34,5.217-5.217v-40.998l3.044-.125c57.198-2.344,110.91-26.095,151.242-66.877,40.366-40.815,63.515-94.852,65.186-152.157l.09-3.082h42.072c2.877,0,5.217-2.34,5.217-5.217,0-2.877-2.34-5.217-5.217-5.217h-42.151s-.13-3.038-.13-3.038c-2.43-56.636-25.906-109.927-66.106-150.054-40.205-40.132-93.547-63.513-150.202-65.836l-3.044-.125V11.566c0-2.877-2.34-5.217-5.217-5.217-2.877,0-5.217,2.34-5.217,5.217v40.795l-3.075.096c-57.433,1.783-111.516,25.127-152.288,65.733-40.759,40.593-64.326,94.556-66.36,151.95l-.108,3.062H11.566ZM273.21,490.941l-3.282-.112c-53.759-1.826-104.403-23.75-142.603-61.732-38.184-37.967-60.397-88.454-62.549-142.161l-.132-3.301h77.988c2.877,0,5.217-2.34,5.217-5.217,0-2.877-2.34-5.217-5.217-5.217h-77.994l.128-3.297c2.084-53.766,24.269-104.319,62.468-142.346,38.211-38.04,88.888-59.996,142.694-61.823l3.282-.112v77.01c0,2.877,2.34,5.217,5.217,5.217,2.877,0,5.217-2.34,5.217-5.217v-76.959l3.316.149c53.007,2.378,102.922,24.37,140.553,61.926,37.625,37.551,59.716,87.412,62.203,140.4l.156,3.323h-75.659c-2.877,0-5.217,2.34-5.217,5.217,0,2.877,2.34,5.217,5.217,5.217h75.73l-.104,3.275c-1.712,53.676-23.468,104.305-61.261,142.562-37.759,38.223-88.054,60.596-141.618,62.999l-3.316.149v-76.812c0-2.877-2.34-5.217-5.217-5.217-2.877,0-5.217,2.34-5.217,5.217v76.864ZM71.278,289.983c2.846,50.868,24.261,98.557,60.523,134.612,36.282,36.075,84.132,57.218,135.061,59.753v-70.271c0-6.377,5.188-11.565,11.566-11.565s11.565,5.188,11.565,11.565v70.146c50.719-3.087,98.217-24.65,134.07-60.943,35.895-36.335,56.878-84.174,59.301-135.027h-69.151c-6.377,0-11.566-5.188-11.566-11.566,0-6.377,5.188-11.565,11.566-11.565h68.979c-3.163-50.16-24.449-97.238-60.163-132.881-35.72-35.649-82.853-56.844-133.036-59.902v70.292c0,6.377-5.188,11.566-11.565,11.566-6.377,0-11.566-5.188-11.566-11.566v-70.416c-50.973,2.537-98.857,23.711-135.149,59.841-36.276,36.113-57.666,83.872-60.449,134.796h71.368c6.377,0,11.566,5.188,11.566,11.566,0,6.377-5.188,11.566-11.566,11.566h-71.354Z"/>
  <g>
    <path class="cls-7" d="M54.049,337.875l26.942,5.406.199-.988c-3.87-.748-7.661-1.576-11.361-2.514-1.327-.339-2.982.01-3.352-1.905l97.792,13.635c3.751-.02,10.124,5.007,12.818,5.247,3.052.269,13.675-4.928,18.084-5.466.399-.05.698-.07.918-.04l.279-2.314-130.57-15.561-11.75,4.499Z"/>
    <path class="cls-7" d="M81.19,342.294l-.199.988,80.187,16.099,10.503,6.224c-4.14-.668-8.259-1.396-12.429-1.905.419,1.666,2.573,4.479,2.873,5.745.509-.618,1.217-.499,1.995-.13,1.177.569,2.494,1.706,3.501,1.875,8.239,1.377,39.051-19.89,41.365-18.004-8.927,14.822-28.049,18.134-43.41,23.032l-3.411-5.745-.04-.07c-16.768,24.398-35.999,47.689-53.564,71.758,1.975-1.446,3.741-1.337,6.723-4.279,17.446-17.196,33.256-38.054,50.622-55.559l9.606-2.843-58.801,64.616c-1.616,1.367-6.922,3.222-9.107,3.8l.968.499-1.925,3.332c2.474-.638,5.207-.638,7.671-1.416l66.442-72.267c3.451-2.753,10.683-2.454,13.845-4.329,1.506-.898,1.756-2.853,2.963-3.741.778-.559,7.242-2.723,7.591-2.434-26.772,49.455-54.931,98.182-82.252,147.337,1.676-.16,3.332.16,3.83,1.915,5.117-4.818,24.039-7.421,29.695-13.835l108.944-134.988c3.381-3.102,10.025-2.623,13.386-4.788,3.112-2.005,5.975-9.326,9.875-12.129,4.519-3.252,25.067-13.865,30.313-15.601.988-.319,1.835-.638,2.903-.449l-.968,1.905c1.626-.489,2.703,1.865,2.873,1.915.768.219,2.623-1.267,2.863-.958l-.499,6.683,6.593,2.873c28.219-8.758,56.976-14.593,83.798-27.271.978-.459,3.262-2.384,3.84-.459,1.815-1.586,4.758-7.85,5.745-10.533-3.471.469-6.553-3.202-9.336-3.671-3.611-.598-17.536,8.409-22.693,10.394-17.885,6.893-38.582,10.244-56.696,17.027-1.656.479-3.591.14-4.05-1.726,17.795-7.182,39.5-11.421,56.696-19.361,3.352-1.546,9.247-5.177,12.159-7.441-8.01-3.98-9.975,1.985-17.007,4.509l-104.146,27.81-5.087-3.142,105.104-30.712c3.431-1.756,13.715-10.653,14.064-14.254.369-3.84-7.631-12.04-5.356-16.748l-104.246,27.74,65.754-21.695,6.922-7.481c-19.102.559-37.715,6.244-55.978,11.71l-1.396-1.646,30.523-13.965,4.848-5.666c-.908-1.386-1.845-1.317-3.282-1.476-6.613-.758-21.855,4.07-29.226,5.785.489.878.898,1.845.958,2.873.04.608.14,1.227-.07,1.815-14.523,1.965-30.223,8.758-44.507,10.523-1.027.13-3.471.818-3.232-.848,11.84-2.992,23.56-6.494,35.38-9.586l-1.915-.948c-17.057,4.09-34.273,7.591-51.151,12.449l-.05-2.923,36.847-14.304-40.158,7.651-.579-3.86,105.792-36.797.948-1.436c-4.149-.06-7.581-1.406-11.88-.888-17.566,2.125-40.478,13.685-58.652,16.917-1.347.239-3.531,1.157-3.102-1.197l81.284-26.343-1.277-1.756c-12.738,3.282-25.585,7.79-38.473,10.364-1.446.289-1.815,1.716-3.282-.469,13.606-6.663,30.712-6.922,42.074-17.685l-102.341,36.338.958-1.426,122.42-47.36.958-1.915c.309-.319.698-.598.958-.948l-120.146,44.866-1.317-1.805c8.628-3.292,17.216-6.703,25.785-10.174l-.928-2.284-35.351,12.02-73.674-72.277-1.656,1.656,68.656,68.606c1.646,3.561,2.035,8.947-1.965,11.052l.958.499-.958,4.289c2.733-.728,7.192-2.593,9.107-2.863,1.875-.269,1.496.359,1.416,1.895-10.523,4.189-23.241,8.608-32.807,14.553-12.249,7.611-21.356,22.653-22.653,37.126l4.957-10.813,4.588-5.456c-2.933,6.563-2.753,12.199,1.496,18.124,2.733,3.8,10.005,8.449,8.628.997-1.546-8.409-5.187-11.86-2.773-21.815.768-3.152,6.144-12.109,8.419-14.543,2.723-2.913,8.399-6.224,11.97-6.204-14.304,9.566-17.935,27.85-10.553,43.141,13.406-4.209,28.548-8,42.612-9.157,1.047-.08,4.449-.768,4.279.928l-61.873,18.952-27.061,24.608,41.116,8.109-11.91,1.945-3.571-.429-.279,2.314c.788.08.509.648.459,1.905l-20.398,9.376c-4.319-1.566-7.611-4.758-12.079-6.045-25.166-7.292-55.809-8.897-82.88-14.194ZM134.385,503.386l79.658-145.143,4.499-.768-6.683,11.002c3.571.269,6.972-1.127,10.454-1.506,1.327-.14,2.284-1.327,1.965,1.017l-86.72,134.23-3.172,1.167ZM191.78,448.395l43.789-73.903-1.686-12.289-16.289,2.444,7.082-9.646,85.683-22.872c.529,2.544-.648,1.646-1.885,2.374-6.224,3.671-15.491,6.583-20.997,10.603-4.818,3.511-9.785,13.366-14.054,15.601-5.007,2.633-11.541.569-15.7,4.389l-64.537,84.706-1.406-1.406ZM219.51,325.426l2.863-14.832c14.244-4.11,28.049-9.965,43.041-10.992.479,2.703-.648,1.566-2.105,2.145-10.972,4.369-23.939,6.743-35.161,10.793-3.411,2.274-1.895,13.256-8.638,12.887ZM269.713,332.119c-1.496-.848.319-2.165.848-2.972,1.895-2.903,8.568-13.306,10.454-14.902,16.349-13.865,64.746-17.406,85.553-26.912l14.563,3.661-12.468,1.377c-25.466,10.424-57.694,14.932-82.491,25.605-6.264,2.693-10.264,10.803-16.458,14.144ZM334.738,343.59l-.369-2.753,75.459-23.052-10.713,6.972-64.377,18.832Z"/>
    <path class="cls-7" d="M158.315,159.416l5.975,5.975,1.656-1.656,14.394,6.164,61.195,59.37c4.219,1.945,26.892-6.444,32.957-7.192l.479,1.915.928,2.284c28.318-11.491,56.387-23.69,84.925-34.563,3.411-1.307,7.8-3.312,11.102-4.249,2.125-.608.888-1.337,2.524,1.137,2.005-2.833,4.399-5.516,6.693-8.139l-1.406-.459-66.023,26.772c-.648.209-.698-.908-.469-1.416.15-.339,1.835-2.125,4.04-4.369l-2.314-.608c-.529.688-.638,1.087-2.693.648l79.399-134.899-2.105-1.237-84.895,144.065-24.917,10.244,2.843-3.401-.968-1.805-100.376-67-22.942,12.419ZM245.394,224.492l-29.715-26.313c12.688,3.8,21.775,13.396,32.268,20.817l13.635,4.04-16.189,1.456Z"/>
    <path class="cls-7" d="M314.968,200.383l2.314.608c4.209-4.269,10.314-10.204,11.321-10.892,4.848-3.312,12.199-4.598,17.456-7.401,7.152-3.82,13.217-10.084,20.179-14.264l28.917-65.025c1.367.16,3.76-.818,3.102,1.357l-18.114,56.567c.209,1.726,10.693,8.249,12.458,8.728,2.075.569,2.923-1.496,4.798-1.566l-11.491-8.987,27.83-89.922-13.865-7.212.399-3.9c-1.456.339-2.893,1.496-4.778.948l3.82-6.683c-.898.17-2.244-.579-2.943.618l-6.803,11.541,2.105,1.237,2.833,1.426-56.337,112.735c-12.867,1.825-15.032,12.429-22.732,19.56-.199.19-.349.369-.469.529Z"/>
  </g>
  <path class="cls-7" d="M260.632,177.119c-1.423,4.106-1.622,9.938-4.782,13.396,1.456,1.043,11.185,8.936,12.428,7.655l2.87-22.965-10.516,1.914Z"/>
  <polyline class="cls-7" points="251.135 287.614 317.543 268.975 312.04 259.066 242.518 278.904"/>
  <polygon class="cls-7" points="259.269 193.574 253.03 188.434 258.37 177.36 265.508 176.232 259.269 193.574"/>
  <polyline class="cls-7" points="232.949 233.999 230.983 245.054 232.949 246.01 237.196 240.276 232.949 233.999"/>
  <path class="cls-7" d="M274.978,165.637v2.87c.906-.353,1.983-.419,2.86-.957l-3.338,35.379c.744.858,1.567,2.162,2.855,1.931,2.143-.384,4.312-37.88,6.246-42.559-2.668-.583-6.044,2.197-8.623,3.335Z"/>
  <g>
    <path class="cls-7" d="M376.163,197.49c-6.284,11.591,3.741,25.296,11.67,33.695l-7.651-2.384c6.194,10.144,17.705,16.937,28.687,21.047l-8.109.928-17.705-3.8c6.055,6.693,15.92,10.204,24.857,10.523l-13.386,2.873c-.299.339.798,2.903.958,3.82,1.686,1.007,3.85,3.142,4.788,4.788.569-1.915,2.863-.01,3.83.459,1.885.918,4.588,2.763,6.424,3.142,4.658.968,31.081-1.766,36.857-2.873,6.863-1.317,14.543-5.636,21.745-6.484,1.466-1.357-.11-1.736-1.426-1.895-4.289-.539-8.997-.479-13.276-1.087-1.207-.17-5.197-.379-5.376-1.785,24.139-2.843,48.318-11.082,70.472-20.887,4.648-2.055,9.346-4.239,13.925-6.653l-1.317-2.524c-16.708,8.269-62.312,25.206-78.91,26.184-1.746.11-3.581.229-4.169-1.855,8.119-2.364,16.558-3.97,24.638-6.454,2.803-.868,5.875-1.835,9.147-2.903l-.648-2.005c-2.673.898-5.137,1.666-7.311,2.264-2.723.758-22.284,5.067-23.471,4.898-.988-.14-2.893-2.384-3.312-3.461,40.079-7.94,84.865-22.892,109.962-57.006,1.257-1.197,3.691,1.406,3.701,1.975.01.678-1.297,2.564-3.242,4.987l2.743.608c.668-.898,1.227-1.546,1.586-1.785,1.386-.888,2.843.359,2.863.978.01.249-.09.618-.289,1.077l2.803,1.037c.698-1.766,1.297-3.591,1.805-5.496-4.419-2.254-2.663-8.718-7.152-9.546l-.01-1.416c7.062-4.319,2.753-6.593-3.062-8.429-17.675-5.566-39.5-1.766-57.554-3.651-13.346-1.396-27.68-9.466-42.153-10.454-24.328-1.656-71.838,17.266-83.928,39.55ZM393.789,215.175c-1.456-7.481-10.084-15.96-4.459-22.683,10.244-12.249,35.959-26.293,51.689-28.667,16.229-2.454,28.558.369,43.669,5.865,2.813,1.027,18.164,7.411,18.713,9.017.589,1.706.399,5.277-.339,7.002-2.943,6.922-42.004,36.607-49.774,39.201-1.436.479-2.923.918-4.459.748l-55.041-10.483ZM403.354,223.295c-1.706-.598-4.738-.618-4.04-3.112l51.659,11.092c17.715-6.324,32.398-23.121,48.627-31.8,1.317-.708,2.204-1.706,3.96-1.297-14.154,10.434-27.441,23.341-42.173,32.917-5.177,3.361-8.947,4.848-15.431,4.159-9.167-.987-33.136-8.618-42.602-11.96ZM410.776,267.553c-.828-.17-8.349-2.673-6.683-4.309,4.179-.219,7.73-2.863,11.96-2.963,4.459-.11,9.975,2.035,14.354,2.075,8.279.08,16.688-3.76,25.346.399,0,.459-7.062,2.085-8.259,2.274-8.02,1.307-29.625,4.01-36.717,2.524ZM512.827,182.079c-1.855.948-4.369,8.858-10.224,7.471,4.698-4.359,5.745-9.526.958-14.334,3.371-.419,4.908,2.593,8.109,2.933,4.568.479,12.089-1.815,17.186-2.035,10.184-.429,19.201,2.065,29.216,1.975-1.277,2.384-1.307,4.289,0,6.673-3.84-.738-5.217-3.371-9.346-4.509-7.451-2.055-29.086-1.676-35.899,1.825Z"/>
    <path class="cls-7" d="M482.185,241.359l.648,2.005c23.391-7.641,56.766-20.408,70.432-36.139,1.766-2.025,5.606-8.399,7.99-11.601l-2.743-.608c-4.957,6.154-14.074,15.74-16.239,17.486-12.04,9.695-41.335,22.563-60.088,28.857Z"/>
    <path class="cls-7" d="M532.128,228.392l1.317,2.524c1.995-1.047,3.97-2.135,5.905-3.282l-1.377-2.374c-1.636.948-3.322,1.855-5.067,2.743-.249.13-.509.259-.778.389Z"/>
    <path class="cls-7" d="M537.974,225.26l1.377,2.374c1.965-1.157,3.88-2.364,5.745-3.631l-1.247-2.554c-1.875,1.367-3.83,2.623-5.875,3.81Z"/>
    <path class="cls-7" d="M543.849,221.449l1.247,2.554c10.065-6.853,18.553-15.441,23.121-27.071l-2.803-1.037c-1.835,4.299-11.7,16.678-14.005,19.042-2.404,2.474-4.918,4.608-7.561,6.514Z"/>
  </g>
  <polygon class="cls-7" points="458.718 263.142 434.205 265.147 425.208 260.275 444.315 258.115 461.482 262.735 458.718 263.142"/>
  <polygon class="cls-3" points="392.549 282.07 361.295 277.002 389.286 265.147 394.507 279.719 392.549 282.07"/>
  <polygon class="cls-3" points="407.855 303.09 282.85 337.511 278.187 334.947 400.246 299.598 407.855 303.09"/>
  <polygon class="cls-3" points="325.915 338.039 321.321 336.05 317 338.039 323.25 341.748 325.915 338.039"/>
  <polyline class="cls-3" points="338.168 180.295 324.156 186.873 325.075 182.433 338.168 176.194 338.168 180.295"/>
  <path class="cls-3" d="M122.908,514.879c-2.349,4.227-5.132,8.848-6.695,13.396h35.866s128.15-155.973,128.15-155.973c38.528-13.661,80.494-21.601,118.858-35.14,26.604-9.389,32.515-22.798,39.13-49.12,29.124-15.019,60.604-27.11,89.596-42.169,2.031-1.055,7.307-2.838,5.883-5.597l-98.347,45.853-5.907,18.229c-4.522-4.506-14.706-7.501-18.664-11.929-4.227-4.728-7.143-17.53-10.508-23.455-.934-1.645-3.1-3.774-4.782-4.784,1.675,9.375,7.465,17.397,9.554,26.791-.228.287-5.403-4.14-5.746-4.558-2.729-3.32-5.892-14.535-9.547-14.578-2.27,4.704,5.728,12.904,5.356,16.747-.348,3.593-10.628,12.495-14.061,14.252l-105.104,30.712,5.082,3.143,104.154-27.808c7.026-2.525,8.993-8.488,17.007-4.514,2.895-2.251,5.805-4.819,6.713-8.607l17.741,11.469c.645.739-.313,1.297-.544,1.922-.987,2.675-3.923,8.943-5.738,10.525-4.817,4.197-12.348,8.577-17.657,12.476l-110.037,32.484c-1.251-1.724,2.625-4.662,3.858-5.708,8.356-7.092,19.223-12.439,27.236-20.115-.166-.047-1.251-2.409-2.869-1.914-8.139,7.093-20.334,12.231-28.194,19.156-7.191,6.336-7.577,12.592-19.58,13.901l-120.754,150.444-27.536.2c-.171-.127,1.733-3.648,1.913-3.818-.501-1.755-2.157-2.075-3.826-1.914Z"/>
  <path class="cls-3" d="M399.312,52.732l-3.821,6.692c1.889.545,3.324-.612,4.777-.951,7.904-1.848,15.892-2.682,23.906-3.821l-27.814,103.831c3.086,2.644,6.074,7.381,10.601,5.23l-2.701-4.979,26.609-109.823c-10.385,1.077-21.321,1.892-31.557,3.822Z"/>
  <path class="cls-3" d="M159.252,363.7c-1.741-.212-3.801-2.362-5.773.45l-60.209,89.029c-.21,1.603-.085,1.527,1.419,1.432,3.971-.251,8.143-1.887,11.96-2.883l1.921-3.329-.964-.498c-1.603.43-4.298,1.622-5.734.483,2.058-3.003,3.926-4.203,6.69-6.224,17.562-24.069,36.799-47.36,53.559-71.762-.052-.31.069-.657,0-.957-.293-1.266-2.455-4.076-2.869-5.741Z"/>
  <path class="cls-3" d="M255.85,190.515c1.184-3.642,3.359-9.29,4.782-13.396,1.417-4.089,9.983-6.912,14.346-8.611v-2.87c-4.576,2.019-16.852,6.294-19.571,9.604-.843,1.026-5.325,10.105-5.304,11.015.066,2.754,4.299,3.222,5.747,4.259Z"/>
  <path class="cls-3" d="M230.983,245.054l-1.905.956c.17-2.187-1.186-10.255-4.297-9.564l-7.2,15.773c.179,2.321,12.385-2.111,13.401-2.381l.956-4.293-.956-.491Z"/>
  <path class="cls-3" d="M214.041,358.244l-79.656,145.143,3.167-1.165,86.725-134.233c.32-2.35-.64-1.163-1.968-1.018-3.473.378-6.883,1.773-10.454,1.503l6.69-10.998-4.504.768Z"/>
  <path class="cls-3" d="M391.675,66.13l-79.396,134.901c2.54.554,2.098-.194,3.162-1.18,7.699-7.132,9.865-17.731,22.728-19.555l56.338-112.739-2.832-1.426Z"/>
  <path class="cls-3" d="M165.947,163.733l73.672,72.283,35.355-12.028-.486-1.912c-6.058.753-28.732,9.141-32.959,7.189l-61.193-59.365-14.389-6.167Z"/>
  <path class="cls-3" d="M66.48,337.876c.366,1.913,2.02,1.565,3.35,1.901,29.568,7.465,65.472,8.377,94.243,16.708,4.462,1.292,7.754,4.485,12.073,6.042l20.403-9.367c.065-1.6.502-2.097-1.382-1.868-4.405.536-15.029,5.734-18.078,5.462-2.693-.24-9.072-5.269-12.821-5.247l-97.787-13.631Z"/>
  <polygon class="cls-3" points="334.368 340.833 334.739 343.592 399.118 324.755 409.833 317.782 334.368 340.833"/>
  <path class="cls-3" d="M449.049,252.72c.591,2.089,2.426,1.961,4.166,1.858,16.865-.996,63.661-18.459,79.688-26.577,6.998-3.545,13.002-7.421,18.505-13.062,2.554-2.618,14.392-17.551,14.298-20.125-.022-.611-1.483-1.862-2.863-.97-1.661,1.074-7.314,10.784-9.576,13.386-15.578,17.921-56.75,32.002-79.579,39.033-8.078,2.488-16.524,4.096-24.639,6.457Z"/>
  <path class="cls-3" d="M404.093,263.243c-1.668,1.632,5.858,4.138,6.684,4.311,7.094,1.483,28.691-1.216,36.719-2.522,1.197-.195,8.259-1.814,8.255-2.277-18.35-.992-17.066-.32-25.349-.395-4.375-.04-9.886-2.19-14.347-2.081-4.23.104-7.778,2.747-11.962,2.964Z"/>
  <path class="cls-10" d="M105.693,533.059l86.077-153.082c-.9-.706-9.76,2.391-10.567,4.25l-58.879,69.311-44.367,10.622,65.989-103.316-108.071-21.05,27.254-10.538,95.691,9.137c1.931-.207,9.413-6.149,10.806-7.847,1.115-1.359,10.231-17.146,10.405-18.179.283-1.68-1.528-5.126-1.64-7.521-.943-20.014,5.466-37.506,24.332-46.44l15.682-28.997-68.712-70.449,29.707-17.699,3.031-.338,60.539,41.019,8.803-11.547,37.545-17.189-4.817,55.807c3.095,3.238,7.171-1.042,10.837-1.474l97.787-157.644,45.397-8.637-25.411,117.732c1.85,2.613,15.333-3.484,18.723-4.349,30.972-7.903,40.007.796,67.539,6.098,22.602,4.352,103.823-6.091,89.358,38.918-8.189,25.48-37.484,23.862-47.623,46.383l-95.648,47.095c-4.427,11.642-6.998,24.356-15.041,34.233-9.156,11.243-22.043,13.974-35.159,18.409-37.834,12.791-76.504,23.365-114.262,36.395l-122.183,149.967c-2.131,3.479-4.358.948-5.783.921-15.768-.297-31.581.22-47.343,0ZM396.368,53.353l-91.697,155.609-24.911,10.248,2.835-3.408-.958-1.807-100.381-66.997-22.942,12.42,74.635,74.581c.624.61-1.009,7.404-1.965,11.055l-1.905.956c.17-2.187-1.186-10.255-4.297-9.564l-7.2,15.773c.179,2.321,12.385-2.111,13.401-2.381,2.734-.727,7.193-2.596,9.108-2.865,1.876-.264,1.494.36,1.414,1.898-10.527,4.184-23.24,8.603-32.809,14.552-12.247,7.614-21.359,22.654-22.655,37.122l4.964-10.806,4.58-5.455c-2.932,6.564-2.75,12.195,1.505,18.118,2.73,3.8,10.002,8.448,8.625.997-1.552-8.402-5.19-11.859-2.771-21.808.767-3.156,6.139-12.117,8.414-14.547,2.727-2.913,8.396-6.229,11.967-6.207-14.298,9.572-17.934,27.853-10.552,43.145,13.409-4.207,28.55-8.001,42.619-9.154,1.047-.086,4.443-.776,4.275.926l-61.877,18.954-27.058,24.599,41.115,8.117-11.913,1.94-134.14-15.987-11.742,4.503,107.127,21.5,10.499,6.226c-4.139-.673-8.257-1.397-12.428-1.904-1.741-.212-3.801-2.362-5.773.45l-60.209,89.029c-.21,1.603-.085,1.527,1.419,1.432,3.971-.251,8.143-1.887,11.96-2.883,2.47-.645,5.201-.641,7.669-1.421l66.442-72.265c3.444-2.756,10.684-2.45,13.844-4.329,1.503-.894,1.75-2.855,2.961-3.736.776-.565,7.245-2.723,7.594-2.44-26.776,49.457-54.939,98.188-82.251,147.342-2.349,4.227-5.132,8.848-6.695,13.396h35.866s128.15-155.973,128.15-155.973c38.528-13.661,80.494-21.601,118.858-35.14,26.604-9.389,32.515-22.798,39.13-49.12,29.124-15.019,60.604-27.11,89.596-42.169,2.031-1.055,7.307-2.838,5.883-5.597l-98.347,45.853-5.907,18.229c-4.522-4.506-14.706-7.501-18.664-11.929-4.227-4.728-7.143-17.53-10.508-23.455.572-1.915,2.867-.003,3.838.467,1.883.911,4.581,2.76,6.42,3.142,4.659.968,31.078-1.766,36.859-2.878,6.857-1.319,14.542-5.636,21.747-6.482,1.464-1.359-.117-1.731-1.429-1.896-4.291-.538-8.999-.482-13.275-1.086-1.215-.171-5.204-.382-5.377-1.783,24.137-2.849,48.318-11.09,70.465-20.887,21.509-9.515,44.039-21.745,50.51-46.138-4.42-2.249-2.666-8.721-7.159-9.55l-.003-1.409c7.055-4.319,2.751-6.594-3.066-8.427-17.677-5.57-39.5-1.773-57.552-3.66-13.352-1.396-27.686-9.462-42.158-10.449-24.329-1.66-71.838,17.27-83.927,39.555-6.283,11.582,3.745,25.291,11.669,33.691l-7.646-2.387c6.193,10.145,17.701,16.94,28.685,21.053l-8.106.928-17.709-3.801c6.056,6.686,15.919,10.206,24.862,10.525l-13.39,2.869c-.301.335.796,2.898.961,3.819,1.675,9.375,7.465,17.397,9.554,26.791-.228.287-5.403-4.14-5.746-4.558-2.729-3.32-5.892-14.535-9.547-14.578l-104.245,27.738,65.757-21.692,6.921-7.486c-19.105.558-37.716,6.247-55.978,11.711l-1.399-1.648,30.527-13.962,4.839-5.666c-.903-1.384-1.843-1.318-3.281-1.482-6.612-.754-21.847,4.078-29.218,5.789-4.51,1.047-8.971,2.766-13.39,3.827-17.058,4.096-34.278,7.597-51.155,12.453l-.048-2.92,36.852-14.307-40.158,7.65-.577-3.863,105.787-36.797.946-1.436c-4.15-.051-7.577-1.404-11.876-.885-17.569,2.123-40.48,13.691-58.65,16.916-1.35.24-3.533,1.157-3.109-1.195l81.284-26.341-1.268-1.753c-12.739,3.278-25.589,7.79-38.477,10.364-1.448.289-1.816,1.71-3.286-.468,13.613-6.666,30.713-6.929,42.077-17.687l-102.336,36.34.953-1.428,122.424-47.36c1.142-.249.808-1.756.956-1.914.303-.321.697-.604.956-.957,1.287-1.746,1.869-3.376,2.869-4.784,2.01-2.83,4.398-5.518,6.69-8.138l-1.407-.455-66.022,26.767c-.645.208-.694-.908-.464-1.416.447-.986,13.822-14.212,15.357-15.26,4.849-3.311,12.199-4.594,17.464-7.406,7.15-3.819,13.213-10.084,20.177-14.26l28.912-65.022c1.367.152,3.762-.821,3.101,1.352l-18.111,56.568c.209,1.729,10.689,8.252,12.461,8.733,2.074.562,2.921-1.503,4.792-1.568l-11.491-8.987,27.83-89.924-13.862-7.211.394-3.902c7.904-1.848,15.892-2.682,23.906-3.821l-27.814,103.831c3.086,2.644,6.074,7.381,10.601,5.23l-2.701-4.979,26.609-109.823c-10.385,1.077-21.321,1.892-31.557,3.822-.9.17-2.242-.574-2.944.621ZM255.407,175.241c-.843,1.026-5.325,10.105-5.304,11.015.066,2.754,4.299,3.222,5.747,4.259,1.456,1.043,11.185,8.936,12.428,7.655l2.87-22.965-10.516,1.914c1.417-4.089,9.983-6.912,14.346-8.611.906-.353,1.983-.419,2.86-.957l-3.338,35.379c.744.858,1.567,2.162,2.855,1.931,2.143-.384,4.312-37.88,6.246-42.559-2.668-.583-6.044,2.197-8.623,3.335-4.576,2.019-16.852,6.294-19.571,9.604Z"/>
  <path class="cls-10" d="M374.446,188.601c-1.634-2.471-.394-1.745-2.522-1.137-3.3.942-7.691,2.946-11.106,4.248-37.168,14.17-73.536,30.579-110.708,44.741l1.322,1.805,120.144-44.872c1.287-1.746,1.869-3.376,2.869-4.784Z"/>
  <line class="cls-11" x1="290.281" y1="268.975" x2="292.194" y2="269.931"/>
  <path class="cls-11" d="M304.627,268.018c-.061-1.02-.472-1.987-.956-2.87"/>
  <path class="cls-4" d="M369.664,196.256c1.142-.249.808-1.756.956-1.914l-.956,1.914Z"/>
  <path class="cls-10" d="M126.734,516.793c-.18.17-2.084,3.69-1.913,3.818l27.536-.2,120.754-150.444c12.004-1.308,12.389-7.565,19.58-13.901,7.86-6.925,20.056-12.063,28.194-19.156l.963-1.905c-1.068-.19-1.911.123-2.896.448-5.253,1.736-25.8,12.345-30.318,15.597-3.903,2.809-6.761,10.13-9.873,12.129-3.366,2.162-10.001,1.687-13.387,4.787l-108.949,134.995c-5.647,6.411-24.578,9.008-29.691,13.832Z"/>
  <path class="cls-10" d="M217.594,364.648l16.29-2.445,1.688,12.295-43.791,73.899,1.41,1.411,64.53-84.713c4.165-3.814,10.697-1.756,15.703-4.384,4.268-2.24,9.236-12.096,14.051-15.605,5.512-4.018,14.772-6.933,21.004-10.599,1.238-.728,2.411.168,1.881-2.377l-85.682,22.871-7.083,9.648Z"/>
  <path class="cls-10" d="M420.354,319.686c-.582-1.923-2.86.005-3.839.467-26.821,12.67-55.582,18.512-83.798,27.268l-6.593-2.875.492-6.68c-.24-.307-2.096,1.175-2.86.956-8.014,7.675-18.88,13.023-27.236,20.115-1.233,1.047-5.109,3.984-3.858,5.708l110.037-32.484c5.309-3.899,12.84-8.279,17.657-12.476Z"/>
  <path class="cls-10" d="M281.011,314.247c-1.883,1.596-8.558,12.001-10.447,14.897-.531.814-2.35,2.126-.853,2.974,6.196-3.341,10.191-11.449,16.464-14.147,24.796-10.665,57.023-15.179,82.484-25.602l12.474-1.376-14.563-3.661c-20.807,9.503-69.205,13.049-85.559,26.914Z"/>
  <path class="cls-10" d="M108.562,442.16c-2.764,2.021-4.632,3.221-6.69,6.224,1.436,1.139,4.131-.053,5.734-.483,2.181-.585,7.492-2.439,9.109-3.804l58.792-64.614-9.597,2.838c-17.368,17.505-33.185,38.363-50.627,55.559-2.983,2.941-4.748,2.838-6.72,4.28Z"/>
  <path class="cls-10" d="M426.092,309.161c.231-.625,1.188-1.183.544-1.922l-17.741-11.469c-.908,3.787-3.818,6.355-6.713,8.607-2.912,2.265-8.81,5.896-12.165,7.444-17.197,7.937-38.898,12.177-56.694,19.359.458,1.866,2.393,2.206,4.047,1.731,18.12-6.784,38.816-10.137,56.703-17.032,5.151-1.986,19.074-10.99,22.689-10.388,2.786.464,5.865,4.13,9.331,3.67Z"/>
  <path class="cls-10" d="M162.121,369.441c.069.3-.052.647,0,.957l3.457,5.818c15.363-4.897,34.48-8.205,43.407-23.031-2.309-1.884-33.126,19.386-41.361,18.006-1.686-.282-4.243-3.278-5.503-1.75Z"/>
  <path class="cls-10" d="M215.681,198.179l29.718,26.317,16.183-1.46-13.635-4.043c-10.491-7.415-19.583-17.017-32.266-20.814Z"/>
  <path class="cls-10" d="M219.512,325.423c6.745.369,5.23-10.609,8.633-12.882,11.221-4.05,24.196-6.422,35.168-10.789,1.456-.579,2.584.552,2.097-2.153-14.988,1.035-28.793,6.888-43.034,10.998l-2.864,14.826Z"/>
  <polygon class="cls-3" points="460.704 164.257 438.525 166.377 423.913 170.813 405.613 180.945 389.166 195.299 390.324 202.831 396.765 210.982 398.2 215.313 449.049 222.702 454.258 221.543 497.833 189.711 501.514 182.444 501.514 177.913 463.987 165.254 460.704 164.257"/>
  <path class="cls-10" d="M389.334,192.49c10.244-12.245,35.955-26.287,51.683-28.666,16.233-2.455,28.556.369,43.669,5.867,2.818,1.025,18.162,7.411,18.716,9.016.589,1.707.394,5.281-.34,7.007-2.941,6.916-42.001,36.6-49.775,39.198-1.434.479-2.92.916-4.458.742l-55.04-10.478c-1.454-7.48-10.084-15.956-4.455-22.686ZM443.318,195.294l2.847-6.685,6.234,13.384,2.391-14.343,9.549,7.65-2.854-19.132c.835-.933,16.648,9.847,18.663,10.507,1.439.471,1.512.03,1.259-1.247-.631-3.193-1.231-5.943-.794-9.26l18.165,4.77c-1.317-2.025-4.781-2.996-7.014-3.977-7.769-3.413-23.718-9.305-31.8-10.285-5.583-.677-10.917-.12-16.978.833-1.135.269-1.301,2.862-1.592,3.869-2.396,8.275,1.234,15.516,1.923,23.915ZM404.084,184.289c-2.156,1.824-11.826,11.659-12.286,13.611-.908,3.844,5.174,8.941,7.998,10.79l.483-5.736,6.675,5.74-1.894-11.481,10.038,10.519-.514-10.277c1.43,1.214,1.652,1.302,2.22,1.939,2.104,2.362,3.728,5.657,6.41,7.386l-2.85-16.266,11.95,14.347-.478-9.558,6.689,3.813c-3.23-9.516-5.416-19.703-2.872-29.645-1.287-1.125-18.77,6.367-21.397,7.763-2.562,1.362-3.543,2.337-5.677,3.477-1.826.975-2.341,1.753-4.496,3.577ZM458.133,195.318l-4.777,13.372-6.211-7.649c-2.49,6.847,3.016,14.295,8.645,17.801,6.306-3.774,41.949-29.46,42.044-34.537l-14.352-3.36-.493,10.537-14.814-6.708v17.223s-10.042-6.679-10.042-6.679ZM426.097,202.959l.942,10.52-8.125-6.693-.483,5.736-8.593-5.736.047,7.601,36.291,5.779c-2.529-2.664-6.087-15.415-8.144-16.247-2.849-1.152-1.64,6.771-3.333,7.645-.72-.754-.979-1.14-1.913-1.914.399-1.863-5.721-7.759-6.69-6.693ZM402.177,213.484l4.787-.015c-.308-.835-3.629-6.116-4.777-4.769l-.01,4.784Z"/>
  <path class="cls-10" d="M448.09,245.064c.425,1.077,2.329,3.319,3.316,3.457,1.187.166,20.747-4.138,23.47-4.895,17.34-4.823,53.636-20.04,67.4-31.125,3.01-2.424,19.505-20.066,19.475-22.472-.007-.566-2.439-3.172-3.694-1.973-25.098,34.111-69.889,49.064-109.966,57.009Z"/>
  <path class="cls-10" d="M399.32,220.18c-.701,2.499,2.331,2.517,4.033,3.118,9.471,3.343,33.442,10.97,42.601,11.952,6.489.696,10.262-.791,15.438-4.158,14.726-9.576,28.019-22.479,42.17-32.913-1.753-.407-2.648.59-3.96,1.291-16.233,8.68-30.918,25.483-48.625,31.805l-51.657-11.095Z"/>
  <path class="cls-10" d="M503.562,175.215c4.786,4.806,3.737,9.971-.956,14.333,5.85,1.386,8.366-6.52,10.217-7.47,6.819-3.498,28.451-3.879,35.907-1.827,4.125,1.135,5.498,3.771,9.347,4.513-1.315-2.383-1.279-4.294,0-6.679-10.014.091-19.037-2.405-29.216-1.97-5.105.218-12.62,2.515-17.187,2.031-3.207-.34-4.738-3.344-8.112-2.931Z"/>
  <path class="cls-10" d="M414.621,178.081l1.898,13.391-4.762-3.827c-.496,1.066-1.042,6.668-1.431,8.603l-8.133-7.646-.02,7.654-4.767-2.865c-1.462,6.503-.035,8.602.488,10.511l1.43-5.731,4.762,4.779.02-9.563,8.125,7.649.483-8.606,6.675,5.74-2.85-16.265,13.863,16.261.483-7.649,4.772,1.904c-.542-3.946-2.841-4.335-6.206-5.741l-.962,5.746c-2.258-.736-12.136-16.284-13.867-14.343Z"/>
  <path class="cls-10" d="M455.747,168.512l1.898,13.391-5.717-3.825-.978,8.609-6.207-8.592c-2.232,2.076-2.477,4.932-1.422,7.628l.954-2.863,6.697,11.474,1.906-11.47,7.636,4.779-1.893-16.266,20.07,10.52-.997-8.581-2.821-.027-.472,2.865-18.653-7.643Z"/>
  <polygon class="cls-10" points="214.822 325.432 217.582 312.515 200.147 317.783 179.362 337.876 205.854 341.748 204.495 337.876 203.137 327.131 214.822 325.432"/>
  <polygon class="cls-10" points="261.583 333.104 217.582 345.45 213.117 332.119 226.259 332.119 227.594 334.947 261.583 333.104"/>
  <polygon class="cls-10" points="380.089 273.945 276.781 303.09 279.051 299.598 381.133 267.987 380.089 273.945"/>
  <polygon class="cls-10" points="282.352 207.705 237.27 178.076 234.388 181.21 280.993 212.565 282.352 207.705"/>
  <polygon class="cls-10" points="299.88 204.889 283.601 211.337 285.205 213.684 301.646 207.705 299.88 204.889"/>
  <polygon class="cls-10" points="172.547 515.287 156.939 534.621 104.627 534.621 109.369 526.52 113.459 530.816 151.64 532.039 169.44 514.104 172.547 515.287"/>
  <polygon class="cls-10" points="229.078 246.01 149.694 158.957 174.693 178.809 231.939 238.258 229.078 246.01"/>
</svg>